<?xml version="1.0" standalone="no"?>
<!DOCTYPE svg PUBLIC "-//W3C//DTD SVG 1.1//EN" "http://www.w3.org/Graphics/SVG/1.1/DTD/svg11.dtd" >
<svg>
<metadata>
Created by FontForge 20110222 at Tue Oct  1 20:41:05 2013
 By Orthosie Webhosting
Copyright (c) 2006 Parachute :, www.parachute.gr.  All rights reserved.
</metadata>
<defs>
<font id="PFAgoraSlabProUltraBlack" horiz-adv-x="1818" >
  <font-face 
    font-family="PFAgoraSlabProUltraBlack"
    font-weight="1000"
    font-stretch="normal"
    units-per-em="1000"
    panose-1="2 0 5 7 0 0 0 2 0 3"
    ascent="750"
    descent="-250"
    x-height="494"
    cap-height="693"
    bbox="-494 -351 1760 1033"
    underline-thickness="20"
    underline-position="-123"
    unicode-range="U+0020-FB05"
  />
<missing-glyph horiz-adv-x="460" 
d="M0 690h458v-690h-458v690zM322 94l-93 164l-92 -164h185zM322 596h-187l94 -162zM95 196l82 150l-82 151v-301zM363 196v300l-82 -152z" />
    <glyph glyph-name="fj" unicode="fj" horiz-adv-x="786" 
d="M53 143h56v210h-74v125l75 23v31q0 33 7 72t33.5 73.5t78 57.5t141.5 23q16 0 43 -1t60.5 -5t72 -10.5t78.5 -18.5l-29 -160q-59 9 -95 12.5t-68 3.5q-44 0 -68 -14t-24 -53v-17h376v-385q0 -82 -18 -142t-56 -102t-96.5 -67.5t-139.5 -38.5l-54 139q43 25 68 43.5
t37.5 40.5t16 51.5t3.5 75.5v243h-137v-210h59v-143h-346v143z" />
    <glyph glyph-name="ffj" unicode="ffj" horiz-adv-x="1158" 
d="M53 143h56v210h-74v125l75 23v27q0 33 8 69t35 66.5t78.5 50.5t138.5 20q29 0 73.5 -3.5t99.5 -20.5q29 26 76.5 42t122.5 16q16 0 43 -1t60.5 -5t72 -10.5t78.5 -18.5l-29 -160q-59 9 -95 12.5t-68 3.5q-44 0 -68 -14t-24 -53v-27h376v-385q0 -82 -18 -142t-56 -102
t-96.5 -67.5t-139.5 -38.5l-54 139q43 25 68 43.5t37.5 40.5t16 51.5t3.5 75.5v243h-137v-210h59v-143h-336v143h46v210h-141v-210h49v-143h-336v143zM410 562q-35 0 -52.5 -10.5t-17.5 -40.5v-17h63v1h79v60q-18 3 -36.5 5t-35.5 2z" />
    <glyph glyph-name="ff" unicode="ff" horiz-adv-x="913" 
d="M437 143h43v210h-140v-210h39v-143h-326v143h56v210h-74v125l75 23v27q0 33 8 69t35 66.5t78.5 50.5t138.5 20q29 0 71 -3t96 -19q26 20 67.5 32.5t106.5 12.5q16 0 38.5 -1.5t47.5 -4.5t51 -8t50 -12l-32 -155q-25 5 -51.5 8t-44.5 3q-27 0 -43 -8.5t-16 -30.5v-54h139
v-141h-139v-210h69v-143h-343v143zM410 562q-35 0 -52.5 -10.5t-17.5 -40.5v-17h141v61q-18 3 -36 5t-35 2z" />
    <glyph glyph-name="fi" unicode="fi" horiz-adv-x="824" 
d="M717 153h67v-139q-35 -14 -78.5 -21t-78.5 -7q-43 0 -71.5 8.5t-46 25t-24.5 40.5t-7 55l-1 238h-137v-210h59v-143h-346v143h56v210h-74v125l75 23v31q0 33 7 72t33.5 73.5t78 57.5t141.5 23q16 0 43 -1t60.5 -5t72 -10.5t78.5 -18.5l-29 -160q-59 9 -95 12.5t-68 3.5
q-44 0 -68 -14t-24 -53v-17h376z" />
    <glyph glyph-name="fl" unicode="fl" horiz-adv-x="825" 
d="M726 143h59v-143h-345v143h48v433q-16 2 -29 2.5t-27 0.5q-44 0 -68 -14t-24 -53v-17h103v-142h-103v-210h49v-143h-336v143h56v210h-74v125l75 23v31q0 33 7 72t33.5 73.5t78 57.5t141.5 23q23 0 65.5 -2.5t96.5 -11.5l194 18v-619z" />
    <glyph glyph-name="ffi" unicode="ffi" horiz-adv-x="1196" 
d="M712 353v-210h59v-143h-338v143h48v210h-141v-210h47v-143h-334v143h56v210h-74v125l75 23v27q0 33 8 69t35 66.5t78.5 50.5t138.5 20q29 0 73.5 -3.5t99.5 -20.5q29 26 76.5 42t122.5 16q16 0 43 -1t60.5 -5t72 -10.5t78.5 -18.5l-29 -160q-59 9 -95 12.5t-68 3.5
q-44 0 -68 -14t-24 -53v-27h376l1 -342h67v-139q-35 -14 -78.5 -21t-78.5 -7q-43 0 -71.5 8.5t-46 25t-24.5 40.5t-7 55v238h-138zM410 562q-35 0 -52.5 -10.5t-17.5 -40.5v-17h63v1h79v60q-18 3 -36.5 5t-35.5 2z" />
    <glyph glyph-name="ffl" unicode="ffl" horiz-adv-x="1196" 
d="M1098 143h59v-143h-345v143h48v443q-16 2 -29 2.5t-27 0.5q-44 0 -68 -14t-24 -53v-27h103v-142h-103v-210h49v-143h-331v143h51v210h-141v-210h44v-143h-331v143h56v210h-74v125l75 23v27q0 33 8 69t35 66.5t78.5 50.5t138.5 20q29 0 73.5 -3.5t99.5 -20.5
q29 26 76.5 42t122.5 16q23 0 65.5 -2.5t96.5 -11.5l194 18v-629zM410 562q-35 0 -52.5 -10.5t-17.5 -40.5v-17l142 1v60q-18 3 -36.5 5t-35.5 2z" />
    <glyph glyph-name="ft" unicode="ft" horiz-adv-x="914" 
d="M53 143h56v210h-74v125l75 23v57q0 33 6 67.5t29.5 63t69 47t125.5 18.5q16 0 38.5 -1.5t47.5 -4.5t51 -8t50 -12l-32 -155q-25 5 -51.5 8t-44.5 3q-27 0 -43 -8.5t-16 -30.5v-51h167l52 145l158 12v-156h136v-142h-136v-120q0 -26 3.5 -40.5t12 -22.5t21.5 -10t32 -2
q8 0 28.5 2t42.5 5l24 -149q-19 -8 -41 -13t-44 -9t-43 -5.5t-37 -1.5q-81 0 -127.5 19t-70 47t-29.5 60.5t-6 60.5v179h-143v-210h69v-143h-356v143z" />
    <glyph glyph-name=".notdef" horiz-adv-x="460" 
d="M0 690h458v-690h-458v690zM322 94l-93 164l-92 -164h185zM322 596h-187l94 -162zM95 196l82 150l-82 151v-301zM363 196v300l-82 -152z" />
    <glyph glyph-name=".null" horiz-adv-x="0" 
 />
    <glyph glyph-name="nonmarkingreturn" horiz-adv-x="333" 
 />
    <glyph glyph-name="space" unicode=" " horiz-adv-x="338" 
 />
    <glyph glyph-name="exclam" unicode="!" horiz-adv-x="377" 
d="M296 720v-213l-20 -277h-175l-20 277v213h215zM189 190q51 0 80.5 -30t29.5 -74q0 -20 -8 -38.5t-22.5 -32.5t-34.5 -22.5t-45 -8.5q-26 0 -46.5 8.5t-34.5 22.5t-21.5 32.5t-7.5 38.5q0 21 8 40t22.5 33t34.5 22.5t45 8.5z" />
    <glyph glyph-name="quotedbl" unicode="&#x22;" horiz-adv-x="515" 
d="M87 390l-24 305h183l-26 -305h-133zM300 390l-25 305h183l-26 -305h-132z" />
    <glyph glyph-name="numbersign" unicode="#" horiz-adv-x="675" 
d="M492 370l-19 -69h91l2 -101h-115l-50 -201h-118l48 201h-59l-50 -201h-119l49 201h-74l-1 101h99l20 69h-87l-2 98h113l47 183h117l-45 -183h59l48 183h116l-45 -183h80l2 -98h-107zM296 301h59l19 69h-59z" />
    <glyph glyph-name="dollar" unicode="$" horiz-adv-x="662" 
d="M344 754h50v-74q39 -4 78 -13.5t71 -24.5v-178h-117v60q-11 4 -32 9v-115q34 -10 70 -24.5t65.5 -37t48 -55t18.5 -78.5q0 -86 -53 -141t-149 -70v-90h-50v832zM312 -78h-50v88q-45 5 -92 15t-89 27v187h120v-65q9 -4 25.5 -7t35.5 -5v115q-38 11 -73.5 26.5t-62.5 38
t-43.5 53t-16.5 72.5q0 88 51 145t145 69v73h50v-832zM417 206q0 25 -23 35v-70q13 5 18 14t5 21zM238 489q0 -11 5 -19t19 -13v70q-24 -11 -24 -38z" />
    <glyph glyph-name="percent" unicode="%" horiz-adv-x="1010" 
d="M417 469q0 -45 -11 -83t-35.5 -65.5t-63 -43.5t-93.5 -16t-94 16t-63.5 43.5t-35.5 65.5t-11 83t11 83t35.5 65.5t63.5 43t94 15.5t93.5 -15.5t63 -43t35.5 -65.5t11 -83zM258 469q0 44 -9 70.5t-35 26.5q-27 0 -35.5 -28t-8.5 -69q0 -45 8.5 -71t35.5 -26q26 0 35 25.5
t9 71.5zM398 -18h-129l351 738h130zM992 201q0 -45 -11 -83t-35.5 -65.5t-63 -43.5t-93.5 -16t-94 16t-63.5 43.5t-35.5 65.5t-11 83t11 83t35.5 65.5t63.5 43t94 15.5t93.5 -15.5t63 -43t35.5 -65.5t11 -83zM833 201q0 44 -9 70.5t-35 26.5q-27 0 -35.5 -28t-8.5 -69
q0 -45 8.5 -71t35.5 -26q26 0 35 25.5t9 71.5z" />
    <glyph glyph-name="ampersand" unicode="&#x26;" horiz-adv-x="895" 
d="M347 -20q-59 0 -109 13.5t-86.5 40.5t-57.5 66.5t-21 91.5q0 27 7 55.5t23.5 56t44 52.5t69.5 46q-21 28 -31.5 63t-10.5 68q0 19 7.5 47.5t29 54.5t60 45t101.5 19q69 0 110.5 -20t64 -46.5t29.5 -53t7 -38.5q0 -32 -14 -59t-34 -49.5t-43.5 -39.5t-41.5 -29
q16 -17 30.5 -33.5t31.5 -35.5q17 -16 31 -32t31 -31q10 11 19.5 27t15.5 28h-40v133h277v-133h-54q-14 -38 -37.5 -79.5t-60.5 -82.5q15 -11 32 -23t35 -23.5t35.5 -22t31.5 -17.5l-75 -122q-46 20 -97 50.5t-92 62.5q-89 -50 -218 -50zM389 192q-21 23 -40 43.5t-38 43.5
q-15 -11 -25 -30t-10 -42q0 -36 28.5 -56.5t76.5 -20.5q30 0 59 9zM347 540q0 -11 7 -30.5t18 -36.5q8 5 18 12t18.5 15.5t14.5 18.5t6 21q0 20 -12 29t-31 9q-17 0 -28 -11t-11 -27z" />
    <glyph glyph-name="quotesingle" unicode="'" horiz-adv-x="315" 
d="M87 390l-24 305h183l-26 -305h-133z" />
    <glyph glyph-name="parenleft" unicode="(" horiz-adv-x="410" 
d="M66 271q0 56 13 114t38 114.5t62 110.5t85 102l104 -65q-15 -21 -34 -54t-36.5 -78.5t-29 -104.5t-11.5 -131q0 -78 11.5 -140.5t28.5 -109t36 -78.5t34 -50l-100 -66q-99 97 -150 210.5t-51 225.5z" />
    <glyph glyph-name="parenright" unicode=")" horiz-adv-x="410" 
d="M350 272q0 -112 -51 -225.5t-150 -210.5l-100 66q15 18 33.5 50t35.5 78.5t28.5 109t11.5 140.5q0 72 -11.5 131t-28.5 104.5t-36 78.5t-34 54l104 65q48 -48 85 -102t62 -110.5t38 -114.5t13 -114z" />
    <glyph glyph-name="asterisk" unicode="*" horiz-adv-x="475" 
d="M319 491l93 -85l-116 -84l-53 115l-54 -115l-117 84l94 87l-128 16l44 140l112 -65l-25 123h147l-26 -122l114 64l44 -140z" />
    <glyph glyph-name="plus" unicode="+" horiz-adv-x="662" 
d="M412 247v-175h-127v175h-165v123h165v172h127v-172h164v-123h-164z" />
    <glyph glyph-name="comma" unicode="," horiz-adv-x="349" 
d="M55 111q0 21 8 39.5t23 32.5t36 22.5t47 8.5q31 0 53 -11.5t35 -29.5t19 -41t6 -46q0 -38 -15 -75.5t-39 -69.5t-54.5 -58t-61.5 -41l-57 75q31 24 49 47t23 57q-38 5 -55 29t-17 61z" />
    <glyph glyph-name="hyphen" unicode="-" horiz-adv-x="437" 
d="M68 201v151h301v-151h-301z" />
    <glyph glyph-name="period" unicode="." horiz-adv-x="349" 
d="M287 100q0 -23 -9 -43.5t-24 -35.5t-35.5 -24t-43.5 -9t-44 9t-36.5 24t-24.5 35.5t-9 43.5t9 43.5t24.5 36t36.5 24.5t44 9t43.5 -9t35.5 -24.5t24 -36t9 -43.5z" />
    <glyph glyph-name="slash" unicode="/" horiz-adv-x="434" 
d="M166 -41h-168l263 756h169z" />
    <glyph glyph-name="zero" unicode="0" horiz-adv-x="662" 
d="M643 336q0 -75 -17 -138t-54.5 -109.5t-97 -72.5t-143.5 -26q-85 0 -144.5 26t-97 72.5t-54.5 109.5t-17 138t17 138t54.5 108.5t97 71.5t144.5 26q84 0 143.5 -26t97 -71.5t54.5 -108.5t17 -138zM404 336q0 40 -3.5 73t-12 57t-22.5 37.5t-35 13.5q-22 0 -36 -14.5
t-22.5 -39.5t-12 -58t-3.5 -69q0 -41 3.5 -75t12 -58t22.5 -37.5t36 -13.5q21 0 35 13t22.5 37t12 58t3.5 76z" />
    <glyph glyph-name="one" unicode="1" horiz-adv-x="662" 
d="M80 144h136v349q-32 -3 -68.5 -5.5t-68.5 -5.5l-21 125l190 65h204v-528h143v-144h-515v144z" />
    <glyph glyph-name="two" unicode="2" horiz-adv-x="662" 
d="M358 143h98v53h163v-196h-581v129q58 43 114 85.5t100.5 83t71.5 78.5t27 72q0 10 -2.5 20t-10 17.5t-22 12.5t-38.5 5q-28 0 -71.5 -12t-91.5 -38l-66 143q66 41 134.5 62t137.5 21q64 0 114 -15.5t84 -44.5t52 -69.5t18 -89.5q0 -46 -20.5 -88.5t-53.5 -81.5t-74.5 -75
t-83.5 -67z" />
    <glyph glyph-name="three" unicode="3" horiz-adv-x="662" 
d="M584 672l25 -120l-147 -138q80 -18 118 -67t38 -121q0 -59 -23 -103.5t-63.5 -74t-97 -44.5t-123.5 -15q-15 0 -46 2t-68 8t-75.5 17.5t-69.5 29.5l50 145q58 -20 98 -26t75 -6q51 0 76.5 20t25.5 48q0 12 -3.5 24t-14.5 22t-33.5 16.5t-59.5 6.5h-17t-19 -1l-20 102
l142 130h-104v-50h-161v195h497z" />
    <glyph glyph-name="four" unicode="4" horiz-adv-x="662" 
d="M543 672v-335h98v-146h-98v-48h57v-143h-338v143h50v48h-285v122l256 359h260zM307 447l-75 -110h81l-1 110h-5z" />
    <glyph glyph-name="five" unicode="5" horiz-adv-x="662" 
d="M279 302q-37 0 -89 -20l-105 46l33 344h459v-193h-169v48h-109l-8 -77q14 2 27 3t23 1q131 0 203.5 -58t72.5 -163q0 -59 -23 -104.5t-63.5 -76t-97 -46.5t-123.5 -16q-15 0 -46 2t-68 8t-75.5 17.5t-69.5 29.5l54 153q58 -20 97.5 -27.5t74.5 -7.5q44 0 73 18t29 52
q0 37 -28 52t-72 15z" />
    <glyph glyph-name="six" unicode="6" horiz-adv-x="662" 
d="M276 403q38 20 73 25t58 5q42 0 80.5 -13.5t68 -40t47 -65.5t17.5 -90q0 -59 -21 -103t-58.5 -73t-88 -44t-110.5 -15q-80 0 -137.5 23t-94.5 63.5t-54.5 97t-17.5 124.5q0 75 16.5 144t56.5 121.5t106.5 84t166.5 31.5q52 0 91 -6t69 -14l-27 -154q-37 8 -66.5 10.5
t-46.5 2.5q-63 0 -94.5 -29.5t-37.5 -80.5zM396 224q0 24 -10 43t-44 19q-14 0 -31 -6.5t-35 -16.5v-15q0 -41 14.5 -65.5t49.5 -24.5q24 0 40 17t16 49z" />
    <glyph glyph-name="seven" unicode="7" horiz-adv-x="662" 
d="M85 444v228h508v-135l-251 -537h-227l242 527h-102v-83h-170z" />
    <glyph glyph-name="eight" unicode="8" horiz-adv-x="662" 
d="M283 485q0 -12 6.5 -20.5t18 -15.5t27 -13.5t32.5 -13.5q18 18 24.5 33.5t6.5 27.5q0 20 -14.5 32.5t-45.5 12.5q-26 0 -40.5 -14t-14.5 -29zM332 161q16 0 27 5.5t17.5 13t10 15.5t3.5 13q1 9 -1 18t-11 18t-26 18.5t-46 19.5q-22 -20 -29.5 -36.5t-7.5 -35.5t16 -34
t47 -15zM606 493q0 -30 -16 -69t-59 -73q49 -26 73 -63.5t24 -92.5q0 -44 -21.5 -81.5t-60.5 -64.5t-94 -42.5t-122 -15.5q-68 0 -123 13.5t-93.5 39.5t-59 63.5t-20.5 84.5q0 19 5.5 41t17.5 45t32 45.5t49 41.5q-33 23 -50.5 52t-17.5 71q0 43 20 79t55.5 62t84.5 40
t107 14q45 0 92.5 -10t87 -32.5t64.5 -59t25 -88.5z" />
    <glyph glyph-name="nine" unicode="9" horiz-adv-x="662" 
d="M383 264q-36 -19 -72.5 -25t-57.5 -6q-45 0 -84.5 14t-68 41t-45 66.5t-16.5 89.5q0 59 21.5 103t59 73.5t89 44t110.5 14.5q79 0 136.5 -22.5t94 -63.5t54 -98t17.5 -125q0 -75 -16.5 -144t-56.5 -122t-106.5 -84.5t-166.5 -31.5q-52 0 -90 6.5t-69 15.5l25 152
q34 -6 64 -9t51 -3q63 0 94 30t38 81zM263 444q0 -12 2 -23t8 -20t16.5 -14.5t27.5 -5.5q14 0 31.5 6.5t34.5 17.5q0 2 0.5 4t0.5 10q0 42 -14.5 67t-50.5 25q-24 0 -40 -17.5t-16 -49.5z" />
    <glyph glyph-name="colon" unicode=":" horiz-adv-x="349" 
d="M287 100q0 -23 -9 -43.5t-24 -35.5t-35.5 -24t-43.5 -9t-44 9t-36.5 24t-24.5 35.5t-9 43.5t9 43.5t24.5 36t36.5 24.5t44 9t43.5 -9t35.5 -24.5t24 -36t9 -43.5zM287 370q0 -23 -9 -43.5t-24 -35.5t-35.5 -23.5t-43.5 -8.5t-44 8.5t-36.5 23.5t-24.5 35.5t-9 43.5t9 44
t24.5 36.5t36.5 24.5t44 9t43.5 -9t35.5 -24.5t24 -36.5t9 -44z" />
    <glyph glyph-name="semicolon" unicode=";" horiz-adv-x="349" 
d="M287 370q0 -23 -9 -43.5t-24 -35.5t-35.5 -23.5t-43.5 -8.5t-44 8.5t-36.5 23.5t-24.5 35.5t-9 43.5t9 44t24.5 36.5t36.5 24.5t44 9t43.5 -9t35.5 -24.5t24 -36.5t9 -44zM61 111q0 21 8 39.5t22.5 32.5t35.5 22.5t47 8.5q31 0 53 -11.5t35.5 -29.5t19.5 -41t6 -46
q0 -38 -15 -75.5t-39 -69.5t-54.5 -58t-61.5 -41l-57 75q32 24 49.5 47t22.5 57q-38 5 -55 29t-17 61z" />
    <glyph glyph-name="less" unicode="&#x3c;" horiz-adv-x="662" 
d="M590 6l-523 242v106l523 245v-153l-331 -144q83 -36 166 -73t165 -72v-151z" />
    <glyph glyph-name="equal" unicode="=" horiz-adv-x="662" 
d="M101 333v119h460v-119h-460zM101 146v118h460v-118h-460z" />
    <glyph glyph-name="greater" unicode="&#x3e;" horiz-adv-x="662" 
d="M68 157l330 145q-82 36 -165 71.5t-165 72.5v153l523 -245v-106l-523 -242v151z" />
    <glyph glyph-name="question" unicode="?" horiz-adv-x="587" 
d="M302 718q62 0 110 -15t80.5 -42t49 -64.5t16.5 -82.5q0 -36 -13.5 -64.5t-34.5 -52.5t-44.5 -45t-44.5 -41t-34.5 -41t-13.5 -46v-14h-191v48q0 52 19.5 85t43.5 57.5t43.5 45.5t19.5 49q0 25 -17 40.5t-51 15.5q-10 0 -19 -0.5t-18 -1.5l-1 -68h-154v191q76 29 141 37.5
t113 8.5zM287 186q22 0 42 -8t34.5 -21.5t23 -32.5t8.5 -40q0 -20 -8.5 -38t-23 -32t-34.5 -22t-42 -8q-23 0 -42.5 8t-34 22t-23 32t-8.5 38q0 21 8.5 39.5t23 32.5t34 22t42.5 8z" />
    <glyph glyph-name="at" unicode="@" horiz-adv-x="996" 
d="M515 723q90 0 160.5 -24.5t120 -69.5t75.5 -109t26 -142q0 -51 -16.5 -92t-46.5 -69.5t-71.5 -44t-92.5 -15.5q-19 0 -40.5 4.5t-41 13.5t-34.5 23.5t-21 35.5q-26 -33 -60 -45.5t-57 -12.5q-36 0 -58 11t-34.5 26.5t-17 34t-4.5 33.5q0 12 2.5 27t12.5 29t29 24.5
t51 15.5l117 13v6q0 17 -6.5 25t-37.5 8q-24 0 -48.5 -3.5t-46.5 -8.5l-20 93q33 13 72 20t81 7q33 0 62 -5.5t51 -19.5t34.5 -37t12.5 -57v-132q0 -7 7 -15.5t30 -8.5q14 0 27.5 5.5t24 18t17 32.5t6.5 49q0 54 -17 99.5t-51 78t-83.5 51t-113.5 18.5q-66 0 -122 -21
t-97 -57.5t-64.5 -86.5t-23.5 -107q0 -59 21 -109.5t58.5 -87t89.5 -57t115 -20.5q27 0 63 5t87 21l38 -94q-47 -26 -98 -34t-92 -8q-99 0 -173.5 29t-124.5 80.5t-75.5 121t-25.5 150.5q0 82 31.5 152.5t88 122t134.5 80.5t170 29zM484 325q-10 -3 -13.5 -10t-3.5 -13
q0 -13 5 -21t17 -8q14 0 25 9v49z" />
    <glyph glyph-name="A" unicode="A" horiz-adv-x="852" 
d="M522 194h-209l-15 -45h56v-149h-334v149h53l213 544h297l195 -544h54v-149h-349v149h53zM386 401l-24 -68h117l-21 66l-32 111h-4z" />
    <glyph glyph-name="B" unicode="B" horiz-adv-x="798" 
d="M660 364q31 -14 50.5 -35t30 -43.5t14 -43.5t3.5 -36q0 -47 -18 -85t-51 -65t-80.5 -41.5t-107.5 -14.5h-456v149h75v396h-75v148h464q58 0 100.5 -14t71 -39.5t42.5 -61.5t14 -79q0 -11 -4 -28.5t-13 -36.5t-23.5 -37t-36.5 -30v-3zM363 285v-136h71q32 0 49.5 18.5
t17.5 47.5t-16 49.5t-51 20.5h-71zM363 545v-125h64q27 0 42.5 18t15.5 47q0 27 -14.5 43.5t-43.5 16.5h-64z" />
    <glyph glyph-name="C" unicode="C" horiz-adv-x="713" 
d="M307 355q0 -60 12.5 -95t35.5 -53t55.5 -22.5t72.5 -4.5q11 0 30 1.5t41.5 4t45 6t39.5 6.5l34 -168q-55 -21 -122.5 -31.5t-128.5 -10.5q-115 0 -187.5 31t-113.5 81.5t-56 115t-15 131.5q0 70 16 135.5t58.5 116t118 81t195.5 30.5q53 0 102 -7t98 -21v-250h-165v94
q-9 2 -16 2.5t-15 0.5q-39 0 -65 -12.5t-41.5 -35.5t-22 -55t-6.5 -71z" />
    <glyph glyph-name="D" unicode="D" horiz-adv-x="838" 
d="M45 0v149h78v396h-73v148h390q103 0 170.5 -27.5t107 -74.5t55 -110t15.5 -133q0 -68 -18 -131t-59 -111t-107.5 -77t-163.5 -29h-395zM366 545v-396h50q35 0 57 17t35 45t17.5 63.5t4.5 72.5q0 38 -5 74t-18.5 63.5t-37.5 44t-61 16.5h-42z" />
    <glyph glyph-name="E" unicode="E" horiz-adv-x="776" 
d="M45 0v149h74v396h-74v148h683v-271h-163v123h-203v-123l153 3v-144l-153 3v-135h211v135h163v-284h-691z" />
    <glyph glyph-name="F" unicode="F" horiz-adv-x="770" 
d="M45 0v149h76v396h-76v148h685v-271h-163v123h-204v-123l153 3v-144l-153 3v-135h90v-149h-408z" />
    <glyph glyph-name="G" unicode="G" horiz-adv-x="785" 
d="M446 710q53 0 110 -7t106 -21v-242h-166v91q-21 3 -41 3q-81 0 -114.5 -49t-33.5 -130q0 -55 8.5 -90.5t24.5 -56.5t39.5 -29t52.5 -8q11 0 23.5 1t26.5 3v70h-59v131h322v-131h-47v-212q-68 -25 -141.5 -35t-134.5 -10q-115 0 -187.5 32t-113.5 83t-56 115t-15 129
q0 67 16 132.5t59.5 116.5t120.5 82.5t200 31.5z" />
    <glyph glyph-name="H" unicode="H" horiz-adv-x="926" 
d="M500 0v149h63v135h-198v-135h63v-149h-383v149h78v396h-78v148h383v-148h-63v-123h198v123h-63v148h381v-148h-76v-396h76v-149h-381z" />
    <glyph glyph-name="I" unicode="I" horiz-adv-x="531" 
d="M70 0v149h76v396h-76v148h391v-148h-73v-396h73v-149h-391z" />
    <glyph glyph-name="J" unicode="J" horiz-adv-x="571" 
d="M87 694h424v-149h-83v-351q0 -167 -98 -268.5t-287 -126.5l-53 172q67 26 106 48.5t59 48t26 58t6 79.5v340l-100 1v148z" />
    <glyph glyph-name="K" unicode="K" horiz-adv-x="852" 
d="M590 423l187 -273h55v-150h-372v150h47l-91 136l-60 -47v-90h60v-149h-371v149h77v396h-77v146h379v-146h-68v-122l151 122h-47v146h353l-1 -146h-68z" />
    <glyph glyph-name="L" unicode="L" horiz-adv-x="744" 
d="M45 0v149h77v396h-77v148h392v-148h-72v-396h195v135h164v-284h-679z" />
    <glyph glyph-name="M" unicode="M" horiz-adv-x="1123" 
d="M568 389l68 168l57 136h385v-148h-65v-396h65v-149h-354v149h54v256h-3l-54 -135l-55 -130h-193l-65 135l-58 130h-3v-256h62v-149h-364v149h78v396h-78v148h383l64 -141l72 -163h4z" />
    <glyph glyph-name="N" unicode="N" horiz-adv-x="946" 
d="M608 322v223h-66v148h359v-148h-68v-545h-239l-150 232l-105 170h-2v-253h67v-149h-359v149h70v396h-70v148h329l117 -184l113 -187h4z" />
    <glyph glyph-name="O" unicode="O" horiz-adv-x="845" 
d="M795 350q0 -78 -23.5 -144.5t-70.5 -115t-116.5 -75.5t-162.5 -27t-162.5 27t-116 75.5t-70 115t-23.5 144.5t23.5 144t70 113.5t116 74.5t162.5 27t162.5 -27t116.5 -74.5t70.5 -113.5t23.5 -144zM536 350q0 43 -5.5 79t-19 62t-35 40t-54.5 14t-55 -15.5t-35.5 -42
t-19 -62t-5.5 -75.5q0 -45 5.5 -82t19 -63t35.5 -40.5t55 -14.5t54.5 14t35 40t19 63t5.5 83z" />
    <glyph glyph-name="P" unicode="P" horiz-adv-x="737" 
d="M712 466q0 -47 -16.5 -87.5t-49 -71.5t-80.5 -48.5t-110 -17.5h-95v-92h93v-149h-409v149h73v396h-73v148h394q78 0 130.5 -18t84 -48.5t45 -72t13.5 -88.5zM361 545v-163h27q38 0 53 23.5t15 55.5q0 84 -74 84h-21z" />
    <glyph glyph-name="Q" unicode="Q" horiz-adv-x="852" 
d="M795 350q0 -94 -33.5 -170t-100.5 -124l154 -38l-67 -172l-412 149q-71 12 -124.5 43t-89.5 77.5t-54 106t-18 128.5q0 78 23.5 144t70 113.5t116 74.5t162.5 27t162.5 -27t116.5 -74.5t70.5 -113.5t23.5 -144zM536 350q0 43 -5.5 79t-19 62t-35 40t-54.5 14t-55 -15.5
t-35.5 -42t-19 -62t-5.5 -75.5q0 -45 5.5 -82t19 -63t35.5 -40.5t55 -14.5t54.5 14t35 40t19 63t5.5 83z" />
    <glyph glyph-name="R" unicode="R" horiz-adv-x="808" 
d="M473 478q0 33 -18 50t-51 17h-46v-146h36q36 0 57.5 18t21.5 61zM358 259v-110h60v-149h-368v149h69v396h-69v148h423q78 0 128 -19.5t79 -51t40 -71t11 -78.5q0 -23 -6 -48t-18.5 -48.5t-32 -43t-47.5 -32.5l84 -157l82 -13v-129q-18 -6 -40 -10t-43 -7t-39.5 -4
t-29.5 -1q-32 0 -55 6.5t-40.5 19.5t-31 33t-25.5 47l-75 173h-56z" />
    <glyph glyph-name="S" unicode="S" horiz-adv-x="730" 
d="M378 541q-41 0 -59 -13.5t-18 -33.5q0 -14 14.5 -24t35.5 -18t44.5 -14t41.5 -10q50 -11 95 -27t79 -41t54 -60.5t20 -85.5q0 -53 -19.5 -95.5t-60.5 -72t-105.5 -45.5t-155.5 -16q-69 0 -144 11t-144 36v205h162v-70q12 -4 28 -6.5t32 -4t29 -2.5t21 -1q28 0 45 5
t26 11.5t11.5 14t2.5 13.5q0 17 -9.5 26.5t-25.5 14.5q-28 8 -68 16.5t-82 19.5q-88 23 -135.5 72.5t-47.5 124.5q0 51 17.5 94t56 74t98.5 48t145 17q30 0 65 -3t69.5 -9t68 -15t60.5 -21v-193h-164v64q-20 8 -44.5 11t-38.5 3z" />
    <glyph glyph-name="T" unicode="T" horiz-adv-x="759" 
d="M176 0v149h83v396h-78v-123h-161v271h719v-271h-161v123h-79v-396h81v-149h-404z" />
    <glyph glyph-name="U" unicode="U" horiz-adv-x="843" 
d="M750 264q0 -134 -77 -204.5t-250 -70.5q-92 0 -155 18.5t-103 54t-57.5 86.5t-17.5 116v281h-55v148h346v-148h-53v-295q0 -55 24 -77.5t73 -22.5q17 0 33.5 4.5t29 15.5t20.5 30.5t8 49.5v295h-53v148h345v-148h-58v-281z" />
    <glyph glyph-name="V" unicode="V" horiz-adv-x="843" 
d="M488 377l54 167h-62v149h348v-149h-49l-201 -544h-307l-208 544h-48v149h359v-149h-59l54 -164l58 -189h4z" />
    <glyph glyph-name="W" unicode="W" horiz-adv-x="1228" 
d="M605 230l-30 -95l-44 -135h-304l-161 544h-52v149h365v-149h-50l36 -143l48 -204h4l56 200l28 90l-19 57h-52v149h354v-149h-62l49 -138l62 -179h3l43 190l31 127h-55v149h359v-149h-56l-165 -544h-308l-45 135l-30 95h-5z" />
    <glyph glyph-name="X" unicode="X" horiz-adv-x="823" 
d="M501 693h297v-149h-51l-173 -208l158 -186h65v-150h-417v150h38l-76 98l-76 -98h40v-150h-291v150h50l173 224l-134 168h-84v151h423v-151h-40l71 -88l69 90h-42v149z" />
    <glyph glyph-name="Y" unicode="Y" horiz-adv-x="799" 
d="M494 544h-55v149h345v-149h-49l-206 -316v-79h73v-149h-412v149h75v79l-202 316h-48v149h349v-149h-54l91 -161h4z" />
    <glyph glyph-name="Z" unicode="Z" horiz-adv-x="736" 
d="M344 149h200v144h162v-293h-675v147l340 399h-154v-125h-162v272h633v-140z" />
    <glyph glyph-name="bracketleft" unicode="[" horiz-adv-x="399" 
d="M77 -159v862h287v-122h-92v-628h92v-112h-287z" />
    <glyph glyph-name="backslash" unicode="\" horiz-adv-x="434" 
d="M-2 715h169l263 -756h-168z" />
    <glyph glyph-name="bracketright" unicode="]" horiz-adv-x="399" 
d="M48 -159v112h92v628h-92v122h287v-862h-287z" />
    <glyph glyph-name="asciicircum" unicode="^" horiz-adv-x="558" 
d="M382 316l-108 195l-109 -195h-148l206 360h99l208 -360h-148z" />
    <glyph glyph-name="underscore" unicode="_" horiz-adv-x="500" 
d="M0 -167v108h501v-108h-501z" />
    <glyph glyph-name="grave" unicode="`" horiz-adv-x="650" 
d="M145 688l96 120l190 -182l-65 -78z" />
    <glyph glyph-name="a" unicode="a" horiz-adv-x="650" 
d="M355 53q-21 -24 -45 -37.5t-46 -20.5t-40 -8.5t-27 -1.5q-51 0 -83.5 15t-51 37.5t-25.5 48t-7 47.5q0 16 4 38t18.5 42.5t42 36.5t74.5 21l172 20v9q0 24 -13.5 36t-51.5 12q-18 0 -38.5 -1.5t-40.5 -4t-38.5 -6t-32.5 -7.5l-33 137q23 9 52 17t61 13t65.5 8t64.5 3
q52 0 94.5 -9t72 -30.5t45.5 -56.5t16 -86v-178h49l7 -132q-15 -8 -35 -13.5t-42 -9.5t-43.5 -6t-39.5 -2q-39 0 -68.5 13.5t-34.5 54.5zM298 196q-17 -4 -21.5 -14.5t-4.5 -18.5q0 -19 7 -31t27 -12q19 0 33 14v71z" />
    <glyph glyph-name="b" unicode="b" horiz-adv-x="716" 
d="M391 -12q-14 0 -48 1.5t-77.5 8t-92.5 19t-93 34.5v531h-55v142h292v-251q35 21 72 28.5t57 7.5q66 0 110.5 -19.5t71 -54t37.5 -82t11 -104.5q0 -50 -11.5 -97t-43 -83.5t-87 -58.5t-143.5 -22zM378 348q-14 0 -29 -5.5t-31 -13.5v-171q17 -7 33.5 -10t27.5 -3
q10 0 21 2t20.5 12t15.5 30.5t6 57.5t-6.5 57.5t-16.5 30.5t-21 11.5t-20 1.5z" />
    <glyph glyph-name="c" unicode="c" horiz-adv-x="563" 
d="M279 254q0 -34 7 -54t20 -31t30 -14.5t38 -3.5q14 0 31 2t34 4.5t32 5.5t26 5l36 -142q-44 -20 -99 -29.5t-109 -9.5q-88 0 -143.5 22t-87 58.5t-43 83t-11.5 94.5q0 50 12.5 97t45 84t89.5 59t146 22q42 0 87.5 -5.5t87.5 -19.5l-1 -181h-148v49q-24 2 -39.5 -4.5
t-24.5 -19.5t-12.5 -31.5t-3.5 -40.5z" />
    <glyph glyph-name="d" unicode="d" horiz-adv-x="722" 
d="M411 39q-18 -15 -39.5 -24.5t-42 -15.5t-38 -8t-27.5 -2q-65 0 -108 19t-69 52t-36.5 78t-10.5 97q0 59 12 109.5t39 87t71 57t109 20.5q10 0 25.5 -1.5t33.5 -4.5t36.5 -7.5t33.5 -10.5v97h-61v142h298v-580h55v-144h-278v38zM336 348q-8 0 -18 -2t-20 -12t-16.5 -32
t-6.5 -62q0 -34 6 -53t15.5 -28t20.5 -10.5t21 -1.5q11 0 27.5 4.5t33.5 13.5v167q-19 9 -34 12.5t-29 3.5z" />
    <glyph glyph-name="e" unicode="e" horiz-adv-x="612" 
d="M323 356q-24 0 -34 -18.5t-10 -45.5h83q0 29 -8 46.5t-31 17.5zM320 508q72 0 120.5 -20t78 -54.5t41.5 -79.5t12 -95v-33h-296q0 -23 6 -38t18 -23.5t30 -11.5t41 -3q33 0 73.5 7.5t73.5 17.5l43 -135q-28 -15 -59 -25t-62.5 -16t-61.5 -8.5t-56 -2.5q-87 0 -141.5 22
t-86 58t-43 82.5t-11.5 95.5q0 54 15 101.5t48.5 83t87 56.5t129.5 21z" />
    <glyph glyph-name="f" unicode="f" horiz-adv-x="542" 
d="M53 143h56v210h-74v125l75 23v37q0 33 6 67.5t29.5 63t69 47t125.5 18.5q16 0 38.5 -1.5t47.5 -4.5t51 -8t50 -12l-32 -155q-25 5 -51.5 8t-44.5 3q-27 0 -43 -8.5t-16 -30.5v-31h139v-141h-139v-210h69v-143h-356v143z" />
    <glyph glyph-name="g" unicode="g" horiz-adv-x="685" 
d="M590 394q7 -15 11.5 -38t4.5 -35q0 -46 -21.5 -79t-57.5 -55t-83 -32.5t-98 -11.5l-62 -1q-18 0 -27 -8t-9 -18q0 -6 4.5 -10.5t18.5 -4.5h163q48 0 88.5 -6t70 -22t46 -42.5t16.5 -67.5q0 -30 -14 -63t-53.5 -60t-109.5 -44.5t-182 -17.5q-77 0 -127.5 10t-80 26
t-41.5 36.5t-12 42.5q0 74 62 113q-23 9 -36 29.5t-13 45.5q0 28 19 56t62 46q-34 14 -53 48t-19 82q0 51 22.5 87.5t60.5 60t87.5 34.5t104.5 11q37 0 69.5 -3.5t51.5 -8.5h200v-95h-57zM285 -23q-11 -6 -15 -12.5t-4 -11.5q0 -28 63 -28q33 0 56.5 8.5t23.5 21.5
q0 14 -10 18t-22 4h-92zM368 323q0 41 -38 41q-19 0 -27.5 -13.5t-8.5 -29.5q0 -38 38 -38q14 0 25 9t11 31z" />
    <glyph glyph-name="h" unicode="h" horiz-adv-x="737" 
d="M650 153h57v-139q-35 -14 -73.5 -21t-73.5 -7q-43 0 -71.5 8.5t-45.5 25t-24 40.5t-7 55v159q0 32 -13.5 45t-36.5 13q-10 0 -23 -5.5t-24 -16.5v-310h-239v582h-56v142h295v-273q72 57 152 57q183 0 183 -185v-170z" />
    <glyph glyph-name="i" unicode="i" horiz-adv-x="434" 
d="M40 352v143h287v-342h67v-139q-35 -14 -78.5 -21t-78.5 -7q-43 0 -71.5 8.5t-45.5 25t-24 40.5t-7 55v237h-49zM333 670q0 -27 -10.5 -50.5t-28.5 -41t-41.5 -27.5t-49.5 -10q-27 0 -50.5 10t-40.5 27.5t-27 41t-10 50.5t10 50.5t27 41t40.5 27.5t50.5 10q26 0 49.5 -10
t41.5 -27.5t28.5 -41t10.5 -50.5z" />
    <glyph glyph-name="j" unicode="j" horiz-adv-x="412" 
d="M44 495h288v-385q0 -82 -18 -142t-56 -102t-96.5 -67.5t-139.5 -38.5l-54 139q43 25 68 43.5t37.5 40.5t16 51.5t3.5 75.5v242h-49v143zM338 670q0 -27 -10.5 -50.5t-28.5 -41t-41.5 -27.5t-49.5 -10q-27 0 -50.5 10t-40.5 27.5t-27 41t-10 50.5t10 50.5t27 41t40.5 27.5
t50.5 10q26 0 49.5 -10t41.5 -27.5t28.5 -41t10.5 -50.5z" />
    <glyph glyph-name="k" unicode="k" horiz-adv-x="722" 
d="M544 306l90 -162l57 -12v-124q-15 -5 -33 -8.5t-36 -6t-34 -4t-27 -1.5q-26 -1 -45.5 1.5t-34.5 10t-26.5 21t-20.5 33.5l-64 139l-41 -27v-23h34v-143h-327v143h53v437h-54v142h294v-384l60 44v112h277v-141h-48z" />
    <glyph glyph-name="l" unicode="l" horiz-adv-x="435" 
d="M336 143h59v-143h-355v143h58v439h-58v142h296v-581z" />
    <glyph glyph-name="m" unicode="m" horiz-adv-x="1041" 
d="M716 294q0 23 -8.5 30.5t-22.5 7.5q-11 0 -24 -6.5t-23 -15.5v-310h-234l-1 293q0 17 -6.5 28t-24.5 11q-8 0 -21 -5.5t-26 -16.5v-310h-239v354h-56v142h286v-50h4q40 33 86 47.5t79 14.5q56 0 84.5 -19t46.5 -57q38 38 85 57t84 19q89 0 129 -46.5t40 -138.5v-170h57
v-139q-35 -14 -73.5 -21t-73.5 -7q-43 0 -71.5 8.5t-45.5 25t-24 40.5t-7 55v179z" />
    <glyph glyph-name="n" unicode="n" horiz-adv-x="747" 
d="M477 508q183 0 183 -185v-170h57v-139q-35 -14 -73.5 -21t-73.5 -7q-43 0 -71.5 8.5t-45.5 25t-24 40.5t-7 55v159q0 32 -13.5 45t-36.5 13q-10 0 -23 -5.5t-24 -16.5v-310h-239v354h-56v142h289v-43l6 -2q35 26 74.5 41.5t77.5 15.5z" />
    <glyph glyph-name="o" unicode="o" horiz-adv-x="681" 
d="M641 249q0 -58 -19 -105.5t-57 -82t-94 -53.5t-131 -19t-131.5 19t-94 53.5t-56 82t-18.5 105.5q0 57 18.5 104.5t56 81t94 52.5t131.5 19t131 -19t94 -52.5t57 -81t19 -104.5zM398 249q0 45 -12 72.5t-46 27.5q-17 0 -28 -8t-18 -22t-9.5 -32t-2.5 -38q0 -47 12 -76.5
t46 -29.5t46 28.5t12 77.5z" />
    <glyph glyph-name="p" unicode="p" horiz-adv-x="723" 
d="M30 -71h56v422h-55v143h278v-38l3 -1q18 15 39.5 24.5t42 15.5t38 8t27.5 2q65 0 108 -19t69 -52t36.5 -78t10.5 -97q0 -59 -12 -108.5t-39 -85t-71.5 -55.5t-108.5 -20q-10 0 -25.5 1.5t-33.5 4.5t-36.5 7.5t-33.5 10.5v-85h57v-142h-350v142zM387 151q7 0 17.5 3
t20.5 13.5t16.5 31t6.5 55.5q0 34 -6 53t-15.5 28t-20.5 10.5t-21 1.5q-11 0 -27.5 -4.5t-33.5 -13.5v-162q19 -9 34 -12.5t29 -3.5z" />
    <glyph glyph-name="q" unicode="q" horiz-adv-x="706" 
d="M345 -69h54v92q-35 -21 -72 -28.5t-57 -7.5q-60 0 -103.5 16.5t-71.5 47t-41.5 74t-13.5 96.5q0 55 13 106.5t47.5 91.5t94.5 64.5t154 24.5q14 0 45.5 -1.5t71.5 -7t84.5 -16.5t85.5 -31v-521h55v-144h-346v144zM338 148q26 0 60 17v175q-8 2 -21 5t-27 3t-27.5 -4
t-24.5 -15t-17.5 -30.5t-6.5 -49.5q0 -38 6.5 -58t16.5 -30t21 -11.5t20 -1.5z" />
    <glyph glyph-name="r" unicode="r" horiz-adv-x="584" 
d="M331 414q18 15 41 30.5t48.5 29t52.5 22t53 8.5q29 0 38.5 -15t9.5 -48q0 -19 -3.5 -42t-11.5 -47t-21 -46.5t-31 -39.5l-179 42v-165h52v-143h-340v143h52v210h-48v143h281v-79z" />
    <glyph glyph-name="s" unicode="s" horiz-adv-x="604" 
d="M298 509q27 0 56.5 -2.5t59 -7.5t57.5 -13t52 -18v-143h-156v39q-20 5 -47 5q-19 0 -33 -5.5t-14 -19.5q0 -13 22 -20.5t54.5 -15t71 -17.5t71 -28t54.5 -46.5t22 -72.5q0 -36 -14.5 -65t-47.5 -49t-86 -31t-129 -11q-56 0 -123 8.5t-131 34.5v149h160v-39q8 -5 29.5 -8
t43.5 -3q21 0 36.5 4t15.5 15q0 13 -9 17.5t-33 10.5q-47 12 -91.5 25.5t-79 32.5t-55.5 45t-21 63q0 36 14.5 66.5t46.5 52.5t82.5 34.5t121.5 12.5z" />
    <glyph glyph-name="t" unicode="t" horiz-adv-x="509" 
d="M312 651v-156h136v-142h-136v-120q0 -26 3.5 -40.5t12 -22.5t21.5 -10t32 -2q8 0 28.5 2t42.5 5l24 -149q-19 -8 -41 -13t-44 -9t-43 -5.5t-37 -1.5q-81 0 -127.5 19t-70 47t-29.5 60.5t-6 60.5v179h-67v126l84 25l52 135z" />
    <glyph glyph-name="u" unicode="u" horiz-adv-x="735" 
d="M369 496h279v-343h57v-140q-54 -18 -92.5 -22.5t-61.5 -4.5q-65 0 -92.5 21.5t-35.5 55.5q-32 -32 -72 -54.5t-94 -22.5q-37 0 -68 10t-53.5 31t-35.5 54t-13 79v192h-57v143h295v-276q0 -29 9.5 -40.5t32.5 -11.5q5 0 18.5 5t24.5 18v163h-41v143z" />
    <glyph glyph-name="v" unicode="v" horiz-adv-x="737" 
d="M378 169l34 106l29 77h-24v143h308v-143h-46l-155 -352h-311l-143 328h-60v167h248l77 -217l39 -109h4z" />
    <glyph glyph-name="w" unicode="w" horiz-adv-x="1016" 
d="M696 160l29 96l33 97h-36v142h288v-142h-39l-124 -353h-293l-24 63l-28 81h-3l-26 -82l-23 -62h-283l-114 328h-46v167h223l65 -224l33 -111h6l32 109l22 69l-6 14h-47v143h317v-143h-33l38 -103l34 -89h5z" />
    <glyph glyph-name="x" unicode="x" horiz-adv-x="702" 
d="M44 352h-1v142h327v-142l44 -41l42 41h-26v142h234l1 -142h-32l-120 -126l89 -84h61v-142h-367v142h29l-50 49l-46 -49h26v-142h-225v142h36l115 131l-80 73h-57v6z" />
    <glyph glyph-name="y" unicode="y" horiz-adv-x="705" 
d="M451 -126q-9 -21 -20.5 -39.5t-28.5 -32t-41 -21t-57 -7.5q-11 0 -33.5 1.5t-49.5 5.5t-56.5 10.5t-54.5 15.5l25 147q22 -3 40 -5t32 -2q30 0 47.5 11t28.5 42l9 26h-112l-116 311h-49v158h229l67 -230l32 -119h4l39 128l24 78h-40v143h315v-143h-42z" />
    <glyph glyph-name="z" unicode="z" horiz-adv-x="623" 
d="M328 130h108v68h147v-198h-543v117l239 248h-84v-65h-148v195h521v-113z" />
    <glyph glyph-name="braceleft" unicode="{" horiz-adv-x="426" 
d="M273 -163q-34 0 -63 12t-50.5 33.5t-34 50.5t-12.5 63v145q0 38 -18.5 55t-51.5 17h-8v120h8q33 0 51.5 16.5t18.5 54.5v144q0 34 10.5 63t30.5 50t50 33t69 12h139v-120h-34q-22 0 -35 -5.5t-20 -14.5t-9.5 -21t-2.5 -24v-150q0 -40 -24 -63.5t-61 -29.5v-4
q45 -6 65 -35t20 -67v-154q0 -13 2.5 -25t9.5 -21t20 -14.5t35 -5.5h34v-115h-139z" />
    <glyph glyph-name="bar" unicode="|" horiz-adv-x="426" 
d="M136 -158v877h157v-877h-157z" />
    <glyph glyph-name="braceright" unicode="}" horiz-adv-x="426" 
d="M21 -163v115h34q22 0 35 5.5t20 14.5t9.5 21t2.5 25v154q0 38 20 67t65 35v4q-37 6 -61 29.5t-24 63.5v150q0 12 -2.5 24t-9.5 21t-20 14.5t-35 5.5h-34v120h139q39 0 69 -12t50 -33t30.5 -50t10.5 -63v-144q0 -38 18.5 -54.5t51.5 -16.5h8v-120h-8q-33 0 -51.5 -17
t-18.5 -55v-145q0 -34 -12.5 -63t-34 -50.5t-50.5 -33.5t-63 -12h-139z" />
    <glyph glyph-name="asciitilde" unicode="~" horiz-adv-x="662" 
d="M461 203q-35 0 -72.5 7t-72.5 15.5t-65.5 15.5t-52.5 7l-65 -46l-74 54q15 42 32.5 69.5t37 44t41 23t44.5 6.5q31 0 64.5 -6.5t66.5 -15t65.5 -15t62.5 -6.5l66 48l73 -54q-26 -75 -62 -111t-89 -36z" />
    <glyph glyph-name="exclamdown" unicode="&#xa1;" horiz-adv-x="377" 
d="M81 -231v213l20 277h175l20 -277v-213h-215zM189 299q-25 0 -45 8.5t-34.5 22.5t-22.5 33t-8 40q0 20 7.5 38.5t21.5 32.5t34.5 22.5t46.5 8.5q25 0 45 -8.5t34.5 -22.5t22.5 -32.5t8 -38.5q0 -44 -29.5 -74t-80.5 -30z" />
    <glyph glyph-name="cent" unicode="&#xa2;" horiz-adv-x="563" 
d="M279 254q0 -34 7 -54t20 -31t30 -14.5t38 -3.5q14 0 31 2t34 4.5t32 5.5t26 5l36 -142q-28 -14 -61.5 -21.5t-68.5 -12.5v-124h-157v125q-63 10 -103 34.5t-63 59t-31.5 75.5t-8.5 83q0 43 9 84t32 75.5t63 59.5t102 36v115h157v-112q56 -5 105 -21l-1 -181h-148v49
q-24 2 -39.5 -4.5t-24.5 -19.5t-12.5 -31.5t-3.5 -40.5z" />
    <glyph glyph-name="sterling" unicode="&#xa3;" horiz-adv-x="662" 
d="M120 387l6 69q21 238 260 238q72 0 122.5 -14t88.5 -29v-187h-152v62q-24 6 -43 6q-27 0 -44 -18.5t-21 -68.5l-5 -58h110v-99h-119l-2 -25q-3 -38 -13 -68t-34 -55h318v-140h-546l1 140q18 18 29 34t18 32t10.5 33t5.5 37l1 12h-54v99h63z" />
    <glyph glyph-name="currency" unicode="&#xa4;" horiz-adv-x="606" 
d="M214 305q0 -36 25.5 -61.5t61.5 -25.5q37 0 63 25t26 62q0 18 -6.5 34t-18.5 28.5t-28.5 19.5t-35.5 7q-36 0 -61.5 -26t-25.5 -63zM42 473l91 93l66 -66q23 11 50 17.5t53 6.5t53.5 -6t51.5 -20l64 68l92 -93l-66 -66q11 -23 17.5 -49.5t6.5 -52.5q0 -25 -7 -52t-18 -50
l67 -64l-92 -93l-66 66q-46 -25 -103 -25t-103 25l-66 -66l-91 93l66 65q-13 23 -18.5 49t-5.5 52t6.5 52t17.5 49z" />
    <glyph glyph-name="yen" unicode="&#xa5;" horiz-adv-x="662" 
d="M58 326v69h56l-57 133h-42v145h304v-145h-45l60 -159h3l58 159h-46v145h300v-145h-42l-58 -133h61v-69h-552zM610 288v-68h-164l-1 -3v-73h64v-144h-359v144h66v73l-2 3h-156v68h552z" />
    <glyph glyph-name="brokenbar" unicode="&#xa6;" horiz-adv-x="426" 
d="M136 365v354h157v-354h-157zM293 232v-390h-157v390h157z" />
    <glyph glyph-name="section" unicode="&#xa7;" horiz-adv-x="614" 
d="M384 594q-22 5 -33 6t-18 1q-33 -1 -47.5 -13.5t-14.5 -30.5q0 -10 15 -21t35.5 -21t40.5 -18t30 -11q31 -11 59.5 -23.5t50.5 -30t35.5 -41t13.5 -57.5q0 -43 -17 -74t-46 -52q35 -24 56.5 -55.5t21.5 -66.5q0 -37 -15.5 -70t-49.5 -57.5t-86.5 -38.5t-125.5 -14
q-58 0 -108.5 10t-90.5 25v165h141l-1 -62q11 -3 24.5 -6.5t31.5 -3.5q44 0 60 9.5t16 27.5q0 6 -2 11.5t-10.5 12t-25.5 14.5t-47 18q-39 13 -76 28t-65 35t-45 46.5t-17 64.5q0 44 17 75t48 54q-24 17 -42.5 44t-18.5 72q0 47 21 80t56.5 54t82.5 30.5t100 9.5
q27 0 54.5 -3t53 -8t46.5 -12t35 -14v-159h-143v70zM365 263q9 7 14 17.5t5 21.5q0 14 -29 31.5t-88 37.5q-14 -9 -18 -20t-4 -22q0 -16 16.5 -25.5t54.5 -23.5z" />
    <glyph glyph-name="dieresis" unicode="&#xa8;" horiz-adv-x="650" 
d="M529 649q0 -41 -27.5 -69t-68.5 -28q-42 0 -70 28t-28 69q0 21 7.5 39t21 31t31 20.5t38.5 7.5q41 0 68.5 -28t27.5 -70zM301 649q0 -20 -7.5 -38t-21 -31t-31 -20.5t-37.5 -7.5q-41 0 -69 28t-28 69q0 21 7.5 39t20.5 31t31 20.5t38 7.5t37.5 -7.5t31 -20.5t21 -31
t7.5 -39z" />
    <glyph glyph-name="copyright" unicode="&#xa9;" horiz-adv-x="898" 
d="M847 326q0 -83 -31.5 -156.5t-86.5 -128t-128 -86t-155 -31.5q-83 0 -156.5 31.5t-128.5 86t-87 128t-32 156.5t32 156t87 127.5t128.5 86t156.5 31.5q82 0 155 -31.5t128 -86t86.5 -127.5t31.5 -156zM761 326q0 65 -25 122.5t-67.5 100.5t-100 68t-122.5 25t-123 -25
t-101 -68t-68 -100.5t-25 -122.5t25 -122.5t68 -100t101 -67.5t123 -25t122.5 25t100 67.5t67.5 100t25 122.5zM381 324q0 -41 9.5 -64t26 -34.5t38 -14.5t45.5 -3q7 0 19.5 0.5t26.5 2t28.5 3.5t24.5 4l21 -105q-36 -14 -81 -20t-84 -6q-74 0 -121 20t-73.5 52.5t-36.5 74
t-10 84.5q0 45 12 87.5t41.5 75.5t80 53t128.5 20q35 0 66 -5t63 -13v-156h-100v57q-4 1 -12 1h-12q-54 0 -77 -29t-23 -85z" />
    <glyph glyph-name="ordfeminine" unicode="&#xaa;" horiz-adv-x="448" 
d="M391 373h33l5 -90q-11 -5 -25 -9t-29.5 -6.5t-31 -4t-27.5 -1.5q-26 0 -46.5 9t-25.5 34q-15 -16 -31 -24.5t-31 -12.5t-27 -5t-18 -1q-36 0 -58.5 10t-35.5 25t-18 32t-5 31q0 11 3 26t13 28.5t29.5 24t52.5 13.5l114 13v3q0 14 -8.5 21t-33.5 7q-11 0 -25 -1t-28 -3
t-27.5 -4t-23.5 -5l-25 94q33 13 80 20.5t91 7.5q73 0 116 -27t43 -94v-111zM207 400q-12 -2 -15 -9t-3 -11q0 -12 4 -19.5t18 -7.5q5 0 11.5 2t10.5 5v45z" />
    <glyph glyph-name="guillemotleft" unicode="&#xab;" horiz-adv-x="593" 
d="M30 229l198 212l95 -63l-109 -167l106 -163l-97 -68l-193 212v37zM278 229l198 212l96 -63l-109 -167l105 -163l-96 -68l-194 212v37z" />
    <glyph glyph-name="logicalnot" unicode="&#xac;" horiz-adv-x="662" 
d="M576 72h-127v175h-329v123h456v-298z" />
    <glyph glyph-name="sfthyphen" unicode="&#xad;" horiz-adv-x="437" 
d="M68 201v151h301v-151h-301z" />
    <glyph glyph-name="registered" unicode="&#xae;" horiz-adv-x="654" 
d="M609 457q0 -58 -20.5 -109t-58 -89.5t-89 -60.5t-113.5 -22q-61 0 -113 22t-89.5 60.5t-59 89.5t-21.5 109q0 59 20.5 110.5t58 89.5t89.5 60t115 22t114.5 -22t88.5 -60t57.5 -89.5t20.5 -110.5zM546 457q0 45 -16 84.5t-44.5 69t-69 47t-88.5 17.5t-88.5 -17.5t-69 -47
t-44.5 -69t-16 -84.5t15 -84.5t43.5 -69t69 -46.5t90.5 -17q53 0 93.5 17t68.5 46.5t42 69t14 84.5zM365 523q0 28 -29 28h-20v-60h16q15 0 24 7t9 25zM316 432v-46h24v-61h-154v61h31v164h-31v62h177q32 0 53 -8t33 -21t16.5 -29.5t4.5 -32.5q0 -19 -10 -40t-32 -32l31 -65
l36 -4v-54q-15 -5 -35 -7t-30 -2q-26 0 -39 10.5t-23 33.5l-31 71h-21z" />
    <glyph glyph-name="macron" unicode="&#xaf;" horiz-adv-x="650" 
d="M135 685h400v-136h-400v136z" />
    <glyph glyph-name="degree" unicode="&#xb0;" horiz-adv-x="418" 
d="M377 537q0 -35 -14 -66.5t-37.5 -55t-55 -37.5t-67.5 -14q-35 0 -66.5 12.5t-55 35t-37.5 54.5t-14 71q0 37 14 68.5t37.5 54.5t55 36.5t66.5 13.5q36 0 67.5 -13.5t55 -36.5t37.5 -54.5t14 -68.5zM272 537q0 32 -19 50.5t-50 18.5q-30 0 -49 -19t-19 -50t19 -50t49 -19
q31 0 50 18.5t19 50.5z" />
    <glyph glyph-name="plusminus" unicode="&#xb1;" horiz-adv-x="662" 
d="M412 292v-133h-127v133h-165v123h165v140h127v-140h164v-123h-164zM576 123v-123h-456v123h456z" />
    <glyph glyph-name="twosuperior" unicode="&#xb2;" horiz-adv-x="438" 
d="M384 643q0 -27 -16 -53.5t-40 -49t-51.5 -41.5t-50.5 -31h61v21h120v-133h-375v99q23 16 54 36.5t59.5 43t48 45t19.5 43.5q0 9 -7 16t-24 7q-21 0 -49.5 -7.5t-58.5 -24.5l-50 103q46 29 91 42t90 13q92 0 135.5 -35t43.5 -94z" />
    <glyph glyph-name="threesuperior" unicode="&#xb3;" horiz-adv-x="438" 
d="M124 591l80 66h-50v-22h-111v133h335l20 -87l-89 -71q48 -13 70 -41.5t22 -68.5q0 -37 -15.5 -65t-42.5 -46.5t-64.5 -28t-81.5 -9.5q-9 0 -29 1t-45 5t-52.5 11.5t-51.5 21.5l42 109q38 -13 71 -17t53 -4q23 0 34 7t11 18q0 4 -1 8.5t-6.5 8.5t-16.5 6.5t-30 2.5
q-9 0 -18.5 -0.5t-20.5 -1.5z" />
    <glyph glyph-name="acute" unicode="&#xb4;" horiz-adv-x="650" 
d="M316 548l-65 78l189 183l101 -120z" />
    <glyph glyph-name="mu" unicode="&#xb5;" horiz-adv-x="712" 
d="M366 496h277v-343h57v-140q-54 -18 -92.5 -22.5t-61.5 -4.5q-65 0 -92.5 21.5t-35.5 55.5q-21 -21 -45 -38t-52 -27l-1 -69h57v-142h-350v142h56q0 53 -0.5 91t-0.5 68.5v56v55v65.5v86h-54v144h292v-289q0 -17 7.5 -28t30.5 -11q8 0 20.5 4.5t26.5 16.5v165h-39v143z
" />
    <glyph glyph-name="mu" unicode="&#x3bc;" horiz-adv-x="712" 
d="M366 496h277v-343h57v-140q-54 -18 -92.5 -22.5t-61.5 -4.5q-65 0 -92.5 21.5t-35.5 55.5q-21 -21 -45 -38t-52 -27l-1 -69h57v-142h-350v142h56q0 53 -0.5 91t-0.5 68.5v56v55v65.5v86h-54v144h292v-289q0 -17 7.5 -28t30.5 -11q8 0 20.5 4.5t26.5 16.5v165h-39v143z
" />
    <glyph glyph-name="paragraph" unicode="&#xb6;" horiz-adv-x="752" 
d="M276 246q-51 0 -94 16t-74.5 46t-49 73t-17.5 98q0 49 16 93t46 77t73.5 52t99.5 19h443v-148h-67v-800h-153v800h-50v-800h-251v134h97v340h-19z" />
    <glyph glyph-name="periodcentered" unicode="&#xb7;" horiz-adv-x="349" 
d="M289 274q0 -23 -9 -43.5t-24.5 -35.5t-36 -24t-43.5 -9t-43.5 9t-36 24t-24.5 35.5t-9 43.5t9 43.5t24.5 36t36 24.5t43.5 9t43.5 -9t36 -24.5t24.5 -36t9 -43.5z" />
    <glyph glyph-name="cedilla" unicode="&#xb8;" horiz-adv-x="563" 
d="M311 -46q52 -11 78 -37.5t26 -67.5q0 -17 -9.5 -37.5t-34.5 -38.5t-67 -30t-106 -13l-4 78q55 5 81.5 17.5t26.5 29.5q0 15 -14.5 19.5t-31.5 4.5q-10 0 -18.5 -0.5t-15.5 -1.5l-23 35l108 146l56 -32z" />
    <glyph glyph-name="onesuperior" unicode="&#xb9;" horiz-adv-x="438" 
d="M47 468h84v166l-83 -7l-17 97l128 44h141v-300h90v-112h-343v112z" />
    <glyph glyph-name="ordmasculine" unicode="&#xba;" horiz-adv-x="470" 
d="M443 436q0 -77 -52 -124t-156 -47q-105 0 -156.5 47t-51.5 124q0 75 51.5 121.5t156.5 46.5q104 0 156 -46.5t52 -121.5zM272 436q0 27 -7.5 44t-29.5 17t-29.5 -19t-7.5 -42q0 -29 7.5 -47.5t29.5 -18.5t29.5 18t7.5 48z" />
    <glyph glyph-name="guillemotright" unicode="&#xbb;" horiz-adv-x="593" 
d="M572 192l-194 -212l-96 68l105 163l-109 167l96 63l198 -212v-37zM323 192l-193 -212l-97 68l106 163l-109 167l95 63l198 -212v-37z" />
    <glyph glyph-name="onequarter" unicode="&#xbc;" horiz-adv-x="1010" 
d="M135 378h84v166l-83 -7l-17 97l128 44h141v-300h46l163 342h130l-352 -738h-129l135 284h-246v112zM818 410v-203h64v-90h-64v-24h37v-91h-227v91h33v24h-182v73l180 220h159zM660 266l-50 -59h52v59h-2z" />
    <glyph glyph-name="onehalf" unicode="&#xbd;" horiz-adv-x="1010" 
d="M111 378h84v166l-83 -7l-17 97l128 44h141v-300h40l163 342h130l-170 -357q85 51 174 51q92 0 135.5 -35t43.5 -94q0 -27 -16 -53.5t-40 -49t-51.5 -41.5t-50.5 -31h61v21h120v-133h-375v99q23 16 54 36.5t59.5 43t48 45t19.5 43.5q0 9 -7 16t-24 7q-21 0 -49.5 -7.5
t-58.5 -24.5l-48 98l-177 -372h-129l135 284h-240v112z" />
    <glyph glyph-name="threequarters" unicode="&#xbe;" horiz-adv-x="1010" 
d="M378 -18h-129l144 303q-51 -24 -123 -24q-9 0 -29 1t-45 5t-52.5 11.5t-51.5 21.5l42 109q38 -13 71 -17t53 -4q23 0 34 7t11 18q0 4 -1 8.5t-6.5 8.5t-16.5 6.5t-30 2.5q-9 0 -18.5 -0.5t-20.5 -1.5l-13 64l80 66h-50v-22h-111v133h335l20 -87l-89 -71
q36 -10 57.5 -29.5t29.5 -45.5l131 275h130zM845 410v-203h64v-90h-64v-24h37v-91h-227v91h33v24h-182v73l180 220h159zM687 266l-50 -59h52v59h-2z" />
    <glyph glyph-name="questiondown" unicode="&#xbf;" horiz-adv-x="587" 
d="M304 -231q-62 0 -110 15t-80.5 42t-49 64.5t-16.5 82.5q0 36 13.5 64.5t34.5 52.5t44.5 45t44.5 41t34.5 41t13.5 46v14h191v-48q0 -52 -19.5 -85t-43.5 -57.5t-43.5 -45.5t-19.5 -49q0 -25 17 -40.5t51 -15.5q10 0 19 0.5t18 1.5l1 68h154v-191q-76 -29 -141 -37.5
t-113 -8.5zM319 301q-23 0 -42.5 8t-34 21.5t-23 32.5t-8.5 40q0 20 8.5 38t23 32t34 22t42.5 8t42.5 -8t34 -22t23 -32t8.5 -38q0 -21 -8.5 -39.5t-23 -32.5t-34.5 -22t-42 -8z" />
    <glyph glyph-name="Agrave" unicode="&#xc0;" horiz-adv-x="852" 
d="M522 194h-209l-15 -45h56v-149h-334v149h53l213 544h297l195 -544h54v-149h-349v149h53zM386 401l-24 -68h117l-21 66l-32 111h-4zM232 886l96 120l190 -182l-65 -78z" />
    <glyph glyph-name="Aacute" unicode="&#xc1;" horiz-adv-x="852" 
d="M522 194h-209l-15 -45h56v-149h-334v149h53l213 544h297l195 -544h54v-149h-349v149h53zM386 401l-24 -68h117l-21 66l-32 111h-4zM430 747l-65 78l189 183l101 -120z" />
    <glyph glyph-name="Acircumflex" unicode="&#xc2;" horiz-adv-x="852" 
d="M522 194h-209l-15 -45h56v-149h-334v149h53l213 544h297l195 -544h54v-149h-349v149h53zM386 401l-24 -68h117l-21 66l-32 111h-4zM602 747l-181 102l-178 -100l-51 60l159 162h142l163 -162z" />
    <glyph glyph-name="Atilde" unicode="&#xc3;" horiz-adv-x="852" 
d="M522 194h-209l-15 -45h56v-149h-334v149h53l213 544h297l195 -544h54v-149h-349v149h53zM386 401l-24 -68h117l-21 66l-32 111h-4zM531 765q-30 0 -61 6t-60.5 13t-55 13t-43.5 6l-54 -39l-62 45q25 70 57.5 95t71.5 25q27 0 55 -5.5t56 -12.5t55 -12.5t52 -5.5l55 41
l60 -45q-21 -64 -51 -94t-75 -30z" />
    <glyph glyph-name="Adieresis" unicode="&#xc4;" horiz-adv-x="852" 
d="M522 194h-209l-15 -45h56v-149h-334v149h53l213 544h297l195 -544h54v-149h-349v149h53zM386 401l-24 -68h117l-21 66l-32 111h-4zM632 834q0 -38 -26 -64.5t-64 -26.5t-64.5 26.5t-26.5 64.5q0 39 26.5 65t64.5 26t64 -26t26 -65zM419 834q0 -19 -7 -35.5t-19.5 -29
t-29 -19.5t-34.5 -7q-38 0 -64.5 26.5t-26.5 64.5q0 39 26.5 65t64.5 26q37 0 63.5 -26t26.5 -65z" />
    <glyph glyph-name="Aring" unicode="&#xc5;" horiz-adv-x="852" 
d="M522 194h-209l-15 -45h56v-149h-334v149h53l213 544h297l195 -544h54v-149h-349v149h53zM386 401l-24 -68h117l-21 66l-32 111h-4zM427 744q-32 0 -59 11.5t-47.5 31t-32 45.5t-11.5 56q0 29 11.5 55.5t32 46.5t47.5 31.5t59 11.5t59 -11.5t46 -31.5t29.5 -46t10.5 -56
t-11.5 -56.5t-31 -46t-46 -30.5t-56.5 -11zM427 936q-22 0 -36.5 -15.5t-14.5 -35.5q0 -17 13 -32.5t38 -15.5q22 0 34 15.5t12 32.5q0 20 -11.5 35.5t-34.5 15.5z" />
    <glyph glyph-name="AE" unicode="&#xc6;" horiz-adv-x="1150" 
d="M543 194h-204l-29 -45h44v-149h-332v149h46l245 391h-47v153h836v-271h-163v123h-153v-123h113v-138h-113v-135h161v135h163v-284h-641v149h74v45zM412 333h131v206h-4z" />
    <glyph glyph-name="Ccedilla" unicode="&#xc7;" horiz-adv-x="713" 
d="M307 355q0 -60 12.5 -95t35.5 -53t55.5 -22.5t72.5 -4.5q11 0 30 1.5t41.5 4t45 6t39.5 6.5l34 -168q-51 -20 -112.5 -30t-119.5 -12l-37 -51q52 -11 78 -37.5t26 -67.5q0 -17 -9.5 -37.5t-34.5 -38.5t-67 -30t-106 -13l-4 78q55 5 81.5 17.5t26.5 29.5q0 15 -14.5 19.5
t-31.5 4.5q-10 0 -18.5 -0.5t-15.5 -1.5l-23 35l70 96q-96 8 -157 41t-95.5 82t-47 109.5t-12.5 123.5q0 70 16 135.5t58.5 116t118 81t195.5 30.5q53 0 102 -7t98 -21v-250h-165v94q-9 2 -16 2.5t-15 0.5q-39 0 -65 -12.5t-41.5 -35.5t-22 -55t-6.5 -71z" />
    <glyph glyph-name="Egrave" unicode="&#xc8;" horiz-adv-x="776" 
d="M45 0v149h74v396h-74v148h683v-271h-163v123h-203v-123l153 3v-144l-153 3v-135h211v135h163v-284h-691zM232 886l96 120l190 -182l-65 -78z" />
    <glyph glyph-name="Eacute" unicode="&#xc9;" horiz-adv-x="776" 
d="M45 0v149h74v396h-74v148h683v-271h-163v123h-203v-123l153 3v-144l-153 3v-135h211v135h163v-284h-691zM374 747l-65 78l189 183l101 -120z" />
    <glyph glyph-name="Ecircumflex" unicode="&#xca;" horiz-adv-x="776" 
d="M45 0v149h74v396h-74v148h683v-271h-163v123h-203v-123l153 3v-144l-153 3v-135h211v135h163v-284h-691zM580 747l-181 102l-178 -100l-51 60l159 162h142l163 -162z" />
    <glyph glyph-name="Edieresis" unicode="&#xcb;" horiz-adv-x="776" 
d="M45 0v149h74v396h-74v148h683v-271h-163v123h-203v-123l153 3v-144l-153 3v-135h211v135h163v-284h-691zM605 834q0 -38 -26 -64.5t-64 -26.5t-64.5 26.5t-26.5 64.5q0 39 26.5 65t64.5 26t64 -26t26 -65zM392 834q0 -19 -7 -35.5t-19.5 -29t-29 -19.5t-34.5 -7
q-38 0 -64.5 26.5t-26.5 64.5q0 39 26.5 65t64.5 26q37 0 63.5 -26t26.5 -65z" />
    <glyph glyph-name="Igrave" unicode="&#xcc;" horiz-adv-x="531" 
d="M70 0v149h76v396h-76v148h391v-148h-73v-396h73v-149h-391zM54 886l96 120l190 -182l-65 -78z" />
    <glyph glyph-name="Iacute" unicode="&#xcd;" horiz-adv-x="531" 
d="M70 0v149h76v396h-76v148h391v-148h-73v-396h73v-149h-391zM276 747l-65 78l189 183l101 -120z" />
    <glyph glyph-name="Icircumflex" unicode="&#xce;" horiz-adv-x="531" 
d="M70 0v149h76v396h-76v148h391v-148h-73v-396h73v-149h-391zM446 747l-181 102l-178 -100l-51 60l159 162h142l163 -162z" />
    <glyph glyph-name="Idieresis" unicode="&#xcf;" horiz-adv-x="531" 
d="M70 0v149h76v396h-76v148h391v-148h-73v-396h73v-149h-391zM462 834q0 -38 -26 -64.5t-64 -26.5t-64.5 26.5t-26.5 64.5q0 39 26.5 65t64.5 26t64 -26t26 -65zM249 834q0 -19 -7 -35.5t-19.5 -29t-29 -19.5t-34.5 -7q-38 0 -64.5 26.5t-26.5 64.5q0 39 26.5 65t64.5 26
q37 0 63.5 -26t26.5 -65z" />
    <glyph glyph-name="Eth" unicode="&#xd0;" horiz-adv-x="838" 
d="M45 0v149h78v159h-72v92h72v145h-73v148h390q103 0 170.5 -27.5t107 -74.5t55 -110t15.5 -133q0 -68 -18 -131t-59 -111t-107.5 -77t-163.5 -29h-395zM366 545v-145h71v-92h-71v-159h50q35 0 57 17t35 45t17.5 63.5t4.5 72.5q0 38 -5 74t-18.5 63.5t-37.5 44t-61 16.5
h-42z" />
    <glyph glyph-name="Ntilde" unicode="&#xd1;" horiz-adv-x="946" 
d="M608 322v223h-66v148h359v-148h-68v-545h-239l-150 232l-105 170h-2v-253h67v-149h-359v149h70v396h-70v148h329l117 -184l113 -187h4zM563 766q-30 0 -61 6t-60.5 13t-55 13t-43.5 6l-54 -39l-62 45q25 70 57.5 95t71.5 25q27 0 55 -5.5t56 -12.5t55 -12.5t52 -5.5
l55 41l60 -45q-21 -64 -51 -94t-75 -30z" />
    <glyph glyph-name="Ograve" unicode="&#xd2;" horiz-adv-x="845" 
d="M795 350q0 -78 -23.5 -144.5t-70.5 -115t-116.5 -75.5t-162.5 -27t-162.5 27t-116 75.5t-70 115t-23.5 144.5t23.5 144t70 113.5t116 74.5t162.5 27t162.5 -27t116.5 -74.5t70.5 -113.5t23.5 -144zM536 350q0 43 -5.5 79t-19 62t-35 40t-54.5 14t-55 -15.5t-35.5 -42
t-19 -62t-5.5 -75.5q0 -45 5.5 -82t19 -63t35.5 -40.5t55 -14.5t54.5 14t35 40t19 63t5.5 83zM242 886l96 120l190 -182l-65 -78z" />
    <glyph glyph-name="Oacute" unicode="&#xd3;" horiz-adv-x="845" 
d="M795 350q0 -78 -23.5 -144.5t-70.5 -115t-116.5 -75.5t-162.5 -27t-162.5 27t-116 75.5t-70 115t-23.5 144.5t23.5 144t70 113.5t116 74.5t162.5 27t162.5 -27t116.5 -74.5t70.5 -113.5t23.5 -144zM536 350q0 43 -5.5 79t-19 62t-35 40t-54.5 14t-55 -15.5t-35.5 -42
t-19 -62t-5.5 -75.5q0 -45 5.5 -82t19 -63t35.5 -40.5t55 -14.5t54.5 14t35 40t19 63t5.5 83zM424 747l-65 78l189 183l101 -120z" />
    <glyph glyph-name="Ocircumflex" unicode="&#xd4;" horiz-adv-x="845" 
d="M795 350q0 -78 -23.5 -144.5t-70.5 -115t-116.5 -75.5t-162.5 -27t-162.5 27t-116 75.5t-70 115t-23.5 144.5t23.5 144t70 113.5t116 74.5t162.5 27t162.5 -27t116.5 -74.5t70.5 -113.5t23.5 -144zM536 350q0 43 -5.5 79t-19 62t-35 40t-54.5 14t-55 -15.5t-35.5 -42
t-19 -62t-5.5 -75.5q0 -45 5.5 -82t19 -63t35.5 -40.5t55 -14.5t54.5 14t35 40t19 63t5.5 83zM603 747l-181 102l-178 -100l-51 60l159 162h142l163 -162z" />
    <glyph glyph-name="Otilde" unicode="&#xd5;" horiz-adv-x="845" 
d="M795 350q0 -78 -23.5 -144.5t-70.5 -115t-116.5 -75.5t-162.5 -27t-162.5 27t-116 75.5t-70 115t-23.5 144.5t23.5 144t70 113.5t116 74.5t162.5 27t162.5 -27t116.5 -74.5t70.5 -113.5t23.5 -144zM536 350q0 43 -5.5 79t-19 62t-35 40t-54.5 14t-55 -15.5t-35.5 -42
t-19 -62t-5.5 -75.5q0 -45 5.5 -82t19 -63t35.5 -40.5t55 -14.5t54.5 14t35 40t19 63t5.5 83zM527 768q-30 0 -61 6t-60.5 13t-55 13t-43.5 6l-54 -39l-62 45q25 70 57.5 95t71.5 25q27 0 55 -5.5t56 -12.5t55 -12.5t52 -5.5l55 41l60 -45q-21 -64 -51 -94t-75 -30z" />
    <glyph glyph-name="Odieresis" unicode="&#xd6;" horiz-adv-x="845" 
d="M795 350q0 -78 -23.5 -144.5t-70.5 -115t-116.5 -75.5t-162.5 -27t-162.5 27t-116 75.5t-70 115t-23.5 144.5t23.5 144t70 113.5t116 74.5t162.5 27t162.5 -27t116.5 -74.5t70.5 -113.5t23.5 -144zM536 350q0 43 -5.5 79t-19 62t-35 40t-54.5 14t-55 -15.5t-35.5 -42
t-19 -62t-5.5 -75.5q0 -45 5.5 -82t19 -63t35.5 -40.5t55 -14.5t54.5 14t35 40t19 63t5.5 83zM623 834q0 -38 -26 -64.5t-64 -26.5t-64.5 26.5t-26.5 64.5q0 39 26.5 65t64.5 26t64 -26t26 -65zM410 834q0 -19 -7 -35.5t-19.5 -29t-29 -19.5t-34.5 -7q-38 0 -64.5 26.5
t-26.5 64.5q0 39 26.5 65t64.5 26q37 0 63.5 -26t26.5 -65z" />
    <glyph glyph-name="multiply" unicode="&#xd7;" horiz-adv-x="662" 
d="M341 219l-124 -123l-90 89l124 124l-124 124l87 87l124 -124l122 122l89 -90l-121 -122l123 -123l-87 -87z" />
    <glyph glyph-name="Oslash" unicode="&#xd8;" horiz-adv-x="845" 
d="M795 350q0 -78 -23.5 -144.5t-70.5 -115t-116.5 -75.5t-162.5 -27q-72 0 -129.5 16.5t-102.5 46.5l-57 -61h-83l92 102q-46 48 -69 114t-23 144t23.5 144t70 113.5t116 74.5t162.5 27q70 0 126 -15t101 -44l53 59h95l-95 -103q46 -48 69.5 -113t23.5 -143zM536 350
q0 20 -1.5 37.5t-3.5 33.5l-200 -216q14 -26 36 -40.5t55 -14.5t54.5 14t35 40t19 63t5.5 83zM307 350q0 -20 1 -37.5t3 -34.5l198 218q-28 49 -87 49q-33 0 -55 -15.5t-35.5 -42t-19 -62t-5.5 -75.5z" />
    <glyph glyph-name="Ugrave" unicode="&#xd9;" horiz-adv-x="843" 
d="M750 264q0 -134 -77 -204.5t-250 -70.5q-92 0 -155 18.5t-103 54t-57.5 86.5t-17.5 116v281h-55v148h346v-148h-53v-295q0 -55 24 -77.5t73 -22.5q17 0 33.5 4.5t29 15.5t20.5 30.5t8 49.5v295h-53v148h345v-148h-58v-281zM217 886l96 120l190 -182l-65 -78z" />
    <glyph glyph-name="Uacute" unicode="&#xda;" horiz-adv-x="843" 
d="M750 264q0 -134 -77 -204.5t-250 -70.5q-92 0 -155 18.5t-103 54t-57.5 86.5t-17.5 116v281h-55v148h346v-148h-53v-295q0 -55 24 -77.5t73 -22.5q17 0 33.5 4.5t29 15.5t20.5 30.5t8 49.5v295h-53v148h345v-148h-58v-281zM417 747l-65 78l189 183l101 -120z" />
    <glyph glyph-name="Ucircumflex" unicode="&#xdb;" horiz-adv-x="843" 
d="M750 264q0 -134 -77 -204.5t-250 -70.5q-92 0 -155 18.5t-103 54t-57.5 86.5t-17.5 116v281h-55v148h346v-148h-53v-295q0 -55 24 -77.5t73 -22.5q17 0 33.5 4.5t29 15.5t20.5 30.5t8 49.5v295h-53v148h345v-148h-58v-281zM606 747l-188 100l-185 -98l-53 59l166 159h147
l169 -159z" />
    <glyph glyph-name="Udieresis" unicode="&#xdc;" horiz-adv-x="843" 
d="M750 264q0 -134 -77 -204.5t-250 -70.5q-92 0 -155 18.5t-103 54t-57.5 86.5t-17.5 116v281h-55v148h346v-148h-53v-295q0 -55 24 -77.5t73 -22.5q17 0 33.5 4.5t29 15.5t20.5 30.5t8 49.5v295h-53v148h345v-148h-58v-281zM620 834q0 -38 -26 -64.5t-64 -26.5t-64.5 26.5
t-26.5 64.5q0 39 26.5 65t64.5 26t64 -26t26 -65zM407 834q0 -19 -7 -35.5t-19.5 -29t-29 -19.5t-34.5 -7q-38 0 -64.5 26.5t-26.5 64.5q0 39 26.5 65t64.5 26q37 0 63.5 -26t26.5 -65z" />
    <glyph glyph-name="Yacute" unicode="&#xdd;" horiz-adv-x="799" 
d="M494 544h-55v149h345v-149h-49l-206 -316v-79h73v-149h-412v149h75v79l-202 316h-48v149h349v-149h-54l91 -161h4zM403 746l-65 78l189 183l101 -120z" />
    <glyph glyph-name="Thorn" unicode="&#xde;" horiz-adv-x="737" 
d="M363 525h78q79 0 132 -13.5t85.5 -37.5t46 -57t13.5 -72q0 -42 -17 -76t-50 -58t-81.5 -36.5t-111.5 -11.5l-95 1v-30h63v-134h-383v134h78v416h-78v143h383v-143h-63v-25zM363 407v-121h25q39 0 57.5 16t18.5 42q0 35 -21.5 49t-60.5 14h-19z" />
    <glyph glyph-name="germandbls" unicode="&#xdf;" horiz-adv-x="795" 
d="M542 152q0 18 -13.5 36t-34.5 36.5t-44.5 39t-44.5 44t-34.5 49.5t-13.5 57q0 35 13.5 57t30 37.5t30 27.5t13.5 27q0 18 -13 27.5t-36 9.5q-21 0 -34 -6t-20 -16.5t-9.5 -24t-2.5 -29.5v-523h-299v144h65v222h-61v115h61v71q0 28 11.5 63.5t43 66t87.5 51.5t144 21
q81 0 133 -18t82.5 -44t42 -54.5t11.5 -50.5q0 -37 -16 -64t-35.5 -47t-35.5 -34t-16 -24q0 -11 16.5 -23.5t41.5 -28.5t53.5 -35.5t53.5 -43.5t41.5 -53t16.5 -64q0 -95 -66.5 -139.5t-180.5 -44.5q-42 0 -79.5 5t-80.5 16v172h128v-55q5 -1 10 -1.5t10 -0.5q12 0 21.5 6
t9.5 23z" />
    <glyph glyph-name="agrave" unicode="&#xe0;" horiz-adv-x="650" 
d="M355 53q-21 -24 -45 -37.5t-46 -20.5t-40 -8.5t-27 -1.5q-51 0 -83.5 15t-51 37.5t-25.5 48t-7 47.5q0 16 4 38t18.5 42.5t42 36.5t74.5 21l172 20v9q0 24 -13.5 36t-51.5 12q-18 0 -38.5 -1.5t-40.5 -4t-38.5 -6t-32.5 -7.5l-33 137q23 9 52 17t61 13t65.5 8t64.5 3
q52 0 94.5 -9t72 -30.5t45.5 -56.5t16 -86v-178h49l7 -132q-15 -8 -35 -13.5t-42 -9.5t-43.5 -6t-39.5 -2q-39 0 -68.5 13.5t-34.5 54.5zM298 196q-17 -4 -21.5 -14.5t-4.5 -18.5q0 -19 7 -31t27 -12q19 0 33 14v71zM121 688l96 120l190 -182l-65 -78z" />
    <glyph glyph-name="aacute" unicode="&#xe1;" horiz-adv-x="650" 
d="M355 53q-21 -24 -45 -37.5t-46 -20.5t-40 -8.5t-27 -1.5q-51 0 -83.5 15t-51 37.5t-25.5 48t-7 47.5q0 16 4 38t18.5 42.5t42 36.5t74.5 21l172 20v9q0 24 -13.5 36t-51.5 12q-18 0 -38.5 -1.5t-40.5 -4t-38.5 -6t-32.5 -7.5l-33 137q23 9 52 17t61 13t65.5 8t64.5 3
q52 0 94.5 -9t72 -30.5t45.5 -56.5t16 -86v-178h49l7 -132q-15 -8 -35 -13.5t-42 -9.5t-43.5 -6t-39.5 -2q-39 0 -68.5 13.5t-34.5 54.5zM298 196q-17 -4 -21.5 -14.5t-4.5 -18.5q0 -19 7 -31t27 -12q19 0 33 14v71zM309 548l-65 78l189 183l101 -120z" />
    <glyph glyph-name="acircumflex" unicode="&#xe2;" horiz-adv-x="650" 
d="M355 53q-21 -24 -45 -37.5t-46 -20.5t-40 -8.5t-27 -1.5q-51 0 -83.5 15t-51 37.5t-25.5 48t-7 47.5q0 16 4 38t18.5 42.5t42 36.5t74.5 21l172 20v9q0 24 -13.5 36t-51.5 12q-18 0 -38.5 -1.5t-40.5 -4t-38.5 -6t-32.5 -7.5l-33 137q23 9 52 17t61 13t65.5 8t64.5 3
q52 0 94.5 -9t72 -30.5t45.5 -56.5t16 -86v-178h49l7 -132q-15 -8 -35 -13.5t-42 -9.5t-43.5 -6t-39.5 -2q-39 0 -68.5 13.5t-34.5 54.5zM298 196q-17 -4 -21.5 -14.5t-4.5 -18.5q0 -19 7 -31t27 -12q19 0 33 14v71zM502 536l-181 102l-178 -100l-51 60l159 162h142
l163 -162z" />
    <glyph glyph-name="atilde" unicode="&#xe3;" horiz-adv-x="650" 
d="M355 53q-21 -24 -45 -37.5t-46 -20.5t-40 -8.5t-27 -1.5q-51 0 -83.5 15t-51 37.5t-25.5 48t-7 47.5q0 16 4 38t18.5 42.5t42 36.5t74.5 21l172 20v9q0 24 -13.5 36t-51.5 12q-18 0 -38.5 -1.5t-40.5 -4t-38.5 -6t-32.5 -7.5l-33 137q23 9 52 17t61 13t65.5 8t64.5 3
q52 0 94.5 -9t72 -30.5t45.5 -56.5t16 -86v-178h49l7 -132q-15 -8 -35 -13.5t-42 -9.5t-43.5 -6t-39.5 -2q-39 0 -68.5 13.5t-34.5 54.5zM298 196q-17 -4 -21.5 -14.5t-4.5 -18.5q0 -19 7 -31t27 -12q19 0 33 14v71zM430 572q-30 0 -61 6t-60.5 13t-55 13t-43.5 6l-54 -39
l-62 45q25 70 57.5 95t71.5 25q27 0 55 -5.5t56 -12.5t55 -12.5t52 -5.5l55 41l60 -45q-21 -64 -51 -94t-75 -30z" />
    <glyph glyph-name="adieresis" unicode="&#xe4;" horiz-adv-x="650" 
d="M355 53q-21 -24 -45 -37.5t-46 -20.5t-40 -8.5t-27 -1.5q-51 0 -83.5 15t-51 37.5t-25.5 48t-7 47.5q0 16 4 38t18.5 42.5t42 36.5t74.5 21l172 20v9q0 24 -13.5 36t-51.5 12q-18 0 -38.5 -1.5t-40.5 -4t-38.5 -6t-32.5 -7.5l-33 137q23 9 52 17t61 13t65.5 8t64.5 3
q52 0 94.5 -9t72 -30.5t45.5 -56.5t16 -86v-178h49l7 -132q-15 -8 -35 -13.5t-42 -9.5t-43.5 -6t-39.5 -2q-39 0 -68.5 13.5t-34.5 54.5zM298 196q-17 -4 -21.5 -14.5t-4.5 -18.5q0 -19 7 -31t27 -12q19 0 33 14v71zM529 649q0 -41 -27.5 -69t-68.5 -28q-42 0 -70 28t-28 69
q0 21 7.5 39t21 31t31 20.5t38.5 7.5q41 0 68.5 -28t27.5 -70zM301 649q0 -20 -7.5 -38t-21 -31t-31 -20.5t-37.5 -7.5q-41 0 -69 28t-28 69q0 21 7.5 39t20.5 31t31 20.5t38 7.5t37.5 -7.5t31 -20.5t21 -31t7.5 -39z" />
    <glyph glyph-name="aring" unicode="&#xe5;" horiz-adv-x="650" 
d="M355 53q-21 -24 -45 -37.5t-46 -20.5t-40 -8.5t-27 -1.5q-51 0 -83.5 15t-51 37.5t-25.5 48t-7 47.5q0 16 4 38t18.5 42.5t42 36.5t74.5 21l172 20v9q0 24 -13.5 36t-51.5 12q-18 0 -38.5 -1.5t-40.5 -4t-38.5 -6t-32.5 -7.5l-33 137q23 9 52 17t61 13t65.5 8t64.5 3
q52 0 94.5 -9t72 -30.5t45.5 -56.5t16 -86v-178h49l7 -132q-15 -8 -35 -13.5t-42 -9.5t-43.5 -6t-39.5 -2q-39 0 -68.5 13.5t-34.5 54.5zM298 196q-17 -4 -21.5 -14.5t-4.5 -18.5q0 -19 7 -31t27 -12q19 0 33 14v71zM336 552q-32 0 -59 11.5t-47.5 31t-32 45.5t-11.5 56
q0 29 11.5 55.5t32 46.5t47.5 31.5t59 11.5t59 -11.5t46 -31.5t29.5 -46t10.5 -56t-11.5 -56.5t-31 -46t-46 -30.5t-56.5 -11zM336 744q-22 0 -36.5 -15.5t-14.5 -35.5q0 -17 13 -32.5t38 -15.5q22 0 34 15.5t12 32.5q0 20 -11.5 35.5t-34.5 15.5z" />
    <glyph glyph-name="ae" unicode="&#xe6;" horiz-adv-x="916" 
d="M631 508q70 0 117.5 -20t75.5 -54.5t40 -79.5t12 -95v-41h-288q0 -23 6 -36.5t17.5 -20.5t29 -9t40.5 -2q32 0 71.5 7.5t71.5 17.5l41 -135q-27 -15 -57 -25t-60.5 -16t-60 -8.5t-54.5 -2.5q-44 0 -76.5 4t-57.5 13t-43.5 23t-33.5 33q-23 -23 -48.5 -38t-52 -23.5
t-54 -11.5t-52.5 -3q-57 0 -93 15t-56.5 37.5t-28 48t-7.5 47.5q0 16 3.5 43t21 52t54 43.5t102.5 18.5h150v10q0 24 -18.5 36t-59.5 12q-52 0 -95.5 -5.5t-71.5 -13.5l-33 137q23 9 52.5 17t62.5 13t67 8t65 3q17 0 39 -3t43 -9t39.5 -15t29.5 -22q56 50 150 50zM314 123
q10 0 26.5 5t28.5 19q-5 17 -7.5 33.5t-3.5 34.5h-21q-32 0 -49.5 -12.5t-17.5 -35.5q0 -26 13.5 -35t30.5 -9zM634 356q-23 0 -33 -18.5t-10 -45.5h81q0 29 -7.5 46.5t-30.5 17.5z" />
    <glyph glyph-name="ccedilla" unicode="&#xe7;" horiz-adv-x="563" 
d="M279 254q0 -34 7 -54t20 -31t30 -14.5t38 -3.5q14 0 31 2t34 4.5t32 5.5t26 5l36 -142q-40 -19 -89 -28t-98 -11l-24 -33q52 -11 78 -37.5t26 -67.5q0 -17 -9.5 -37.5t-34.5 -38.5t-67 -30t-106 -13l-4 78q55 5 81.5 17.5t26.5 29.5q0 15 -14.5 19.5t-31.5 4.5
q-10 0 -18.5 -0.5t-15.5 -1.5l-23 35l57 78q-70 7 -114 31t-69 59t-34.5 78t-9.5 87q0 50 12.5 97t45 84t89.5 59t146 22q42 0 87.5 -5.5t87.5 -19.5l-1 -181h-148v49q-24 2 -39.5 -4.5t-24.5 -19.5t-12.5 -31.5t-3.5 -40.5z" />
    <glyph glyph-name="egrave" unicode="&#xe8;" horiz-adv-x="612" 
d="M323 356q-24 0 -34 -18.5t-10 -45.5h83q0 29 -8 46.5t-31 17.5zM320 508q72 0 120.5 -20t78 -54.5t41.5 -79.5t12 -95v-33h-296q0 -23 6 -38t18 -23.5t30 -11.5t41 -3q33 0 73.5 7.5t73.5 17.5l43 -135q-28 -15 -59 -25t-62.5 -16t-61.5 -8.5t-56 -2.5q-87 0 -141.5 22
t-86 58t-43 82.5t-11.5 95.5q0 54 15 101.5t48.5 83t87 56.5t129.5 21zM121 688l96 120l190 -182l-65 -78z" />
    <glyph glyph-name="eacute" unicode="&#xe9;" horiz-adv-x="612" 
d="M323 356q-24 0 -34 -18.5t-10 -45.5h83q0 29 -8 46.5t-31 17.5zM320 508q72 0 120.5 -20t78 -54.5t41.5 -79.5t12 -95v-33h-296q0 -23 6 -38t18 -23.5t30 -11.5t41 -3q33 0 73.5 7.5t73.5 17.5l43 -135q-28 -15 -59 -25t-62.5 -16t-61.5 -8.5t-56 -2.5q-87 0 -141.5 22
t-86 58t-43 82.5t-11.5 95.5q0 54 15 101.5t48.5 83t87 56.5t129.5 21zM304 548l-65 78l189 183l101 -120z" />
    <glyph glyph-name="ecircumflex" unicode="&#xea;" horiz-adv-x="612" 
d="M323 356q-24 0 -34 -18.5t-10 -45.5h83q0 29 -8 46.5t-31 17.5zM320 508q72 0 120.5 -20t78 -54.5t41.5 -79.5t12 -95v-33h-296q0 -23 6 -38t18 -23.5t30 -11.5t41 -3q33 0 73.5 7.5t73.5 17.5l43 -135q-28 -15 -59 -25t-62.5 -16t-61.5 -8.5t-56 -2.5q-87 0 -141.5 22
t-86 58t-43 82.5t-11.5 95.5q0 54 15 101.5t48.5 83t87 56.5t129.5 21zM505 536l-181 102l-178 -100l-51 60l159 162h142l163 -162z" />
    <glyph glyph-name="edieresis" unicode="&#xeb;" horiz-adv-x="612" 
d="M323 356q-24 0 -34 -18.5t-10 -45.5h83q0 29 -8 46.5t-31 17.5zM320 508q72 0 120.5 -20t78 -54.5t41.5 -79.5t12 -95v-33h-296q0 -23 6 -38t18 -23.5t30 -11.5t41 -3q33 0 73.5 7.5t73.5 17.5l43 -135q-28 -15 -59 -25t-62.5 -16t-61.5 -8.5t-56 -2.5q-87 0 -141.5 22
t-86 58t-43 82.5t-11.5 95.5q0 54 15 101.5t48.5 83t87 56.5t129.5 21zM516 649q0 -41 -27.5 -69t-68.5 -28q-42 0 -70 28t-28 69q0 21 7.5 39t21 31t31 20.5t38.5 7.5q41 0 68.5 -28t27.5 -70zM288 649q0 -20 -7.5 -38t-21 -31t-31 -20.5t-37.5 -7.5q-41 0 -69 28t-28 69
q0 21 7.5 39t20.5 31t31 20.5t38 7.5t37.5 -7.5t31 -20.5t21 -31t7.5 -39z" />
    <glyph glyph-name="igrave" unicode="&#xec;" horiz-adv-x="434" 
d="M40 352v143h287v-342h67v-139q-35 -14 -78.5 -21t-78.5 -7q-43 0 -71.5 8.5t-45.5 25t-24 40.5t-7 55v237h-49zM7 688l96 120l190 -182l-65 -78z" />
    <glyph glyph-name="iacute" unicode="&#xed;" horiz-adv-x="434" 
d="M40 352v143h287v-342h67v-139q-35 -14 -78.5 -21t-78.5 -7q-43 0 -71.5 8.5t-45.5 25t-24 40.5t-7 55v237h-49zM193 548l-65 78l189 183l101 -120z" />
    <glyph glyph-name="icircumflex" unicode="&#xee;" horiz-adv-x="434" 
d="M40 352v143h287v-342h67v-139q-35 -14 -78.5 -21t-78.5 -7q-43 0 -71.5 8.5t-45.5 25t-24 40.5t-7 55v237h-49zM374 536l-181 102l-178 -100l-51 60l159 162h142l163 -162z" />
    <glyph glyph-name="idieresis" unicode="&#xef;" horiz-adv-x="434" 
d="M40 352v143h287v-342h67v-139q-35 -14 -78.5 -21t-78.5 -7q-43 0 -71.5 8.5t-45.5 25t-24 40.5t-7 55v237h-49zM398 649q0 -41 -27.5 -69t-68.5 -28q-42 0 -70 28t-28 69q0 21 7.5 39t21 31t31 20.5t38.5 7.5q41 0 68.5 -28t27.5 -70zM170 649q0 -20 -7.5 -38t-21 -31
t-31 -20.5t-37.5 -7.5q-41 0 -69 28t-28 69q0 21 7.5 39t20.5 31t31 20.5t38 7.5t37.5 -7.5t31 -20.5t21 -31t7.5 -39z" />
    <glyph glyph-name="eth" unicode="&#xf0;" horiz-adv-x="687" 
d="M500 757l38 -53l-57 -37q94 -68 134 -164t29 -232q-4 -46 -19 -96t-50 -91t-94 -68t-149 -27q-82 0 -137.5 21t-90 55.5t-49.5 78.5t-15 91q0 50 19.5 94.5t54.5 78t83.5 53t106.5 19.5q16 0 40.5 -2.5t48.5 -14.5q-9 32 -24 58t-35 49l-83 -55l-35 54l68 45
q-31 22 -73 44l57 111q43 -14 81 -30t72 -35zM345 332q-20 0 -32 -7t-19.5 -19t-10 -28t-2.5 -33t2 -35t8 -33t17.5 -24.5t31.5 -9.5t33 11t20.5 28.5t10.5 40t3 46.5v21.5t-1 21.5q-14 8 -29.5 14t-31.5 6z" />
    <glyph glyph-name="ntilde" unicode="&#xf1;" horiz-adv-x="747" 
d="M477 508q183 0 183 -185v-170h57v-139q-35 -14 -73.5 -21t-73.5 -7q-43 0 -71.5 8.5t-45.5 25t-24 40.5t-7 55v159q0 32 -13.5 45t-36.5 13q-10 0 -23 -5.5t-24 -16.5v-310h-239v354h-56v142h289v-43l6 -2q35 26 74.5 41.5t77.5 15.5zM443 572q-30 0 -61 6t-60.5 13
t-55 13t-43.5 6l-54 -39l-62 45q25 70 57.5 95t71.5 25q27 0 55 -5.5t56 -12.5t55 -12.5t52 -5.5l55 41l60 -45q-21 -64 -51 -94t-75 -30z" />
    <glyph glyph-name="ograve" unicode="&#xf2;" horiz-adv-x="681" 
d="M641 249q0 -58 -19 -105.5t-57 -82t-94 -53.5t-131 -19t-131.5 19t-94 53.5t-56 82t-18.5 105.5q0 57 18.5 104.5t56 81t94 52.5t131.5 19t131 -19t94 -52.5t57 -81t19 -104.5zM398 249q0 45 -12 72.5t-46 27.5q-17 0 -28 -8t-18 -22t-9.5 -32t-2.5 -38q0 -47 12 -76.5
t46 -29.5t46 28.5t12 77.5zM125 688l96 120l190 -182l-65 -78z" />
    <glyph glyph-name="oacute" unicode="&#xf3;" horiz-adv-x="681" 
d="M641 249q0 -58 -19 -105.5t-57 -82t-94 -53.5t-131 -19t-131.5 19t-94 53.5t-56 82t-18.5 105.5q0 57 18.5 104.5t56 81t94 52.5t131.5 19t131 -19t94 -52.5t57 -81t19 -104.5zM398 249q0 45 -12 72.5t-46 27.5q-17 0 -28 -8t-18 -22t-9.5 -32t-2.5 -38q0 -47 12 -76.5
t46 -29.5t46 28.5t12 77.5zM341 548l-65 78l189 183l101 -120z" />
    <glyph glyph-name="ocircumflex" unicode="&#xf4;" horiz-adv-x="681" 
d="M641 249q0 -58 -19 -105.5t-57 -82t-94 -53.5t-131 -19t-131.5 19t-94 53.5t-56 82t-18.5 105.5q0 57 18.5 104.5t56 81t94 52.5t131.5 19t131 -19t94 -52.5t57 -81t19 -104.5zM398 249q0 45 -12 72.5t-46 27.5q-17 0 -28 -8t-18 -22t-9.5 -32t-2.5 -38q0 -47 12 -76.5
t46 -29.5t46 28.5t12 77.5zM519 536l-181 102l-178 -100l-51 60l159 162h142l163 -162z" />
    <glyph glyph-name="otilde" unicode="&#xf5;" horiz-adv-x="681" 
d="M641 249q0 -58 -19 -105.5t-57 -82t-94 -53.5t-131 -19t-131.5 19t-94 53.5t-56 82t-18.5 105.5q0 57 18.5 104.5t56 81t94 52.5t131.5 19t131 -19t94 -52.5t57 -81t19 -104.5zM398 249q0 45 -12 72.5t-46 27.5q-17 0 -28 -8t-18 -22t-9.5 -32t-2.5 -38q0 -47 12 -76.5
t46 -29.5t46 28.5t12 77.5zM446 556q-30 0 -61 6t-60.5 13t-55 13t-43.5 6l-54 -39l-62 45q25 70 57.5 95t71.5 25q27 0 55 -5.5t56 -12.5t55 -12.5t52 -5.5l55 41l60 -45q-21 -64 -51 -94t-75 -30z" />
    <glyph glyph-name="odieresis" unicode="&#xf6;" horiz-adv-x="681" 
d="M641 249q0 -58 -19 -105.5t-57 -82t-94 -53.5t-131 -19t-131.5 19t-94 53.5t-56 82t-18.5 105.5q0 57 18.5 104.5t56 81t94 52.5t131.5 19t131 -19t94 -52.5t57 -81t19 -104.5zM398 249q0 45 -12 72.5t-46 27.5q-17 0 -28 -8t-18 -22t-9.5 -32t-2.5 -38q0 -47 12 -76.5
t46 -29.5t46 28.5t12 77.5zM550 649q0 -41 -27.5 -69t-68.5 -28q-42 0 -70 28t-28 69q0 21 7.5 39t21 31t31 20.5t38.5 7.5q41 0 68.5 -28t27.5 -70zM322 649q0 -20 -7.5 -38t-21 -31t-31 -20.5t-37.5 -7.5q-41 0 -69 28t-28 69q0 21 7.5 39t20.5 31t31 20.5t38 7.5
t37.5 -7.5t31 -20.5t21 -31t7.5 -39z" />
    <glyph glyph-name="divide" unicode="&#xf7;" horiz-adv-x="662" 
d="M421 503q0 -38 -26.5 -64.5t-64.5 -26.5q-19 0 -36 7t-29.5 19.5t-19.5 29t-7 35.5t7 35.5t19.5 29t29.5 19.5t36 7q38 0 64.5 -26.5t26.5 -64.5zM97 248v124h466v-124h-466zM421 117q0 -38 -26.5 -65t-64.5 -27q-19 0 -36 7.5t-29.5 20t-19.5 29t-7 35.5t7 35.5t19.5 29
t29.5 19.5t36 7q38 0 64.5 -26.5t26.5 -64.5z" />
    <glyph glyph-name="oslash" unicode="&#xf8;" horiz-adv-x="681" 
d="M641 249q0 -58 -19 -105.5t-57 -82t-94 -53.5t-131 -19q-111 0 -182 41l-38 -38h-82l73 72q-36 35 -53.5 81.5t-17.5 103.5t18.5 104.5t56 81t94 52.5t131.5 19q107 0 179 -40l40 40h83l-75 -74q74 -68 74 -183zM398 265l-101 -98q14 -24 43 -24q34 0 46 28.5t12 77.5v16
zM282 233l98 97q-14 19 -40 19q-17 0 -28 -8t-18 -22t-9.5 -32t-2.5 -38v-16z" />
    <glyph glyph-name="ugrave" unicode="&#xf9;" horiz-adv-x="735" 
d="M369 496h279v-343h57v-140q-54 -18 -92.5 -22.5t-61.5 -4.5q-65 0 -92.5 21.5t-35.5 55.5q-32 -32 -72 -54.5t-94 -22.5q-37 0 -68 10t-53.5 31t-35.5 54t-13 79v192h-57v143h295v-276q0 -29 9.5 -40.5t32.5 -11.5q5 0 18.5 5t24.5 18v163h-41v143zM148 688l96 120
l190 -182l-65 -78z" />
    <glyph glyph-name="uacute" unicode="&#xfa;" horiz-adv-x="735" 
d="M369 496h279v-343h57v-140q-54 -18 -92.5 -22.5t-61.5 -4.5q-65 0 -92.5 21.5t-35.5 55.5q-32 -32 -72 -54.5t-94 -22.5q-37 0 -68 10t-53.5 31t-35.5 54t-13 79v192h-57v143h295v-276q0 -29 9.5 -40.5t32.5 -11.5q5 0 18.5 5t24.5 18v163h-41v143zM361 548l-65 78
l189 183l101 -120z" />
    <glyph glyph-name="ucircumflex" unicode="&#xfb;" horiz-adv-x="735" 
d="M369 496h279v-343h57v-140q-54 -18 -92.5 -22.5t-61.5 -4.5q-65 0 -92.5 21.5t-35.5 55.5q-32 -32 -72 -54.5t-94 -22.5q-37 0 -68 10t-53.5 31t-35.5 54t-13 79v192h-57v143h295v-276q0 -29 9.5 -40.5t32.5 -11.5q5 0 18.5 5t24.5 18v163h-41v143zM545 536l-181 102
l-178 -100l-51 60l159 162h142l163 -162z" />
    <glyph glyph-name="udieresis" unicode="&#xfc;" horiz-adv-x="735" 
d="M369 496h279v-343h57v-140q-54 -18 -92.5 -22.5t-61.5 -4.5q-65 0 -92.5 21.5t-35.5 55.5q-32 -32 -72 -54.5t-94 -22.5q-37 0 -68 10t-53.5 31t-35.5 54t-13 79v192h-57v143h295v-276q0 -29 9.5 -40.5t32.5 -11.5q5 0 18.5 5t24.5 18v163h-41v143zM565 649
q0 -41 -27.5 -69t-68.5 -28q-42 0 -70 28t-28 69q0 21 7.5 39t21 31t31 20.5t38.5 7.5q41 0 68.5 -28t27.5 -70zM337 649q0 -20 -7.5 -38t-21 -31t-31 -20.5t-37.5 -7.5q-41 0 -69 28t-28 69q0 21 7.5 39t20.5 31t31 20.5t38 7.5t37.5 -7.5t31 -20.5t21 -31t7.5 -39z" />
    <glyph glyph-name="yacute" unicode="&#xfd;" horiz-adv-x="705" 
d="M451 -126q-9 -21 -20.5 -39.5t-28.5 -32t-41 -21t-57 -7.5q-11 0 -33.5 1.5t-49.5 5.5t-56.5 10.5t-54.5 15.5l25 147q22 -3 40 -5t32 -2q30 0 47.5 11t28.5 42l9 26h-112l-116 311h-49v158h229l67 -230l32 -119h4l39 128l24 78h-40v143h315v-143h-42zM333 548l-65 78
l189 183l101 -120z" />
    <glyph glyph-name="thorn" unicode="&#xfe;" horiz-adv-x="723" 
d="M86 550h-57v142h287v-228l3 -1q19 12 39.5 20.5t39.5 13t35 6.5t26 2q65 0 108 -19t69 -52t36.5 -78t10.5 -97q0 -59 -12 -108.5t-39 -85t-71.5 -55.5t-108.5 -20q-10 0 -25.5 1.5t-33.5 4.5t-36.5 7.5t-33.5 10.5v-85h57v-142h-350v142h56v621zM387 151q7 0 17.5 3
t20.5 13.5t16.5 31t6.5 55.5q0 34 -6 53t-15.5 28t-20.5 10.5t-21 1.5q-11 0 -27.5 -4.5t-33.5 -13.5v-162q19 -9 34 -12.5t29 -3.5z" />
    <glyph glyph-name="ydieresis" unicode="&#xff;" horiz-adv-x="705" 
d="M451 -126q-9 -21 -20.5 -39.5t-28.5 -32t-41 -21t-57 -7.5q-11 0 -33.5 1.5t-49.5 5.5t-56.5 10.5t-54.5 15.5l25 147q22 -3 40 -5t32 -2q30 0 47.5 11t28.5 42l9 26h-112l-116 311h-49v158h229l67 -230l32 -119h4l39 128l24 78h-40v143h315v-143h-42zM539 649
q0 -41 -27.5 -69t-68.5 -28q-42 0 -70 28t-28 69q0 21 7.5 39t21 31t31 20.5t38.5 7.5q41 0 68.5 -28t27.5 -70zM311 649q0 -20 -7.5 -38t-21 -31t-31 -20.5t-37.5 -7.5q-41 0 -69 28t-28 69q0 21 7.5 39t20.5 31t31 20.5t38 7.5t37.5 -7.5t31 -20.5t21 -31t7.5 -39z" />
    <glyph glyph-name="Amacron" unicode="&#x100;" horiz-adv-x="852" 
d="M522 194h-209l-15 -45h56v-149h-334v149h53l213 544h297l195 -544h54v-149h-349v149h53zM386 401l-24 -68h117l-21 66l-32 111h-4zM241 885h400v-136h-400v136z" />
    <glyph glyph-name="amacron" unicode="&#x101;" horiz-adv-x="650" 
d="M355 53q-21 -24 -45 -37.5t-46 -20.5t-40 -8.5t-27 -1.5q-51 0 -83.5 15t-51 37.5t-25.5 48t-7 47.5q0 16 4 38t18.5 42.5t42 36.5t74.5 21l172 20v9q0 24 -13.5 36t-51.5 12q-18 0 -38.5 -1.5t-40.5 -4t-38.5 -6t-32.5 -7.5l-33 137q23 9 52 17t61 13t65.5 8t64.5 3
q52 0 94.5 -9t72 -30.5t45.5 -56.5t16 -86v-178h49l7 -132q-15 -8 -35 -13.5t-42 -9.5t-43.5 -6t-39.5 -2q-39 0 -68.5 13.5t-34.5 54.5zM298 196q-17 -4 -21.5 -14.5t-4.5 -18.5q0 -19 7 -31t27 -12q19 0 33 14v71zM130 685h400v-136h-400v136z" />
    <glyph glyph-name="Abreve" unicode="&#x102;" horiz-adv-x="852" 
d="M522 194h-209l-15 -45h56v-149h-334v149h53l213 544h297l195 -544h54v-149h-349v149h53zM386 401l-24 -68h117l-21 66l-32 111h-4zM430 747q-34 0 -65 12t-58.5 33t-51.5 49.5t-44 62.5l78 64q19 -26 39.5 -44t39.5 -29.5t36 -16.5t30 -5q9 0 22 1t33 9t47 26t65 53
l58 -59q-27 -45 -56 -75t-59 -48t-59 -25.5t-55 -7.5z" />
    <glyph glyph-name="abreve" unicode="&#x103;" horiz-adv-x="650" 
d="M355 53q-21 -24 -45 -37.5t-46 -20.5t-40 -8.5t-27 -1.5q-51 0 -83.5 15t-51 37.5t-25.5 48t-7 47.5q0 16 4 38t18.5 42.5t42 36.5t74.5 21l172 20v9q0 24 -13.5 36t-51.5 12q-18 0 -38.5 -1.5t-40.5 -4t-38.5 -6t-32.5 -7.5l-33 137q23 9 52 17t61 13t65.5 8t64.5 3
q52 0 94.5 -9t72 -30.5t45.5 -56.5t16 -86v-178h49l7 -132q-15 -8 -35 -13.5t-42 -9.5t-43.5 -6t-39.5 -2q-39 0 -68.5 13.5t-34.5 54.5zM298 196q-17 -4 -21.5 -14.5t-4.5 -18.5q0 -19 7 -31t27 -12q19 0 33 14v71zM320 548q-34 0 -65 12t-58.5 33t-51.5 49.5t-44 62.5
l78 64q19 -26 39.5 -44t39.5 -29.5t36 -16.5t30 -5q9 0 22 1t33 9t47 26t65 53l58 -59q-27 -45 -56 -75t-59 -48t-59 -25.5t-55 -7.5z" />
    <glyph glyph-name="Aogonek" unicode="&#x104;" horiz-adv-x="852" 
d="M522 194h-209l-15 -45h56v-149h-334v149h53l213 544h297l195 -544h54v-149h-128q-22 -31 -37.5 -65t-15.5 -61q0 -24 11 -36t28.5 -16t40 -1t46.5 8l20 -63q-33 -18 -70 -27.5t-70 -9.5q-61 0 -92 25.5t-31 70.5q0 16 4 36t15 42.5t30 47t48 49.5h-148v149h53zM386 401
l-24 -68h117l-21 66l-32 111h-4z" />
    <glyph glyph-name="aogonek" unicode="&#x105;" horiz-adv-x="650" 
d="M355 53q-21 -24 -45 -37.5t-46 -20.5t-40 -8.5t-27 -1.5q-51 0 -83.5 15t-51 37.5t-25.5 48t-7 47.5q0 16 4 38t18.5 42.5t42 36.5t74.5 21l172 20v9q0 24 -13.5 36t-51.5 12q-18 0 -38.5 -1.5t-40.5 -4t-38.5 -6t-32.5 -7.5l-33 137q23 9 52 17t61 13t65.5 8t64.5 3
q52 0 94.5 -9t72 -30.5t45.5 -56.5t16 -86v-178h49l7 -132q-8 -5 -17 -8t-20 -6q-20 -29 -33 -59.5t-13 -55.5q0 -24 11 -36t28.5 -16t40 -1t46.5 8l20 -63q-33 -18 -70 -27.5t-70 -9.5q-61 0 -92 25.5t-31 70.5q0 28 13.5 66.5t54.5 81.5q-8 0 -15 -0.5t-13 -0.5
q-39 0 -68.5 13.5t-34.5 54.5zM298 196q-17 -4 -21.5 -14.5t-4.5 -18.5q0 -19 7 -31t27 -12q19 0 33 14v71z" />
    <glyph glyph-name="Cacute" unicode="&#x106;" horiz-adv-x="713" 
d="M307 355q0 -60 12.5 -95t35.5 -53t55.5 -22.5t72.5 -4.5q11 0 30 1.5t41.5 4t45 6t39.5 6.5l34 -168q-55 -21 -122.5 -31.5t-128.5 -10.5q-115 0 -187.5 31t-113.5 81.5t-56 115t-15 131.5q0 70 16 135.5t58.5 116t118 81t195.5 30.5q53 0 102 -7t98 -21v-250h-165v94
q-9 2 -16 2.5t-15 0.5q-39 0 -65 -12.5t-41.5 -35.5t-22 -55t-6.5 -71zM374 747l-65 78l189 183l101 -120z" />
    <glyph glyph-name="cacute" unicode="&#x107;" horiz-adv-x="563" 
d="M279 254q0 -34 7 -54t20 -31t30 -14.5t38 -3.5q14 0 31 2t34 4.5t32 5.5t26 5l36 -142q-44 -20 -99 -29.5t-109 -9.5q-88 0 -143.5 22t-87 58.5t-43 83t-11.5 94.5q0 50 12.5 97t45 84t89.5 59t146 22q42 0 87.5 -5.5t87.5 -19.5l-1 -181h-148v49q-24 2 -39.5 -4.5
t-24.5 -19.5t-12.5 -31.5t-3.5 -40.5zM291 548l-65 78l189 183l101 -120z" />
    <glyph glyph-name="Ccircumflex" unicode="&#x108;" horiz-adv-x="713" 
d="M307 355q0 -60 12.5 -95t35.5 -53t55.5 -22.5t72.5 -4.5q11 0 30 1.5t41.5 4t45 6t39.5 6.5l34 -168q-55 -21 -122.5 -31.5t-128.5 -10.5q-115 0 -187.5 31t-113.5 81.5t-56 115t-15 131.5q0 70 16 135.5t58.5 116t118 81t195.5 30.5q53 0 102 -7t98 -21v-250h-165v94
q-9 2 -16 2.5t-15 0.5q-39 0 -65 -12.5t-41.5 -35.5t-22 -55t-6.5 -71zM581 747l-181 102l-178 -100l-51 60l159 162h142l163 -162z" />
    <glyph glyph-name="ccircumflex" unicode="&#x109;" horiz-adv-x="563" 
d="M279 254q0 -34 7 -54t20 -31t30 -14.5t38 -3.5q14 0 31 2t34 4.5t32 5.5t26 5l36 -142q-44 -20 -99 -29.5t-109 -9.5q-88 0 -143.5 22t-87 58.5t-43 83t-11.5 94.5q0 50 12.5 97t45 84t89.5 59t146 22q42 0 87.5 -5.5t87.5 -19.5l-1 -181h-148v49q-24 2 -39.5 -4.5
t-24.5 -19.5t-12.5 -31.5t-3.5 -40.5zM477 536l-181 102l-178 -100l-51 60l159 162h142l163 -162z" />
    <glyph glyph-name="Cdotaccent" unicode="&#x10a;" horiz-adv-x="713" 
d="M307 355q0 -60 12.5 -95t35.5 -53t55.5 -22.5t72.5 -4.5q11 0 30 1.5t41.5 4t45 6t39.5 6.5l34 -168q-55 -21 -122.5 -31.5t-128.5 -10.5q-115 0 -187.5 31t-113.5 81.5t-56 115t-15 131.5q0 70 16 135.5t58.5 116t118 81t195.5 30.5q53 0 102 -7t98 -21v-250h-165v94
q-9 2 -16 2.5t-15 0.5q-39 0 -65 -12.5t-41.5 -35.5t-22 -55t-6.5 -71zM502 870q0 -24 -9 -44.5t-24.5 -35.5t-36.5 -24t-44 -9q-24 0 -44.5 9t-35.5 24t-23.5 35.5t-8.5 44.5q0 23 8.5 43.5t23.5 36t35.5 24.5t44.5 9q23 0 44 -9t36.5 -24.5t24.5 -36t9 -43.5z" />
    <glyph glyph-name="cdotaccent" unicode="&#x10b;" horiz-adv-x="563" 
d="M279 254q0 -34 7 -54t20 -31t30 -14.5t38 -3.5q14 0 31 2t34 4.5t32 5.5t26 5l36 -142q-44 -20 -99 -29.5t-109 -9.5q-88 0 -143.5 22t-87 58.5t-43 83t-11.5 94.5q0 50 12.5 97t45 84t89.5 59t146 22q42 0 87.5 -5.5t87.5 -19.5l-1 -181h-148v49q-24 2 -39.5 -4.5
t-24.5 -19.5t-12.5 -31.5t-3.5 -40.5zM410 669q0 -23 -8 -42.5t-22 -34.5t-32.5 -23.5t-39.5 -8.5t-39.5 8.5t-32 23.5t-21 34.5t-7.5 42.5q0 22 7.5 42t21 35t32 23.5t39.5 8.5t39.5 -8.5t32.5 -23.5t22 -35t8 -42z" />
    <glyph glyph-name="Ccaron" unicode="&#x10c;" horiz-adv-x="713" 
d="M307 355q0 -60 12.5 -95t35.5 -53t55.5 -22.5t72.5 -4.5q11 0 30 1.5t41.5 4t45 6t39.5 6.5l34 -168q-55 -21 -122.5 -31.5t-128.5 -10.5q-115 0 -187.5 31t-113.5 81.5t-56 115t-15 131.5q0 70 16 135.5t58.5 116t118 81t195.5 30.5q53 0 102 -7t98 -21v-250h-165v94
q-9 2 -16 2.5t-15 0.5q-39 0 -65 -12.5t-41.5 -35.5t-22 -55t-6.5 -71zM631 911l-163 -162h-142l-159 162l51 60l178 -100l181 102z" />
    <glyph glyph-name="ccaron" unicode="&#x10d;" horiz-adv-x="563" 
d="M279 254q0 -34 7 -54t20 -31t30 -14.5t38 -3.5q14 0 31 2t34 4.5t32 5.5t26 5l36 -142q-44 -20 -99 -29.5t-109 -9.5q-88 0 -143.5 22t-87 58.5t-43 83t-11.5 94.5q0 50 12.5 97t45 84t89.5 59t146 22q42 0 87.5 -5.5t87.5 -19.5l-1 -181h-148v49q-24 2 -39.5 -4.5
t-24.5 -19.5t-12.5 -31.5t-3.5 -40.5zM545 713l-163 -162h-142l-159 162l51 60l178 -100l181 102z" />
    <glyph glyph-name="Dcaron" unicode="&#x10e;" horiz-adv-x="838" 
d="M45 0v149h78v396h-73v148h390q103 0 170.5 -27.5t107 -74.5t55 -110t15.5 -133q0 -68 -18 -131t-59 -111t-107.5 -77t-163.5 -29h-395zM366 545v-396h50q35 0 57 17t35 45t17.5 63.5t4.5 72.5q0 38 -5 74t-18.5 63.5t-37.5 44t-61 16.5h-42zM617 911l-163 -162h-142
l-159 162l51 60l178 -100l181 102z" />
    <glyph glyph-name="dcaron" unicode="&#x10f;" horiz-adv-x="975" 
d="M750 671q0 35 27.5 60t74.5 25q28 0 47 -9.5t31 -24.5t17.5 -34t5.5 -38q0 -32 -13.5 -62.5t-35 -57.5t-48.5 -48.5t-55 -34.5l-51 63q27 20 43.5 39t20.5 47q-34 5 -49 24.5t-15 50.5zM411 39q-18 -15 -39.5 -24.5t-42 -15.5t-38 -8t-27.5 -2q-65 0 -108 19t-69 52
t-36.5 78t-10.5 97q0 59 12 109.5t39 87t71 57t109 20.5q10 0 25.5 -1.5t33.5 -4.5t36.5 -7.5t33.5 -10.5v97h-61v142h298v-580h55v-144h-278v38zM336 348q-8 0 -18 -2t-20 -12t-16.5 -32t-6.5 -62q0 -34 6 -53t15.5 -28t20.5 -10.5t21 -1.5q11 0 27.5 4.5t33.5 13.5v167
q-19 9 -34 12.5t-29 3.5z" />
    <glyph glyph-name="Dcroat" unicode="&#x110;" horiz-adv-x="838" 
d="M45 0v149h78v159h-72v92h72v145h-73v148h390q103 0 170.5 -27.5t107 -74.5t55 -110t15.5 -133q0 -68 -18 -131t-59 -111t-107.5 -77t-163.5 -29h-395zM366 545v-145h71v-92h-71v-159h50q35 0 57 17t35 45t17.5 63.5t4.5 72.5q0 38 -5 74t-18.5 63.5t-37.5 44t-61 16.5
h-42z" />
    <glyph glyph-name="dcroat" unicode="&#x111;" horiz-adv-x="722" 
d="M411 39q-18 -15 -39.5 -24.5t-42 -15.5t-38 -8t-27.5 -2q-65 0 -108 17.5t-69 48.5t-36.5 74.5t-10.5 95.5q0 54 12 99.5t39 78.5t71 51.5t109 18.5q10 0 25.5 -2t33.5 -5.5t36.5 -9t33.5 -11.5v54h-104v63h104v30h-61v132h298v-162h52v-63h-52v-355h55v-144h-278v38z
M336 315q-8 0 -19 -2t-20.5 -10.5t-16.5 -25.5t-5 -47q2 -34 8.5 -51.5t15.5 -24.5t19 -7h20q11 0 27.5 4.5t33.5 13.5v134q-19 9 -34 12.5t-29 3.5z" />
    <glyph glyph-name="Emacron" unicode="&#x112;" horiz-adv-x="776" 
d="M45 0v149h74v396h-74v148h683v-271h-163v123h-203v-123l153 3v-144l-153 3v-135h211v135h163v-284h-691zM219 885h400v-136h-400v136z" />
    <glyph glyph-name="emacron" unicode="&#x113;" horiz-adv-x="612" 
d="M323 356q-24 0 -34 -18.5t-10 -45.5h83q0 29 -8 46.5t-31 17.5zM320 508q72 0 120.5 -20t78 -54.5t41.5 -79.5t12 -95v-33h-296q0 -23 6 -38t18 -23.5t30 -11.5t41 -3q33 0 73.5 7.5t73.5 17.5l43 -135q-28 -15 -59 -25t-62.5 -16t-61.5 -8.5t-56 -2.5q-87 0 -141.5 22
t-86 58t-43 82.5t-11.5 95.5q0 54 15 101.5t48.5 83t87 56.5t129.5 21zM114 685h400v-136h-400v136z" />
    <glyph glyph-name="Ebreve" unicode="&#x114;" horiz-adv-x="776" 
d="M45 0v149h74v396h-74v148h683v-271h-163v123h-203v-123l153 3v-144l-153 3v-135h211v135h163v-284h-691zM408 747q-34 0 -65 12t-58.5 33t-51.5 49.5t-44 62.5l78 64q19 -26 39.5 -44t39.5 -29.5t36 -16.5t30 -5q9 0 22 1t33 9t47 26t65 53l58 -59q-27 -45 -56 -75
t-59 -48t-59 -25.5t-55 -7.5z" />
    <glyph glyph-name="ebreve" unicode="&#x115;" horiz-adv-x="612" 
d="M323 356q-24 0 -34 -18.5t-10 -45.5h83q0 29 -8 46.5t-31 17.5zM320 508q72 0 120.5 -20t78 -54.5t41.5 -79.5t12 -95v-33h-296q0 -23 6 -38t18 -23.5t30 -11.5t41 -3q33 0 73.5 7.5t73.5 17.5l43 -135q-28 -15 -59 -25t-62.5 -16t-61.5 -8.5t-56 -2.5q-87 0 -141.5 22
t-86 58t-43 82.5t-11.5 95.5q0 54 15 101.5t48.5 83t87 56.5t129.5 21zM320 548q-34 0 -65 12t-58.5 33t-51.5 49.5t-44 62.5l78 64q19 -26 39.5 -44t39.5 -29.5t36 -16.5t30 -5q9 0 22 1t33 9t47 26t65 53l58 -59q-27 -45 -56 -75t-59 -48t-59 -25.5t-55 -7.5z" />
    <glyph glyph-name="Edotaccent" unicode="&#x116;" horiz-adv-x="776" 
d="M45 0v149h74v396h-74v148h683v-271h-163v123h-203v-123l153 3v-144l-153 3v-135h211v135h163v-284h-691zM485 864q0 -24 -9 -44.5t-24.5 -35.5t-36.5 -24t-44 -9q-24 0 -44.5 9t-35.5 24t-23.5 35.5t-8.5 44.5q0 23 8.5 43.5t23.5 36t35.5 24.5t44.5 9q23 0 44 -9
t36.5 -24.5t24.5 -36t9 -43.5z" />
    <glyph glyph-name="edotaccent" unicode="&#x117;" horiz-adv-x="612" 
d="M323 356q-24 0 -34 -18.5t-10 -45.5h83q0 29 -8 46.5t-31 17.5zM320 508q72 0 120.5 -20t78 -54.5t41.5 -79.5t12 -95v-33h-296q0 -23 6 -38t18 -23.5t30 -11.5t41 -3q33 0 73.5 7.5t73.5 17.5l43 -135q-28 -15 -59 -25t-62.5 -16t-61.5 -8.5t-56 -2.5q-87 0 -141.5 22
t-86 58t-43 82.5t-11.5 95.5q0 54 15 101.5t48.5 83t87 56.5t129.5 21zM429 670q0 -24 -9 -44.5t-24.5 -35.5t-36.5 -24t-44 -9q-24 0 -44.5 9t-35.5 24t-23.5 35.5t-8.5 44.5q0 23 8.5 43.5t23.5 36t35.5 24.5t44.5 9q23 0 44 -9t36.5 -24.5t24.5 -36t9 -43.5z" />
    <glyph glyph-name="Eogonek" unicode="&#x118;" horiz-adv-x="776" 
d="M712 0q-20 -30 -34.5 -61.5t-14.5 -57.5q0 -24 11 -36t28.5 -16t40 -1t46.5 8l20 -63q-33 -18 -70 -27.5t-70 -9.5q-61 0 -92 25.5t-31 70.5q0 31 17.5 75.5t71.5 92.5h-590v149h74v396h-74v148h683v-271h-163v123h-203v-123l153 3v-144l-153 3v-135h211v135h163v-284
h-24z" />
    <glyph glyph-name="eogonek" unicode="&#x119;" horiz-adv-x="612" 
d="M320 508q72 0 120.5 -20t78 -54.5t41.5 -79.5t12 -95v-33h-296q0 -23 6 -38t18 -23.5t30 -11.5t41 -3q33 0 73.5 7.5t73.5 17.5l43 -135q-5 -3 -10.5 -5.5t-10.5 -4.5q-20 -29 -34 -60.5t-14 -57.5q0 -24 11 -36t28.5 -16t40 -1t46.5 8l20 -63q-33 -18 -70 -27.5
t-70 -9.5q-61 0 -92 25.5t-31 70.5q0 26 11.5 60.5t44.5 73.5q-29 -5 -57 -7t-52 -2q-87 0 -141.5 22t-86 58t-43 82.5t-11.5 95.5q0 54 15 101.5t48.5 83t87 56.5t129.5 21zM323 356q-24 0 -34 -18.5t-10 -45.5h83q0 29 -8 46.5t-31 17.5z" />
    <glyph glyph-name="Ecaron" unicode="&#x11a;" horiz-adv-x="776" 
d="M45 0v149h74v396h-74v148h683v-271h-163v123h-203v-123l153 3v-144l-153 3v-135h211v135h163v-284h-691zM648 911l-163 -162h-142l-159 162l51 60l178 -100l181 102z" />
    <glyph glyph-name="ecaron" unicode="&#x11b;" horiz-adv-x="612" 
d="M323 356q-24 0 -34 -18.5t-10 -45.5h83q0 29 -8 46.5t-31 17.5zM320 508q72 0 120.5 -20t78 -54.5t41.5 -79.5t12 -95v-33h-296q0 -23 6 -38t18 -23.5t30 -11.5t41 -3q33 0 73.5 7.5t73.5 17.5l43 -135q-28 -15 -59 -25t-62.5 -16t-61.5 -8.5t-56 -2.5q-87 0 -141.5 22
t-86 58t-43 82.5t-11.5 95.5q0 54 15 101.5t48.5 83t87 56.5t129.5 21zM538 713l-163 -162h-142l-159 162l51 60l178 -100l181 102z" />
    <glyph glyph-name="Gcircumflex" unicode="&#x11c;" horiz-adv-x="785" 
d="M446 710q53 0 110 -7t106 -21v-242h-166v91q-21 3 -41 3q-81 0 -114.5 -49t-33.5 -130q0 -55 8.5 -90.5t24.5 -56.5t39.5 -29t52.5 -8q11 0 23.5 1t26.5 3v70h-59v131h322v-131h-47v-212q-68 -25 -141.5 -35t-134.5 -10q-115 0 -187.5 32t-113.5 83t-56 115t-15 129
q0 67 16 132.5t59.5 116.5t120.5 82.5t200 31.5zM608 747l-181 102l-178 -100l-51 60l159 162h142l163 -162z" />
    <glyph glyph-name="gcircumflex" unicode="&#x11d;" horiz-adv-x="685" 
d="M590 394q7 -15 11.5 -38t4.5 -35q0 -46 -21.5 -79t-57.5 -55t-83 -32.5t-98 -11.5l-62 -1q-18 0 -27 -8t-9 -18q0 -6 4.5 -10.5t18.5 -4.5h163q48 0 88.5 -6t70 -22t46 -42.5t16.5 -67.5q0 -30 -14 -63t-53.5 -60t-109.5 -44.5t-182 -17.5q-77 0 -127.5 10t-80 26
t-41.5 36.5t-12 42.5q0 74 62 113q-23 9 -36 29.5t-13 45.5q0 28 19 56t62 46q-34 14 -53 48t-19 82q0 51 22.5 87.5t60.5 60t87.5 34.5t104.5 11q37 0 69.5 -3.5t51.5 -8.5h200v-95h-57zM285 -23q-11 -6 -15 -12.5t-4 -11.5q0 -28 63 -28q33 0 56.5 8.5t23.5 21.5
q0 14 -10 18t-22 4h-92zM368 323q0 41 -38 41q-19 0 -27.5 -13.5t-8.5 -29.5q0 -38 38 -38q14 0 25 9t11 31zM501 536l-181 102l-178 -100l-51 60l159 162h142l163 -162z" />
    <glyph glyph-name="Gbreve" unicode="&#x11e;" horiz-adv-x="785" 
d="M446 710q53 0 110 -7t106 -21v-242h-166v91q-21 3 -41 3q-81 0 -114.5 -49t-33.5 -130q0 -55 8.5 -90.5t24.5 -56.5t39.5 -29t52.5 -8q11 0 23.5 1t26.5 3v70h-59v131h322v-131h-47v-212q-68 -25 -141.5 -35t-134.5 -10q-115 0 -187.5 32t-113.5 83t-56 115t-15 129
q0 67 16 132.5t59.5 116.5t120.5 82.5t200 31.5zM407 747q-34 0 -65 12t-58.5 33t-51.5 49.5t-44 62.5l78 64q19 -26 39.5 -44t39.5 -29.5t36 -16.5t30 -5q9 0 22 1t33 9t47 26t65 53l58 -59q-27 -45 -56 -75t-59 -48t-59 -25.5t-55 -7.5z" />
    <glyph glyph-name="gbreve" unicode="&#x11f;" horiz-adv-x="685" 
d="M590 394q7 -15 11.5 -38t4.5 -35q0 -46 -21.5 -79t-57.5 -55t-83 -32.5t-98 -11.5l-62 -1q-18 0 -27 -8t-9 -18q0 -6 4.5 -10.5t18.5 -4.5h163q48 0 88.5 -6t70 -22t46 -42.5t16.5 -67.5q0 -30 -14 -63t-53.5 -60t-109.5 -44.5t-182 -17.5q-77 0 -127.5 10t-80 26
t-41.5 36.5t-12 42.5q0 74 62 113q-23 9 -36 29.5t-13 45.5q0 28 19 56t62 46q-34 14 -53 48t-19 82q0 51 22.5 87.5t60.5 60t87.5 34.5t104.5 11q37 0 69.5 -3.5t51.5 -8.5h200v-95h-57zM285 -23q-11 -6 -15 -12.5t-4 -11.5q0 -28 63 -28q33 0 56.5 8.5t23.5 21.5
q0 14 -10 18t-22 4h-92zM368 323q0 41 -38 41q-19 0 -27.5 -13.5t-8.5 -29.5q0 -38 38 -38q14 0 25 9t11 31zM328 548q-34 0 -65 12t-58.5 33t-51.5 49.5t-44 62.5l78 64q19 -26 39.5 -44t39.5 -29.5t36 -16.5t30 -5q9 0 22 1t33 9t47 26t65 53l58 -59q-27 -45 -56 -75
t-59 -48t-59 -25.5t-55 -7.5z" />
    <glyph glyph-name="Gdotaccent" unicode="&#x120;" horiz-adv-x="785" 
d="M446 710q53 0 110 -7t106 -21v-242h-166v91q-21 3 -41 3q-81 0 -114.5 -49t-33.5 -130q0 -55 8.5 -90.5t24.5 -56.5t39.5 -29t52.5 -8q11 0 23.5 1t26.5 3v70h-59v131h322v-131h-47v-212q-68 -25 -141.5 -35t-134.5 -10q-115 0 -187.5 32t-113.5 83t-56 115t-15 129
q0 67 16 132.5t59.5 116.5t120.5 82.5t200 31.5zM534 873q0 -24 -9 -44.5t-24.5 -35.5t-36.5 -24t-44 -9q-24 0 -44.5 9t-35.5 24t-23.5 35.5t-8.5 44.5q0 23 8.5 43.5t23.5 36t35.5 24.5t44.5 9q23 0 44 -9t36.5 -24.5t24.5 -36t9 -43.5z" />
    <glyph glyph-name="gdotaccent" unicode="&#x121;" horiz-adv-x="685" 
d="M590 394q7 -15 11.5 -38t4.5 -35q0 -46 -21.5 -79t-57.5 -55t-83 -32.5t-98 -11.5l-62 -1q-18 0 -27 -8t-9 -18q0 -6 4.5 -10.5t18.5 -4.5h163q48 0 88.5 -6t70 -22t46 -42.5t16.5 -67.5q0 -30 -14 -63t-53.5 -60t-109.5 -44.5t-182 -17.5q-77 0 -127.5 10t-80 26
t-41.5 36.5t-12 42.5q0 74 62 113q-23 9 -36 29.5t-13 45.5q0 28 19 56t62 46q-34 14 -53 48t-19 82q0 51 22.5 87.5t60.5 60t87.5 34.5t104.5 11q37 0 69.5 -3.5t51.5 -8.5h200v-95h-57zM285 -23q-11 -6 -15 -12.5t-4 -11.5q0 -28 63 -28q33 0 56.5 8.5t23.5 21.5
q0 14 -10 18t-22 4h-92zM368 323q0 41 -38 41q-19 0 -27.5 -13.5t-8.5 -29.5q0 -38 38 -38q14 0 25 9t11 31zM445 670q0 -24 -9 -44.5t-24.5 -35.5t-36.5 -24t-44 -9q-24 0 -44.5 9t-35.5 24t-23.5 35.5t-8.5 44.5q0 23 8.5 43.5t23.5 36t35.5 24.5t44.5 9q23 0 44 -9
t36.5 -24.5t24.5 -36t9 -43.5z" />
    <glyph glyph-name="Gcommaaccent" unicode="&#x122;" horiz-adv-x="785" 
d="M446 710q53 0 110 -7t106 -21v-242h-166v91q-21 3 -41 3q-81 0 -114.5 -49t-33.5 -130q0 -55 8.5 -90.5t24.5 -56.5t39.5 -29t52.5 -8q11 0 23.5 1t26.5 3v70h-59v131h322v-131h-47v-212q-68 -25 -141.5 -35t-134.5 -10q-115 0 -187.5 32t-113.5 83t-56 115t-15 129
q0 67 16 132.5t59.5 116.5t120.5 82.5t200 31.5zM328 -127q0 35 27.5 60t74.5 25q28 0 47 -9.5t31 -24.5t17.5 -34t5.5 -38q0 -32 -13.5 -62.5t-35 -57.5t-48.5 -48.5t-55 -34.5l-51 63q27 20 43.5 39t20.5 47q-34 5 -49 24.5t-15 50.5z" />
    <glyph glyph-name="gcommaaccent" unicode="&#x123;" horiz-adv-x="685" 
d="M469 639q0 -38 -30 -65.5t-81 -27.5q-30 0 -51 10t-34 26.5t-19 37t-6 41.5q0 34 14.5 68t38 63t53.5 52.5t60 37.5l55 -68q-29 -22 -47 -42.5t-23 -51.5q37 -5 53.5 -26.5t16.5 -54.5zM590 394q7 -15 11.5 -38t4.5 -35q0 -46 -21.5 -79t-57.5 -55t-83 -32.5t-98 -11.5
l-62 -1q-18 0 -27 -8t-9 -18q0 -6 4.5 -10.5t18.5 -4.5h163q48 0 88.5 -6t70 -22t46 -42.5t16.5 -67.5q0 -30 -14 -63t-53.5 -60t-109.5 -44.5t-182 -17.5q-77 0 -127.5 10t-80 26t-41.5 36.5t-12 42.5q0 74 62 113q-23 9 -36 29.5t-13 45.5q0 28 19 56t62 46q-34 14 -53 48
t-19 82q0 51 22.5 87.5t60.5 60t87.5 34.5t104.5 11q37 0 69.5 -3.5t51.5 -8.5h200v-95h-57zM285 -23q-11 -6 -15 -12.5t-4 -11.5q0 -28 63 -28q33 0 56.5 8.5t23.5 21.5q0 14 -10 18t-22 4h-92zM368 323q0 41 -38 41q-19 0 -27.5 -13.5t-8.5 -29.5q0 -38 38 -38q14 0 25 9
t11 31z" />
    <glyph glyph-name="Hcircumflex" unicode="&#x124;" horiz-adv-x="926" 
d="M500 0v149h63v135h-198v-135h63v-149h-383v149h78v396h-78v148h383v-148h-63v-123h198v123h-63v148h381v-148h-76v-396h76v-149h-381zM644 747l-181 102l-178 -100l-51 60l159 162h142l163 -162z" />
    <glyph glyph-name="hcircumflex" unicode="&#x125;" horiz-adv-x="737" 
d="M650 153h57v-139q-35 -14 -73.5 -21t-73.5 -7q-43 0 -71.5 8.5t-45.5 25t-24 40.5t-7 55v159q0 32 -13.5 45t-36.5 13q-10 0 -23 -5.5t-24 -16.5v-310h-239v582h-56v142h295v-273q72 57 152 57q183 0 183 -185v-170zM353 778l-181 102l-178 -100l-51 60l159 162h142
l163 -162z" />
    <glyph glyph-name="Hbar" unicode="&#x126;" horiz-adv-x="926" 
d="M500 0v149h63v125h-198v-125h63v-149h-383v149h78v278h-78v74h78v44h-78v148h383v-148h-63v-44h198v44h-63v148h381v-148h-76v-44h76v-74h-76v-278h76v-149h-381zM563 383v44h-198v-44h198z" />
    <glyph glyph-name="hbar" unicode="&#x127;" horiz-adv-x="737" 
d="M28 489v74h48v33h-56v128h295v-161h139v-74h-139v-94q72 57 152 57q183 0 183 -185v-114h57v-139q-35 -14 -73.5 -21t-73.5 -7q-43 0 -71.5 8.5t-45.5 25t-24 40.5t-7 55v103q0 32 -13.5 45t-36.5 13q-10 0 -23 -5.5t-24 -16.5v-254h-239v489h-48z" />
    <glyph glyph-name="Itilde" unicode="&#x128;" horiz-adv-x="531" 
d="M70 0v149h76v396h-76v148h391v-148h-73v-396h73v-149h-391zM365 758q-30 0 -61 6t-60.5 13t-55 13t-43.5 6l-54 -39l-62 45q25 70 57.5 95t71.5 25q27 0 55 -5.5t56 -12.5t55 -12.5t52 -5.5l55 41l60 -45q-21 -64 -51 -94t-75 -30z" />
    <glyph glyph-name="itilde" unicode="&#x129;" horiz-adv-x="449" 
d="M40 352v143h287v-342h67v-139q-35 -14 -78.5 -21t-78.5 -7q-43 0 -71.5 8.5t-45.5 25t-24 40.5t-7 55v237h-49zM308 580q-30 0 -61 6t-60.5 13t-55 13t-43.5 6l-54 -39l-62 45q25 70 57.5 95t71.5 25q27 0 55 -5.5t56 -12.5t55 -12.5t52 -5.5l55 41l60 -45
q-21 -64 -51 -94t-75 -30z" />
    <glyph glyph-name="Imacron" unicode="&#x12a;" horiz-adv-x="531" 
d="M70 0v149h76v396h-76v148h391v-148h-73v-396h73v-149h-391zM65 885h400v-136h-400v136z" />
    <glyph glyph-name="imacron" unicode="&#x12b;" horiz-adv-x="434" 
d="M40 352v143h287v-342h67v-139q-35 -14 -78.5 -21t-78.5 -7q-43 0 -71.5 8.5t-45.5 25t-24 40.5t-7 55v237h-49zM-13 685h400v-136h-400v136z" />
    <glyph glyph-name="Ibreve" unicode="&#x12c;" horiz-adv-x="531" 
d="M265 750q-34 0 -65 12t-58.5 33t-51.5 49.5t-44 62.5l78 64q19 -26 39.5 -44t39.5 -29.5t36 -16.5t30 -5q9 0 22 1t33 9t47 26t65 53l58 -59q-27 -45 -56 -75t-59 -48t-59 -25.5t-55 -7.5zM70 0v149h76v396h-76v148h391v-148h-73v-396h73v-149h-391z" />
    <glyph glyph-name="ibreve" unicode="&#x12d;" horiz-adv-x="442" 
d="M40 352v143h287v-342h67v-139q-35 -14 -78.5 -21t-78.5 -7q-43 0 -71.5 8.5t-45.5 25t-24 40.5t-7 55v237h-49zM198 548q-34 0 -65 12t-58.5 33t-51.5 49.5t-44 62.5l78 64q19 -26 39.5 -44t39.5 -29.5t36 -16.5t30 -5q9 0 22 1t33 9t47 26t65 53l58 -59q-27 -45 -56 -75
t-59 -48t-59 -25.5t-55 -7.5z" />
    <glyph glyph-name="Iogonek" unicode="&#x12e;" horiz-adv-x="531" 
d="M307 0q-20 -29 -33.5 -60t-13.5 -57q0 -24 11 -36t28.5 -16t40 -1t46.5 8l20 -63q-33 -18 -70 -27.5t-70 -9.5q-61 0 -92 25.5t-31 70.5q0 31 17 74.5t69 91.5h-159v149h76v396h-76v148h391v-148h-73v-396h73v-149h-154z" />
    <glyph glyph-name="iogonek" unicode="&#x12f;" horiz-adv-x="434" 
d="M40 352v143h287v-342h67v-139q-23 -10 -47 -14q-18 -28 -29.5 -56.5t-11.5 -51.5q0 -24 11 -36t28.5 -16t40 -1t46.5 8l20 -63q-33 -18 -70 -27.5t-70 -9.5q-61 0 -92 25.5t-31 70.5q0 27 12.5 64t50.5 79h-15q-43 0 -71.5 8.5t-45.5 25t-24 40.5t-7 55v237h-49zM333 670
q0 -27 -10.5 -50.5t-28.5 -41t-41.5 -27.5t-49.5 -10q-27 0 -50.5 10t-40.5 27.5t-27 41t-10 50.5t10 50.5t27 41t40.5 27.5t50.5 10q26 0 49.5 -10t41.5 -27.5t28.5 -41t10.5 -50.5z" />
    <glyph glyph-name="Idotaccent" unicode="&#x130;" horiz-adv-x="531" 
d="M70 0v149h76v396h-76v148h391v-148h-73v-396h73v-149h-391zM386 862q0 -24 -9 -44.5t-24.5 -35.5t-36.5 -24t-44 -9q-24 0 -44.5 9t-35.5 24t-23.5 35.5t-8.5 44.5q0 23 8.5 43.5t23.5 36t35.5 24.5t44.5 9q23 0 44 -9t36.5 -24.5t24.5 -36t9 -43.5z" />
    <glyph glyph-name="dotlessi" unicode="&#x131;" horiz-adv-x="434" 
d="M40 352v143h287v-342h67v-139q-35 -14 -78.5 -21t-78.5 -7q-43 0 -71.5 8.5t-45.5 25t-24 40.5t-7 55v237h-49z" />
    <glyph glyph-name="IJ" unicode="&#x132;" horiz-adv-x="1052" 
d="M70 0v149h76v396h-76v148h391v-148h-73v-396h73v-149h-391zM558 694h424v-149h-83v-351q0 -167 -98 -268.5t-287 -126.5l-53 172q67 26 106 48.5t59 48t26 58t6 79.5v340l-100 1v148z" />
    <glyph glyph-name="ij" unicode="&#x133;" horiz-adv-x="871" 
d="M41 352v143h287v-342h67v-139q-35 -14 -78.5 -21t-78.5 -7q-43 0 -71.5 8.5t-45.5 25t-24 40.5t-7 55v237h-49zM334 670q0 -27 -10.5 -50.5t-28.5 -41t-41.5 -27.5t-49.5 -10q-27 0 -50.5 10t-40.5 27.5t-27 41t-10 50.5t10 50.5t27 41t40.5 27.5t50.5 10q26 0 49.5 -10
t41.5 -27.5t28.5 -41t10.5 -50.5zM503 495h288v-385q0 -82 -18 -142t-56 -102t-96.5 -67.5t-139.5 -38.5l-54 139q43 25 68 43.5t37.5 40.5t16 51.5t3.5 75.5v242h-49v143zM797 670q0 -27 -10.5 -50.5t-28.5 -41t-41.5 -27.5t-49.5 -10q-27 0 -50.5 10t-40.5 27.5t-27 41
t-10 50.5t10 50.5t27 41t40.5 27.5t50.5 10q26 0 49.5 -10t41.5 -27.5t28.5 -41t10.5 -50.5z" />
    <glyph glyph-name="Jcircumflex" unicode="&#x134;" horiz-adv-x="571" 
d="M87 695h424v-149h-83v-351q0 -167 -98 -268.5t-287 -126.5l-53 172q67 26 106 48.5t59 48t26 58t6 79.5v340l-100 1v148zM484 747l-181 102l-178 -100l-51 60l159 162h142l163 -162z" />
    <glyph glyph-name="jcircumflex" unicode="&#x135;" horiz-adv-x="442" 
d="M44 495h288v-385q0 -82 -18 -142t-56 -102t-96.5 -67.5t-139.5 -38.5l-54 139q43 25 68 43.5t37.5 40.5t16 51.5t3.5 75.5v242h-49v143zM373 536l-181 102l-178 -100l-51 60l159 162h142l163 -162z" />
    <glyph glyph-name="Kcommaaccent" unicode="&#x136;" horiz-adv-x="845" 
d="M590 423l187 -273h55v-150h-372v150h47l-91 136l-60 -47v-90h60v-149h-371v149h77v396h-77v146h379v-146h-68v-122l151 122h-47v146h353l-1 -146h-68zM362 -127q0 35 27.5 60t74.5 25q28 0 47 -9.5t31 -24.5t17.5 -34t5.5 -38q0 -32 -13.5 -62.5t-35 -57.5t-48.5 -48.5
t-55 -34.5l-51 63q27 20 43.5 39t20.5 47q-34 5 -49 24.5t-15 50.5z" />
    <glyph glyph-name="kcommaaccent" unicode="&#x137;" horiz-adv-x="722" 
d="M544 306l90 -162l57 -12v-124q-15 -5 -33 -8.5t-36 -6t-34 -4t-27 -1.5q-26 -1 -45.5 1.5t-34.5 10t-26.5 21t-20.5 33.5l-64 139l-41 -27v-23h34v-143h-327v143h53v437h-54v142h294v-384l60 44v112h277v-141h-48zM283 -127q0 35 27.5 60t74.5 25q28 0 47 -9.5t31 -24.5
t17.5 -34t5.5 -38q0 -32 -13.5 -62.5t-35 -57.5t-48.5 -48.5t-55 -34.5l-51 63q27 20 43.5 39t20.5 47q-34 5 -49 24.5t-15 50.5z" />
    <glyph glyph-name="kgreenlandic" unicode="&#x138;" horiz-adv-x="706" 
d="M541 303l90 -159l57 -12v-124q-15 -5 -32.5 -8.5t-35 -6t-33 -4t-26.5 -1.5q-26 -1 -45.5 1.5t-34.5 10t-26.5 21t-20.5 33.5l-64 139l-41 -27v-23h34v-143h-327v143h53v209h-54v142h294v-156l60 44v112h277v-141h-48z" />
    <glyph glyph-name="Lacute" unicode="&#x139;" horiz-adv-x="744" 
d="M45 0v149h77v396h-77v148h392v-148h-72v-396h195v135h164v-284h-679zM256 747l-65 78l189 183l101 -120z" />
    <glyph glyph-name="lacute" unicode="&#x13a;" horiz-adv-x="435" 
d="M336 143h59v-143h-355v143h58v439h-58v142h296v-581zM201 757l-65 78l189 183l101 -120z" />
    <glyph glyph-name="Lcommaaccent" unicode="&#x13b;" horiz-adv-x="744" 
d="M45 0v149h77v396h-77v148h392v-148h-72v-396h195v135h164v-284h-679zM267 -127q0 35 27.5 60t74.5 25q28 0 47 -9.5t31 -24.5t17.5 -34t5.5 -38q0 -32 -13.5 -62.5t-35 -57.5t-48.5 -48.5t-55 -34.5l-51 63q27 20 43.5 39t20.5 47q-34 5 -49 24.5t-15 50.5z" />
    <glyph glyph-name="lcommaaccent" unicode="&#x13c;" horiz-adv-x="435" 
d="M336 143h59v-143h-355v143h58v439h-58v142h296v-581zM137 -127q0 35 27.5 60t74.5 25q28 0 47 -9.5t31 -24.5t17.5 -34t5.5 -38q0 -32 -13.5 -62.5t-35 -57.5t-48.5 -48.5t-55 -34.5l-51 63q27 20 43.5 39t20.5 47q-34 5 -49 24.5t-15 50.5z" />
    <glyph glyph-name="Lcaron" unicode="&#x13d;" horiz-adv-x="792" 
d="M45 0v149h77v396h-77v148h392v-148h-72v-396h195v135h164v-284h-679zM546 632q0 35 27.5 60t74.5 25q28 0 47 -9.5t31 -24.5t17.5 -34t5.5 -38q0 -32 -13.5 -62.5t-35 -57.5t-48.5 -48.5t-55 -34.5l-51 63q27 20 43.5 39t20.5 47q-34 5 -49 24.5t-15 50.5z" />
    <glyph glyph-name="lcaron" unicode="&#x13e;" horiz-adv-x="623" 
d="M386 659q0 35 27.5 60t74.5 25q28 0 47 -9.5t31 -24.5t17.5 -34t5.5 -38q0 -32 -13.5 -62.5t-35 -57.5t-48.5 -48.5t-55 -34.5l-51 63q27 20 43.5 39t20.5 47q-34 5 -49 24.5t-15 50.5zM336 143h59v-143h-355v143h58v439h-58v142h296v-581z" />
    <glyph glyph-name="Ldot" unicode="&#x13f;" horiz-adv-x="744" 
d="M45 0v149h77v396h-77v148h392v-148h-72v-396h195v135h164v-284h-679zM711 464q0 -24 -9 -44.5t-24.5 -35.5t-36.5 -24t-44 -9q-24 0 -44.5 9t-35.5 24t-23.5 35.5t-8.5 44.5q0 23 8.5 43.5t23.5 36t35.5 24.5t44.5 9q23 0 44 -9t36.5 -24.5t24.5 -36t9 -43.5z" />
    <glyph glyph-name="ldot" unicode="&#x140;" horiz-adv-x="652" 
d="M629 404q0 -24 -9 -44.5t-24.5 -35.5t-36.5 -24t-44 -9q-24 0 -44.5 9t-35.5 24t-23.5 35.5t-8.5 44.5q0 23 8.5 43.5t23.5 36t35.5 24.5t44.5 9q23 0 44 -9t36.5 -24.5t24.5 -36t9 -43.5zM336 143h59v-143h-355v143h58v439h-58v142h296v-581z" />
    <glyph glyph-name="Lslash" unicode="&#x141;" horiz-adv-x="744" 
d="M45 0v149h77v63l-36 -20l-46 73l82 47v233h-77v148h392v-148h-72v-94l68 40l45 -72l-113 -66v-204h195v135h164v-284h-679z" />
    <glyph glyph-name="lslash" unicode="&#x142;" horiz-adv-x="435" 
d="M336 143h59v-143h-355v143h58v107l-49 -28l-46 73l95 54v233h-58v142h296v-238l60 35l45 -72l-105 -61v-245z" />
    <glyph glyph-name="Nacute" unicode="&#x143;" horiz-adv-x="946" 
d="M608 322v223h-66v148h359v-148h-68v-545h-239l-150 232l-105 170h-2v-253h67v-149h-359v149h70v396h-70v148h329l117 -184l113 -187h4zM453 747l-65 78l189 183l101 -120z" />
    <glyph glyph-name="nacute" unicode="&#x144;" horiz-adv-x="747" 
d="M477 508q183 0 183 -185v-170h57v-139q-35 -14 -73.5 -21t-73.5 -7q-43 0 -71.5 8.5t-45.5 25t-24 40.5t-7 55v159q0 32 -13.5 45t-36.5 13q-10 0 -23 -5.5t-24 -16.5v-310h-239v354h-56v142h289v-43l6 -2q35 26 74.5 41.5t77.5 15.5zM326 548l-65 78l189 183l101 -120z
" />
    <glyph glyph-name="Ncommaaccent" unicode="&#x145;" horiz-adv-x="946" 
d="M608 322v223h-66v148h359v-148h-68v-545h-239l-150 232l-105 170h-2v-253h67v-149h-359v149h70v396h-70v148h329l117 -184l113 -187h4zM400 -127q0 35 27.5 60t74.5 25q28 0 47 -9.5t31 -24.5t17.5 -34t5.5 -38q0 -32 -13.5 -62.5t-35 -57.5t-48.5 -48.5t-55 -34.5
l-51 63q27 20 43.5 39t20.5 47q-34 5 -49 24.5t-15 50.5z" />
    <glyph glyph-name="ncommaaccent" unicode="&#x146;" horiz-adv-x="747" 
d="M477 508q183 0 183 -185v-170h57v-139q-35 -14 -73.5 -21t-73.5 -7q-43 0 -71.5 8.5t-45.5 25t-24 40.5t-7 55v159q0 32 -13.5 45t-36.5 13q-10 0 -23 -5.5t-24 -16.5v-310h-239v354h-56v142h289v-43l6 -2q35 26 74.5 41.5t77.5 15.5zM302 -127q0 35 27.5 60t74.5 25
q28 0 47 -9.5t31 -24.5t17.5 -34t5.5 -38q0 -32 -13.5 -62.5t-35 -57.5t-48.5 -48.5t-55 -34.5l-51 63q27 20 43.5 39t20.5 47q-34 5 -49 24.5t-15 50.5z" />
    <glyph glyph-name="Ncaron" unicode="&#x147;" horiz-adv-x="946" 
d="M608 322v223h-66v148h359v-148h-68v-545h-239l-150 232l-105 170h-2v-253h67v-149h-359v149h70v396h-70v148h329l117 -184l113 -187h4zM702 911l-163 -162h-142l-159 162l51 60l178 -100l181 102z" />
    <glyph glyph-name="ncaron" unicode="&#x148;" horiz-adv-x="747" 
d="M477 508q183 0 183 -185v-170h57v-139q-35 -14 -73.5 -21t-73.5 -7q-43 0 -71.5 8.5t-45.5 25t-24 40.5t-7 55v159q0 32 -13.5 45t-36.5 13q-10 0 -23 -5.5t-24 -16.5v-310h-239v354h-56v142h289v-43l6 -2q35 26 74.5 41.5t77.5 15.5zM594 713l-163 -162h-142l-159 162
l51 60l178 -100l181 102z" />
    <glyph glyph-name="napostrophe" unicode="&#x149;" horiz-adv-x="964" 
d="M694 508q183 0 183 -185v-170h57v-139q-35 -14 -73.5 -21t-73.5 -7q-43 0 -71.5 8.5t-45.5 25t-24 40.5t-7 55v159q0 32 -13.5 45t-36.5 13q-10 0 -23 -5.5t-24 -16.5v-310h-239v354h-56v142h289v-43l6 -2q35 26 74.5 41.5t77.5 15.5zM42 665q0 35 27.5 60t74.5 25
q28 0 47 -9.5t31 -24.5t17.5 -34t5.5 -38q0 -32 -13.5 -62.5t-35 -57.5t-48.5 -48.5t-55 -34.5l-51 63q27 20 43.5 39t20.5 47q-34 5 -49 24.5t-15 50.5z" />
    <glyph glyph-name="Eng" unicode="&#x14a;" horiz-adv-x="946" 
d="M608 336v209h-66v148h359v-148h-68v-543q0 -28 -1 -58.5t-8 -59t-22 -54t-42.5 -45t-70 -30.5t-103.5 -11q-12 0 -27.5 1t-32 3t-31.5 4.5t-26 5.5l16 158q12 -1 25 -2t26 -1q15 0 29 2.5t24.5 9t17 18.5t6.5 31v26l-209 306l-65 99h-2v-256h67v-149h-359v149h70v396h-70
v148h316l181 -261l62 -96h4z" />
    <glyph glyph-name="eng" unicode="&#x14b;" horiz-adv-x="721" 
d="M661 29q0 -28 -1 -58.5t-8 -59t-22 -54t-42.5 -45t-70 -30.5t-103.5 -11q-12 0 -28 1t-33 3t-33 4.5t-27 5.5l16 158q12 -1 22.5 -1.5t19.5 -0.5q34 0 52.5 11t18.5 49v273q0 32 -13.5 45t-36.5 13q-10 0 -23 -5.5t-24 -16.5v-310h-239v354h-56v142h289v-43l6 -2
q35 26 74.5 41.5t77.5 15.5q183 0 183 -185z" />
    <glyph glyph-name="Omacron" unicode="&#x14c;" horiz-adv-x="845" 
d="M795 350q0 -78 -23.5 -144.5t-70.5 -115t-116.5 -75.5t-162.5 -27t-162.5 27t-116 75.5t-70 115t-23.5 144.5t23.5 144t70 113.5t116 74.5t162.5 27t162.5 -27t116.5 -74.5t70.5 -113.5t23.5 -144zM536 350q0 43 -5.5 79t-19 62t-35 40t-54.5 14t-55 -15.5t-35.5 -42
t-19 -62t-5.5 -75.5q0 -45 5.5 -82t19 -63t35.5 -40.5t55 -14.5t54.5 14t35 40t19 63t5.5 83zM226 885h400v-136h-400v136z" />
    <glyph glyph-name="omacron" unicode="&#x14d;" horiz-adv-x="681" 
d="M641 249q0 -58 -19 -105.5t-57 -82t-94 -53.5t-131 -19t-131.5 19t-94 53.5t-56 82t-18.5 105.5q0 57 18.5 104.5t56 81t94 52.5t131.5 19t131 -19t94 -52.5t57 -81t19 -104.5zM398 249q0 45 -12 72.5t-46 27.5q-17 0 -28 -8t-18 -22t-9.5 -32t-2.5 -38q0 -47 12 -76.5
t46 -29.5t46 28.5t12 77.5zM143 685h400v-136h-400v136z" />
    <glyph glyph-name="Obreve" unicode="&#x14e;" horiz-adv-x="845" 
d="M795 350q0 -78 -23.5 -144.5t-70.5 -115t-116.5 -75.5t-162.5 -27t-162.5 27t-116 75.5t-70 115t-23.5 144.5t23.5 144t70 113.5t116 74.5t162.5 27t162.5 -27t116.5 -74.5t70.5 -113.5t23.5 -144zM536 350q0 43 -5.5 79t-19 62t-35 40t-54.5 14t-55 -15.5t-35.5 -42
t-19 -62t-5.5 -75.5q0 -45 5.5 -82t19 -63t35.5 -40.5t55 -14.5t54.5 14t35 40t19 63t5.5 83zM429 747q-34 0 -65 12t-58.5 33t-51.5 49.5t-44 62.5l78 64q19 -26 39.5 -44t39.5 -29.5t36 -16.5t30 -5q9 0 22 1t33 9t47 26t65 53l58 -59q-27 -45 -56 -75t-59 -48t-59 -25.5
t-55 -7.5z" />
    <glyph glyph-name="obreve" unicode="&#x14f;" horiz-adv-x="681" 
d="M641 249q0 -58 -19 -105.5t-57 -82t-94 -53.5t-131 -19t-131.5 19t-94 53.5t-56 82t-18.5 105.5q0 57 18.5 104.5t56 81t94 52.5t131.5 19t131 -19t94 -52.5t57 -81t19 -104.5zM398 249q0 45 -12 72.5t-46 27.5q-17 0 -28 -8t-18 -22t-9.5 -32t-2.5 -38q0 -47 12 -76.5
t46 -29.5t46 28.5t12 77.5zM335 548q-34 0 -65 12t-58.5 33t-51.5 49.5t-44 62.5l78 64q19 -26 39.5 -44t39.5 -29.5t36 -16.5t30 -5q9 0 22 1t33 9t47 26t65 53l58 -59q-27 -45 -56 -75t-59 -48t-59 -25.5t-55 -7.5z" />
    <glyph glyph-name="Ohungarumlaut" unicode="&#x150;" horiz-adv-x="845" 
d="M795 350q0 -78 -23.5 -144.5t-70.5 -115t-116.5 -75.5t-162.5 -27t-162.5 27t-116 75.5t-70 115t-23.5 144.5t23.5 144t70 113.5t116 74.5t162.5 27t162.5 -27t116.5 -74.5t70.5 -113.5t23.5 -144zM536 350q0 43 -5.5 79t-19 62t-35 40t-54.5 14t-55 -15.5t-35.5 -42
t-19 -62t-5.5 -75.5q0 -45 5.5 -82t19 -63t35.5 -40.5t55 -14.5t54.5 14t35 40t19 63t5.5 83zM347 749l-78 64l150 216l122 -98zM558 749l-78 64l150 216l122 -98z" />
    <glyph glyph-name="ohungarumlaut" unicode="&#x151;" horiz-adv-x="681" 
d="M641 249q0 -58 -19 -105.5t-57 -82t-94 -53.5t-131 -19t-131.5 19t-94 53.5t-56 82t-18.5 105.5q0 57 18.5 104.5t56 81t94 52.5t131.5 19t131 -19t94 -52.5t57 -81t19 -104.5zM398 249q0 45 -12 72.5t-46 27.5q-17 0 -28 -8t-18 -22t-9.5 -32t-2.5 -38q0 -47 12 -76.5
t46 -29.5t46 28.5t12 77.5zM228 545l-78 64l150 216l122 -98zM439 545l-78 64l150 216l122 -98z" />
    <glyph glyph-name="OE" unicode="&#x152;" horiz-adv-x="1038" 
d="M523 0q-51 -12 -111 -12q-93 0 -162.5 27t-116 75.5t-70 115t-23.5 144.5t23.5 144t70 113.5t116 74.5t162.5 27q35 0 67.5 -4t61.5 -12h459v-271h-163v123h-163v-123h113v-138h-113v-135h171v135h163v-284h-485zM412 150h9.5t9.5 1v392q-8 2 -12 2h-14q-31 -2 -52 -18
t-33.5 -42.5t-17.5 -61t-5 -73.5q0 -45 5.5 -82t19 -63t35.5 -40.5t55 -14.5z" />
    <glyph glyph-name="oe" unicode="&#x153;" horiz-adv-x="961" 
d="M923 46q-28 -15 -59.5 -25t-63 -16.5t-61.5 -9t-56 -2.5q-109 0 -171 44q-35 -23 -79.5 -35.5t-98.5 -12.5q-75 0 -131.5 19t-94 53.5t-56.5 82t-19 105.5q0 57 19 104.5t56.5 81t94 52.5t131.5 19q52 0 95.5 -11t76.5 -35q30 27 74 40t101 13q72 0 120.5 -20t78 -54
t41.5 -79t12 -95v-33h-296q0 -47 24.5 -62t70.5 -15q33 0 73.5 7.5t73.5 17.5zM392 249q0 45 -12 72.5t-46 27.5q-17 0 -28 -8t-18 -22t-9.5 -32t-2.5 -38q0 -47 12 -76.5t46 -29.5t46 28.5t12 77.5zM724 298q-1 29 -9 46.5t-31 17.5q-24 0 -34 -18.5t-10 -45.5h84z" />
    <glyph glyph-name="Racute" unicode="&#x154;" horiz-adv-x="808" 
d="M473 478q0 33 -18 50t-51 17h-46v-146h36q36 0 57.5 18t21.5 61zM358 259v-110h60v-149h-368v149h69v396h-69v148h423q78 0 128 -19.5t79 -51t40 -71t11 -78.5q0 -23 -6 -48t-18.5 -48.5t-32 -43t-47.5 -32.5l84 -157l82 -13v-129q-18 -6 -40 -10t-43 -7t-39.5 -4
t-29.5 -1q-32 0 -55 6.5t-40.5 19.5t-31 33t-25.5 47l-75 173h-56zM348 747l-65 78l189 183l101 -120z" />
    <glyph glyph-name="racute" unicode="&#x155;" horiz-adv-x="584" 
d="M331 414q18 15 41 30.5t48.5 29t52.5 22t53 8.5q29 0 38.5 -15t9.5 -48q0 -19 -3.5 -42t-11.5 -47t-21 -46.5t-31 -39.5l-179 42v-165h52v-143h-340v143h52v210h-48v143h281v-79zM249 548l-65 78l189 183l101 -120z" />
    <glyph glyph-name="Rcommaaccent" unicode="&#x156;" horiz-adv-x="808" 
d="M473 478q0 33 -18 50t-51 17h-46v-146h36q36 0 57.5 18t21.5 61zM358 259v-110h60v-149h-368v149h69v396h-69v148h423q78 0 128 -19.5t79 -51t40 -71t11 -78.5q0 -23 -6 -48t-18.5 -48.5t-32 -43t-47.5 -32.5l84 -157l82 -13v-129q-18 -6 -40 -10t-43 -7t-39.5 -4
t-29.5 -1q-32 0 -55 6.5t-40.5 19.5t-31 33t-25.5 47l-75 173h-56zM292 -127q0 35 27.5 60t74.5 25q28 0 47 -9.5t31 -24.5t17.5 -34t5.5 -38q0 -32 -13.5 -62.5t-35 -57.5t-48.5 -48.5t-55 -34.5l-51 63q27 20 43.5 39t20.5 47q-34 5 -49 24.5t-15 50.5z" />
    <glyph glyph-name="rcommaaccent" unicode="&#x157;" horiz-adv-x="584" 
d="M331 414q18 15 41 30.5t48.5 29t52.5 22t53 8.5q29 0 38.5 -15t9.5 -48q0 -19 -3.5 -42t-11.5 -47t-21 -46.5t-31 -39.5l-179 42v-165h52v-143h-340v143h52v210h-48v143h281v-79zM127 -127q0 35 27.5 60t74.5 25q28 0 47 -9.5t31 -24.5t17.5 -34t5.5 -38
q0 -32 -13.5 -62.5t-35 -57.5t-48.5 -48.5t-55 -34.5l-51 63q27 20 43.5 39t20.5 47q-34 5 -49 24.5t-15 50.5z" />
    <glyph glyph-name="Rcaron" unicode="&#x158;" horiz-adv-x="808" 
d="M473 478q0 33 -18 50t-51 17h-46v-146h36q36 0 57.5 18t21.5 61zM358 259v-110h60v-149h-368v149h69v396h-69v148h423q78 0 128 -19.5t79 -51t40 -71t11 -78.5q0 -23 -6 -48t-18.5 -48.5t-32 -43t-47.5 -32.5l84 -157l82 -13v-129q-18 -6 -40 -10t-43 -7t-39.5 -4
t-29.5 -1q-32 0 -55 6.5t-40.5 19.5t-31 33t-25.5 47l-75 173h-56zM621 911l-163 -162h-142l-159 162l51 60l178 -100l181 102z" />
    <glyph glyph-name="rcaron" unicode="&#x159;" horiz-adv-x="584" 
d="M331 414q18 15 41 30.5t48.5 29t52.5 22t53 8.5q29 0 38.5 -15t9.5 -48q0 -19 -3.5 -42t-11.5 -47t-21 -46.5t-31 -39.5l-179 42v-165h52v-143h-340v143h52v210h-48v143h281v-79zM491 713l-163 -162h-142l-159 162l51 60l178 -100l181 102z" />
    <glyph glyph-name="Sacute" unicode="&#x15a;" horiz-adv-x="730" 
d="M378 541q-41 0 -59 -13.5t-18 -33.5q0 -14 14.5 -24t35.5 -18t44.5 -14t41.5 -10q50 -11 95 -27t79 -41t54 -60.5t20 -85.5q0 -53 -19.5 -95.5t-60.5 -72t-105.5 -45.5t-155.5 -16q-69 0 -144 11t-144 36v205h162v-70q12 -4 28 -6.5t32 -4t29 -2.5t21 -1q28 0 45 5
t26 11.5t11.5 14t2.5 13.5q0 17 -9.5 26.5t-25.5 14.5q-28 8 -68 16.5t-82 19.5q-88 23 -135.5 72.5t-47.5 124.5q0 51 17.5 94t56 74t98.5 48t145 17q30 0 65 -3t69.5 -9t68 -15t60.5 -21v-193h-164v64q-20 8 -44.5 11t-38.5 3zM327 745l-65 78l189 183l101 -120z" />
    <glyph glyph-name="sacute" unicode="&#x15b;" horiz-adv-x="604" 
d="M298 509q27 0 56.5 -2.5t59 -7.5t57.5 -13t52 -18v-143h-156v39q-20 5 -47 5q-19 0 -33 -5.5t-14 -19.5q0 -13 22 -20.5t54.5 -15t71 -17.5t71 -28t54.5 -46.5t22 -72.5q0 -36 -14.5 -65t-47.5 -49t-86 -31t-129 -11q-56 0 -123 8.5t-131 34.5v149h160v-39q8 -5 29.5 -8
t43.5 -3q21 0 36.5 4t15.5 15q0 13 -9 17.5t-33 10.5q-47 12 -91.5 25.5t-79 32.5t-55.5 45t-21 63q0 36 14.5 66.5t46.5 52.5t82.5 34.5t121.5 12.5zM265 548l-65 78l189 183l101 -120z" />
    <glyph glyph-name="Scircumflex" unicode="&#x15c;" horiz-adv-x="730" 
d="M378 541q-41 0 -59 -13.5t-18 -33.5q0 -14 14.5 -24t35.5 -18t44.5 -14t41.5 -10q50 -11 95 -27t79 -41t54 -60.5t20 -85.5q0 -53 -19.5 -95.5t-60.5 -72t-105.5 -45.5t-155.5 -16q-69 0 -144 11t-144 36v205h162v-70q12 -4 28 -6.5t32 -4t29 -2.5t21 -1q28 0 45 5
t26 11.5t11.5 14t2.5 13.5q0 17 -9.5 26.5t-25.5 14.5q-28 8 -68 16.5t-82 19.5q-88 23 -135.5 72.5t-47.5 124.5q0 51 17.5 94t56 74t98.5 48t145 17q30 0 65 -3t69.5 -9t68 -15t60.5 -21v-193h-164v64q-20 8 -44.5 11t-38.5 3zM548 747l-181 102l-178 -100l-51 60l159 162
h142l163 -162z" />
    <glyph glyph-name="scircumflex" unicode="&#x15d;" horiz-adv-x="604" 
d="M298 509q27 0 56.5 -2.5t59 -7.5t57.5 -13t52 -18v-143h-156v39q-20 5 -47 5q-19 0 -33 -5.5t-14 -19.5q0 -13 22 -20.5t54.5 -15t71 -17.5t71 -28t54.5 -46.5t22 -72.5q0 -36 -14.5 -65t-47.5 -49t-86 -31t-129 -11q-56 0 -123 8.5t-131 34.5v149h160v-39q8 -5 29.5 -8
t43.5 -3q21 0 36.5 4t15.5 15q0 13 -9 17.5t-33 10.5q-47 12 -91.5 25.5t-79 32.5t-55.5 45t-21 63q0 36 14.5 66.5t46.5 52.5t82.5 34.5t121.5 12.5zM466 536l-181 102l-178 -100l-51 60l159 162h142l163 -162z" />
    <glyph glyph-name="Scedilla" unicode="&#x15e;" horiz-adv-x="730" 
d="M378 541q-41 0 -59 -13.5t-18 -33.5q0 -14 14.5 -24t35.5 -18t44.5 -14t41.5 -10q50 -11 95 -27t79 -41t54 -60.5t20 -85.5q0 -97 -66.5 -157t-216.5 -70l-28 -39q52 -11 78 -37.5t26 -67.5q0 -17 -9.5 -37.5t-34.5 -38.5t-67 -30t-106 -13l-4 78q55 5 81.5 17.5
t26.5 29.5q0 15 -14.5 19.5t-31.5 4.5q-10 0 -18.5 -0.5t-15.5 -1.5l-23 35l58 79q-65 2 -133 13t-131 34v205h162v-70q12 -4 28 -6.5t32 -4t29 -2.5t21 -1q28 0 45 5t26 11.5t11.5 14t2.5 13.5q0 17 -9.5 26.5t-25.5 14.5q-28 8 -68 16.5t-82 19.5q-88 23 -135.5 72.5
t-47.5 124.5q0 51 17.5 94t56 74t98.5 48t145 17q30 0 65 -3t69.5 -9t68 -15t60.5 -21v-193h-164v64q-20 8 -44.5 11t-38.5 3z" />
    <glyph glyph-name="scedilla" unicode="&#x15f;" horiz-adv-x="604" 
d="M298 509q27 0 56.5 -2.5t59 -7.5t57.5 -13t52 -18v-143h-156v39q-20 5 -47 5q-19 0 -33 -5.5t-14 -19.5q0 -13 22 -20.5t54.5 -15t71 -17.5t71 -28t54.5 -46.5t22 -72.5q0 -34 -13 -61.5t-42 -47.5t-75.5 -32t-112.5 -14l-25 -35q52 -11 78 -37.5t26 -67.5
q0 -17 -9.5 -37.5t-34.5 -38.5t-67 -30t-106 -13l-4 78q55 5 81.5 17.5t26.5 29.5q0 15 -14.5 19.5t-31.5 4.5q-10 0 -18.5 -0.5t-15.5 -1.5l-23 35l57 77q-49 3 -103 12t-105 30v149h160v-39q8 -5 29.5 -8t43.5 -3q21 0 36.5 4t15.5 15q0 13 -9 17.5t-33 10.5
q-47 12 -91.5 25.5t-79 32.5t-55.5 45t-21 63q0 36 14.5 66.5t46.5 52.5t82.5 34.5t121.5 12.5z" />
    <glyph glyph-name="Scaron" unicode="&#x160;" horiz-adv-x="730" 
d="M378 541q-41 0 -59 -13.5t-18 -33.5q0 -14 14.5 -24t35.5 -18t44.5 -14t41.5 -10q50 -11 95 -27t79 -41t54 -60.5t20 -85.5q0 -53 -19.5 -95.5t-60.5 -72t-105.5 -45.5t-155.5 -16q-69 0 -144 11t-144 36v205h162v-70q12 -4 28 -6.5t32 -4t29 -2.5t21 -1q28 0 45 5
t26 11.5t11.5 14t2.5 13.5q0 17 -9.5 26.5t-25.5 14.5q-28 8 -68 16.5t-82 19.5q-88 23 -135.5 72.5t-47.5 124.5q0 51 17.5 94t56 74t98.5 48t145 17q30 0 65 -3t69.5 -9t68 -15t60.5 -21v-193h-164v64q-20 8 -44.5 11t-38.5 3zM595 911l-163 -162h-142l-159 162l51 60
l178 -100l181 102z" />
    <glyph glyph-name="scaron" unicode="&#x161;" horiz-adv-x="604" 
d="M298 509q27 0 56.5 -2.5t59 -7.5t57.5 -13t52 -18v-143h-156v39q-20 5 -47 5q-19 0 -33 -5.5t-14 -19.5q0 -13 22 -20.5t54.5 -15t71 -17.5t71 -28t54.5 -46.5t22 -72.5q0 -36 -14.5 -65t-47.5 -49t-86 -31t-129 -11q-56 0 -123 8.5t-131 34.5v149h160v-39q8 -5 29.5 -8
t43.5 -3q21 0 36.5 4t15.5 15q0 13 -9 17.5t-33 10.5q-47 12 -91.5 25.5t-79 32.5t-55.5 45t-21 63q0 36 14.5 66.5t46.5 52.5t82.5 34.5t121.5 12.5zM526 713l-163 -162h-142l-159 162l51 60l178 -100l181 102z" />
    <glyph glyph-name="Tcommaaccent" unicode="&#x162;" horiz-adv-x="759" 
d="M176 0v149h83v396h-78v-123h-161v271h719v-271h-161v123h-79v-396h81v-149h-404zM296 -127q0 35 27.5 60t74.5 25q28 0 47 -9.5t31 -24.5t17.5 -34t5.5 -38q0 -32 -13.5 -62.5t-35 -57.5t-48.5 -48.5t-55 -34.5l-51 63q27 20 43.5 39t20.5 47q-34 5 -49 24.5t-15 50.5z
" />
    <glyph glyph-name="tcommaaccent" unicode="&#x163;" horiz-adv-x="509" 
d="M312 651v-156h136v-142h-136v-120q0 -26 3.5 -40.5t12 -22.5t21.5 -10t32 -2q8 0 28.5 2t42.5 5l24 -149q-19 -8 -41 -13t-44 -9t-43 -5.5t-37 -1.5q-81 0 -127.5 19t-70 47t-29.5 60.5t-6 60.5v179h-67v126l84 25l52 135zM153 -127q0 35 27.5 60t74.5 25q28 0 47 -9.5
t31 -24.5t17.5 -34t5.5 -38q0 -32 -13.5 -62.5t-35 -57.5t-48.5 -48.5t-55 -34.5l-51 63q27 20 43.5 39t20.5 47q-34 5 -49 24.5t-15 50.5z" />
    <glyph glyph-name="Tcaron" unicode="&#x164;" horiz-adv-x="759" 
d="M176 0v149h83v396h-78v-123h-161v271h719v-271h-161v123h-79v-396h81v-149h-404zM616 911l-163 -162h-142l-159 162l51 60l178 -100l181 102z" />
    <glyph glyph-name="tcaron" unicode="&#x165;" horiz-adv-x="690" 
d="M485 670q0 35 27.5 60t74.5 25q28 0 47 -9.5t31 -24.5t17.5 -34t5.5 -38q0 -32 -13.5 -62.5t-35 -57.5t-48.5 -48.5t-55 -34.5l-51 63q27 20 43.5 39t20.5 47q-34 5 -49 24.5t-15 50.5zM312 651v-156h136v-142h-136v-120q0 -26 3.5 -40.5t12 -22.5t21.5 -10t32 -2
q8 0 28.5 2t42.5 5l24 -149q-19 -8 -41 -13t-44 -9t-43 -5.5t-37 -1.5q-81 0 -127.5 19t-70 47t-29.5 60.5t-6 60.5v179h-67v126l84 25l52 135z" />
    <glyph glyph-name="Tbar" unicode="&#x166;" horiz-adv-x="759" 
d="M176 0v149h83v126h-120v92h120v178h-79l1 -123h-161v271h719v-271h-161v123h-79v-178h113v-92h-113v-126h81v-149h-404z" />
    <glyph glyph-name="tbar" unicode="&#x167;" horiz-adv-x="509" 
d="M312 651v-156h136v-142h-136v-42h122v-87h-122q0 -23 4.5 -36t12.5 -19.5t21 -8.5t31 -2q8 0 28.5 2t42.5 5l24 -149q-19 -8 -41 -13t-44 -9t-43 -5.5t-37 -1.5q-81 0 -127.5 19t-70 47t-29.5 60.5t-6 60.5v50h-57v87h57v42h-67v126l84 25l52 135z" />
    <glyph glyph-name="Utilde" unicode="&#x168;" horiz-adv-x="843" 
d="M750 264q0 -134 -77 -204.5t-250 -70.5q-92 0 -155 18.5t-103 54t-57.5 86.5t-17.5 116v281h-55v148h346v-148h-53v-295q0 -55 24 -77.5t73 -22.5q17 0 33.5 4.5t29 15.5t20.5 30.5t8 49.5v295h-53v148h345v-148h-58v-281zM533 759q-30 0 -61 6t-60.5 13t-55 13t-43.5 6
l-54 -39l-62 45q25 70 57.5 95t71.5 25q27 0 55 -5.5t56 -12.5t55 -12.5t52 -5.5l55 41l60 -45q-21 -64 -51 -94t-75 -30z" />
    <glyph glyph-name="utilde" unicode="&#x169;" horiz-adv-x="735" 
d="M369 496h279v-343h57v-140q-54 -18 -92.5 -22.5t-61.5 -4.5q-65 0 -92.5 21.5t-35.5 55.5q-32 -32 -72 -54.5t-94 -22.5q-37 0 -68 10t-53.5 31t-35.5 54t-13 79v192h-57v143h295v-276q0 -29 9.5 -40.5t32.5 -11.5q5 0 18.5 5t24.5 18v163h-41v143zM472 559q-30 0 -61 6
t-60.5 13t-55 13t-43.5 6l-54 -39l-62 45q25 70 57.5 95t71.5 25q27 0 55 -5.5t56 -12.5t55 -12.5t52 -5.5l55 41l60 -45q-21 -64 -51 -94t-75 -30z" />
    <glyph glyph-name="Umacron" unicode="&#x16a;" horiz-adv-x="843" 
d="M750 264q0 -134 -77 -204.5t-250 -70.5q-92 0 -155 18.5t-103 54t-57.5 86.5t-17.5 116v281h-55v148h346v-148h-53v-295q0 -55 24 -77.5t73 -22.5q17 0 33.5 4.5t29 15.5t20.5 30.5t8 49.5v295h-53v148h345v-148h-58v-281zM227 885h400v-136h-400v136z" />
    <glyph glyph-name="umacron" unicode="&#x16b;" horiz-adv-x="735" 
d="M369 496h279v-343h57v-140q-54 -18 -92.5 -22.5t-61.5 -4.5q-65 0 -92.5 21.5t-35.5 55.5q-32 -32 -72 -54.5t-94 -22.5q-37 0 -68 10t-53.5 31t-35.5 54t-13 79v192h-57v143h295v-276q0 -29 9.5 -40.5t32.5 -11.5q5 0 18.5 5t24.5 18v163h-41v143zM160 685h400v-136
h-400v136z" />
    <glyph glyph-name="Ubreve" unicode="&#x16c;" horiz-adv-x="843" 
d="M750 264q0 -134 -77 -204.5t-250 -70.5q-92 0 -155 18.5t-103 54t-57.5 86.5t-17.5 116v281h-55v148h346v-148h-53v-295q0 -55 24 -77.5t73 -22.5q17 0 33.5 4.5t29 15.5t20.5 30.5t8 49.5v295h-53v148h345v-148h-58v-281zM426 742q-34 0 -65 12t-58.5 33t-51.5 49.5
t-44 62.5l78 64q19 -26 39.5 -44t39.5 -29.5t36 -16.5t30 -5q9 0 22 1t33 9t47 26t65 53l58 -59q-27 -45 -56 -75t-59 -48t-59 -25.5t-55 -7.5z" />
    <glyph glyph-name="ubreve" unicode="&#x16d;" horiz-adv-x="735" 
d="M369 496h279v-343h57v-140q-54 -18 -92.5 -22.5t-61.5 -4.5q-65 0 -92.5 21.5t-35.5 55.5q-32 -32 -72 -54.5t-94 -22.5q-37 0 -68 10t-53.5 31t-35.5 54t-13 79v192h-57v143h295v-276q0 -29 9.5 -40.5t32.5 -11.5q5 0 18.5 5t24.5 18v163h-41v143zM342 548q-34 0 -65 12
t-58.5 33t-51.5 49.5t-44 62.5l78 64q19 -26 39.5 -44t39.5 -29.5t36 -16.5t30 -5q9 0 22 1t33 9t47 26t65 53l58 -59q-27 -45 -56 -75t-59 -48t-59 -25.5t-55 -7.5z" />
    <glyph glyph-name="Uring" unicode="&#x16e;" horiz-adv-x="843" 
d="M750 264q0 -134 -77 -204.5t-250 -70.5q-92 0 -155 18.5t-103 54t-57.5 86.5t-17.5 116v281h-55v148h346v-148h-53v-295q0 -55 24 -77.5t73 -22.5q17 0 33.5 4.5t29 15.5t20.5 30.5t8 49.5v295h-53v148h345v-148h-58v-281zM422 719q-32 0 -59 11.5t-47.5 31t-32 45.5
t-11.5 56q0 29 11.5 55.5t32 46.5t47.5 31.5t59 11.5t59 -11.5t46 -31.5t29.5 -46t10.5 -56t-11.5 -56.5t-31 -46t-46 -30.5t-56.5 -11zM422 911q-22 0 -36.5 -15.5t-14.5 -35.5q0 -17 13 -32.5t38 -15.5q22 0 34 15.5t12 32.5q0 20 -11.5 35.5t-34.5 15.5z" />
    <glyph glyph-name="uring" unicode="&#x16f;" horiz-adv-x="735" 
d="M369 496h279v-343h57v-140q-54 -18 -92.5 -22.5t-61.5 -4.5q-65 0 -92.5 21.5t-35.5 55.5q-32 -32 -72 -54.5t-94 -22.5q-37 0 -68 10t-53.5 31t-35.5 54t-13 79v192h-57v143h295v-276q0 -29 9.5 -40.5t32.5 -11.5q5 0 18.5 5t24.5 18v163h-41v143zM358 552
q-32 0 -59 11.5t-47.5 31t-32 45.5t-11.5 56q0 29 11.5 55.5t32 46.5t47.5 31.5t59 11.5t59 -11.5t46 -31.5t29.5 -46t10.5 -56t-11.5 -56.5t-31 -46t-46 -30.5t-56.5 -11zM358 744q-22 0 -36.5 -15.5t-14.5 -35.5q0 -17 13 -32.5t38 -15.5q22 0 34 15.5t12 32.5
q0 20 -11.5 35.5t-34.5 15.5z" />
    <glyph glyph-name="Uhungarumlaut" unicode="&#x170;" horiz-adv-x="843" 
d="M750 264q0 -134 -77 -204.5t-250 -70.5q-92 0 -155 18.5t-103 54t-57.5 86.5t-17.5 116v281h-55v148h346v-148h-53v-295q0 -55 24 -77.5t73 -22.5q17 0 33.5 4.5t29 15.5t20.5 30.5t8 49.5v295h-53v148h345v-148h-58v-281zM320 749l-78 64l150 216l122 -98zM531 749
l-78 64l150 216l122 -98z" />
    <glyph glyph-name="uhungarumlaut" unicode="&#x171;" horiz-adv-x="735" 
d="M369 496h279v-343h57v-140q-54 -18 -92.5 -22.5t-61.5 -4.5q-65 0 -92.5 21.5t-35.5 55.5q-32 -32 -72 -54.5t-94 -22.5q-37 0 -68 10t-53.5 31t-35.5 54t-13 79v192h-57v143h295v-276q0 -29 9.5 -40.5t32.5 -11.5q5 0 18.5 5t24.5 18v163h-41v143zM243 545l-78 64
l150 216l122 -98zM454 545l-78 64l150 216l122 -98z" />
    <glyph glyph-name="Uogonek" unicode="&#x172;" horiz-adv-x="843" 
d="M750 264q0 -128 -70 -198t-227 -76q-20 -30 -34 -61t-14 -57q0 -24 11 -36t28.5 -16t40 -1t46.5 8l20 -63q-33 -18 -70 -27.5t-70 -9.5q-61 0 -92 25.5t-31 70.5q0 31 17.5 75.5t70.5 92.5q-78 4 -132.5 24.5t-88.5 55.5t-49.5 83.5t-15.5 109.5v281h-55v148h346v-148
h-53v-295q0 -55 24 -77.5t73 -22.5q17 0 33.5 4.5t29 15.5t20.5 30.5t8 49.5v295h-53v148h345v-148h-58v-281z" />
    <glyph glyph-name="uogonek" unicode="&#x173;" horiz-adv-x="735" 
d="M369 496h279v-343h57v-140q-8 -3 -16 -5.5t-16 -4.5q-18 -29 -30.5 -58t-12.5 -53t11 -36t28.5 -16t40 -1t46.5 8l20 -63q-33 -18 -70 -27.5t-70 -9.5q-61 0 -92 25.5t-31 70.5q0 27 13 64.5t51 79.5q-8 -1 -14.5 -1h-11.5q-65 0 -92.5 21.5t-35.5 55.5
q-32 -32 -72 -54.5t-94 -22.5q-37 0 -68 10t-53.5 31t-35.5 54t-13 79v192h-57v143h295v-276q0 -29 9.5 -40.5t32.5 -11.5q5 0 18.5 5t24.5 18v163h-41v143z" />
    <glyph glyph-name="Wcircumflex" unicode="&#x174;" horiz-adv-x="1228" 
d="M605 230l-30 -95l-44 -135h-304l-161 544h-52v149h365v-149h-50l36 -143l48 -204h4l56 200l28 90l-19 57h-52v149h354v-149h-62l49 -138l62 -179h3l43 190l31 127h-55v149h359v-149h-56l-165 -544h-308l-45 135l-30 95h-5zM786 747l-181 102l-178 -100l-51 60l159 162
h142l163 -162z" />
    <glyph glyph-name="wcircumflex" unicode="&#x175;" horiz-adv-x="1006" 
d="M691 160l29 96l33 97h-36v142h288v-142h-39l-124 -353h-293l-24 63l-28 81h-3l-26 -82l-23 -62h-283l-114 328h-46v167h223l65 -224l33 -111h6l32 109l22 69l-6 14h-47v143h317v-143h-33l38 -103l34 -89h5zM674 536l-181 102l-178 -100l-51 60l159 162h142l163 -162z" />
    <glyph glyph-name="Ycircumflex" unicode="&#x176;" horiz-adv-x="799" 
d="M494 544h-55v149h345v-149h-49l-206 -316v-79h73v-149h-412v149h75v79l-202 316h-48v149h349v-149h-54l91 -161h4zM580 747l-181 102l-178 -100l-51 60l159 162h142l163 -162z" />
    <glyph glyph-name="ycircumflex" unicode="&#x177;" horiz-adv-x="705" 
d="M451 -126q-9 -21 -20.5 -39.5t-28.5 -32t-41 -21t-57 -7.5q-11 0 -33.5 1.5t-49.5 5.5t-56.5 10.5t-54.5 15.5l25 147q22 -3 40 -5t32 -2q30 0 47.5 11t28.5 42l9 26h-112l-116 311h-49v158h229l67 -230l32 -119h4l39 128l24 78h-40v143h315v-143h-42zM522 536l-181 102
l-178 -100l-51 60l159 162h142l163 -162z" />
    <glyph glyph-name="Ydieresis" unicode="&#x178;" horiz-adv-x="799" 
d="M494 544h-55v149h345v-149h-49l-206 -316v-79h73v-149h-412v149h75v79l-202 316h-48v149h349v-149h-54l91 -161h4zM589 834q0 -38 -26 -64.5t-64 -26.5t-64.5 26.5t-26.5 64.5q0 39 26.5 65t64.5 26t64 -26t26 -65zM376 834q0 -19 -7 -35.5t-19.5 -29t-29 -19.5t-34.5 -7
q-38 0 -64.5 26.5t-26.5 64.5q0 39 26.5 65t64.5 26q37 0 63.5 -26t26.5 -65z" />
    <glyph glyph-name="Zacute" unicode="&#x179;" horiz-adv-x="736" 
d="M344 149h200v144h162v-293h-675v147l340 399h-154v-125h-162v272h633v-140zM360 747l-65 78l189 183l101 -120z" />
    <glyph glyph-name="zacute" unicode="&#x17a;" horiz-adv-x="623" 
d="M328 130h108v68h147v-198h-543v117l239 248h-84v-65h-148v195h521v-113zM306 548l-65 78l189 183l101 -120z" />
    <glyph glyph-name="Zdotaccent" unicode="&#x17b;" horiz-adv-x="736" 
d="M344 149h200v144h162v-293h-675v147l340 399h-154v-125h-162v272h633v-140zM490 862q0 -24 -9 -44.5t-24.5 -35.5t-36.5 -24t-44 -9q-24 0 -44.5 9t-35.5 24t-23.5 35.5t-8.5 44.5q0 23 8.5 43.5t23.5 36t35.5 24.5t44.5 9q23 0 44 -9t36.5 -24.5t24.5 -36t9 -43.5z" />
    <glyph glyph-name="zdotaccent" unicode="&#x17c;" horiz-adv-x="623" 
d="M328 130h108v68h147v-198h-543v117l239 248h-84v-65h-148v195h521v-113zM434 670q0 -24 -9 -44.5t-24.5 -35.5t-36.5 -24t-44 -9q-24 0 -44.5 9t-35.5 24t-23.5 35.5t-8.5 44.5q0 23 8.5 43.5t23.5 36t35.5 24.5t44.5 9q23 0 44 -9t36.5 -24.5t24.5 -36t9 -43.5z" />
    <glyph glyph-name="Zcaron" unicode="&#x17d;" horiz-adv-x="736" 
d="M344 149h200v144h162v-293h-675v147l340 399h-154v-125h-162v272h633v-140zM611 911l-163 -162h-142l-159 162l51 60l178 -100l181 102z" />
    <glyph glyph-name="zcaron" unicode="&#x17e;" horiz-adv-x="623" 
d="M328 130h108v68h147v-198h-543v117l239 248h-84v-65h-148v195h521v-113zM548 713l-163 -162h-142l-159 162l51 60l178 -100l181 102z" />
    <glyph glyph-name="florin" unicode="&#x192;" horiz-adv-x="662" 
d="M148 403h89q1 8 1.5 16t2.5 17q5 37 14.5 81t34.5 82.5t71.5 64t124.5 25.5q32 0 77 -4t90 -18l-38 -150q-23 4 -36.5 5.5t-30.5 1.5q-18 0 -32 -2.5t-24 -11.5t-16.5 -25.5t-9.5 -44.5q-2 -10 -2.5 -19.5t-2.5 -17.5h99v-137h-111q-3 -29 -7 -60.5t-10 -72.5
q-5 -32 -14 -74t-34 -80t-71.5 -64t-124.5 -26q-32 0 -78 4t-91 18l38 150q23 -4 37.5 -5.5t31.5 -1.5q18 0 31.5 2.5t23.5 11.5t16.5 25.5t10.5 44.5q5 41 9 71.5t6 56.5h-75v137z" />
    <glyph glyph-name="Ohorn" unicode="&#x1a0;" horiz-adv-x="886" 
d="M795 350q0 -78 -23.5 -144.5t-70.5 -115t-116.5 -75.5t-162.5 -27t-162.5 27t-116 75.5t-70 115t-23.5 144.5t23.5 144t70 113.5t116 74.5t162.5 27q82 0 145.5 -21t110.5 -59h28q26 0 42.5 12.5t16.5 52.5v76h119v-91q0 -27 -5.5 -54t-19 -49.5t-37 -39t-60.5 -20.5
q33 -74 33 -166zM536 350q0 43 -5.5 79t-19 62t-35 40t-54.5 14t-55 -15.5t-35.5 -42t-19 -62t-5.5 -75.5q0 -45 5.5 -82t19 -63t35.5 -40.5t55 -14.5t54.5 14t35 40t19 63t5.5 83z" />
    <glyph glyph-name="ohorn" unicode="&#x1a1;" horiz-adv-x="734" 
d="M641 249q0 -58 -19 -105.5t-57 -82t-94 -53.5t-131 -19t-131.5 19t-94 53.5t-56 82t-18.5 105.5q0 57 18.5 104.5t56 81t94 52.5t131.5 19q77 0 134 -20t95 -56q20 3 32.5 16.5t12.5 48.5v76h119v-91q0 -25 -4.5 -50t-15.5 -47t-31 -38.5t-50 -24.5q9 -33 9 -71zM398 249
q0 45 -12 72.5t-46 27.5q-17 0 -28 -8t-18 -22t-9.5 -32t-2.5 -38q0 -47 12 -76.5t46 -29.5t46 28.5t12 77.5z" />
    <glyph glyph-name="Uhorn" unicode="&#x1af;" horiz-adv-x="973" 
d="M750 529h40q26 0 42.5 12.5t16.5 52.5v161h119v-176q0 -29 -6.5 -58.5t-23 -53t-45.5 -38.5t-74 -15h-69v-150q0 -134 -77 -204.5t-250 -70.5q-92 0 -155 18.5t-103 54t-57.5 86.5t-17.5 116v290h-55v139h346v-139h-53v-304q0 -55 24 -77.5t73 -22.5q17 0 33.5 4.5
t29 15.5t20.5 30.5t8 49.5v304h-53v139h320v-139h-33v-25z" />
    <glyph glyph-name="uhorn" unicode="&#x1b0;" horiz-adv-x="833" 
d="M648 436q24 0 40 13t16 52v76h119v-91q0 -29 -6.5 -58.5t-23 -53t-45.5 -38.5t-74 -15h-26v-168h57v-140q-54 -18 -92.5 -22.5t-61.5 -4.5q-65 0 -92.5 21.5t-35.5 55.5q-32 -32 -72 -54.5t-94 -22.5q-37 0 -68 10t-53.5 31t-35.5 54t-13 79v192h-57v143h295v-276
q0 -29 9.5 -40.5t32.5 -11.5q5 0 18.5 5t24.5 18v163h-41v143h279v-60z" />
    <glyph glyph-name="AEacute" unicode="&#x1fc;" horiz-adv-x="1150" 
d="M543 194h-204l-29 -45h44v-149h-332v149h46l245 391h-47v153h836v-271h-163v123h-153v-123h113v-138h-113v-135h161v135h163v-284h-641v149h74v45zM412 333h131v206h-4zM689 747l-65 78l189 183l101 -120z" />
    <glyph glyph-name="aeacute" unicode="&#x1fd;" horiz-adv-x="916" 
d="M631 508q70 0 117.5 -20t75.5 -54.5t40 -79.5t12 -95v-41h-288q0 -23 6 -36.5t17.5 -20.5t29 -9t40.5 -2q32 0 71.5 7.5t71.5 17.5l41 -135q-27 -15 -57 -25t-60.5 -16t-60 -8.5t-54.5 -2.5q-44 0 -76.5 4t-57.5 13t-43.5 23t-33.5 33q-23 -23 -48.5 -38t-52 -23.5
t-54 -11.5t-52.5 -3q-57 0 -93 15t-56.5 37.5t-28 48t-7.5 47.5q0 16 3.5 43t21 52t54 43.5t102.5 18.5h150v10q0 24 -18.5 36t-59.5 12q-52 0 -95.5 -5.5t-71.5 -13.5l-33 137q23 9 52.5 17t62.5 13t67 8t65 3q17 0 39 -3t43 -9t39.5 -15t29.5 -22q56 50 150 50zM314 123
q10 0 26.5 5t28.5 19q-5 17 -7.5 33.5t-3.5 34.5h-21q-32 0 -49.5 -12.5t-17.5 -35.5q0 -26 13.5 -35t30.5 -9zM634 356q-23 0 -33 -18.5t-10 -45.5h81q0 29 -7.5 46.5t-30.5 17.5zM476 548l-65 78l189 183l101 -120z" />
    <glyph glyph-name="Oslashacute" unicode="&#x1fe;" horiz-adv-x="845" 
d="M795 350q0 -78 -23.5 -144.5t-70.5 -115t-116.5 -75.5t-162.5 -27q-72 0 -129.5 16.5t-102.5 46.5l-57 -61h-83l92 102q-46 48 -69 114t-23 144t23.5 144t70 113.5t116 74.5t162.5 27q70 0 126 -15t101 -44l53 59h95l-95 -103q46 -48 69.5 -113t23.5 -143zM536 350
q0 20 -1.5 37.5t-3.5 33.5l-200 -216q14 -26 36 -40.5t55 -14.5t54.5 14t35 40t19 63t5.5 83zM307 350q0 -20 1 -37.5t3 -34.5l198 218q-28 49 -87 49q-33 0 -55 -15.5t-35.5 -42t-19 -62t-5.5 -75.5zM433 747l-65 78l189 183l101 -120z" />
    <glyph glyph-name="oslashacute" unicode="&#x1ff;" horiz-adv-x="681" 
d="M641 249q0 -58 -19 -105.5t-57 -82t-94 -53.5t-131 -19q-111 0 -182 41l-38 -38h-82l73 72q-36 35 -53.5 81.5t-17.5 103.5t18.5 104.5t56 81t94 52.5t131.5 19q107 0 179 -40l40 40h83l-75 -74q74 -68 74 -183zM398 265l-101 -98q14 -24 43 -24q34 0 46 28.5t12 77.5v16
zM282 233l98 97q-14 19 -40 19q-17 0 -28 -8t-18 -22t-9.5 -32t-2.5 -38v-16zM338 548l-65 78l189 183l101 -120z" />
    <glyph glyph-name="Scommaaccent" unicode="&#x218;" horiz-adv-x="730" 
d="M378 541q-41 0 -59 -13.5t-18 -33.5q0 -14 14.5 -24t35.5 -18t44.5 -14t41.5 -10q50 -11 95 -27t79 -41t54 -60.5t20 -85.5q0 -53 -19.5 -95.5t-60.5 -72t-105.5 -45.5t-155.5 -16q-69 0 -144 11t-144 36v205h162v-70q12 -4 28 -6.5t32 -4t29 -2.5t21 -1q28 0 45 5
t26 11.5t11.5 14t2.5 13.5q0 17 -9.5 26.5t-25.5 14.5q-28 8 -68 16.5t-82 19.5q-88 23 -135.5 72.5t-47.5 124.5q0 51 17.5 94t56 74t98.5 48t145 17q30 0 65 -3t69.5 -9t68 -15t60.5 -21v-193h-164v64q-20 8 -44.5 11t-38.5 3zM277 -127q0 35 27.5 60t74.5 25
q28 0 47 -9.5t31 -24.5t17.5 -34t5.5 -38q0 -32 -13.5 -62.5t-35 -57.5t-48.5 -48.5t-55 -34.5l-51 63q27 20 43.5 39t20.5 47q-34 5 -49 24.5t-15 50.5z" />
    <glyph glyph-name="scommaaccent" unicode="&#x219;" horiz-adv-x="604" 
d="M298 509q27 0 56.5 -2.5t59 -7.5t57.5 -13t52 -18v-143h-156v39q-20 5 -47 5q-19 0 -33 -5.5t-14 -19.5q0 -13 22 -20.5t54.5 -15t71 -17.5t71 -28t54.5 -46.5t22 -72.5q0 -36 -14.5 -65t-47.5 -49t-86 -31t-129 -11q-56 0 -123 8.5t-131 34.5v149h160v-39q8 -5 29.5 -8
t43.5 -3q21 0 36.5 4t15.5 15q0 13 -9 17.5t-33 10.5q-47 12 -91.5 25.5t-79 32.5t-55.5 45t-21 63q0 36 14.5 66.5t46.5 52.5t82.5 34.5t121.5 12.5zM192 -127q0 35 27.5 60t74.5 25q28 0 47 -9.5t31 -24.5t17.5 -34t5.5 -38q0 -32 -13.5 -62.5t-35 -57.5t-48.5 -48.5
t-55 -34.5l-51 63q27 20 43.5 39t20.5 47q-34 5 -49 24.5t-15 50.5z" />
    <glyph glyph-name="schwa" unicode="&#x259;" horiz-adv-x="612" 
d="M289 140q24 0 34 18.5t10 45.5h-83q0 -29 8 -46.5t31 -17.5zM292 -12q-72 0 -120.5 20t-78 54.5t-41.5 79.5t-12 95v33h296q0 46 -24.5 61t-70.5 15q-33 0 -73.5 -7.5t-73.5 -17.5l-43 135q28 15 59 25t62.5 16t61.5 8.5t56 2.5q87 0 141.5 -22t86 -58t43 -82.5
t11.5 -95.5q0 -54 -15 -101.5t-48.5 -83t-87 -56.5t-129.5 -21z" />
    <glyph glyph-name="primemod" unicode="&#x2b9;" horiz-adv-x="234" 
d="M99 348l-75 47l170 326l123 -67z" />
    <glyph glyph-name="circumflex" unicode="&#x2c6;" horiz-adv-x="650" 
d="M502 536l-181 102l-178 -100l-51 60l159 162h142l163 -162z" />
    <glyph glyph-name="caron" unicode="&#x2c7;" horiz-adv-x="650" 
d="M557 713l-163 -162h-142l-159 162l51 60l178 -100l181 102z" />
    <glyph glyph-name="breve" unicode="&#x2d8;" horiz-adv-x="650" 
d="M325 548q-34 0 -65 12t-58.5 33t-51.5 49.5t-44 62.5l78 64q19 -26 39.5 -44t39.5 -29.5t36 -16.5t30 -5q9 0 22 1t33 9t47 26t65 53l58 -59q-27 -45 -56 -75t-59 -48t-59 -25.5t-55 -7.5z" />
    <glyph glyph-name="dotaccent" unicode="&#x2d9;" horiz-adv-x="650" 
d="M429 670q0 -24 -9 -44.5t-24.5 -35.5t-36.5 -24t-44 -9q-24 0 -44.5 9t-35.5 24t-23.5 35.5t-8.5 44.5q0 23 8.5 43.5t23.5 36t35.5 24.5t44.5 9q23 0 44 -9t36.5 -24.5t24.5 -36t9 -43.5z" />
    <glyph glyph-name="ring" unicode="&#x2da;" horiz-adv-x="650" 
d="M339 552q-32 0 -59 11.5t-47.5 31t-32 45.5t-11.5 56q0 29 11.5 55.5t32 46.5t47.5 31.5t59 11.5t59 -11.5t46 -31.5t29.5 -46t10.5 -56t-11.5 -56.5t-31 -46t-46 -30.5t-56.5 -11zM339 744q-22 0 -36.5 -15.5t-14.5 -35.5q0 -17 13 -32.5t38 -15.5q22 0 34 15.5t12 32.5
q0 20 -11.5 35.5t-34.5 15.5z" />
    <glyph glyph-name="ogonek" unicode="&#x2db;" horiz-adv-x="650" 
d="M513 -5q-23 -32 -40.5 -67.5t-17.5 -64.5q0 -24 11 -36t28.5 -16t40 -1t46.5 8l20 -63q-33 -18 -70 -27.5t-70 -9.5q-61 0 -92 25.5t-31 70.5q0 18 5.5 42t21 51t42.5 56t70 58z" />
    <glyph glyph-name="tilde" unicode="&#x2dc;" horiz-adv-x="650" 
d="M437 559q-30 0 -61 6t-60.5 13t-55 13t-43.5 6l-54 -39l-62 45q25 70 57.5 95t71.5 25q27 0 55 -5.5t56 -12.5t55 -12.5t52 -5.5l55 41l60 -45q-21 -64 -51 -94t-75 -30z" />
    <glyph glyph-name="hungarumlaut" unicode="&#x2dd;" horiz-adv-x="650" 
d="M212 545l-78 64l150 216l122 -98zM423 545l-78 64l150 216l122 -98z" />
    <glyph glyph-name="tonos" unicode="&#x384;" horiz-adv-x="650" 
d="M351 545l-87 51l119 228l148 -85z" />
    <glyph glyph-name="dieresistonos" unicode="&#x385;" horiz-adv-x="650" 
d="M608 660q0 -37 -25 -62.5t-62 -25.5q-38 0 -63.5 25.5t-25.5 62.5q0 38 25.5 63.5t63.5 25.5q37 0 62 -25.5t25 -63.5zM233 664q0 -37 -26 -62.5t-62 -25.5q-18 0 -33.5 7t-27.5 19t-19 28t-7 34q0 19 7 35.5t19 28.5t27.5 18.5t33.5 6.5q36 0 62 -25.5t26 -63.5z
M323 550l-88 38l83 243l149 -61z" />
    <glyph glyph-name="Alphatonos" unicode="&#x386;" horiz-adv-x="852" 
d="M522 194h-209l-15 -45h56v-149h-334v149h53l213 544h297l195 -544h54v-149h-349v149h53zM386 401l-24 -68h117l-21 66l-32 111h-4zM46 498l-87 51l119 228l148 -85z" />
    <glyph glyph-name="anoteleia" unicode="&#x387;" horiz-adv-x="349" 
d="M287 370q0 -23 -9 -43.5t-24 -35.5t-35.5 -23.5t-43.5 -8.5t-44 8.5t-36.5 23.5t-24.5 35.5t-9 43.5t9 44t24.5 36.5t36.5 24.5t44 9t43.5 -9t35.5 -24.5t24 -36.5t9 -44z" />
    <glyph glyph-name="Epsilontonos" unicode="&#x388;" horiz-adv-x="776" 
d="M45 0v149h74v396h-74v148h683v-271h-163v123h-203v-123l153 3v-144l-153 3v-135h211v135h163v-284h-691zM-173 499l-87 51l119 228l148 -85z" />
    <glyph glyph-name="Etatonos" unicode="&#x389;" horiz-adv-x="926" 
d="M500 0v149h63v135h-198v-135h63v-149h-383v149h78v396h-78v148h383v-148h-63v-123h198v123h-63v148h381v-148h-76v-396h76v-149h-381zM-168 494l-87 51l119 228l148 -85z" />
    <glyph glyph-name="Iotatonos" unicode="&#x38a;" horiz-adv-x="531" 
d="M70 0v149h76v396h-76v148h391v-148h-73v-396h73v-149h-391zM-141 494l-87 51l119 228l148 -85z" />
    <glyph glyph-name="Omicrontonos" unicode="&#x38c;" horiz-adv-x="845" 
d="M795 350q0 -78 -23.5 -144.5t-70.5 -115t-116.5 -75.5t-162.5 -27t-162.5 27t-116 75.5t-70 115t-23.5 144.5t23.5 144t70 113.5t116 74.5t162.5 27t162.5 -27t116.5 -74.5t70.5 -113.5t23.5 -144zM536 350q0 43 -5.5 79t-19 62t-35 40t-54.5 14t-55 -15.5t-35.5 -42
t-19 -62t-5.5 -75.5q0 -45 5.5 -82t19 -63t35.5 -40.5t55 -14.5t54.5 14t35 40t19 63t5.5 83zM-81 505l-87 51l119 228l148 -85z" />
    <glyph glyph-name="Upsilontonos" unicode="&#x38e;" horiz-adv-x="799" 
d="M494 544h-55v149h345v-149h-49l-206 -316v-79h73v-149h-412v149h75v79l-202 316h-48v149h349v-149h-54l91 -161h4zM-197 503l-87 51l119 228l148 -85z" />
    <glyph glyph-name="Omegatonos" unicode="&#x38f;" horiz-adv-x="856" 
d="M734 149h92v-149h-359v151q20 7 35 19.5t25 35t15 58t5 89.5t-8 91t-23 59.5t-36.5 32t-48.5 9.5q-57 0 -87 -47t-30 -145q0 -50 4.5 -85t13.5 -58.5t23 -37t33 -20.5v-152h-363v149h101l3 5q-38 32 -55 84t-17 122q0 77 24.5 141.5t71.5 111t116 72.5t158 26t159.5 -25
t119 -70t74.5 -108.5t26 -140.5q0 -60 -17 -116.5t-55 -94.5v-7zM-63 505l-87 51l119 228l148 -85z" />
    <glyph glyph-name="iotadieresistonos" unicode="&#x390;" horiz-adv-x="423" 
d="M37 352v143h287v-342h67v-139q-35 -14 -78.5 -21t-78.5 -7q-43 0 -71.5 8.5t-45.5 25t-24 40.5t-7 55v237h-49zM485 660q0 -37 -25 -62.5t-62 -25.5q-38 0 -63.5 25.5t-25.5 62.5q0 38 25.5 63.5t63.5 25.5q37 0 62 -25.5t25 -63.5zM110 664q0 -37 -26 -62.5t-62 -25.5
q-18 0 -33.5 7t-27.5 19t-19 28t-7 34q0 19 7 35.5t19 28.5t27.5 18.5t33.5 6.5q36 0 62 -25.5t26 -63.5zM200 550l-88 38l83 243l149 -61z" />
    <glyph glyph-name="Alpha" unicode="&#x391;" horiz-adv-x="852" 
d="M522 194h-209l-15 -45h56v-149h-334v149h53l213 544h297l195 -544h54v-149h-349v149h53zM386 401l-24 -68h117l-21 66l-32 111h-4z" />
    <glyph glyph-name="Beta" unicode="&#x392;" horiz-adv-x="798" 
d="M660 364q31 -14 50.5 -35t30 -43.5t14 -43.5t3.5 -36q0 -47 -18 -85t-51 -65t-80.5 -41.5t-107.5 -14.5h-456v149h75v396h-75v148h464q58 0 100.5 -14t71 -39.5t42.5 -61.5t14 -79q0 -11 -4 -28.5t-13 -36.5t-23.5 -37t-36.5 -30v-3zM363 285v-136h71q32 0 49.5 18.5
t17.5 47.5t-16 49.5t-51 20.5h-71zM363 545v-125h64q27 0 42.5 18t15.5 47q0 27 -14.5 43.5t-43.5 16.5h-64z" />
    <glyph glyph-name="Gamma" unicode="&#x393;" horiz-adv-x="742" 
d="M45 0v149h76v396h-76v148h685v-271h-163v123h-204v-396h90v-149h-408z" />
    <glyph glyph-name="Delta" unicode="&#x394;" horiz-adv-x="815" 
d="M790 0h-765v139l247 554h284l234 -562v-131zM462 367l-55 153h-3l-60 -153l-89 -218h287z" />
    <glyph glyph-name="Delta" unicode="&#x2206;" horiz-adv-x="815" 
d="M790 0h-765v139l247 554h284l234 -562v-131zM462 367l-55 153h-3l-60 -153l-89 -218h287z" />
    <glyph glyph-name="Epsilon" unicode="&#x395;" horiz-adv-x="776" 
d="M45 0v149h74v396h-74v148h683v-271h-163v123h-203v-123l153 3v-144l-153 3v-135h211v135h163v-284h-691z" />
    <glyph glyph-name="Zeta" unicode="&#x396;" horiz-adv-x="736" 
d="M344 149h200v144h162v-293h-675v147l340 399h-154v-125h-162v272h633v-140z" />
    <glyph glyph-name="Eta" unicode="&#x397;" horiz-adv-x="926" 
d="M500 0v149h63v135h-198v-135h63v-149h-383v149h78v396h-78v148h383v-148h-63v-123h198v123h-63v148h381v-148h-76v-396h76v-149h-381z" />
    <glyph glyph-name="Theta" unicode="&#x398;" horiz-adv-x="845" 
d="M338 421h168v-137h-168v137zM795 350q0 -78 -23.5 -144.5t-70.5 -115t-116.5 -75.5t-162.5 -27t-162.5 27t-116 75.5t-70 115t-23.5 144.5t23.5 144t70 113.5t116 74.5t162.5 27t162.5 -27t116.5 -74.5t70.5 -113.5t23.5 -144zM536 350q0 43 -5.5 79t-19 62t-35 40
t-54.5 14t-55 -15.5t-35.5 -42t-19 -62t-5.5 -75.5q0 -45 5.5 -82t19 -63t35.5 -40.5t55 -14.5t54.5 14t35 40t19 63t5.5 83z" />
    <glyph glyph-name="Iota" unicode="&#x399;" horiz-adv-x="531" 
d="M70 0v149h76v396h-76v148h391v-148h-73v-396h73v-149h-391z" />
    <glyph glyph-name="Kappa" unicode="&#x39a;" horiz-adv-x="852" 
d="M590 423l187 -273h55v-150h-372v150h47l-91 136l-60 -47v-90h60v-149h-371v149h77v396h-77v146h379v-146h-68v-122l151 122h-47v146h353l-1 -146h-68z" />
    <glyph glyph-name="Lambda" unicode="&#x39b;" horiz-adv-x="834" 
d="M459 365l-40 153h-4l-45 -146l-79 -223h56v-149h-338v149h53l213 544h301l195 -544h54v-149h-349v149h53z" />
    <glyph glyph-name="Mu" unicode="&#x39c;" horiz-adv-x="1123" 
d="M568 389l68 168l57 136h385v-148h-65v-396h65v-149h-354v149h54v256h-3l-54 -135l-55 -130h-193l-65 135l-58 130h-3v-256h62v-149h-364v149h78v396h-78v148h383l64 -141l72 -163h4z" />
    <glyph glyph-name="Nu" unicode="&#x39d;" horiz-adv-x="946" 
d="M608 322v223h-66v148h359v-148h-68v-545h-239l-150 232l-105 170h-2v-253h67v-149h-359v149h70v396h-70v148h329l117 -184l113 -187h4z" />
    <glyph glyph-name="Xi" unicode="&#x39e;" horiz-adv-x="751" 
d="M209 517v-80h-163v256h657v-256h-164v80h-330zM548 177v102h163v-279h-670v279h163v-102h344zM230 288v138h293v-138h-293z" />
    <glyph glyph-name="Omicron" unicode="&#x39f;" horiz-adv-x="845" 
d="M795 350q0 -78 -23.5 -144.5t-70.5 -115t-116.5 -75.5t-162.5 -27t-162.5 27t-116 75.5t-70 115t-23.5 144.5t23.5 144t70 113.5t116 74.5t162.5 27t162.5 -27t116.5 -74.5t70.5 -113.5t23.5 -144zM536 350q0 43 -5.5 79t-19 62t-35 40t-54.5 14t-55 -15.5t-35.5 -42
t-19 -62t-5.5 -75.5q0 -45 5.5 -82t19 -63t35.5 -40.5t55 -14.5t54.5 14t35 40t19 63t5.5 83z" />
    <glyph glyph-name="Pi" unicode="&#x3a0;" horiz-adv-x="926" 
d="M500 0v149h63v396h-198v-396h63v-149h-383v149h78v396h-78v148h836v-148h-76v-396h76v-149h-381z" />
    <glyph glyph-name="Rho" unicode="&#x3a1;" horiz-adv-x="737" 
d="M712 466q0 -47 -16.5 -87.5t-49 -71.5t-80.5 -48.5t-110 -17.5h-95v-92h93v-149h-409v149h73v396h-73v148h394q78 0 130.5 -18t84 -48.5t45 -72t13.5 -88.5zM361 545v-163h27q38 0 53 23.5t15 55.5q0 84 -74 84h-21z" />
    <glyph glyph-name="Sigma" unicode="&#x3a3;" horiz-adv-x="750" 
d="M483 374v-34l-150 -191h215v118h162v-267h-685v124l185 233l-174 218v118h661v-271h-160v123h-191z" />
    <glyph glyph-name="Tau" unicode="&#x3a4;" horiz-adv-x="759" 
d="M176 0v149h83v396h-78v-123h-161v271h719v-271h-161v123h-79v-396h81v-149h-404z" />
    <glyph glyph-name="Upsilon" unicode="&#x3a5;" horiz-adv-x="799" 
d="M494 544h-55v149h345v-149h-49l-206 -316v-79h73v-149h-412v149h75v79l-202 316h-48v149h349v-149h-54l91 -161h4z" />
    <glyph glyph-name="Phi" unicode="&#x3a6;" horiz-adv-x="999" 
d="M383 503q-48 -8 -73.5 -49t-25.5 -101q0 -56 23 -97t76 -51v298zM619 205q42 8 68.5 46.5t26.5 101.5t-23.5 102.5t-71.5 47.5v-298zM619 657q81 -4 144 -27.5t106.5 -62.5t66.5 -93t23 -118q0 -134 -86 -214t-254 -92v-50h-236v50q-82 4 -145.5 27.5t-107.5 63t-67 94
t-23 121.5q0 64 25.5 118t71 93.5t108.5 63t138 27.5v36h236v-37z" />
    <glyph glyph-name="Chi" unicode="&#x3a7;" horiz-adv-x="823" 
d="M501 693h297v-149h-51l-173 -208l158 -186h65v-150h-417v150h38l-76 98l-76 -98h40v-150h-291v150h50l173 224l-134 168h-84v151h423v-151h-40l71 -88l69 90h-42v149z" />
    <glyph glyph-name="Psi" unicode="&#x3a8;" horiz-adv-x="1042" 
d="M640 347q17 0 34 5t30.5 16.5t22 31.5t8.5 50v243h292v-148h-58v-67q0 -134 -79.5 -208t-249.5 -78v-43h73v-149h-382v149h76v43q-92 3 -156 23.5t-104.5 57t-58.5 88.5t-18 117v67h-55v148h292l1 -243q0 -55 25 -79t74 -24v198h-49v148h328v-148h-46v-198z" />
    <glyph glyph-name="Omega" unicode="&#x3a9;" horiz-adv-x="856" 
d="M734 149h92v-149h-359v151q20 7 35 19.5t25 35t15 58t5 89.5t-8 91t-23 59.5t-36.5 32t-48.5 9.5q-57 0 -87 -47t-30 -145q0 -50 4.5 -85t13.5 -58.5t23 -37t33 -20.5v-152h-363v149h101l3 5q-38 32 -55 84t-17 122q0 77 24.5 141.5t71.5 111t116 72.5t158 26t159.5 -25
t119 -70t74.5 -108.5t26 -140.5q0 -60 -17 -116.5t-55 -94.5v-7z" />
    <glyph glyph-name="Iotadieresis" unicode="&#x3aa;" horiz-adv-x="531" 
d="M70 0v149h76v396h-76v148h391v-148h-73v-396h73v-149h-391zM465 834q0 -38 -26 -64.5t-64 -26.5t-64.5 26.5t-26.5 64.5q0 39 26.5 65t64.5 26t64 -26t26 -65zM252 834q0 -19 -7 -35.5t-19.5 -29t-29 -19.5t-34.5 -7q-38 0 -64.5 26.5t-26.5 64.5q0 39 26.5 65t64.5 26
q37 0 63.5 -26t26.5 -65z" />
    <glyph glyph-name="Upsilondieresis" unicode="&#x3ab;" horiz-adv-x="799" 
d="M494 544h-55v149h345v-149h-49l-206 -316v-79h73v-149h-412v149h75v79l-202 316h-48v149h349v-149h-54l91 -161h4zM599 834q0 -38 -26 -64.5t-64 -26.5t-64.5 26.5t-26.5 64.5q0 39 26.5 65t64.5 26t64 -26t26 -65zM386 834q0 -19 -7 -35.5t-19.5 -29t-29 -19.5t-34.5 -7
q-38 0 -64.5 26.5t-26.5 64.5q0 39 26.5 65t64.5 26q37 0 63.5 -26t26.5 -65z" />
    <glyph glyph-name="alphatonos" unicode="&#x3ac;" horiz-adv-x="714" 
d="M630 146h55v-137q-15 -5 -34.5 -9t-40.5 -7t-42 -5t-39 -2q-15 0 -31 2t-31 8.5t-27.5 18.5t-19.5 32q-20 -20 -44 -32t-47 -18t-42 -8t-28 -2q-50 0 -86 12t-61.5 32.5t-40.5 47t-23.5 55.5t-11.5 58t-3 55q0 49 13 96t41.5 83t73.5 58t108 22q29 0 67.5 -9t79.5 -36
l19 34h195v-349zM329 166q25 0 63 18v146q-17 8 -32.5 13t-26.5 5q-10 0 -21.5 -2.5t-21 -12t-16 -27.5t-6.5 -49q0 -30 6 -48t15.5 -27.5t20 -12.5t19.5 -3zM370 545l-87 51l119 228l148 -85z" />
    <glyph glyph-name="epsilontonos" unicode="&#x3ad;" horiz-adv-x="524" 
d="M285 510q78 0 134 -11.5t76 -22.5v-143h-146v37q-4 1 -13.5 1.5t-13.5 0.5q-21 0 -33 -9t-12 -24q0 -11 8 -21t26 -10h49v-109h-49q-16 0 -25.5 -6.5t-9.5 -19.5q0 -19 17.5 -26.5t55.5 -7.5q26 0 63.5 4.5t72.5 15.5l36 -134q-35 -15 -96.5 -28t-146.5 -13
q-69 0 -115.5 13t-75.5 35t-41.5 50t-12.5 58q0 14 4 30t13 31t22.5 27.5t32.5 20.5v2q-37 14 -53 41.5t-16 59.5q0 28 13.5 56.5t43.5 51t77 36.5t115 14zM292 545l-87 51l119 228l148 -85z" />
    <glyph glyph-name="etatonos" unicode="&#x3ae;" horiz-adv-x="741" 
d="M473 508q183 0 183 -185v-170h57v-139q-35 -14 -73.5 -21t-73.5 -7q-43 0 -71.5 8.5t-45.5 25t-24 40.5t-7 55v159q0 32 -13.5 45t-36.5 13q-10 0 -23 -5.5t-24 -16.5v-310h-239v354h-56v142h289v-43l6 -2q35 26 74.5 41.5t77.5 15.5zM360 545l-87 51l119 228l148 -85z
" />
    <glyph glyph-name="iotatonos" unicode="&#x3af;" horiz-adv-x="423" 
d="M37 352v143h287v-342h67v-139q-35 -14 -78.5 -21t-78.5 -7q-43 0 -71.5 8.5t-45.5 25t-24 40.5t-7 55v237h-49zM194 545l-87 51l119 228l148 -85z" />
    <glyph glyph-name="upsilondieresistonos" unicode="&#x3b0;" horiz-adv-x="706" 
d="M645 495v-262q0 -68 -23 -115t-62 -76.5t-91 -42.5t-110 -13q-139 0 -211.5 59.5t-72.5 159.5v147h-47v143h285v-297q0 -23 12 -37t35 -14q3 0 10.5 1.5t15.5 6.5t14.5 16t6.5 29v295h238zM631 660q0 -37 -25 -62.5t-62 -25.5q-38 0 -63.5 25.5t-25.5 62.5
q0 38 25.5 63.5t63.5 25.5q37 0 62 -25.5t25 -63.5zM256 664q0 -37 -26 -62.5t-62 -25.5q-18 0 -33.5 7t-27.5 19t-19 28t-7 34q0 19 7 35.5t19 28.5t27.5 18.5t33.5 6.5q36 0 62 -25.5t26 -63.5zM346 550l-88 38l83 243l149 -61z" />
    <glyph glyph-name="alpha" unicode="&#x3b1;" horiz-adv-x="714" 
d="M630 146h55v-137q-15 -5 -34.5 -9t-40.5 -7t-42 -5t-39 -2q-15 0 -31 2t-31 8.5t-27.5 18.5t-19.5 32q-20 -20 -44 -32t-47 -18t-42 -8t-28 -2q-50 0 -86 12t-61.5 32.5t-40.5 47t-23.5 55.5t-11.5 58t-3 55q0 49 13 96t41.5 83t73.5 58t108 22q29 0 67.5 -9t79.5 -36
l19 34h195v-349zM329 166q25 0 63 18v146q-17 8 -32.5 13t-26.5 5q-10 0 -21.5 -2.5t-21 -12t-16 -27.5t-6.5 -49q0 -30 6 -48t15.5 -27.5t20 -12.5t19.5 -3z" />
    <glyph glyph-name="beta" unicode="&#x3b2;" horiz-adv-x="666" 
d="M37 -172q2 87 1.5 164.5t-0.5 159.5v293q0 46 12 96.5t44 92.5t87.5 69.5t141.5 27.5q75 0 125 -18.5t80.5 -46t43.5 -61t13 -63.5q0 -48 -17.5 -83.5t-52.5 -52.5q37 -12 59.5 -32.5t34.5 -45t16 -51.5t4 -52q0 -113 -59.5 -173t-164.5 -60q-31 0 -66 8t-64 22v-194
h-238zM325 575q-26 0 -36.5 -17t-10.5 -48v-344q13 -6 26.5 -10t27.5 -4q36 0 51.5 24t15.5 72q0 17 -3.5 31.5t-13 25.5t-26 17.5t-43.5 6.5h-9v125h10q25 0 39 15.5t14 43.5q0 34 -12.5 48t-29.5 14z" />
    <glyph glyph-name="gamma" unicode="&#x3b3;" horiz-adv-x="707" 
d="M358 160l29 112l23 80h-30v143h317v-143h-47l-172 -384v-181h-236l-1 156l-175 389h-56v163h238l70 -222l31 -113h9z" />
    <glyph glyph-name="delta" unicode="&#x3b4;" horiz-adv-x="667" 
d="M343 733q51 0 110 -8t103 -25v-143h-148v29q-18 7 -40 7q-18 0 -30.5 -7.5t-12.5 -24.5q0 -14 8.5 -21t22.5 -13q60 -25 110 -50t85.5 -57t55.5 -75t20 -104q0 -56 -19 -102.5t-56 -79.5t-93 -51.5t-129 -18.5q-74 0 -130 18.5t-93 51.5t-55.5 79.5t-18.5 102.5
q0 68 31.5 121.5t92.5 85.5q-32 23 -49.5 51t-17.5 64q0 39 14.5 70t45 53.5t78.5 34.5t115 12zM323 349q-12 -3 -21 -13t-16 -25t-10.5 -33t-3.5 -37q0 -45 12 -71t46 -26q33 0 45 26t12 71q0 34 -12 64.5t-52 43.5z" />
    <glyph glyph-name="epsilon" unicode="&#x3b5;" horiz-adv-x="524" 
d="M285 510q78 0 134 -11.5t76 -22.5v-143h-146v37q-4 1 -13.5 1.5t-13.5 0.5q-21 0 -33 -9t-12 -24q0 -11 8 -21t26 -10h49v-109h-49q-16 0 -25.5 -6.5t-9.5 -19.5q0 -19 17.5 -26.5t55.5 -7.5q26 0 63.5 4.5t72.5 15.5l36 -134q-35 -15 -96.5 -28t-146.5 -13
q-69 0 -115.5 13t-75.5 35t-41.5 50t-12.5 58q0 14 4 30t13 31t22.5 27.5t32.5 20.5v2q-37 14 -53 41.5t-16 59.5q0 28 13.5 56.5t43.5 51t77 36.5t115 14z" />
    <glyph glyph-name="zeta" unicode="&#x3b6;" horiz-adv-x="543" 
d="M318 593h-111v-56h-142v184h512v-129q-140 -121 -209 -213.5t-69 -149.5q0 -28 20 -45t65 -35q35 -14 68.5 -26.5t60 -28t42.5 -36.5t16 -52q0 -34 -19.5 -67.5t-48.5 -62.5t-62.5 -53.5t-61.5 -40.5l-90 103l26 24q15 14 21.5 24.5t6.5 18.5q0 13 -12 21t-32 13
q-55 15 -100.5 31t-78 38.5t-50.5 53t-18 73.5q0 44 21.5 96t58.5 106t85.5 106.5t101.5 97.5z" />
    <glyph glyph-name="eta" unicode="&#x3b7;" horiz-adv-x="741" 
d="M473 508q183 0 183 -185v-170h57v-139q-35 -14 -73.5 -21t-73.5 -7q-43 0 -71.5 8.5t-45.5 25t-24 40.5t-7 55v159q0 32 -13.5 45t-36.5 13q-10 0 -23 -5.5t-24 -16.5v-310h-239v354h-56v142h289v-43l6 -2q35 26 74.5 41.5t77.5 15.5z" />
    <glyph glyph-name="theta" unicode="&#x3b8;" horiz-adv-x="661" 
d="M624 368q0 -81 -16 -150.5t-51.5 -121t-92.5 -80.5t-138 -29q-80 0 -136 30t-91 81t-50.5 117.5t-15.5 139.5q0 86 17.5 155.5t54 119t93 76.5t133.5 27q79 0 134.5 -27.5t90.5 -76t51.5 -115.5t16.5 -146zM269 288q0 -41 1.5 -69.5t7.5 -46t17.5 -25.5t31.5 -8
q34 0 45.5 35t13.5 114h-117zM386 424q0 84 -12 117.5t-46 33.5q-32 0 -44.5 -36t-14.5 -115h117z" />
    <glyph glyph-name="iota" unicode="&#x3b9;" horiz-adv-x="423" 
d="M37 352v143h287v-342h67v-139q-35 -14 -78.5 -21t-78.5 -7q-43 0 -71.5 8.5t-45.5 25t-24 40.5t-7 55v237h-49z" />
    <glyph glyph-name="kappa" unicode="&#x3ba;" horiz-adv-x="722" 
d="M541 303l90 -159l57 -12v-124q-15 -5 -32.5 -8.5t-35 -6t-33 -4t-26.5 -1.5q-26 -1 -45.5 1.5t-34.5 10t-26.5 21t-20.5 33.5l-64 139l-41 -27v-23h34v-143h-327v143h53v209h-54v142h294v-156l60 44v112h277v-141h-48z" />
    <glyph glyph-name="lambda" unicode="&#x3bb;" horiz-adv-x="711" 
d="M357 304l-105 -304h-238l176 452h125l-40 129l-131 25v118q24 10 51 16.5t52 10.5t45.5 5.5t32.5 1.5q39 0 65.5 -7.5t43.5 -21t27.5 -31.5t18.5 -40l173 -512h50l2 -134q-19 -7 -40.5 -11.5t-42 -7t-38 -3.5t-29.5 -1q-57 0 -84 24t-43 76l-67 215h-4z" />
    <glyph glyph-name="nu" unicode="&#x3bd;" horiz-adv-x="744" 
d="M377 169l34 106l29 77h-24v143h308v-143h-46l-155 -352h-311l-143 328h-60v167h248l77 -217l39 -109h4z" />
    <glyph glyph-name="xi" unicode="&#x3be;" horiz-adv-x="572" 
d="M354 730q18 0 42 -1.5t51 -4.5t54.5 -8t52.5 -12l-32 -152q-52 10 -87 12.5t-55 2.5q-45 0 -61 -17.5t-16 -39.5q0 -30 23.5 -40.5t55.5 -10.5h116v-148h-107q-45 0 -73 -19.5t-28 -51.5q0 -16 7 -29t24 -25.5t47 -27t75 -32.5q146 -58 146 -142q0 -24 -13 -52
t-34.5 -56.5t-50.5 -56t-62 -50.5l-117 85l37 47q14 19 14 32q0 30 -61 50q-59 19 -107.5 40t-83 48t-53 63.5t-18.5 86.5q0 28 8.5 54t23.5 48.5t36 39t47 25.5v6q-36 10 -57.5 28.5t-33 38.5t-14.5 40.5t-3 35.5q0 33 15 67t50.5 62t94.5 46t147 18z" />
    <glyph glyph-name="omicron" unicode="&#x3bf;" horiz-adv-x="681" 
d="M641 249q0 -58 -19 -105.5t-57 -82t-94 -53.5t-131 -19t-131.5 19t-94 53.5t-56 82t-18.5 105.5q0 57 18.5 104.5t56 81t94 52.5t131.5 19t131 -19t94 -52.5t57 -81t19 -104.5zM398 249q0 45 -12 72.5t-46 27.5q-17 0 -28 -8t-18 -22t-9.5 -32t-2.5 -38q0 -47 12 -76.5
t46 -29.5t46 28.5t12 77.5z" />
    <glyph glyph-name="pi" unicode="&#x3c0;" horiz-adv-x="741" 
d="M317 353v-353h-234v353h-51v140h676v-140h-55v-200h67v-139q-35 -14 -78.5 -21t-78.5 -7q-43 0 -71.5 8.5t-45.5 25t-24 40.5t-7 55v238h-98z" />
    <glyph glyph-name="rho" unicode="&#x3c1;" horiz-adv-x="671" 
d="M338 152q9 0 19.5 4t20 15.5t15.5 31t6 50.5q0 32 -6 50.5t-15.5 28.5t-20.5 12.5t-21 2.5q-9 0 -20 -4.5t-20 -15t-15.5 -28t-6.5 -43.5v-88q18 -10 34 -13t30 -3zM37 172q1 107 30 172.5t74.5 101t100.5 47.5t108 12q75 0 129 -20.5t88 -55.5t50 -82t16 -99
q0 -57 -12.5 -104t-40 -81t-71 -53t-106.5 -19q-10 0 -25.5 1t-33.5 4t-36.5 7.5t-34.5 10.5v-221h-240q2 80 2.5 147t0.5 109z" />
    <glyph glyph-name="sigma1" unicode="&#x3c2;" horiz-adv-x="541" 
d="M333 507q42 0 87.5 -5.5t87.5 -19.5l-1 -181h-148v50h-14q-39 0 -56.5 -24.5t-17.5 -66.5q0 -18 5.5 -34t20.5 -31.5t40.5 -32.5t65.5 -38q63 -34 90.5 -64t27.5 -66q0 -30 -17.5 -60t-45 -59t-61.5 -56t-67 -51l-102 98l42 46q23 26 17 41.5t-38 31.5q-51 25 -91 48
t-68 51.5t-43 67t-15 94.5q0 50 13.5 97t48 83.5t92.5 58.5t147 22z" />
    <glyph glyph-name="sigma" unicode="&#x3c3;" horiz-adv-x="683" 
d="M590 345q14 -21 23 -51t9 -57q0 -54 -18.5 -99.5t-55 -78.5t-92 -51.5t-130.5 -18.5t-130.5 19.5t-93 53.5t-56 80.5t-18.5 101.5q0 54 20 99.5t59 79.5t96.5 53t131.5 19h329v-142h-70zM385 244q0 44 -13 70.5t-46 26.5t-45.5 -29t-12.5 -68q0 -47 12 -75t46 -28
q32 0 45.5 27t13.5 76z" />
    <glyph glyph-name="tau" unicode="&#x3c4;" horiz-adv-x="539" 
d="M482 495v-142h-140v-123q0 -26 5.5 -40.5t17 -22.5t28 -10t38.5 -2q8 0 28 2t42 5l24 -146q-19 -8 -42.5 -13t-47 -9t-46 -5.5t-38.5 -1.5q-81 0 -129 19t-73 47t-32.5 60.5t-7.5 60.5v179h-99v142h472z" />
    <glyph glyph-name="upsilon" unicode="&#x3c5;" horiz-adv-x="706" 
d="M645 495v-262q0 -68 -23 -115t-62 -76.5t-91 -42.5t-110 -13q-139 0 -211.5 59.5t-72.5 159.5v147h-47v143h285v-297q0 -23 12 -37t35 -14q3 0 10.5 1.5t15.5 6.5t14.5 16t6.5 29v295h238z" />
    <glyph glyph-name="phi" unicode="&#x3c6;" horiz-adv-x="894" 
d="M33 249q0 38 11.5 76t37 71t67.5 59t103 39l64 -103q-27 -22 -38.5 -58t-11.5 -84q0 -52 15 -79.5t51 -30.5v369h259q61 0 111 -18.5t85 -52t54.5 -80.5t19.5 -104q0 -59 -20.5 -106.5t-59.5 -82t-96 -54t-131 -20.5v-197h-227v198q-92 6 -149.5 32t-89.5 62.5
t-43.5 79.5t-11.5 84zM623 253q0 40 -14 69.5t-55 33.5v-215q29 1 49 25t20 87z" />
    <glyph glyph-name="chi" unicode="&#x3c7;" horiz-adv-x="702" 
d="M44 352h-1v142h327v-142l44 -41l42 41h-26v142h234l1 -142h-32l-120 -126l89 -84h61v-142h-367v142h29l-50 49l-46 -49h26v-142h-225v142h36l115 131l-80 73h-57v6z" />
    <glyph glyph-name="psi" unicode="&#x3c8;" horiz-adv-x="933" 
d="M294 -68h58v63q-72 4 -127.5 23t-93 50t-57 73t-19.5 92v119h-38v143h265v-279q0 -23 13 -40t57 -20v339h-35v143h267l-1 -482q38 2 53 19.5t15 40.5v279h270v-143h-39v-119q0 -50 -19.5 -92t-57.5 -73t-94 -50t-128 -23v-63h62v-141h-351v141z" />
    <glyph glyph-name="omega" unicode="&#x3c9;" horiz-adv-x="889" 
d="M539 332l1 -135q0 -27 11.5 -40.5t29.5 -13.5q22 0 30.5 20.5t8.5 76.5q0 48 -13 80.5t-43 42.5l34 143q71 -3 120 -24t79.5 -55.5t44 -81.5t13.5 -104q0 -52 -13.5 -98t-43.5 -80t-78 -53.5t-117 -19.5q-41 0 -85.5 14t-74.5 52h-7q-15 -19 -34.5 -31.5t-41 -20
t-43.5 -11t-43 -3.5q-69 0 -115.5 19.5t-74.5 53.5t-39.5 80t-11.5 98q0 57 13.5 104t44 81.5t79.5 55.5t120 24l34 -143q-30 -10 -43 -42.5t-13 -80.5q0 -56 8.5 -76.5t30.5 -20.5q18 0 29.5 13.5t11.5 40.5v135h191z" />
    <glyph glyph-name="iotadieresis" unicode="&#x3ca;" horiz-adv-x="423" 
d="M37 352v143h287v-342h67v-139q-35 -14 -78.5 -21t-78.5 -7q-43 0 -71.5 8.5t-45.5 25t-24 40.5t-7 55v237h-49zM406 649q0 -41 -27.5 -69t-68.5 -28q-42 0 -70 28t-28 69q0 21 7.5 39t21 31t31 20.5t38.5 7.5q41 0 68.5 -28t27.5 -70zM178 649q0 -20 -7.5 -38t-21 -31
t-31 -20.5t-37.5 -7.5q-41 0 -69 28t-28 69q0 21 7.5 39t20.5 31t31 20.5t38 7.5t37.5 -7.5t31 -20.5t21 -31t7.5 -39z" />
    <glyph glyph-name="upsilondieresis" unicode="&#x3cb;" horiz-adv-x="706" 
d="M645 495v-262q0 -68 -23 -115t-62 -76.5t-91 -42.5t-110 -13q-139 0 -211.5 59.5t-72.5 159.5v147h-47v143h285v-297q0 -23 12 -37t35 -14q3 0 10.5 1.5t15.5 6.5t14.5 16t6.5 29v295h238zM569 649q0 -41 -27.5 -69t-68.5 -28q-42 0 -70 28t-28 69q0 21 7.5 39t21 31
t31 20.5t38.5 7.5q41 0 68.5 -28t27.5 -70zM341 649q0 -20 -7.5 -38t-21 -31t-31 -20.5t-37.5 -7.5q-41 0 -69 28t-28 69q0 21 7.5 39t20.5 31t31 20.5t38 7.5t37.5 -7.5t31 -20.5t21 -31t7.5 -39z" />
    <glyph glyph-name="omicrontonos" unicode="&#x3cc;" horiz-adv-x="681" 
d="M358 545l-87 51l119 228l148 -85zM641 249q0 -58 -19 -105.5t-57 -82t-94 -53.5t-131 -19t-131.5 19t-94 53.5t-56 82t-18.5 105.5q0 57 18.5 104.5t56 81t94 52.5t131.5 19t131 -19t94 -52.5t57 -81t19 -104.5zM398 249q0 45 -12 72.5t-46 27.5q-17 0 -28 -8t-18 -22
t-9.5 -32t-2.5 -38q0 -47 12 -76.5t46 -29.5t46 28.5t12 77.5z" />
    <glyph glyph-name="upsilontonos" unicode="&#x3cd;" horiz-adv-x="706" 
d="M365 545l-87 51l119 228l148 -85zM645 495v-262q0 -68 -23 -115t-62 -76.5t-91 -42.5t-110 -13q-139 0 -211.5 59.5t-72.5 159.5v147h-47v143h285v-297q0 -23 12 -37t35 -14q3 0 10.5 1.5t15.5 6.5t14.5 16t6.5 29v295h238z" />
    <glyph glyph-name="omegatonos" unicode="&#x3ce;" horiz-adv-x="889" 
d="M539 332l1 -135q0 -27 11.5 -40.5t29.5 -13.5q22 0 30.5 20.5t8.5 76.5q0 48 -13 80.5t-43 42.5l34 143q71 -3 120 -24t79.5 -55.5t44 -81.5t13.5 -104q0 -52 -13.5 -98t-43.5 -80t-78 -53.5t-117 -19.5q-41 0 -85.5 14t-74.5 52h-7q-15 -19 -34.5 -31.5t-41 -20
t-43.5 -11t-43 -3.5q-69 0 -115.5 19.5t-74.5 53.5t-39.5 80t-11.5 98q0 57 13.5 104t44 81.5t79.5 55.5t120 24l34 -143q-30 -10 -43 -42.5t-13 -80.5q0 -56 8.5 -76.5t30.5 -20.5q18 0 29.5 13.5t11.5 40.5v135h191zM462 545l-87 51l119 228l148 -85z" />
    <glyph glyph-name="Stigmagreek" unicode="&#x3da;" horiz-adv-x="721" 
d="M24 396q0 60 22.5 112.5t72 93t129.5 67t195 34.5q57 4 110.5 9.5t110.5 23.5l45 -164q-22 -11 -50.5 -18.5t-60 -13.5t-65.5 -10t-67 -6q-115 -8 -171.5 -42.5t-56.5 -86.5q0 -19 7 -37.5t27 -37t55.5 -37t93.5 -36.5q52 -17 100.5 -33.5t85.5 -39.5t59.5 -56.5
t22.5 -83.5q0 -35 -21.5 -67t-51.5 -59.5t-62.5 -49t-55.5 -34.5l-91 109q31 23 46 38.5t15 27.5q0 14 -11.5 23.5t-42.5 16.5q-111 25 -186 62.5t-120.5 84t-64.5 100t-19 110.5z" />
    <glyph glyph-name="stigmagreek" unicode="&#x3db;" horiz-adv-x="585" 
d="M26 281q0 47 18 89t57.5 75t101 54.5t148.5 27.5q40 3 81 8t94 22l37 -139q-38 -19 -89.5 -28t-102.5 -13q-83 -5 -123.5 -31.5t-40.5 -65.5q0 -14 5 -27.5t19.5 -27t40.5 -27.5t67 -29q40 -14 77.5 -28.5t67 -34t47.5 -46t18 -64.5q0 -28 -17.5 -54t-42.5 -48.5
t-52.5 -40.5t-46.5 -30l-76 94q47 37 47 52q0 11 -7 16t-26 10q-86 21 -144 51t-93 67.5t-50 80t-15 87.5z" />
    <glyph glyph-name="Digammagreek" unicode="&#x3dc;" horiz-adv-x="770" 
d="M92 0v726h615v-284h-171v129h-213v-129h160v-144h-160v-298h-231z" />
    <glyph glyph-name="digammagreek" unicode="&#x3dd;" horiz-adv-x="770" 
d="M92 -230v726h615v-284h-171v129h-213v-129h160v-144h-160v-298h-231z" />
    <glyph glyph-name="Koppagreek" unicode="&#x3de;" horiz-adv-x="645" 
d="M200 541l-123 -66l-67 87q19 22 47.5 50.5t62 54t70.5 43.5t75 18q50 0 79.5 -25t29.5 -69q0 -13 -2.5 -27.5t-9.5 -30.5l-94 -232l187 74q24 10 46 10q32 0 48.5 -19t16.5 -48q0 -13 -3 -26l-97 -259l132 53l48 -82q-26 -29 -59.5 -53t-67.5 -41t-65 -26t-53 -9
q-28 0 -48 7.5t-33 19.5t-19.5 27.5t-6.5 32.5q0 10 1.5 21.5t4.5 20.5l75 208l-164 -65q-15 -6 -29 -8.5t-26 -2.5q-36 0 -55.5 19.5t-19.5 48.5q0 16 5 29z" />
    <glyph glyph-name="koppagreek" unicode="&#x3df;" horiz-adv-x="521" 
d="M197 408l-117 -59l-52 92q19 20 45.5 40t56 35.5t59 25.5t55.5 10q48 0 83 -27.5t35 -81.5q0 -22 -9.5 -53t-23.5 -71h98q42 0 60 -14t18 -44q0 -14 -6 -32l-137 -411l-195 23l146 341h-110q-63 0 -63 47q0 10 5 27z" />
    <glyph glyph-name="Sampigreek" unicode="&#x3e0;" horiz-adv-x="669" 
d="M20 718q141 -8 246.5 -53.5t175 -119.5t104.5 -173.5t35 -214.5q0 -49 -9 -112t-29 -139l-111 23q8 63 12 109.5t4 78.5q0 30 -2 57.5t-7 56.5l-244 -153l-67 115l274 156q-6 13 -11.5 23.5t-11.5 20.5q-62 -39 -129 -80.5t-129 -80.5l-72 115l251 141q-48 47 -117.5 76
t-175.5 41z" />
    <glyph glyph-name="sampigreek" unicode="&#x3e1;" horiz-adv-x="600" 
d="M48 530q122 -5 211.5 -43.5t148.5 -101t87.5 -145.5t28.5 -177q0 -78 -32 -217l-115 22q8 55 12.5 97.5t4.5 65.5q0 40 -7 75q-46 -29 -95.5 -62t-95.5 -62l-60 111l217 123q-4 8 -7.5 14.5t-8.5 15.5l-210 -132l-66 108l202 111q-38 30 -95 52.5t-140 30.5z" />
    <glyph glyph-name="afii10023" unicode="&#x401;" horiz-adv-x="776" 
d="M602 834q0 -38 -26 -64.5t-64 -26.5t-64.5 26.5t-26.5 64.5q0 39 26.5 65t64.5 26t64 -26t26 -65zM389 834q0 -19 -7 -35.5t-19.5 -29t-29 -19.5t-34.5 -7q-38 0 -64.5 26.5t-26.5 64.5q0 39 26.5 65t64.5 26q37 0 63.5 -26t26.5 -65zM45 0v149h74v396h-74v148h683v-271
h-163v123h-203v-123l153 3v-144l-153 3v-135h211v135h163v-284h-691z" />
    <glyph glyph-name="afii10051" unicode="&#x402;" horiz-adv-x="989" 
d="M949 207q0 -65 -22.5 -121.5t-57 -102t-75 -79.5t-76.5 -55l-103 123q32 35 55 80t23 113q0 32 -7.5 53t-21 33.5t-31.5 17.5t-39 5q-23 0 -47.5 -4.5t-47.5 -11.5v-109h79v-149h-392v149h73v396h-78v-63h-161v211h780v-211h-161v63h-140v-134q38 11 82.5 17t89.5 6
q53 0 103 -11t89 -37t62.5 -69.5t23.5 -109.5z" />
    <glyph glyph-name="afii10052" unicode="&#x403;" horiz-adv-x="742" 
d="M373 748l-65 78l189 183l101 -120zM45 0v149h76v396h-76v148h685v-271h-163v123h-204v-396h90v-149h-408z" />
    <glyph glyph-name="afii10053" unicode="&#x404;" horiz-adv-x="724" 
d="M312 284q7 -35 22 -56t37 -32t50.5 -14t61.5 -3q11 0 31 1.5t43.5 4t47 6t40.5 6.5l34 -167q-27 -11 -59.5 -18.5t-66 -13t-67.5 -8t-64 -2.5q-115 0 -187.5 31t-113.5 81.5t-56 115t-15 131.5q0 70 16 135.5t58.5 116t118 81t195.5 30.5q53 0 105 -7t101 -21v-225h-165
v73q-18 3 -37 3q-62 0 -91.5 -29.5t-38.5 -81.5l167 3v-144z" />
    <glyph glyph-name="afii10054" unicode="&#x405;" horiz-adv-x="730" 
d="M378 541q-41 0 -59 -13.5t-18 -33.5q0 -14 14.5 -24t35.5 -18t44.5 -14t41.5 -10q50 -11 95 -27t79 -41t54 -60.5t20 -85.5q0 -53 -19.5 -95.5t-60.5 -72t-105.5 -45.5t-155.5 -16q-69 0 -144 11t-144 36v205h162v-70q12 -4 28 -6.5t32 -4t29 -2.5t21 -1q28 0 45 5
t26 11.5t11.5 14t2.5 13.5q0 17 -9.5 26.5t-25.5 14.5q-28 8 -68 16.5t-82 19.5q-88 23 -135.5 72.5t-47.5 124.5q0 51 17.5 94t56 74t98.5 48t145 17q30 0 65 -3t69.5 -9t68 -15t60.5 -21v-193h-164v64q-20 8 -44.5 11t-38.5 3z" />
    <glyph glyph-name="afii10055" unicode="&#x406;" horiz-adv-x="531" 
d="M70 0v149h76v396h-76v148h391v-148h-73v-396h73v-149h-391z" />
    <glyph glyph-name="afii10056" unicode="&#x407;" horiz-adv-x="531" 
d="M469 834q0 -38 -26 -64.5t-64 -26.5t-64.5 26.5t-26.5 64.5q0 39 26.5 65t64.5 26t64 -26t26 -65zM256 834q0 -19 -7 -35.5t-19.5 -29t-29 -19.5t-34.5 -7q-38 0 -64.5 26.5t-26.5 64.5q0 39 26.5 65t64.5 26q37 0 63.5 -26t26.5 -65zM70 0v149h76v396h-76v148h391v-148
h-73v-396h73v-149h-391z" />
    <glyph glyph-name="afii10057" unicode="&#x408;" horiz-adv-x="571" 
d="M87 694h424v-149h-83v-351q0 -167 -98 -268.5t-287 -126.5l-53 172q67 26 106 48.5t59 48t26 58t6 79.5v340l-100 1v148z" />
    <glyph glyph-name="afii10058" unicode="&#x409;" horiz-adv-x="1173" 
d="M812 545h-74v-102h105q49 0 100.5 -8t93.5 -31t69 -66.5t27 -113.5q0 -116 -68.5 -170t-188.5 -54h-442v149h61v396h-87v-47q0 -106 -10.5 -192t-45 -152t-98.5 -111.5t-171 -69.5l-63 166q54 24 87.5 48t52 58.5t24.5 85t6 127.5v87h-92v148h714v-148zM738 298v-149h68
q32 0 51 21t19 56q0 32 -17.5 52t-52.5 20h-68z" />
    <glyph glyph-name="afii10059" unicode="&#x40a;" horiz-adv-x="1239" 
d="M878 545h-74v-110h105q49 0 100.5 -7t93.5 -30t69 -65.5t27 -112.5q0 -108 -68 -164t-189 -56h-439v149h58v143h-191v-143h58v-149h-378v149h78v396h-78v148h378v-148h-58v-115h191v115h-62v148h379v-148zM804 290v-141h68q32 0 51 19t19 54q0 32 -17.5 50t-52.5 18h-68z
" />
    <glyph glyph-name="afii10060" unicode="&#x40b;" horiz-adv-x="1030" 
d="M1000 149v-149h-376v149h63v69q0 37 -24.5 50.5t-56.5 13.5q-30 0 -60 -7.5t-47 -15.5v-110h61v-149h-379v149h78v396h-78v-62h-161v210h769v-210h-161v62h-129v-131q38 10 83 16t90 6q49 0 95.5 -9t82.5 -31.5t57.5 -60t21.5 -94.5v-92h71z" />
    <glyph glyph-name="afii10061" unicode="&#x40c;" horiz-adv-x="877" 
d="M363 149h71v-149h-389v149h77v396h-77v147h389v-147h-71v-396zM745 155l97 -9v-129q-17 -7 -37 -12t-39 -8.5t-36 -5.5t-27 -2q-30 -1 -53 1.5t-41.5 10t-33.5 21.5t-29 35l-156 253v77l147 244q26 44 57 59t75 15q80 0 148 -37l-13 -129l-86 -5l-113 -165zM459 750
l-65 78l189 183l101 -120z" />
    <glyph glyph-name="afii10062" unicode="&#x40e;" horiz-adv-x="800" 
d="M357 693v-149h-53l60 -117l43 -90h6l42 98l49 109h-57v149h333v-149h-51l-211 -445q-32 -69 -79.5 -96t-113.5 -27q-39 0 -83 6t-92 20l35 150q32 -6 50 -7t31 -1q28 0 41 24l15 29h-55l-199 347h-48v149h337zM403 747q-34 0 -65 12t-58.5 33t-51.5 49.5t-44 62.5l78 64
q19 -26 39.5 -44t39.5 -29.5t36 -16.5t30 -5q9 0 22 1t33 9t47 26t65 53l58 -59q-27 -45 -56 -75t-59 -48t-59 -25.5t-55 -7.5z" />
    <glyph glyph-name="afii10145" unicode="&#x40f;" horiz-adv-x="926" 
d="M881 693v-149h-76v-396h76v-148h-324v-219h-182v219h-330v148h78v396h-78v149h383v-149h-63v-396h198v396h-63v149h381z" />
    <glyph glyph-name="afii10017" unicode="&#x410;" horiz-adv-x="852" 
d="M522 194h-209l-15 -45h56v-149h-334v149h53l213 544h297l195 -544h54v-149h-349v149h53zM386 401l-24 -68h117l-21 66l-32 111h-4z" />
    <glyph glyph-name="afii10018" unicode="&#x411;" horiz-adv-x="798" 
d="M690 482h-163v63h-164v-102h105q49 0 100.5 -8t93.5 -31t69 -66.5t27 -113.5q0 -112 -68.5 -168t-188.5 -56h-456v149h75v396h-75v148h645v-211zM363 298v-149h71q32 0 49.5 23t17.5 54q0 29 -16 50.5t-51 21.5h-71z" />
    <glyph glyph-name="afii10019" unicode="&#x412;" horiz-adv-x="798" 
d="M660 364q31 -14 50.5 -35t30 -43.5t14 -43.5t3.5 -36q0 -47 -18 -85t-51 -65t-80.5 -41.5t-107.5 -14.5h-456v149h75v396h-75v148h464q58 0 100.5 -14t71 -39.5t42.5 -61.5t14 -79q0 -11 -4 -28.5t-13 -36.5t-23.5 -37t-36.5 -30v-3zM363 285v-136h71q32 0 49.5 18.5
t17.5 47.5t-16 49.5t-51 20.5h-71zM363 545v-125h64q27 0 42.5 18t15.5 47q0 27 -14.5 43.5t-43.5 16.5h-64z" />
    <glyph glyph-name="afii10020" unicode="&#x413;" horiz-adv-x="742" 
d="M45 0v149h76v396h-76v148h685v-271h-163v123h-204v-396h90v-149h-408z" />
    <glyph glyph-name="afii10021" unicode="&#x414;" horiz-adv-x="874" 
d="M188 0v-193h-173v340l70 2q31 36 51.5 73t32.5 82.5t18.5 103.5t10.5 137h-87v148h713v-148h-76v-396l71 -2l5 -340h-173v193h-463zM413 545q-3 -74 -7.5 -132.5t-13.5 -106.5t-25 -86.5t-41 -70.5h180v396h-93z" />
    <glyph glyph-name="afii10022" unicode="&#x415;" horiz-adv-x="776" 
d="M45 0v149h74v396h-74v148h683v-271h-163v123h-203v-123l153 3v-144l-153 3v-135h211v135h163v-284h-691z" />
    <glyph glyph-name="afii10024" unicode="&#x416;" horiz-adv-x="1238" 
d="M737 149h71v-149h-376v149h71v396h-71v147h376v-147h-71v-396zM1101 155l107 -9v-129q-17 -7 -37 -12t-39 -8.5t-36 -5.5t-27 -2q-48 -2 -86.5 11t-67.5 57l-151 245v77l158 259q13 22 28 35t31.5 20t34 9.5t35.5 2.5q85 0 153 -37l-10 -129l-99 -5l-121 -173zM264 361
l-121 173l-99 5l-10 129q68 37 153 37q18 0 35.5 -2.5t34 -9.5t31.5 -20t28 -35l158 -259v-77l-151 -245q-29 -44 -67.5 -57t-86.5 -11q-11 0 -27.5 2t-35.5 5.5t-39 8.5t-37 12v129l107 9z" />
    <glyph glyph-name="afii10025" unicode="&#x417;" horiz-adv-x="693" 
d="M59 664q36 14 75 23t74.5 14.5t65 7.5t45.5 2q54 0 109 -8t99 -30t71.5 -61t27.5 -101q0 -36 -22 -75t-66 -62v-2q30 -11 51 -29t34 -38.5t19 -41.5t6 -39q0 -59 -26.5 -103t-72 -73.5t-107 -44t-130.5 -14.5q-16 0 -50 2t-74.5 7.5t-82.5 15.5t-75 27l47 151
q56 -17 105.5 -25t90.5 -8q59 0 89 18t30 48q0 31 -17.5 46t-56.5 15h-97v139h82q41 0 57.5 18.5t16.5 42.5q0 37 -25 50.5t-64 13.5q-14 0 -29 -1.5t-31 -3.5v-87h-169v206z" />
    <glyph glyph-name="afii10026" unicode="&#x418;" horiz-adv-x="948" 
d="M525 0v149h64v192l-225 -160v-32h65v-149h-384v149h78v396h-78v148h384v-148h-65v-186l225 160v26h-64v148h378v-148h-77v-396h77v-149h-378z" />
    <glyph glyph-name="afii10027" unicode="&#x419;" horiz-adv-x="948" 
d="M525 0v149h64v192l-225 -160v-32h65v-149h-384v149h78v396h-78v148h384v-148h-65v-186l225 160v26h-64v148h378v-148h-77v-396h77v-149h-378zM471 767q-34 0 -65 12t-58.5 33t-51.5 49.5t-44 62.5l78 64q19 -26 39.5 -44t39.5 -29.5t36 -16.5t30 -5q9 0 22 1t33 9t47 26
t65 53l58 -59q-27 -45 -56 -75t-59 -48t-59 -25.5t-55 -7.5z" />
    <glyph glyph-name="afii10028" unicode="&#x41a;" horiz-adv-x="877" 
d="M363 149h71v-149h-389v149h77v396h-77v147h389v-147h-71v-396zM745 155l97 -9v-129q-17 -7 -37 -12t-39 -8.5t-36 -5.5t-27 -2q-30 -1 -53 1.5t-41.5 10t-33.5 21.5t-29 35l-156 253v77l147 244q26 44 57 59t75 15q80 0 148 -37l-13 -129l-86 -5l-113 -165z" />
    <glyph glyph-name="afii10029" unicode="&#x41b;" horiz-adv-x="879" 
d="M448 0v149h63v396h-103v-50q0 -106 -10.5 -192t-45 -152t-98.5 -111.5t-171 -69.5l-63 166q54 24 87.5 48t52 58.5t24.5 85t6 127.5v90h-92v148h731v-148h-76v-396h76v-149h-381z" />
    <glyph glyph-name="afii10030" unicode="&#x41c;" horiz-adv-x="1123" 
d="M568 389l68 168l57 136h385v-148h-65v-396h65v-149h-354v149h54v256h-3l-54 -135l-55 -130h-193l-65 135l-58 130h-3v-256h62v-149h-364v149h78v396h-78v148h383l64 -141l72 -163h4z" />
    <glyph glyph-name="afii10031" unicode="&#x41d;" horiz-adv-x="926" 
d="M500 0v149h63v135h-198v-135h63v-149h-383v149h78v396h-78v148h383v-148h-63v-123h198v123h-63v148h381v-148h-76v-396h76v-149h-381z" />
    <glyph glyph-name="afii10032" unicode="&#x41e;" horiz-adv-x="845" 
d="M795 350q0 -78 -23.5 -144.5t-70.5 -115t-116.5 -75.5t-162.5 -27t-162.5 27t-116 75.5t-70 115t-23.5 144.5t23.5 144t70 113.5t116 74.5t162.5 27t162.5 -27t116.5 -74.5t70.5 -113.5t23.5 -144zM536 350q0 43 -5.5 79t-19 62t-35 40t-54.5 14t-55 -15.5t-35.5 -42
t-19 -62t-5.5 -75.5q0 -45 5.5 -82t19 -63t35.5 -40.5t55 -14.5t54.5 14t35 40t19 63t5.5 83z" />
    <glyph glyph-name="afii10033" unicode="&#x41f;" horiz-adv-x="926" 
d="M500 0v149h63v396h-198v-396h63v-149h-383v149h78v396h-78v148h836v-148h-76v-396h76v-149h-381z" />
    <glyph glyph-name="afii10034" unicode="&#x420;" horiz-adv-x="737" 
d="M712 466q0 -47 -16.5 -87.5t-49 -71.5t-80.5 -48.5t-110 -17.5h-95v-92h93v-149h-409v149h73v396h-73v148h394q78 0 130.5 -18t84 -48.5t45 -72t13.5 -88.5zM361 545v-163h27q38 0 53 23.5t15 55.5q0 84 -74 84h-21z" />
    <glyph glyph-name="afii10035" unicode="&#x421;" horiz-adv-x="713" 
d="M307 355q0 -60 12.5 -95t35.5 -53t55.5 -22.5t72.5 -4.5q11 0 30 1.5t41.5 4t45 6t39.5 6.5l34 -168q-55 -21 -122.5 -31.5t-128.5 -10.5q-115 0 -187.5 31t-113.5 81.5t-56 115t-15 131.5q0 70 16 135.5t58.5 116t118 81t195.5 30.5q53 0 102 -7t98 -21v-250h-165v94
q-9 2 -16 2.5t-15 0.5q-39 0 -65 -12.5t-41.5 -35.5t-22 -55t-6.5 -71z" />
    <glyph glyph-name="afii10036" unicode="&#x422;" horiz-adv-x="759" 
d="M176 0v149h83v396h-78v-123h-161v271h719v-271h-161v123h-79v-396h81v-149h-404z" />
    <glyph glyph-name="afii10037" unicode="&#x423;" horiz-adv-x="800" 
d="M357 693v-149h-53l60 -117l43 -90h6l42 98l49 109h-57v149h333v-149h-51l-211 -445q-32 -69 -79.5 -96t-113.5 -27q-39 0 -83 6t-92 20l35 150q32 -6 50 -7t31 -1q28 0 41 24l15 29h-55l-199 347h-48v149h337z" />
    <glyph glyph-name="afii10038" unicode="&#x424;" horiz-adv-x="999" 
d="M383 503q-48 -8 -73.5 -49t-25.5 -101q0 -56 23 -97t76 -51v298zM619 205q42 8 68.5 46.5t26.5 101.5t-23.5 102.5t-71.5 47.5v-298zM619 657q81 -4 144 -27.5t106.5 -62.5t66.5 -93t23 -118q0 -134 -86 -214t-254 -92v-50h-236v50q-82 4 -145.5 27.5t-107.5 63t-67 94
t-23 121.5q0 64 25.5 118t71 93.5t108.5 63t138 27.5v36h236v-37z" />
    <glyph glyph-name="afii10039" unicode="&#x425;" horiz-adv-x="823" 
d="M501 693h297v-149h-51l-173 -208l158 -186h65v-150h-417v150h38l-76 98l-76 -98h40v-150h-291v150h50l173 224l-134 168h-84v151h423v-151h-40l71 -88l69 90h-42v149z" />
    <glyph glyph-name="afii10040" unicode="&#x426;" horiz-adv-x="926" 
d="M749 0h-704v148h78v396h-78v149h383v-149h-63v-396h198v396h-63v149h381v-149h-76v-396h117v-341h-173v193z" />
    <glyph glyph-name="afii10041" unicode="&#x427;" horiz-adv-x="886" 
d="M836 1h-392v148h77v105q-42 -6 -90 -9t-95.5 0.5t-92 15.5t-78 36t-54 62t-20.5 94v92h-71v149h375v-149h-62v-59q0 -36 17 -53.5t44 -23.5t60.5 -2.5t66.5 9.5v129h-62v149h377v-149h-73v-396h73v-148z" />
    <glyph glyph-name="afii10042" unicode="&#x428;" horiz-adv-x="1265" 
d="M513 544h-53v149h339v-149h-54v-396h167v396h-58v149h366v-149h-76v-396h76v-148h-1175v148h78v396h-78v149h368v-149h-58v-396h158v396z" />
    <glyph glyph-name="afii10043" unicode="&#x429;" horiz-adv-x="1265" 
d="M513 544h-53v149h339v-149h-54v-396h167v396h-58v149h366v-149h-76v-396h117v-341h-173v193h-1043v148h78v396h-78v149h368v-149h-58v-396h158v396z" />
    <glyph glyph-name="afii10044" unicode="&#x42a;" horiz-adv-x="968" 
d="M532 443h105q49 0 100.5 -8t93.5 -31t69 -66.5t27 -113.5q0 -116 -68.5 -170t-188.5 -54h-456v149h75v396h-106v-115h-163v263h586v-148h-73zM532 298v-149h68q32 0 51 21t19 56q0 32 -17.5 52t-52.5 20h-68z" />
    <glyph glyph-name="afii10045" unicode="&#x42b;" horiz-adv-x="1232" 
d="M363 298v-149h68q32 0 51 21t19 56q0 32 -17.5 52t-52.5 20h-68zM437 545h-74v-102h105q49 0 100.5 -8t93.5 -31t69 -66.5t27 -113.5q0 -116 -68.5 -170t-188.5 -54h-456v149h75v396h-75v148h392v-148zM796 0v149h76v396h-76v148h391v-148h-73v-396h73v-149h-391z" />
    <glyph glyph-name="afii10046" unicode="&#x42c;" horiz-adv-x="803" 
d="M368 298v-149h68q32 0 51 21t19 56q0 32 -17.5 52t-52.5 20h-68zM442 545h-74v-102h105q49 0 100.5 -8t93.5 -31t69 -66.5t27 -113.5q0 -116 -68.5 -170t-188.5 -54h-456v149h75v396h-75v148h392v-148z" />
    <glyph glyph-name="afii10047" unicode="&#x42d;" horiz-adv-x="710" 
d="M231 282v145l166 -3q0 51 -27.5 80t-93.5 29q-8 0 -20 -0.5t-21 -2.5v-73h-165v225q49 14 103 21t107 7q113 0 186.5 -28.5t116 -77.5t59.5 -113t17 -135q0 -64 -18 -129.5t-60.5 -118.5t-114 -86.5t-177.5 -33.5q-61 0 -124.5 10.5t-118.5 31.5l34 167q17 -3 39 -6.5
t43 -6t39.5 -4t29.5 -1.5q33 0 62 4t50.5 15t35.5 32t18 56z" />
    <glyph glyph-name="afii10048" unicode="&#x42e;" horiz-adv-x="1246" 
d="M1196 350q0 -78 -22 -144.5t-67 -115t-113 -75.5t-161 -27q-83 0 -146 21.5t-107.5 60.5t-70.5 93.5t-34 120.5h-110v-135h63v-149h-383v149h78v396h-78v148h383v-148h-63v-123h111q9 64 35 116.5t70.5 90.5t107 59t144.5 21q93 0 161 -27t113 -74.5t67 -113.5t22 -144z
M947 350q0 43 -5.5 79t-19 62t-35 40t-54.5 14t-55 -15.5t-35.5 -42t-19 -62t-5.5 -75.5q0 -45 5.5 -82t19 -63t35.5 -40.5t55 -14.5t54.5 14t35 40t19 63t5.5 83z" />
    <glyph glyph-name="afii10049" unicode="&#x42f;" horiz-adv-x="820" 
d="M348 470q0 -21 7 -35t19 -22t27 -11t30 -3h36v146h-44q-33 0 -54 -21t-21 -54zM404 259l-83 -169q-13 -27 -26.5 -46.5t-30.5 -33t-40 -20t-55 -6.5q-11 0 -29 1t-38.5 4t-42 7t-39.5 10v129l90 13l85 154q-52 26 -76.5 70t-24.5 91q0 39 11.5 80t40.5 74.5t79 54.5
t127 21h423v-148h-69v-396h69v-149h-368v149h60v110h-63z" />
    <glyph glyph-name="afii10065" unicode="&#x430;" horiz-adv-x="650" 
d="M355 53q-21 -24 -45 -37.5t-46 -20.5t-40 -8.5t-27 -1.5q-51 0 -83.5 15t-51 37.5t-25.5 48t-7 47.5q0 16 4 38t18.5 42.5t42 36.5t74.5 21l172 20v9q0 24 -13.5 36t-51.5 12q-18 0 -38.5 -1.5t-40.5 -4t-38.5 -6t-32.5 -7.5l-33 137q23 9 52 17t61 13t65.5 8t64.5 3
q52 0 94.5 -9t72 -30.5t45.5 -56.5t16 -86v-178h49l7 -132q-15 -8 -35 -13.5t-42 -9.5t-43.5 -6t-39.5 -2q-39 0 -68.5 13.5t-34.5 54.5zM298 196q-17 -4 -21.5 -14.5t-4.5 -18.5q0 -19 7 -31t27 -12q19 0 33 14v71z" />
    <glyph glyph-name="afii10066" unicode="&#x431;" horiz-adv-x="679" 
d="M228 402q29 38 73.5 57.5t96.5 19.5q65 0 110.5 -17.5t74.5 -49.5t42.5 -76.5t13.5 -97.5q0 -54 -19 -100t-56.5 -79t-93.5 -51.5t-131 -18.5q-84 0 -141 21.5t-92 61t-50.5 96.5t-15.5 129q0 46 5.5 86t18.5 75q26 72 83 123t153 86q16 6 47 18t65 25.5t65 26.5t46 22
l61 -125q-29 -22 -65.5 -38.5t-74 -31t-74.5 -29t-67 -33t-51 -42t-27 -56.5zM396 244q0 42 -12 65.5t-46 23.5q-31 0 -44.5 -26t-13.5 -63q0 -45 12 -73t46 -28t46 27.5t12 73.5z" />
    <glyph glyph-name="afii10067" unicode="&#x432;" horiz-adv-x="665" 
d="M435 494q92 0 136 -35.5t44 -101.5q0 -24 -12 -49.5t-37 -45.5q19 -9 31 -22.5t19.5 -29t10.5 -31.5t3 -30q0 -71 -53 -110t-147 -39h-400v144h56v211h-56v139h405zM313 209v-71h53q19 0 28 10.5t9 24.5q0 13 -8 24.5t-29 11.5h-53zM313 360v-63h47q16 0 23.5 9.5
t7.5 22.5q0 11 -7 21t-24 10h-47z" />
    <glyph glyph-name="afii10068" unicode="&#x433;" horiz-adv-x="611" 
d="M40 0v143h57v212h-57v139h546v-212h-148v73h-102v-212h70v-143h-366z" />
    <glyph glyph-name="afii10069" unicode="&#x434;" horiz-adv-x="744" 
d="M654 144l65 -3v-309h-176v168h-350v-168h-178v309l65 3q18 18 31 38.5t22 45t13 55.5t4 72h-66v139h571zM357 355q0 -42 -3.5 -73.5t-10.5 -56t-17.5 -44t-24.5 -37.5h115v211h-59z" />
    <glyph glyph-name="afii10070" unicode="&#x435;" horiz-adv-x="612" 
d="M323 356q-24 0 -34 -18.5t-10 -45.5h83q0 29 -8 46.5t-31 17.5zM320 508q72 0 120.5 -20t78 -54.5t41.5 -79.5t12 -95v-33h-296q0 -23 6 -38t18 -23.5t30 -11.5t41 -3q33 0 73.5 7.5t73.5 17.5l43 -135q-28 -15 -59 -25t-62.5 -16t-61.5 -8.5t-56 -2.5q-87 0 -141.5 22
t-86 58t-43 82.5t-11.5 95.5q0 54 15 101.5t48.5 83t87 56.5t129.5 21z" />
    <glyph glyph-name="afii10072" unicode="&#x436;" horiz-adv-x="1055" 
d="M381 143h31v212h-35v139h307v-139h-36v-212h35v-143h-302v143zM963 137l57 -12v-117q-15 -5 -33 -8.5t-36 -6t-34 -4t-27 -1.5q-51 -2 -77.5 10t-43.5 39l-107 177v56l94 174q20 33 44.5 48t68.5 15q35 0 70 -8.5t60 -19.5l-12 -122l-47 -4l-59 -94zM111 353l-47 4
l-12 122q25 11 62 19.5t72 8.5q44 0 68.5 -15t44.5 -48l94 -174v-56l-107 -177q-17 -27 -43.5 -39t-77.5 -10q-11 0 -27 1.5t-34 4t-36 6t-33 8.5v117l57 12l82 122z" />
    <glyph glyph-name="afii10073" unicode="&#x437;" horiz-adv-x="545" 
d="M244 -11q-76 0 -132.5 10.5t-88.5 22.5l36 136q42 -11 69.5 -14.5t52.5 -3.5q42 0 63.5 7.5t21.5 26.5q0 14 -9.5 20t-26.5 6h-47v108h39q17 0 26 9t9 21q0 29 -36 29q-14 0 -30 -4v-31h-148v140q54 17 108 26.5t116 9.5q63 0 107.5 -11.5t72.5 -31t41 -46t13 -55.5
q0 -26 -12.5 -52t-53.5 -49v-2q38 -15 56.5 -47t18.5 -60q0 -31 -14 -60.5t-45.5 -53t-82.5 -37.5t-124 -14z" />
    <glyph glyph-name="afii10074" unicode="&#x438;" horiz-adv-x="800" 
d="M467 223l-72 -113l-76 -110h-231v355h-58v139h297v-235h4l65 104l88 131h228l1 -341h57v-139q-35 -14 -73.5 -21t-73.5 -7q-43 0 -71.5 8.5t-46 25t-25 40.5t-7.5 55v108h-6z" />
    <glyph glyph-name="afii10075" unicode="&#x439;" horiz-adv-x="800" 
d="M467 223l-72 -113l-76 -110h-231v355h-58v139h297v-235h4l65 104l88 131h228l1 -341h57v-139q-35 -14 -73.5 -21t-73.5 -7q-43 0 -71.5 8.5t-46 25t-25 40.5t-7.5 55v108h-6zM398 530q-34 0 -65 12t-58.5 33t-51.5 49.5t-44 62.5l78 64q19 -26 39.5 -44t39.5 -29.5
t36 -16.5t30 -5q9 0 22 1t33 9t47 26t65 53l58 -59q-27 -45 -56 -75t-59 -48t-59 -25.5t-55 -7.5z" />
    <glyph glyph-name="afii10076" unicode="&#x43a;" horiz-adv-x="732" 
d="M40 143h46v211h-52v140h291v-351h38v-143h-323v143zM640 137l57 -12v-117q-15 -5 -33 -8.5t-36 -6t-34 -4t-27 -1.5q-51 -2 -77.5 10t-43.5 39l-107 183v56l99 168q20 33 44.5 48t68.5 15q35 0 70 -8.5t60 -19.5l-12 -122l-47 -4l-64 -88z" />
    <glyph glyph-name="afii10077" unicode="&#x43b;" horiz-adv-x="717" 
d="M345 0v143h49v212h-67v-41q0 -62 -7 -115t-30.5 -97t-69.5 -79.5t-124 -63.5l-86 156q33 19 54.5 38.5t34 41t17.5 46.5t5 55v59h-61v139h573v-351h54v-143h-342z" />
    <glyph glyph-name="afii10078" unicode="&#x43c;" horiz-adv-x="897" 
d="M455 311l48 96l48 87h309v-140h-49v-201h56v-139q-35 -14 -70.5 -21t-70.5 -7q-43 0 -71 8.5t-44.5 25t-23.5 40.5t-7 55v111h-5l-34 -76l-32 -63h-113l-36 68l-34 75h-5v-230h-233v354h-58v140h320l48 -85l50 -98h7z" />
    <glyph glyph-name="afii10079" unicode="&#x43d;" horiz-adv-x="764" 
d="M677 494v-341h57v-139q-35 -14 -73.5 -21t-73.5 -7q-43 0 -71.5 8.5t-45.5 25t-24 40.5t-7 55v76h-114v-191h-240v354h-55v140h295v-181h114v181h238z" />
    <glyph glyph-name="afii10080" unicode="&#x43e;" horiz-adv-x="681" 
d="M641 249q0 -58 -19 -105.5t-57 -82t-94 -53.5t-131 -19t-131.5 19t-94 53.5t-56 82t-18.5 105.5q0 57 18.5 104.5t56 81t94 52.5t131.5 19t131 -19t94 -52.5t57 -81t19 -104.5zM398 249q0 45 -12 72.5t-46 27.5q-17 0 -28 -8t-18 -22t-9.5 -32t-2.5 -38q0 -47 12 -76.5
t46 -29.5t46 28.5t12 77.5z" />
    <glyph glyph-name="afii10081" unicode="&#x43f;" horiz-adv-x="741" 
d="M317 353v-353h-234v353h-51v140h676v-140h-55v-200h67v-139q-35 -14 -78.5 -21t-78.5 -7q-43 0 -71.5 8.5t-45.5 25t-24 40.5t-7 55v238h-98z" />
    <glyph glyph-name="afii10082" unicode="&#x440;" horiz-adv-x="723" 
d="M30 -71h56v422h-55v143h278v-38l3 -1q18 15 39.5 24.5t42 15.5t38 8t27.5 2q65 0 108 -19t69 -52t36.5 -78t10.5 -97q0 -59 -12 -108.5t-39 -85t-71.5 -55.5t-108.5 -20q-10 0 -25.5 1.5t-33.5 4.5t-36.5 7.5t-33.5 10.5v-85h57v-142h-350v142zM387 151q7 0 17.5 3
t20.5 13.5t16.5 31t6.5 55.5q0 34 -6 53t-15.5 28t-20.5 10.5t-21 1.5q-11 0 -27.5 -4.5t-33.5 -13.5v-162q19 -9 34 -12.5t29 -3.5z" />
    <glyph glyph-name="afii10083" unicode="&#x441;" horiz-adv-x="563" 
d="M279 254q0 -34 7 -54t20 -31t30 -14.5t38 -3.5q14 0 31 2t34 4.5t32 5.5t26 5l36 -142q-44 -20 -99 -29.5t-109 -9.5q-88 0 -143.5 22t-87 58.5t-43 83t-11.5 94.5q0 50 12.5 97t45 84t89.5 59t146 22q42 0 87.5 -5.5t87.5 -19.5l-1 -181h-148v49q-24 2 -39.5 -4.5
t-24.5 -19.5t-12.5 -31.5t-3.5 -40.5z" />
    <glyph glyph-name="afii10084" unicode="&#x442;" horiz-adv-x="679" 
d="M150 143h70v211h-52v-72h-148v212h639v-212h-148v72h-52v-211h70v-143h-379v143z" />
    <glyph glyph-name="afii10085" unicode="&#x443;" horiz-adv-x="705" 
d="M451 -126q-9 -21 -20.5 -39.5t-29 -32t-41 -21t-56.5 -7.5q-11 0 -33.5 1.5t-49.5 5.5t-56 10.5t-54 15.5l22 145l69 -5q18 0 30 1.5t21 7t16 16t14 28.5l9 26h-112l-116 311h-49v158h229l100 -342h4l62 199h-40v143h315v-143h-42z" />
    <glyph glyph-name="afii10086" unicode="&#x444;" horiz-adv-x="910" 
d="M281 -75h58v66q-92 2 -150.5 28t-91.5 64t-45 83t-12 86q0 57 19.5 103.5t57 80t93.5 52t129 20.5v78h-58v138h290v-216q73 -1 129 -19.5t93.5 -52t57 -80t19.5 -103.5q0 -118 -73.5 -188t-225.5 -75v-65h59v-138h-349v138zM571 129q35 2 55.5 31t20.5 84q0 21 -3 42
t-11.5 38.5t-23 29t-38.5 13.5v-238zM339 367q-21 -2 -35.5 -13t-24 -27.5t-13.5 -36.5t-4 -40q0 -60 22 -89.5t55 -31.5v238z" />
    <glyph glyph-name="afii10087" unicode="&#x445;" horiz-adv-x="702" 
d="M44 352h-1v142h327v-142l44 -41l42 41h-26v142h234l1 -142h-32l-120 -126l89 -84h61v-142h-367v142h29l-50 49l-46 -49h26v-142h-225v142h36l115 131l-80 73h-57v6z" />
    <glyph glyph-name="afii10088" unicode="&#x446;" horiz-adv-x="790" 
d="M573 0h-533v143h59v212h-57v139h295v-351h109v212h-48v139h339v-139h-52v-211l65 -1v-311h-177v168z" />
    <glyph glyph-name="afii10089" unicode="&#x447;" horiz-adv-x="735" 
d="M320 495v-148q0 -29 15 -38.5t35 -9.5q9 0 18 1.5t17 3.5v191h239v-342h56v-140q-54 -18 -92.5 -22.5t-61.5 -4.5q-66 0 -103.5 33.5t-37.5 87.5v49q-32 -9 -63.5 -15.5t-69.5 -6.5q-37 0 -71 8t-60.5 28t-42.5 53.5t-16 84.5v47h-57v140h295z" />
    <glyph glyph-name="afii10090" unicode="&#x448;" horiz-adv-x="1078" 
d="M416 355h-28v139h296v-139h-34v-212h83v351h302v-139h-62v-212h62v-143h-998v143h58v212h-58v139h297v-351h82v212z" />
    <glyph glyph-name="afii10091" unicode="&#x449;" horiz-adv-x="1081" 
d="M416 355h-28v139h296v-139h-34v-212h85v351h290v-139h-52v-212h65v-311h-177v168h-824v143h58v212h-58v139h294v-351h85v212z" />
    <glyph glyph-name="afii10092" unicode="&#x44a;" horiz-adv-x="830" 
d="M485 327h121q28 0 62.5 -7t65 -25t51 -49.5t20.5 -80.5q0 -78 -51.5 -121.5t-136.5 -43.5h-370v355h-83v-73h-149v212h470v-167zM485 205v-70h44q23 0 32 11t9 25t-10 24t-31 10h-44z" />
    <glyph glyph-name="afii10093" unicode="&#x44b;" horiz-adv-x="1033" 
d="M649 352v143h287v-342h67v-139q-35 -14 -78.5 -21t-78.5 -7q-43 0 -71.5 8.5t-45.5 25t-24 40.5t-7 55v237h-49zM324 327h121q28 0 62.5 -7t65 -25t51 -49.5t20.5 -80.5q0 -78 -51.5 -121.5t-136.5 -43.5h-370v357h-56v137h294v-167zM324 205v-70h44q23 0 32 11t9 25
t-10 24t-31 10h-44z" />
    <glyph glyph-name="afii10094" unicode="&#x44c;" horiz-adv-x="669" 
d="M324 327h121q28 0 62.5 -7t65 -25t51 -49.5t20.5 -80.5q0 -78 -51.5 -121.5t-136.5 -43.5h-370v357h-56v137h294v-167zM324 205v-70h44q23 0 32 11t9 25t-10 24t-31 10h-44z" />
    <glyph glyph-name="afii10095" unicode="&#x44d;" horiz-adv-x="552" 
d="M232 506q87 0 142 -21.5t85.5 -57t41.5 -82t11 -96.5q0 -48 -12 -95t-44 -84.5t-88.5 -60.5t-145.5 -23q-51 0 -103 8.5t-94 27.5l33 139q22 -5 57.5 -10t64.5 -5q16 0 31 2t27 8t20 16t10 27l-91 -3v107l92 -3q-1 26 -12 41t-43 15h-8t-9 -1v-29h-147l-4 152
q45 15 93.5 21.5t92.5 6.5z" />
    <glyph glyph-name="afii10096" unicode="&#x44e;" horiz-adv-x="990" 
d="M86 0v352h-56v143h294v-188h53q16 90 87 145t196 55q72 0 126.5 -19t90.5 -52.5t54.5 -81t18.5 -104.5q0 -58 -18.5 -106t-54.5 -82.5t-90.5 -53.5t-126.5 -19q-128 0 -199.5 57.5t-85.5 152.5h-51v-199h-238zM713 250q0 45 -11 72.5t-42 27.5q-30 0 -41.5 -30t-11.5 -70
q0 -48 11.5 -77.5t41.5 -29.5q31 0 42 28.5t11 78.5z" />
    <glyph glyph-name="afii10097" unicode="&#x44f;" horiz-adv-x="696" 
d="M659 495v-140h-55v-202h57v-139q-35 -14 -73.5 -21t-73.5 -7q-43 0 -71.5 8.5t-45.5 25t-24 40.5t-7 55v52h-27l-54 -97q-12 -22 -24.5 -38.5t-28.5 -27.5t-37 -16.5t-50 -5.5q-21 0 -54 4t-66 15v126l77 11l44 61q-32 11 -57.5 43t-25.5 87q0 42 15 73t39.5 51.5
t57.5 30.5t69 10zM366 289v70h-31q-23 0 -32 -11t-9 -25t10 -24t31 -10h31z" />
    <glyph glyph-name="afii10071" unicode="&#x451;" horiz-adv-x="612" 
d="M323 356q-24 0 -34 -18.5t-10 -45.5h83q0 29 -8 46.5t-31 17.5zM320 508q72 0 120.5 -20t78 -54.5t41.5 -79.5t12 -95v-33h-296q0 -23 6 -38t18 -23.5t30 -11.5t41 -3q33 0 73.5 7.5t73.5 17.5l43 -135q-28 -15 -59 -25t-62.5 -16t-61.5 -8.5t-56 -2.5q-87 0 -141.5 22
t-86 58t-43 82.5t-11.5 95.5q0 54 15 101.5t48.5 83t87 56.5t129.5 21zM532 656q0 -41 -27.5 -69t-68.5 -28q-42 0 -70 28t-28 69q0 21 7.5 39t21 31t31 20.5t38.5 7.5q41 0 68.5 -28t27.5 -70zM304 656q0 -20 -7.5 -38t-21 -31t-31 -20.5t-37.5 -7.5q-41 0 -69 28t-28 69
q0 21 7.5 39t20.5 31t31 20.5t38 7.5t37.5 -7.5t31 -20.5t21 -31t7.5 -39z" />
    <glyph glyph-name="afii10099" unicode="&#x452;" horiz-adv-x="717" 
d="M41 549h48v33h-69v142h308v-175h129v-74h-129v-61q31 18 66.5 27t64.5 9q65 0 109 -18t70.5 -50.5t37.5 -78.5t11 -103q0 -50 -12.5 -97.5t-44 -84t-85.5 -58.5t-137 -22q-5 0 -11 0.5t-12 0.5v157q17 4 30 8.5t21.5 15t12.5 29t4 49.5t-6.5 49t-16.5 27.5t-21 12
t-20 2.5q-14 0 -29 -5.5t-31 -13.5l-1 -270h-239v475h-48v74z" />
    <glyph glyph-name="afii10100" unicode="&#x453;" horiz-adv-x="611" 
d="M40 0v143h57v212h-57v139h546v-212h-148v73h-102v-212h70v-143h-366zM275 578l-65 78l189 183l101 -120z" />
    <glyph glyph-name="afii10101" unicode="&#x454;" horiz-adv-x="563" 
d="M359 356q-37 3 -54.5 -12.5t-22.5 -43.5l94 3v-107l-91 3q10 -34 33.5 -43t55.5 -9q14 0 31 2t34 4.5t32 5.5t26 5l36 -138q-44 -20 -99 -29.5t-109 -9.5q-88 0 -143.5 22t-87 58.5t-43 83t-11.5 94.5q0 50 12.5 97t45 84t89.5 59t146 22q42 0 87.5 -5.5t87.5 -19.5
l-1 -155h-148v29v0z" />
    <glyph glyph-name="afii10102" unicode="&#x455;" horiz-adv-x="604" 
d="M298 509q27 0 56.5 -2.5t59 -7.5t57.5 -13t52 -18v-143h-156v39q-20 5 -47 5q-19 0 -33 -5.5t-14 -19.5q0 -13 22 -20.5t54.5 -15t71 -17.5t71 -28t54.5 -46.5t22 -72.5q0 -36 -14.5 -65t-47.5 -49t-86 -31t-129 -11q-56 0 -123 8.5t-131 34.5v149h160v-39q8 -5 29.5 -8
t43.5 -3q21 0 36.5 4t15.5 15q0 13 -9 17.5t-33 10.5q-47 12 -91.5 25.5t-79 32.5t-55.5 45t-21 63q0 36 14.5 66.5t46.5 52.5t82.5 34.5t121.5 12.5z" />
    <glyph glyph-name="afii10103" unicode="&#x456;" horiz-adv-x="434" 
d="M40 352v143h287v-342h67v-139q-35 -14 -78.5 -21t-78.5 -7q-43 0 -71.5 8.5t-45.5 25t-24 40.5t-7 55v237h-49zM333 670q0 -27 -10.5 -50.5t-28.5 -41t-41.5 -27.5t-49.5 -10q-27 0 -50.5 10t-40.5 27.5t-27 41t-10 50.5t10 50.5t27 41t40.5 27.5t50.5 10q26 0 49.5 -10
t41.5 -27.5t28.5 -41t10.5 -50.5z" />
    <glyph glyph-name="afii10104" unicode="&#x457;" horiz-adv-x="434" 
d="M40 352v143h287v-342h67v-139q-35 -14 -78.5 -21t-78.5 -7q-43 0 -71.5 8.5t-45.5 25t-24 40.5t-7 55v237h-49zM408 649q0 -41 -27.5 -69t-68.5 -28q-42 0 -70 28t-28 69q0 21 7.5 39t21 31t31 20.5t38.5 7.5q41 0 68.5 -28t27.5 -70zM180 649q0 -20 -7.5 -38t-21 -31
t-31 -20.5t-37.5 -7.5q-41 0 -69 28t-28 69q0 21 7.5 39t20.5 31t31 20.5t38 7.5t37.5 -7.5t31 -20.5t21 -31t7.5 -39z" />
    <glyph glyph-name="afii10105" unicode="&#x458;" horiz-adv-x="412" 
d="M44 495h288v-385q0 -82 -18 -142t-56 -102t-96.5 -67.5t-139.5 -38.5l-54 139q43 25 68 43.5t37.5 40.5t16 51.5t3.5 75.5v242h-49v143zM338 670q0 -27 -10.5 -50.5t-28.5 -41t-41.5 -27.5t-49.5 -10q-27 0 -50.5 10t-40.5 27.5t-27 41t-10 50.5t10 50.5t27 41t40.5 27.5
t50.5 10q26 0 49.5 -10t41.5 -27.5t28.5 -41t10.5 -50.5z" />
    <glyph glyph-name="afii10106" unicode="&#x459;" horiz-adv-x="955" 
d="M610 327h121q28 0 62.5 -7t65 -25t51 -49.5t20.5 -80.5q0 -78 -51.5 -121.5t-136.5 -43.5h-370v356h-45v-43q0 -62 -7 -115t-30.5 -97t-69.5 -79.5t-124 -63.5l-86 158q33 19 54.5 38.5t34 41t17.5 46.5t5 55v58h-61v139h550v-167zM610 205v-70h44q23 0 32 11t9 25
t-10 24t-31 10h-44z" />
    <glyph glyph-name="afii10107" unicode="&#x45a;" horiz-adv-x="1011" 
d="M666 317h121q28 0 62.5 -5t65 -21.5t51 -46.5t20.5 -79q0 -78 -51.5 -121.5t-136.5 -43.5h-370v187h-103v-187h-240v354h-55v140h295v-196h103v59h-44v137h282v-177zM666 195v-60h51q34 0 34 31q0 29 -34 29h-51z" />
    <glyph glyph-name="afii10108" unicode="&#x45b;" horiz-adv-x="737" 
d="M28 489v74h48v33h-56v128h295v-161h139v-74h-139v-94q72 57 152 57q183 0 183 -185v-114h57v-139q-35 -14 -73.5 -21t-73.5 -7q-43 0 -71.5 8.5t-45.5 25t-24 40.5t-7 55v103q0 32 -13.5 45t-36.5 13q-10 0 -23 -5.5t-24 -16.5v-254h-239v489h-48z" />
    <glyph glyph-name="afii10109" unicode="&#x45c;" horiz-adv-x="732" 
d="M40 143h46v211h-52v140h291v-351h38v-143h-323v143zM640 137l57 -12v-117q-15 -5 -33 -8.5t-36 -6t-34 -4t-27 -1.5q-51 -2 -77.5 10t-43.5 39l-107 183v56l99 168q20 33 44.5 48t68.5 15q35 0 70 -8.5t60 -19.5l-12 -122l-47 -4l-64 -88zM347 548l-65 78l189 183
l101 -120z" />
    <glyph glyph-name="afii10110" unicode="&#x45e;" horiz-adv-x="705" 
d="M451 -127q-9 -21 -20.5 -39.5t-29 -32t-41 -21t-56.5 -7.5q-11 0 -33.5 1.5t-49.5 5.5t-56 10.5t-54 15.5l22 145l69 -5q18 0 30 1.5t21 7t16 16t14 28.5l9 26h-112l-116 311h-49v158h229l100 -342h4l62 199h-40v143h315v-143h-42zM341 558q-34 0 -65 12t-58.5 33
t-51.5 49.5t-44 62.5l78 64q19 -26 39.5 -44t39.5 -29.5t36 -16.5t30 -5q9 0 22 1t33 9t47 26t65 53l58 -59q-27 -45 -56 -75t-59 -48t-59 -25.5t-55 -7.5z" />
    <glyph glyph-name="afii10193" unicode="&#x45f;" horiz-adv-x="790" 
d="M483 0v-181h-177v181h-266v143h59v211h-57v140h295v-351h109v211h-48v140h339v-140h-52v-210l65 -1v-143h-267z" />
    <glyph glyph-name="afii10050" unicode="&#x490;" horiz-adv-x="742" 
d="M45 0v149h76v396h-76v148h523v133h162v-281h-367v-396h90v-149h-408z" />
    <glyph glyph-name="afii10098" unicode="&#x491;" horiz-adv-x="604" 
d="M40 0v143h57v212h-57v139h388v128h151v-267h-243v-212h70v-143h-366z" />
    <glyph glyph-name="schwacyrillic" unicode="&#x4d9;" horiz-adv-x="612" 
d="M289 140q24 0 34 18.5t10 45.5h-83q0 -29 8 -46.5t31 -17.5zM292 -12q-72 0 -120.5 20t-78 54.5t-41.5 79.5t-12 95v33h296q0 46 -24.5 61t-70.5 15q-33 0 -73.5 -7.5t-73.5 -17.5l-43 135q28 15 59 25t62.5 16t61.5 8.5t56 2.5q87 0 141.5 -22t86 -58t43 -82.5
t11.5 -95.5q0 -54 -15 -101.5t-48.5 -83t-87 -56.5t-129.5 -21z" />
    <glyph glyph-name="Wgrave" unicode="&#x1e80;" horiz-adv-x="1228" 
d="M605 230l-30 -95l-44 -135h-304l-161 544h-52v149h365v-149h-50l36 -143l48 -204h4l56 200l28 90l-19 57h-52v149h354v-149h-62l49 -138l62 -179h3l43 190l31 127h-55v149h359v-149h-56l-165 -544h-308l-45 135l-30 95h-5zM394 886l96 120l190 -182l-65 -78z" />
    <glyph glyph-name="wgrave" unicode="&#x1e81;" horiz-adv-x="1006" 
d="M691 160l29 96l33 97h-36v142h288v-142h-39l-124 -353h-293l-24 63l-28 81h-3l-26 -82l-23 -62h-283l-114 328h-46v167h223l65 -224l33 -111h6l32 109l22 69l-6 14h-47v143h317v-143h-33l38 -103l34 -89h5zM283 688l96 120l190 -182l-65 -78z" />
    <glyph glyph-name="Wacute" unicode="&#x1e82;" horiz-adv-x="1228" 
d="M605 230l-30 -95l-44 -135h-304l-161 544h-52v149h365v-149h-50l36 -143l48 -204h4l56 200l28 90l-19 57h-52v149h354v-149h-62l49 -138l62 -179h3l43 190l31 127h-55v149h359v-149h-56l-165 -544h-308l-45 135l-30 95h-5zM607 748l-65 78l189 183l101 -120z" />
    <glyph glyph-name="wacute" unicode="&#x1e83;" horiz-adv-x="1006" 
d="M691 160l29 96l33 97h-36v142h288v-142h-39l-124 -353h-293l-24 63l-28 81h-3l-26 -82l-23 -62h-283l-114 328h-46v167h223l65 -224l33 -111h6l32 109l22 69l-6 14h-47v143h317v-143h-33l38 -103l34 -89h5zM499 548l-65 78l189 183l101 -120z" />
    <glyph glyph-name="Wdieresis" unicode="&#x1e84;" horiz-adv-x="1228" 
d="M605 230l-30 -95l-44 -135h-304l-161 544h-52v149h365v-149h-50l36 -143l48 -204h4l56 200l28 90l-19 57h-52v149h354v-149h-62l49 -138l62 -179h3l43 190l31 127h-55v149h359v-149h-56l-165 -544h-308l-45 135l-30 95h-5zM805 834q0 -38 -26 -64.5t-64 -26.5t-64.5 26.5
t-26.5 64.5q0 39 26.5 65t64.5 26t64 -26t26 -65zM592 834q0 -19 -7 -35.5t-19.5 -29t-29 -19.5t-34.5 -7q-38 0 -64.5 26.5t-26.5 64.5q0 39 26.5 65t64.5 26q37 0 63.5 -26t26.5 -65z" />
    <glyph glyph-name="wdieresis" unicode="&#x1e85;" horiz-adv-x="1006" 
d="M691 160l29 96l33 97h-36v142h288v-142h-39l-124 -353h-293l-24 63l-28 81h-3l-26 -82l-23 -62h-283l-114 328h-46v167h223l65 -224l33 -111h6l32 109l22 69l-6 14h-47v143h317v-143h-33l38 -103l34 -89h5zM707 632q0 -41 -27.5 -69t-68.5 -28q-42 0 -70 28t-28 69
q0 21 7.5 39t21 31t31 20.5t38.5 7.5q41 0 68.5 -28t27.5 -70zM479 632q0 -20 -7.5 -38t-21 -31t-31 -20.5t-37.5 -7.5q-41 0 -69 28t-28 69q0 21 7.5 39t20.5 31t31 20.5t38 7.5t37.5 -7.5t31 -20.5t21 -31t7.5 -39z" />
    <glyph glyph-name="Ygrave" unicode="&#x1ef2;" horiz-adv-x="799" 
d="M494 544h-55v149h345v-149h-49l-206 -316v-79h73v-149h-412v149h75v79l-202 316h-48v149h349v-149h-54l91 -161h4zM205 886l96 120l190 -182l-65 -78z" />
    <glyph glyph-name="ygrave" unicode="&#x1ef3;" horiz-adv-x="705" 
d="M451 -126q-9 -21 -20.5 -39.5t-28.5 -32t-41 -21t-57 -7.5q-11 0 -33.5 1.5t-49.5 5.5t-56.5 10.5t-54.5 15.5l25 147q22 -3 40 -5t32 -2q30 0 47.5 11t28.5 42l9 26h-112l-116 311h-49v158h229l67 -230l32 -119h4l39 128l24 78h-40v143h315v-143h-42zM114 688l96 120
l190 -182l-65 -78z" />
    <glyph glyph-name="uni1F00" unicode="&#x1f00;" horiz-adv-x="714" 
d="M630 146h55v-137q-15 -5 -34.5 -9t-40.5 -7t-42 -5t-39 -2q-15 0 -31 2t-31 8.5t-27.5 18.5t-19.5 32q-20 -20 -44 -32t-47 -18t-42 -8t-28 -2q-50 0 -86 12t-61.5 32.5t-40.5 47t-23.5 55.5t-11.5 58t-3 55q0 49 13 96t41.5 83t73.5 58t108 22q29 0 67.5 -9t79.5 -36
l19 34h195v-349zM329 166q25 0 63 18v146q-17 8 -32.5 13t-26.5 5q-10 0 -21.5 -2.5t-21 -12t-16 -27.5t-6.5 -49q0 -30 6 -48t15.5 -27.5t20 -12.5t19.5 -3zM323 811q124 -34 124 -135q0 -32 -25.5 -71.5t-85.5 -81.5l-56 60q18 15 31 29t13 31q0 4 -3 10t-11 11.5t-21 9.5
t-32 4l37 119z" />
    <glyph glyph-name="uni1F01" unicode="&#x1f01;" horiz-adv-x="714" 
d="M630 146h55v-137q-15 -5 -34.5 -9t-40.5 -7t-42 -5t-39 -2q-15 0 -31 2t-31 8.5t-27.5 18.5t-19.5 32q-20 -20 -44 -32t-47 -18t-42 -8t-28 -2q-50 0 -86 12t-61.5 32.5t-40.5 47t-23.5 55.5t-11.5 58t-3 55q0 49 13 96t41.5 83t73.5 58t108 22q29 0 67.5 -9t79.5 -36
l19 34h195v-349zM329 166q25 0 63 18v146q-17 8 -32.5 13t-26.5 5q-10 0 -21.5 -2.5t-21 -12t-16 -27.5t-6.5 -49q0 -30 6 -48t15.5 -27.5t20 -12.5t19.5 -3zM417 797l37 -119q-20 0 -32.5 -4t-20.5 -9.5t-11 -11.5t-3 -10q0 -17 13 -31t31 -29l-56 -60q-60 42 -85.5 81.5
t-25.5 71.5q0 101 124 135z" />
    <glyph glyph-name="uni1F02" unicode="&#x1f02;" horiz-adv-x="714" 
d="M630 146h55v-137q-15 -5 -34.5 -9t-40.5 -7t-42 -5t-39 -2q-15 0 -31 2t-31 8.5t-27.5 18.5t-19.5 32q-20 -20 -44 -32t-47 -18t-42 -8t-28 -2q-50 0 -86 12t-61.5 32.5t-40.5 47t-23.5 55.5t-11.5 58t-3 55q0 49 13 96t41.5 83t73.5 58t108 22q29 0 67.5 -9t79.5 -36
l19 34h195v-349zM329 166q25 0 63 18v146q-17 8 -32.5 13t-26.5 5q-10 0 -21.5 -2.5t-21 -12t-16 -27.5t-6.5 -49q0 -30 6 -48t15.5 -27.5t20 -12.5t19.5 -3zM212 837q124 -34 124 -137q0 -32 -25.5 -71.5t-85.5 -81.5l-56 60q18 15 27 29t9 31q0 4 -2 10t-8 11.5t-18 9.5
t-31 4l37 119zM335 792l161 58l84 -262l-94 -35z" />
    <glyph glyph-name="uni1F03" unicode="&#x1f03;" horiz-adv-x="714" 
d="M630 146h55v-137q-15 -5 -34.5 -9t-40.5 -7t-42 -5t-39 -2q-15 0 -31 2t-31 8.5t-27.5 18.5t-19.5 32q-20 -20 -44 -32t-47 -18t-42 -8t-28 -2q-50 0 -86 12t-61.5 32.5t-40.5 47t-23.5 55.5t-11.5 58t-3 55q0 49 13 96t41.5 83t73.5 58t108 22q29 0 67.5 -9t79.5 -36
l19 34h195v-349zM329 166q25 0 63 18v146q-17 8 -32.5 13t-26.5 5q-10 0 -21.5 -2.5t-21 -12t-16 -27.5t-6.5 -49q0 -30 6 -48t15.5 -27.5t20 -12.5t19.5 -3zM300 821l37 -119q-20 0 -31.5 -4t-17.5 -9.5t-8 -11.5t-2 -10q0 -17 9 -31t27 -29l-56 -60q-60 42 -85.5 81.5
t-25.5 71.5q0 103 124 137zM336 790l161 58l84 -262l-94 -35z" />
    <glyph glyph-name="uni1F04" unicode="&#x1f04;" horiz-adv-x="714" 
d="M630 146h55v-137q-15 -5 -34.5 -9t-40.5 -7t-42 -5t-39 -2q-15 0 -31 2t-31 8.5t-27.5 18.5t-19.5 32q-20 -20 -44 -32t-47 -18t-42 -8t-28 -2q-50 0 -86 12t-61.5 32.5t-40.5 47t-23.5 55.5t-11.5 58t-3 55q0 49 13 96t41.5 83t73.5 58t108 22q29 0 67.5 -9t79.5 -36
l19 34h195v-349zM329 166q25 0 63 18v146q-17 8 -32.5 13t-26.5 5q-10 0 -21.5 -2.5t-21 -12t-16 -27.5t-6.5 -49q0 -30 6 -48t15.5 -27.5t20 -12.5t19.5 -3zM243 837q124 -34 124 -137q0 -32 -25.5 -71.5t-85.5 -81.5l-56 60q18 15 27 29t9 31q0 4 -2 10t-8 11.5t-18 9.5
t-31 4l37 119zM466 543l-94 35l84 262l161 -58z" />
    <glyph glyph-name="uni1F05" unicode="&#x1f05;" horiz-adv-x="714" 
d="M630 146h55v-137q-15 -5 -34.5 -9t-40.5 -7t-42 -5t-39 -2q-15 0 -31 2t-31 8.5t-27.5 18.5t-19.5 32q-20 -20 -44 -32t-47 -18t-42 -8t-28 -2q-50 0 -86 12t-61.5 32.5t-40.5 47t-23.5 55.5t-11.5 58t-3 55q0 49 13 96t41.5 83t73.5 58t108 22q29 0 67.5 -9t79.5 -36
l19 34h195v-349zM329 166q25 0 63 18v146q-17 8 -32.5 13t-26.5 5q-10 0 -21.5 -2.5t-21 -12t-16 -27.5t-6.5 -49q0 -30 6 -48t15.5 -27.5t20 -12.5t19.5 -3zM330 821l37 -119q-20 0 -31.5 -4t-17.5 -9.5t-8 -11.5t-2 -10q0 -17 9 -31t27 -29l-56 -60q-60 42 -85.5 81.5
t-25.5 71.5q0 103 124 137zM461 543l-94 35l84 262l161 -58z" />
    <glyph glyph-name="uni1F06" unicode="&#x1f06;" horiz-adv-x="714" 
d="M630 146h55v-137q-15 -5 -34.5 -9t-40.5 -7t-42 -5t-39 -2q-15 0 -31 2t-31 8.5t-27.5 18.5t-19.5 32q-20 -20 -44 -32t-47 -18t-42 -8t-28 -2q-50 0 -86 12t-61.5 32.5t-40.5 47t-23.5 55.5t-11.5 58t-3 55q0 49 13 96t41.5 83t73.5 58t108 22q29 0 67.5 -9t79.5 -36
l19 34h195v-349zM329 166q25 0 63 18v146q-17 8 -32.5 13t-26.5 5q-10 0 -21.5 -2.5t-21 -12t-16 -27.5t-6.5 -49q0 -30 6 -48t15.5 -27.5t20 -12.5t19.5 -3zM474 745q-32 0 -65 6t-64.5 13.5t-59 13.5t-46.5 6l-58 -42l-66 46q13 35 28.5 58t32.5 36.5t36.5 19t40.5 5.5
q29 0 59 -5.5t59.5 -12.5t58.5 -12.5t56 -5.5l59 43l64 -45q-23 -65 -55 -94.5t-80 -29.5zM347 742q34 -8 57.5 -19.5t37.5 -26t20.5 -30t6.5 -31.5q0 -26 -27.5 -58t-84.5 -61l-57 53q35 25 35 39q0 17 -15 23.5t-35 6.5l38 91z" />
    <glyph glyph-name="uni1F07" unicode="&#x1f07;" horiz-adv-x="714" 
d="M630 146h55v-137q-15 -5 -34.5 -9t-40.5 -7t-42 -5t-39 -2q-15 0 -31 2t-31 8.5t-27.5 18.5t-19.5 32q-20 -20 -44 -32t-47 -18t-42 -8t-28 -2q-50 0 -86 12t-61.5 32.5t-40.5 47t-23.5 55.5t-11.5 58t-3 55q0 49 13 96t41.5 83t73.5 58t108 22q29 0 67.5 -9t79.5 -36
l19 34h195v-349zM329 166q25 0 63 18v146q-17 8 -32.5 13t-26.5 5q-10 0 -21.5 -2.5t-21 -12t-16 -27.5t-6.5 -49q0 -30 6 -48t15.5 -27.5t20 -12.5t19.5 -3zM477 746q-32 0 -65 6t-64.5 13.5t-59 13.5t-46.5 6l-58 -42l-66 46q13 35 28.5 58t32.5 36.5t36.5 19t40.5 5.5
q29 0 59 -5.5t59.5 -12.5t58.5 -12.5t56 -5.5l59 43l64 -45q-23 -65 -55 -94.5t-80 -29.5zM421 730l40 -91q-20 0 -36 -6.5t-16 -23.5q0 -15 36 -39l-60 -53q-60 29 -88.5 61t-28.5 58q0 16 6.5 31.5t21.5 30t39.5 26t60.5 19.5z" />
    <glyph glyph-name="uni1F08" unicode="&#x1f08;" horiz-adv-x="852" 
d="M522 194h-209l-15 -45h56v-149h-334v149h53l213 544h297l195 -544h54v-149h-349v149h53zM386 401l-24 -68h117l-21 66l-32 111h-4zM15 742q124 -34 124 -135q0 -32 -25.5 -71.5t-85.5 -81.5l-56 60q18 15 31 29t13 31q0 4 -3 10t-11 11.5t-21 9.5t-32 4l37 119z" />
    <glyph glyph-name="uni1F09" unicode="&#x1f09;" horiz-adv-x="852" 
d="M522 194h-209l-15 -45h56v-149h-334v149h53l213 544h297l195 -544h54v-149h-349v149h53zM386 401l-24 -68h117l-21 66l-32 111h-4zM120 727l37 -119q-20 0 -32.5 -4t-20.5 -9.5t-11 -11.5t-3 -10q0 -17 13 -31t31 -29l-56 -60q-60 42 -85.5 81.5t-25.5 71.5
q0 101 124 135z" />
    <glyph glyph-name="uni1F0A" unicode="&#x1f0a;" horiz-adv-x="852" 
d="M522 194h-209l-15 -45h56v-149h-334v149h53l213 544h297l195 -544h54v-149h-349v149h53zM386 401l-24 -68h117l-21 66l-32 111h-4zM-194 737q124 -34 124 -137q0 -32 -25.5 -71.5t-85.5 -81.5l-56 60q18 15 27 29t9 31q0 4 -2 10t-8 11.5t-18 9.5t-31 4l37 119zM-71 692
l161 58l84 -262l-94 -35z" />
    <glyph glyph-name="uni1F0B" unicode="&#x1f0b;" horiz-adv-x="852" 
d="M522 194h-209l-15 -45h56v-149h-334v149h53l213 544h297l195 -544h54v-149h-349v149h53zM386 401l-24 -68h117l-21 66l-32 111h-4zM-102 721l37 -119q-20 0 -31.5 -4t-17.5 -9.5t-8 -11.5t-2 -10q0 -17 9 -31t27 -29l-56 -60q-60 42 -85.5 81.5t-25.5 71.5q0 103 124 137
zM-66 690l161 58l84 -262l-94 -35z" />
    <glyph glyph-name="uni1F0C" unicode="&#x1f0c;" horiz-adv-x="852" 
d="M522 194h-209l-15 -45h56v-149h-334v149h53l213 544h297l195 -544h54v-149h-349v149h53zM386 401l-24 -68h117l-21 66l-32 111h-4zM-196 736q124 -34 124 -137q0 -32 -25.5 -71.5t-85.5 -81.5l-56 60q18 15 27 29t9 31q0 4 -2 10t-8 11.5t-18 9.5t-31 4l37 119zM27 442
l-94 35l84 262l161 -58z" />
    <glyph glyph-name="uni1F0D" unicode="&#x1f0d;" horiz-adv-x="852" 
d="M522 194h-209l-15 -45h56v-149h-334v149h53l213 544h297l195 -544h54v-149h-349v149h53zM386 401l-24 -68h117l-21 66l-32 111h-4zM-60 721l37 -119q-20 0 -31.5 -4t-17.5 -9.5t-8 -11.5t-2 -10q0 -17 9 -31t27 -29l-56 -60q-60 42 -85.5 81.5t-25.5 71.5q0 103 124 137z
M71 443l-94 35l84 262l161 -58z" />
    <glyph glyph-name="uni1F0E" unicode="&#x1f0e;" horiz-adv-x="852" 
d="M522 194h-209l-15 -45h56v-149h-334v149h53l213 544h297l195 -544h54v-149h-349v149h53zM386 401l-24 -68h117l-21 66l-32 111h-4zM102 571q-32 0 -65 6t-64.5 13.5t-59 13.5t-46.5 6l-58 -42l-66 46q13 35 28.5 58t32.5 36.5t36.5 19t40.5 5.5q29 0 59 -5.5t59.5 -12.5
t58.5 -12.5t56 -5.5l59 43l64 -45q-23 -65 -55 -94.5t-80 -29.5zM-25 568q34 -8 57.5 -19.5t37.5 -26t20.5 -30t6.5 -31.5q0 -26 -27.5 -58t-84.5 -61l-57 53q35 25 35 39q0 17 -15 23.5t-35 6.5l38 91z" />
    <glyph glyph-name="uni1F0F" unicode="&#x1f0f;" horiz-adv-x="852" 
d="M522 194h-209l-15 -45h56v-149h-334v149h53l213 544h297l195 -544h54v-149h-349v149h53zM386 401l-24 -68h117l-21 66l-32 111h-4zM101 572q-32 0 -65 6t-64.5 13.5t-59 13.5t-46.5 6l-58 -42l-66 46q13 35 28.5 58t32.5 36.5t36.5 19t40.5 5.5q29 0 59 -5.5t59.5 -12.5
t58.5 -12.5t56 -5.5l59 43l64 -45q-23 -65 -55 -94.5t-80 -29.5zM45 556l40 -91q-20 0 -36 -6.5t-16 -23.5q0 -15 36 -39l-60 -53q-60 29 -88.5 61t-28.5 58q0 16 6.5 31.5t21.5 30t39.5 26t60.5 19.5z" />
    <glyph glyph-name="uni1F10" unicode="&#x1f10;" horiz-adv-x="524" 
d="M285 510q78 0 134 -11.5t76 -22.5v-143h-146v37q-4 1 -13.5 1.5t-13.5 0.5q-21 0 -33 -9t-12 -24q0 -11 8 -21t26 -10h49v-109h-49q-16 0 -25.5 -6.5t-9.5 -19.5q0 -19 17.5 -26.5t55.5 -7.5q26 0 63.5 4.5t72.5 15.5l36 -134q-35 -15 -96.5 -28t-146.5 -13
q-69 0 -115.5 13t-75.5 35t-41.5 50t-12.5 58q0 14 4 30t13 31t22.5 27.5t32.5 20.5v2q-37 14 -53 41.5t-16 59.5q0 28 13.5 56.5t43.5 51t77 36.5t115 14zM264 811q124 -34 124 -135q0 -32 -25.5 -71.5t-85.5 -81.5l-56 60q18 15 31 29t13 31q0 4 -3 10t-11 11.5t-21 9.5
t-32 4l37 119z" />
    <glyph glyph-name="uni1F11" unicode="&#x1f11;" horiz-adv-x="524" 
d="M285 510q78 0 134 -11.5t76 -22.5v-143h-146v37q-4 1 -13.5 1.5t-13.5 0.5q-21 0 -33 -9t-12 -24q0 -11 8 -21t26 -10h49v-109h-49q-16 0 -25.5 -6.5t-9.5 -19.5q0 -19 17.5 -26.5t55.5 -7.5q26 0 63.5 4.5t72.5 15.5l36 -134q-35 -15 -96.5 -28t-146.5 -13
q-69 0 -115.5 13t-75.5 35t-41.5 50t-12.5 58q0 14 4 30t13 31t22.5 27.5t32.5 20.5v2q-37 14 -53 41.5t-16 59.5q0 28 13.5 56.5t43.5 51t77 36.5t115 14zM353 797l37 -119q-20 0 -32.5 -4t-20.5 -9.5t-11 -11.5t-3 -10q0 -17 13 -31t31 -29l-56 -60q-60 42 -85.5 81.5
t-25.5 71.5q0 101 124 135z" />
    <glyph glyph-name="uni1F12" unicode="&#x1f12;" horiz-adv-x="524" 
d="M285 510q78 0 134 -11.5t76 -22.5v-143h-146v37q-4 1 -13.5 1.5t-13.5 0.5q-21 0 -33 -9t-12 -24q0 -11 8 -21t26 -10h49v-109h-49q-16 0 -25.5 -6.5t-9.5 -19.5q0 -19 17.5 -26.5t55.5 -7.5q26 0 63.5 4.5t72.5 15.5l36 -134q-35 -15 -96.5 -28t-146.5 -13
q-69 0 -115.5 13t-75.5 35t-41.5 50t-12.5 58q0 14 4 30t13 31t22.5 27.5t32.5 20.5v2q-37 14 -53 41.5t-16 59.5q0 28 13.5 56.5t43.5 51t77 36.5t115 14zM120 837q124 -34 124 -137q0 -32 -25.5 -71.5t-85.5 -81.5l-56 60q18 15 27 29t9 31q0 4 -2 10t-8 11.5t-18 9.5
t-31 4l37 119zM243 792l161 58l84 -262l-94 -35z" />
    <glyph glyph-name="uni1F13" unicode="&#x1f13;" horiz-adv-x="524" 
d="M285 510q78 0 134 -11.5t76 -22.5v-143h-146v37q-4 1 -13.5 1.5t-13.5 0.5q-21 0 -33 -9t-12 -24q0 -11 8 -21t26 -10h49v-109h-49q-16 0 -25.5 -6.5t-9.5 -19.5q0 -19 17.5 -26.5t55.5 -7.5q26 0 63.5 4.5t72.5 15.5l36 -134q-35 -15 -96.5 -28t-146.5 -13
q-69 0 -115.5 13t-75.5 35t-41.5 50t-12.5 58q0 14 4 30t13 31t22.5 27.5t32.5 20.5v2q-37 14 -53 41.5t-16 59.5q0 28 13.5 56.5t43.5 51t77 36.5t115 14zM205 821l37 -119q-20 0 -31.5 -4t-17.5 -9.5t-8 -11.5t-2 -10q0 -17 9 -31t27 -29l-56 -60q-60 42 -85.5 81.5
t-25.5 71.5q0 103 124 137zM241 790l161 58l84 -262l-94 -35z" />
    <glyph glyph-name="uni1F14" unicode="&#x1f14;" horiz-adv-x="524" 
d="M285 510q78 0 134 -11.5t76 -22.5v-143h-146v37q-4 1 -13.5 1.5t-13.5 0.5q-21 0 -33 -9t-12 -24q0 -11 8 -21t26 -10h49v-109h-49q-16 0 -25.5 -6.5t-9.5 -19.5q0 -19 17.5 -26.5t55.5 -7.5q26 0 63.5 4.5t72.5 15.5l36 -134q-35 -15 -96.5 -28t-146.5 -13
q-69 0 -115.5 13t-75.5 35t-41.5 50t-12.5 58q0 14 4 30t13 31t22.5 27.5t32.5 20.5v2q-37 14 -53 41.5t-16 59.5q0 28 13.5 56.5t43.5 51t77 36.5t115 14zM163 837q124 -34 124 -137q0 -32 -25.5 -71.5t-85.5 -81.5l-56 60q18 15 27 29t9 31q0 4 -2 10t-8 11.5t-18 9.5
t-31 4l37 119zM386 543l-94 35l84 262l161 -58z" />
    <glyph glyph-name="uni1F15" unicode="&#x1f15;" horiz-adv-x="524" 
d="M285 510q78 0 134 -11.5t76 -22.5v-143h-146v37q-4 1 -13.5 1.5t-13.5 0.5q-21 0 -33 -9t-12 -24q0 -11 8 -21t26 -10h49v-109h-49q-16 0 -25.5 -6.5t-9.5 -19.5q0 -19 17.5 -26.5t55.5 -7.5q26 0 63.5 4.5t72.5 15.5l36 -134q-35 -15 -96.5 -28t-146.5 -13
q-69 0 -115.5 13t-75.5 35t-41.5 50t-12.5 58q0 14 4 30t13 31t22.5 27.5t32.5 20.5v2q-37 14 -53 41.5t-16 59.5q0 28 13.5 56.5t43.5 51t77 36.5t115 14zM259 821l37 -119q-20 0 -31.5 -4t-17.5 -9.5t-8 -11.5t-2 -10q0 -17 9 -31t27 -29l-56 -60q-60 42 -85.5 81.5
t-25.5 71.5q0 103 124 137zM390 543l-94 35l84 262l161 -58z" />
    <glyph glyph-name="uni1F18" unicode="&#x1f18;" horiz-adv-x="776" 
d="M45 0v149h74v396h-74v148h683v-271h-163v123h-203v-123l153 3v-144l-153 3v-135h211v135h163v-284h-691zM-139 740q124 -34 124 -135q0 -32 -25.5 -71.5t-85.5 -81.5l-56 60q18 15 31 29t13 31q0 4 -3 10t-11 11.5t-21 9.5t-32 4l37 119z" />
    <glyph glyph-name="uni1F19" unicode="&#x1f19;" horiz-adv-x="776" 
d="M45 0v149h74v396h-74v148h683v-271h-163v123h-203v-123l153 3v-144l-153 3v-135h211v135h163v-284h-691zM-36 727l37 -119q-20 0 -32.5 -4t-20.5 -9.5t-11 -11.5t-3 -10q0 -17 13 -31t31 -29l-56 -60q-60 42 -85.5 81.5t-25.5 71.5q0 101 124 135z" />
    <glyph glyph-name="uni1F1A" unicode="&#x1f1a;" horiz-adv-x="776" 
d="M45 0v149h74v396h-74v148h683v-271h-163v123h-203v-123l153 3v-144l-153 3v-135h211v135h163v-284h-691zM-358 738q124 -34 124 -137q0 -32 -25.5 -71.5t-85.5 -81.5l-56 60q18 15 27 29t9 31q0 4 -2 10t-8 11.5t-18 9.5t-31 4l37 119zM-235 693l161 58l84 -262l-94 -35z
" />
    <glyph glyph-name="uni1F1B" unicode="&#x1f1b;" horiz-adv-x="776" 
d="M45 0v149h74v396h-74v148h683v-271h-163v123h-203v-123l153 3v-144l-153 3v-135h211v135h163v-284h-691zM-269 721l37 -119q-20 0 -31.5 -4t-17.5 -9.5t-8 -11.5t-2 -10q0 -17 9 -31t27 -29l-56 -60q-60 42 -85.5 81.5t-25.5 71.5q0 103 124 137zM-233 690l161 58
l84 -262l-94 -35z" />
    <glyph glyph-name="uni1F1C" unicode="&#x1f1c;" horiz-adv-x="776" 
d="M45 0v149h74v396h-74v148h683v-271h-163v123h-203v-123l153 3v-144l-153 3v-135h211v135h163v-284h-691zM-378 737q124 -34 124 -137q0 -32 -25.5 -71.5t-85.5 -81.5l-56 60q18 15 27 29t9 31q0 4 -2 10t-8 11.5t-18 9.5t-31 4l37 119zM-155 443l-94 35l84 262l161 -58z
" />
    <glyph glyph-name="uni1F1D" unicode="&#x1f1d;" horiz-adv-x="776" 
d="M45 0v149h74v396h-74v148h683v-271h-163v123h-203v-123l153 3v-144l-153 3v-135h211v135h163v-284h-691zM-255 722l37 -119q-20 0 -31.5 -4t-17.5 -9.5t-8 -11.5t-2 -10q0 -17 9 -31t27 -29l-56 -60q-60 42 -85.5 81.5t-25.5 71.5q0 103 124 137zM-124 444l-94 35l84 262
l161 -58z" />
    <glyph glyph-name="uni1F20" unicode="&#x1f20;" horiz-adv-x="741" 
d="M473 508q183 0 183 -185v-170h57v-139q-35 -14 -73.5 -21t-73.5 -7q-43 0 -71.5 8.5t-45.5 25t-24 40.5t-7 55v159q0 32 -13.5 45t-36.5 13q-10 0 -23 -5.5t-24 -16.5v-310h-239v354h-56v142h289v-43l6 -2q35 26 74.5 41.5t77.5 15.5zM341 811q124 -34 124 -135
q0 -32 -25.5 -71.5t-85.5 -81.5l-56 60q18 15 31 29t13 31q0 4 -3 10t-11 11.5t-21 9.5t-32 4l37 119z" />
    <glyph glyph-name="uni1F21" unicode="&#x1f21;" horiz-adv-x="741" 
d="M473 508q183 0 183 -185v-170h57v-139q-35 -14 -73.5 -21t-73.5 -7q-43 0 -71.5 8.5t-45.5 25t-24 40.5t-7 55v159q0 32 -13.5 45t-36.5 13q-10 0 -23 -5.5t-24 -16.5v-310h-239v354h-56v142h289v-43l6 -2q35 26 74.5 41.5t77.5 15.5zM398 797l37 -119q-20 0 -32.5 -4
t-20.5 -9.5t-11 -11.5t-3 -10q0 -17 13 -31t31 -29l-56 -60q-60 42 -85.5 81.5t-25.5 71.5q0 101 124 135z" />
    </font>
</defs>
</svg>
