<?xml version="1.0" standalone="no"?>
<!DOCTYPE svg PUBLIC "-//W3C//DTD SVG 1.1//EN" "http://www.w3.org/Graphics/SVG/1.1/DTD/svg11.dtd" >
<svg>
<metadata>
Created by FontForge 20110222 at Tue Oct  1 20:37:17 2013
 By Orthosie Webhosting
Copyright (c) 2006 Parachute :, www.parachute.gr.  All rights reserved.
</metadata>
<defs>
<font id="PFAgoraSlabProBlackItalic" horiz-adv-x="1818" >
  <font-face 
    font-family="PFAgoraSlabProBlackItalic"
    font-weight="900"
    font-style="italic"
    font-stretch="normal"
    units-per-em="1000"
    panose-1="2 0 5 0 0 0 0 9 0 4"
    ascent="750"
    descent="-250"
    x-height="492"
    cap-height="691"
    bbox="-384 -313 1760 1004"
    underline-thickness="50"
    underline-position="-50"
    slope="-12"
    unicode-range="U+0020-FB05"
  />
<missing-glyph horiz-adv-x="449" 
d="M0 689h448v-689h-448v689zM333 77l-109 196l-109 -196h218zM333 611h-219l110 -194zM78 157l102 188l-102 188v-376zM370 157v377l-103 -190z" />
    <glyph glyph-name="fj" unicode="fj" horiz-adv-x="674" 
d="M611 111q-9 -72 -26 -128.5t-48.5 -98t-81.5 -68.5t-126 -39l-32 118q43 18 67.5 38t37.5 45.5t18 58.5t10 77l22 240h-154q-3 -21 -6.5 -57.5t-7.5 -76t-8 -76t-6 -57.5q-8 -73 -21 -132t-39.5 -101t-71 -64.5t-116.5 -22.5q-28 0 -61.5 4.5t-71.5 17.5l28 114
q26 -5 41.5 -6t31.5 -1q17 0 32 4.5t27 17.5t21.5 37t14.5 62l14 119t10.5 90.5t7.5 70t6 57.5h-89l12 99l88 20l10 70q5 36 18 72.5t41.5 66.5t75.5 48.5t120 18.5q32 0 78 -5t108 -25l-35 -123l-38.5 7t-30 4.5t-26.5 2t-28 0.5q-48 0 -75 -16.5t-32 -61.5l-9 -65h151
q26 0 73.5 5.5t96.5 14.5l16 -9z" />
    <glyph glyph-name="ffj" unicode="ffj" horiz-adv-x="1001" 
d="M974 478q-10 -90 -18.5 -178.5t-17.5 -178.5q-9 -71 -26 -127t-48.5 -97.5t-82 -68t-126.5 -39.5l-32 118q45 19 69.5 40t37.5 47.5t17.5 61t9.5 79.5q1 10 4 41.5t6.5 67.5t6.5 67.5t4 41.5h-153q-8 -74 -14.5 -140.5t-13.5 -126.5q-8 -71 -20 -128.5t-37 -98.5
t-67.5 -63.5t-112.5 -22.5q-26 0 -56 3.5t-59 13.5l29 116q28 -5 46 -5q45 0 64.5 30t28.5 92q4 29 9.5 75.5t11 95.5t9.5 92.5t7 66.5h-150q-6 -64 -14 -137t-16 -137q-8 -73 -20.5 -132t-39 -100.5t-71 -64t-115.5 -22.5q-32 0 -65 5.5t-68 17.5l28 114q27 -5 42 -6t32 -1
q38 0 61 28t32 99l39 336h-88q3 26 5.5 50t6.5 49l90 22q5 49 17.5 94.5t41.5 81t79.5 56.5t131.5 21q32 0 68.5 -5.5t74.5 -16.5q31 23 74 34.5t111 11.5q37 0 81 -6t95 -21l-34 -127q-36 9 -64 12t-57 3q-40 0 -62 -11t-33.5 -30t-16 -46t-8.5 -58h149q13 0 32 1.5t41.5 4
t47.5 6t49 7.5q9 -5 17 -8zM413 596q-21 0 -37.5 -4.5t-28.5 -18.5t-20.5 -39.5t-13.5 -66.5h149l9 72l4 26t6 24q-18 4 -37 5.5t-31 1.5z" />
    <glyph glyph-name="ff" unicode="ff" horiz-adv-x="789" 
d="M628 353q-8 -83 -15.5 -163.5t-16.5 -145.5q-9 -63 -23 -113t-41 -85.5t-70.5 -54.5t-110.5 -19q-21 0 -47.5 3.5t-54.5 12.5l28 117q14 -3 23.5 -4t19.5 -1q20 0 35 4t26 16t18.5 33.5t12.5 55.5q1 6 4 32t7.5 62.5t9 77.5t8.5 77.5t7 62.5t4 32h-152q-11 -82 -17 -158
t-14.5 -141.5t-23 -120t-41.5 -93t-70.5 -59.5t-110.5 -21q-61 0 -133 22q7 29 14.5 57.5t14.5 56.5q26 -5 41 -6t32 -1q18 0 33.5 5.5t27 19.5t20 38t13.5 62q4 34 10 82t11.5 96.5t10 91.5t7.5 69h-88q2 26 5 50t6 49q23 5 45.5 10.5t45.5 11.5l6 52q7 49 26 86.5t52 63
t82 38.5t115 13q31 -2 63 -6.5t70 -16.5q26 22 65.5 34.5t93.5 12.5q27 0 60.5 -5t70.5 -17l-28 -118q-26 5 -45.5 7t-35.5 2q-22 0 -37.5 -7t-26.5 -24t-18 -47t-12 -75h137q-3 -29 -6 -57t-7 -57h-136zM463 467q5 31 8 62.5t11 57.5q-18 5 -36.5 7t-32.5 2
q-54 -2 -74 -32.5t-26 -96.5h150z" />
    <glyph glyph-name="fi" unicode="fi" horiz-adv-x="719" 
d="M461 467q13 0 32 1.5t41.5 4t47 6t48.5 7.5q5 -2 8.5 -4t8.5 -4q-8 -67 -14.5 -118.5t-11.5 -93.5t-9.5 -77t-8.5 -68q18 1 37 5.5t35 11.5l35 -83q-21 -18 -46.5 -31.5t-51.5 -22.5t-49.5 -13t-41.5 -4q-60 0 -82 24.5t-22 66.5q0 7 1.5 19.5t3.5 29.5q0 5 2.5 22.5
t5.5 41.5t6.5 50.5t6.5 50.5t5 41.5t3 22.5h-154q-6 -64 -13.5 -133t-15.5 -134q-8 -73 -20.5 -132t-39 -100.5t-71 -64t-115.5 -22.5q-32 0 -64.5 5.5t-68.5 17.5l29 117q27 -5 42 -6t32 -1q21 0 36 6t26 22.5t19.5 46t14.5 76.5q8 65 13 112.5t9 82t6.5 60t4.5 47.5h-88
l12 99l88 21l9 63q7 45 21.5 83.5t43.5 67t75.5 44.5t118.5 16q33 0 81 -5.5t102 -22.5l-35 -124l-38.5 7t-30 5t-26 2.5t-27.5 0.5q-40 0 -61.5 -10.5t-32.5 -29t-15 -45t-8 -58.5h151v0z" />
    <glyph glyph-name="fl" unicode="fl" horiz-adv-x="720" 
d="M634 744l35 -21q-4 -32 -9 -79t-11 -102.5t-12 -114.5t-12 -115.5t-11.5 -106t-9.5 -84.5q18 1 37 5.5t35 11.5l35 -85q-47 -39 -97.5 -54.5t-86.5 -15.5q-57 0 -82.5 24t-25.5 66q0 6 0.5 12t2.5 26l57 479q-14 2 -28 3.5t-28 1.5q-46 0 -74.5 -17.5t-33.5 -64.5l-2 -22
t-3 -24h107l-12 -114h-108q-6 -64 -13.5 -133t-15.5 -134q-8 -73 -20.5 -132t-39 -100.5t-71 -64t-115.5 -22.5q-29 0 -62.5 5.5t-70.5 17.5l29 116q27 -5 41.5 -6t31.5 -1q18 0 33 5.5t27 19t20 37t13 60.5q4 33 9.5 79.5t11 94t9.5 90t7 68.5h-84l12 99l84 21
q5 43 14.5 89t36.5 84.5t77 63t136 24.5q23 0 51 -2.5t60 -10.5z" />
    <glyph glyph-name="ffi" unicode="ffi" horiz-adv-x="1041" 
d="M952 485q5 -2 9 -4l8 -4l-44 -356q18 1 37 5.5t35 11.5l35 -83q-21 -18 -46.5 -31.5t-51 -22.5t-49.5 -13t-42 -4q-32 0 -52 7.5t-31.5 20t-16 29.5t-4.5 36q0 22 3.5 56t8 71.5t10 76.5t9.5 72h-143q-8 -84 -14 -160t-15 -140.5t-24.5 -116.5t-43.5 -89t-71.5 -56.5
t-108.5 -19.5q-21 0 -47.5 3.5t-54.5 13.5l28 117q14 -2 24 -3t20 -1q44 0 63 25t28 83q6 35 11.5 83t11 97.5t9.5 93.5t7 70h-150q-5 -64 -13.5 -137t-16.5 -137q-8 -73 -20.5 -132t-39 -100.5t-70.5 -64t-116 -22.5q-31 0 -64.5 5.5t-68.5 17.5l28 115q27 -5 42 -6.5
t32 -1.5q18 0 32.5 4.5t26.5 17.5t20.5 37t13.5 62q1 7 4 33.5t7 62.5l8.5 76.5t8.5 76t7 61.5t4 32h-88l12 99q23 6 45 11t45 11l6 48q6 47 24 84.5t50.5 64t80 41t112.5 14.5q35 0 69 -5t71 -16q32 23 77 35t116 12q35 -2 77 -8t91 -20q-9 -32 -17.5 -63t-16.5 -63
q-54 15 -96 15q-48 0 -75 -9t-40.5 -27t-18.5 -45.5t-10 -64.5h141q13 0 33 1t43 3.5t48 5.5t48 8zM413 596q-44 0 -69.5 -30t-30.5 -99h149q4 31 7 61.5t11 59.5q-18 4 -36.5 6t-30.5 2z" />
    <glyph glyph-name="ffl" unicode="ffl" horiz-adv-x="1048" 
d="M725 753q19 0 47.5 -2t64.5 -9l127 23l35 -21q-4 -33 -9 -81.5t-11 -106t-12.5 -119t-13 -120t-12.5 -109.5t-10 -87q19 1 37.5 5.5t35.5 11.5l34 -83q-24 -20 -49 -33.5t-49 -22t-46 -12t-40 -3.5q-31 0 -51.5 6.5t-33 19t-18 30t-5.5 38.5q0 6 3.5 39.5t9.5 82.5
t13 108t14 116.5t13 107t10 80.5q-14 2 -27 3t-27 1q-41 0 -63 -12t-32.5 -32.5t-14 -47.5t-6.5 -57h108q-2 -29 -5.5 -57t-5.5 -57h-110q-9 -84 -14 -160t-13.5 -140.5t-23 -116.5t-42.5 -89t-72 -56.5t-111 -19.5q-21 0 -45.5 3.5t-52.5 12.5l28 116q14 -2 23.5 -2.5
t19.5 -0.5q19 0 33 3t24 13t17 28.5t12 49.5t10.5 80t11.5 101.5t11 100.5t8 77h-150q-11 -90 -17.5 -169t-15.5 -145t-23.5 -118t-42 -87.5t-70 -54.5t-107.5 -19q-32 0 -65.5 5.5t-67.5 17.5l28 113q27 -5 42 -6t31 -1q17 0 32 4.5t27 17.5t20.5 37t14.5 63q1 6 4 32
t7.5 62t9 77t8.5 77t6.5 62t3.5 32h-88q3 26 5.5 50t6.5 49l90 22q6 48 20 93.5t42.5 81t76.5 57t123 21.5q38 0 74 -5.5t77 -16.5q30 23 72.5 35.5t100.5 12.5zM462 467q3 30 6.5 61t11.5 60q-18 4 -35.5 6.5t-33.5 2.5q-19 0 -35 -5.5t-29 -20.5t-21.5 -40t-12.5 -64h149z
" />
    <glyph glyph-name="ft" unicode="ft" horiz-adv-x="793" 
d="M471 606q-20 4 -35 5.5t-29 1.5q-21 0 -36 -6.5t-25.5 -23t-18 -44.5t-13.5 -72h146l65 125l135 9q-7 -40 -12.5 -70t-9.5 -64h136q-4 -29 -7 -57t-6 -57h-135q-5 -43 -13 -88t-8 -87q0 -26 13 -38t43 -12q5 0 15 0.5t22.5 2t26 3.5t25.5 4q5 -30 9.5 -60t9.5 -61
q-18 -7 -42 -12t-49 -8.5t-47 -5t-35 -1.5q-50 0 -83.5 10.5t-53.5 30t-28.5 46.5t-8.5 61q0 56 8.5 109t14.5 107h-144q-11 -88 -17.5 -165.5t-15.5 -141.5t-23 -114t-41 -85t-70 -53t-108 -18q-23 0 -58 4.5t-75 17.5l28 115q27 -5 42 -6t32 -1q16 0 31 4.5t27 17.5
t21.5 37t14.5 63q1 7 4 32t7 59t8.5 72.5t8 72t6 58.5t3.5 31h-88l12 98l89 22q7 41 16.5 88t33 87.5t67 67.5t120.5 27q23 0 54 -3t66 -14z" />
    <glyph glyph-name=".notdef" horiz-adv-x="449" 
d="M0 689h448v-689h-448v689zM333 77l-109 196l-109 -196h218zM333 611h-219l110 -194zM78 157l102 188l-102 188v-376zM370 157v377l-103 -190z" />
    <glyph glyph-name=".null" horiz-adv-x="0" 
 />
    <glyph glyph-name="nonmarkingreturn" horiz-adv-x="333" 
 />
    <glyph glyph-name="space" unicode=" " horiz-adv-x="308" 
 />
    <glyph glyph-name="exclam" unicode="!" horiz-adv-x="320" 
d="M152 159q38 0 59 -23t21 -58q0 -41 -29 -66t-71 -25q-38 0 -58 22t-20 54q0 41 27 68.5t71 27.5zM93 210q0 6 2 29.5t5 58.5t7 78t8 87.5t8 87t7 77t5 57t2 27.5h168q-1 -6 -6.5 -43.5t-13.5 -91t-17.5 -114.5t-18 -114.5t-15 -92t-7.5 -46.5h-134z" />
    <glyph glyph-name="quotedbl" unicode="&#x22;" horiz-adv-x="426" 
d="M109 419l14 273h145l-56 -273h-103zM283 419l13 273h143l-54 -273h-102z" />
    <glyph glyph-name="numbersign" unicode="#" horiz-adv-x="612" 
d="M477 382l-37 -99h83l-11 -84h-100l-70 -200h-94l68 200h-83l-71 -200h-95l70 200h-72l12 84h89l38 99h-83l12 83h99l65 179h93l-62 -179h84l65 179h93l-64 -179h75l-12 -83h-92zM262 283h84l36 99h-83z" />
    <glyph glyph-name="dollar" unicode="$" horiz-adv-x="611" 
d="M384 746h44l-9 -71q34 -3 69.5 -12t63.5 -26q-5 -40 -10 -80.5t-10 -80.5h-96q3 17 5 33.5t5 33.5q-9 5 -19 7.5t-22 4.5q-5 -38 -9.5 -77t-9.5 -77q30 -10 59.5 -24t53 -35t38 -50.5t14.5 -69.5q0 -94 -58.5 -146.5t-154.5 -65.5l-11 -86h-45zM352 746
q-26 -207 -50.5 -412t-50.5 -410h-45q3 20 5.5 41.5t5.5 41.5q-42 5 -84 15.5t-78 29.5q6 42 11.5 83.5t10.5 83.5h96l-9 -71q14 -6 31.5 -10t35.5 -6l21 160q-32 10 -60 25t-49 35.5t-33 48t-12 63.5q0 47 16 83.5t43 63t63.5 42.5t77.5 22l9 71h45zM353 139q26 7 40 24
t14 45q0 18 -10 30t-29 20zM283 549q-20 -6 -32.5 -21t-14.5 -41q1 -20 8.5 -30.5t25.5 -18.5l6 56t7 55z" />
    <glyph glyph-name="percent" unicode="%" horiz-adv-x="920" 
d="M250 674q46 0 77.5 -13t50.5 -35.5t27.5 -53.5t8.5 -67q0 -48 -11.5 -92.5t-36.5 -78t-65 -53.5t-97 -20q-46 0 -77 12.5t-50.5 35t-28 53t-8.5 66.5q0 46 10.5 90t35.5 78.5t65 56t99 21.5zM243 582q-24 0 -39 -16.5t-23.5 -41t-11.5 -53t-3 -51.5q0 -30 10.5 -48
t38.5 -18q19 0 33 12.5t23 34t13.5 50t4.5 59.5q0 30 -9.5 51t-36.5 21zM332 -19h-103l414 733h104zM755 409q46 0 77.5 -13t50.5 -35.5t27.5 -53.5t8.5 -67q0 -49 -11.5 -93t-36.5 -77.5t-64.5 -53.5t-96.5 -20q-46 0 -77.5 12.5t-51 35t-28 53t-8.5 65.5q0 46 11 90
t35.5 79t64.5 56.5t99 21.5zM749 316q-24 0 -39 -16.5t-23.5 -41t-11.5 -52.5t-3 -51q0 -30 10.5 -48t37.5 -18q19 0 33 12.5t23 34t13.5 49.5t4.5 59q0 30 -9.5 51t-35.5 21z" />
    <glyph glyph-name="ampersand" unicode="&#x26;" horiz-adv-x="958" 
d="M437 524q33 0 59 -10.5t44 -27t27.5 -36.5t9.5 -40q0 -19 -10 -43t-36 -44v-2q14 2 27 3t26 1q24 0 50 -4t53 -11q5 19 6.5 38.5t1.5 40.5q0 109 -59 165t-159 56q-77 0 -135 -28t-100 -72t-68 -97t-38 -104l-112 15q6 40 22 85t43 89t64.5 84t86.5 71t110 49t134 18
q97 0 163 -29.5t106.5 -76t58.5 -104.5t18 -114q0 -25 -2.5 -49t-7.5 -47q39 4 64.5 15t46.5 31l44 -73q-32 -37 -78 -55t-112 -24q-24 -49 -61 -91t-85 -72.5t-105 -47.5t-120 -17q-61 0 -106 16.5t-75 46t-45 70.5t-15 90q0 84 25 146.5t63.5 104.5t85 63t90.5 21z
M405 374q-10 0 -23.5 -7.5t-26 -26.5t-21.5 -51t-9 -80q0 -55 28 -89t95 -34q26 0 54 8.5t54.5 24.5t49.5 39t40 52q-27 8 -53 13.5t-52 5.5q-15 0 -27 -0.5t-25 -2.5t-29 -5.5t-39 -10.5l-29 80q26 17 35 30t9 24q0 13 -8.5 21.5t-22.5 8.5z" />
    <glyph glyph-name="quotesingle" unicode="'" horiz-adv-x="269" 
d="M106 419l14 273h145l-56 -273h-103z" />
    <glyph glyph-name="parenleft" unicode="(" horiz-adv-x="360" 
d="M213 178q0 -55 7 -100t17 -81t21.5 -63t20.5 -47l-84 -54q-60 72 -93.5 172t-33.5 208q0 78 18.5 149t50.5 134t74 117t90 99l71 -57q-19 -24 -46.5 -67.5t-52.5 -104.5t-42.5 -138t-17.5 -167z" />
    <glyph glyph-name="parenright" unicode=")" horiz-adv-x="360" 
d="M165 368q0 55 -7 99.5t-17 80.5t-21.5 63t-20.5 47l83 53q30 -36 53.5 -80t40 -92.5t25.5 -100.5t9 -104q0 -79 -19 -151t-51.5 -135.5t-75 -118t-88.5 -97.5l-71 58q19 24 46 67.5t52.5 104t43.5 138t18 168.5z" />
    <glyph glyph-name="asterisk" unicode="*" horiz-adv-x="435" 
d="M318 505q3 -3 14 -15t24 -26t24.5 -26t14.5 -15q-3 -3 -18.5 -14.5t-34 -24t-34.5 -23.5t-19 -12q-2 4 -7 20.5t-11.5 35.5t-12 35.5t-6.5 20.5l-64 -111q-3 1 -16.5 11.5t-29.5 23t-29 24t-15 14.5l98 84l-117 16q0 4 7.5 22.5t17 39.5t17.5 38.5t10 20.5
q3 -2 17.5 -11.5t31 -20t31 -19.5t18.5 -11l-9 120q3 1 21.5 1h40.5h40.5t21.5 -1l-40 -119l116 60q1 -3 5 -21t8 -39t6.5 -40t2.5 -23z" />
    <glyph glyph-name="plus" unicode="+" horiz-adv-x="611" 
d="M376 254l-22 -173h-103l21 173h-159l12 103h160l21 169h103l-21 -169h159l-13 -103h-158z" />
    <glyph glyph-name="comma" unicode="," horiz-adv-x="297" 
d="M136 178q22 0 37.5 -8t26 -21.5t15.5 -31t5 -36.5q0 -34 -15.5 -68t-40 -64t-54.5 -54t-60 -38l-37 60q29 22 47.5 43t26.5 53q-23 4 -36.5 22t-13.5 44q0 19 6.5 37t19.5 31.5t31.5 22t41.5 8.5z" />
    <glyph glyph-name="hyphen" unicode="-" horiz-adv-x="403" 
d="M62 210l16 125h279l-16 -125h-279z" />
    <glyph glyph-name="period" unicode="." horiz-adv-x="296" 
d="M144 177q35 0 57 -24.5t22 -60.5q0 -22 -8.5 -41t-23 -33t-33 -22t-37.5 -8q-35 0 -58 25t-23 60q0 22 9 41.5t23.5 33t33 21.5t38.5 8z" />
    <glyph glyph-name="slash" unicode="/" horiz-adv-x="391" 
d="M101 -37h-128l344 748h130z" />
    <glyph glyph-name="zero" unicode="0" horiz-adv-x="611" 
d="M353 678q71 0 119.5 -22t78 -60.5t42.5 -90.5t13 -111q0 -77 -17.5 -150t-55.5 -129t-98.5 -90t-146.5 -34q-69 0 -117.5 20.5t-78.5 56.5t-44 85t-14 107q0 77 16.5 152t54 134t98.5 95.5t150 36.5zM345 546q-40 0 -65 -31t-39.5 -77t-19.5 -97.5t-5 -92.5q0 -54 18 -90
t64 -36q33 0 57 23.5t40 63t23.5 92t7.5 109.5q0 27 -4 51.5t-14 43.5t-25.5 30t-37.5 11z" />
    <glyph glyph-name="one" unicode="1" horiz-adv-x="611" 
d="M73 118h134l50 403l-141 -15l-5 101l187 63h159l-68 -552h137l-14 -118h-453z" />
    <glyph glyph-name="two" unicode="2" horiz-adv-x="611" 
d="M274 117h145l8 65h128l-22 -182h-520l12 106q58 43 120.5 90.5t114.5 94.5t85.5 92.5t33.5 85.5q0 29 -19.5 47.5t-62.5 18.5q-26 0 -69 -11t-97 -40l-47 114q67 42 132 61t122 19q105 0 165.5 -46t60.5 -138q0 -54 -27.5 -105t-70 -98t-93.5 -89.5t-99 -79.5v-5z" />
    <glyph glyph-name="three" unicode="3" horiz-adv-x="611" 
d="M444 373q59 -17 87.5 -57.5t28.5 -86.5q0 -50 -20.5 -93.5t-60 -76t-96.5 -51.5t-130 -19q-20 0 -49 2t-61 8t-63.5 16t-55.5 25q1 2 9 20t17.5 39t17 39t8.5 20q56 -18 92.5 -25.5t71.5 -7.5q26 0 51 5.5t44 17.5t30.5 30.5t11.5 44.5q0 37 -27.5 55t-68.5 18
q-9 0 -24.5 -1t-42.5 -5l-18 104q91 17 137 42.5t46 61.5q0 20 -15.5 35t-52.5 15q-33 0 -73 -10t-97 -35q-1 2 -7 19.5t-13.5 38.5t-13.5 38.5t-7 19.5q39 18 73 30t65.5 19.5t61 10.5t59.5 3q55 0 94 -12.5t63 -33.5t35 -48.5t11 -57.5q0 -19 -6.5 -40.5t-21 -42
t-37 -38.5t-53.5 -30v-6z" />
    <glyph glyph-name="four" unicode="4" horiz-adv-x="611" 
d="M549 670l-44 -361h95l-15 -119h-95q0 -5 -1.5 -15t-3 -21.5t-2.5 -21.5t-2 -15h60l-14 -117h-292q0 2 2.5 20t5 38.5t4.5 38.5t2 20h54l10 73h-288l13 102q9 11 32.5 40t54.5 67.5t65 81.5t64.5 81t54 67.5t32.5 40.5h208zM348 506q-2 -2 -9 -11.5t-15 -20.5t-15.5 -20.5
t-9.5 -12.5q-9 -11 -23 -29t-29.5 -37.5t-30 -37.5t-23.5 -28h135l25 197h-5z" />
    <glyph glyph-name="five" unicode="5" horiz-adv-x="611" 
d="M284 318q-22 0 -50 -5.5t-55 -16.5l-80 41l65 333h416l-22 -177h-132l7 57h-142l-20 -117q13 3 31 6.5t38 3.5q106 0 165 -48.5t59 -144.5q0 -62 -23.5 -110.5t-64.5 -81.5t-95.5 -50.5t-116.5 -17.5q-19 0 -47.5 2t-60 8t-63.5 16t-58 26l51 124q55 -20 91.5 -27
t69.5 -7q28 0 52.5 6t42.5 19t28.5 33.5t10.5 50.5q0 20 -8 34.5t-21.5 24t-31 14t-36.5 4.5z" />
    <glyph glyph-name="six" unicode="6" horiz-adv-x="611" 
d="M248 392q35 20 74.5 28t68.5 8q37 0 69.5 -11t56.5 -33.5t38 -56.5t14 -79q0 -64 -22 -112t-60 -80.5t-88.5 -49t-108.5 -16.5q-66 0 -112 18.5t-74.5 52t-41.5 80t-13 102.5q0 89 20.5 168t63 138t109.5 93.5t160 34.5q51 0 91 -7.5t63 -15.5l-35 -124
q-34 11 -64.5 13.5t-49.5 2.5q-38 0 -66 -13.5t-47.5 -35t-31.5 -48.5t-18 -53zM329 307q-32 0 -57 -12t-39 -20q-5 -28 -5 -48t3 -38t11.5 -31.5t23.5 -21.5t38 -8q42 0 67 30t25 83q0 29 -14 47.5t-53 18.5z" />
    <glyph glyph-name="seven" unicode="7" horiz-adv-x="611" 
d="M111 461l25 208h462l-15 -114l-317 -555h-176l313 550h-148l-11 -89h-133z" />
    <glyph glyph-name="eight" unicode="8" horiz-adv-x="611" 
d="M351 555q-22 0 -37.5 -7.5t-25.5 -18.5t-14.5 -23t-4.5 -21q0 -14 7.5 -24.5t20 -19t29.5 -16.5t36 -18q35 27 47.5 50t12.5 40q0 23 -16 40.5t-55 17.5zM292 126q27 0 46 8t30 20t16 26.5t5 27.5q0 28 -23.5 49t-83.5 44q-38 -28 -53.5 -56.5t-15.5 -54.5t20 -45t59 -19
zM367 681q39 0 78.5 -10t70.5 -30.5t50.5 -52.5t19.5 -76q0 -41 -21.5 -83t-82.5 -80q39 -22 62 -59t23 -87q0 -42 -19 -80t-55.5 -67.5t-91 -46.5t-125.5 -17q-58 0 -103.5 13.5t-76.5 37.5t-47 57.5t-16 73.5q0 22 6 48t20.5 51.5t39.5 50t63 43.5q-29 21 -44.5 47.5
t-15.5 61.5q0 44 20.5 81.5t56.5 65t84.5 43t103.5 15.5z" />
    <glyph glyph-name="nine" unicode="9" horiz-adv-x="611" 
d="M389 276q-35 -20 -74.5 -28t-68.5 -8q-38 0 -70.5 11t-56.5 33.5t-38 56.5t-14 79q0 64 22 112t60 80.5t89 49t109 16.5q66 0 112 -18.5t74.5 -52t41.5 -80t13 -102.5q0 -89 -20.5 -168t-63.5 -138t-109.5 -93.5t-159.5 -34.5q-51 0 -90.5 7.5t-62.5 15.5l32 123
q34 -10 66 -12.5t50 -2.5q38 0 66 13.5t47.5 35t31 48.5t17.5 53zM308 361q32 0 57 12t39 20q2 13 3 26t1 23q0 19 -3 37t-11 31.5t-22.5 21.5t-37.5 8q-43 0 -68 -30t-25 -83q0 -29 14 -47.5t53 -18.5z" />
    <glyph glyph-name="colon" unicode=":" horiz-adv-x="295" 
d="M145 177q35 0 57 -24t22 -59q0 -22 -8.5 -41t-22.5 -33.5t-32.5 -22.5t-38.5 -8q-35 0 -58 24.5t-23 60.5q0 22 9 41t23.5 33t33 21.5t38.5 7.5zM180 462q35 0 57 -24t22 -60q0 -23 -8.5 -42t-22.5 -33t-32.5 -22t-38.5 -8q-35 0 -58 25t-23 61q0 22 9 41t23.5 32.5
t33 21.5t38.5 8z" />
    <glyph glyph-name="semicolon" unicode=";" horiz-adv-x="295" 
d="M141 178q21 0 37 -8t26 -21.5t15 -31t5 -36.5q0 -34 -15.5 -68t-40 -64t-54.5 -54t-59 -38l-38 60q29 22 47.5 43t26.5 53q-23 4 -36.5 22t-13.5 44q0 19 7 37t20 31.5t31.5 22t41.5 8.5zM180 462q35 0 57 -24t22 -60q0 -23 -8.5 -42t-22.5 -33t-32.5 -22t-38.5 -8
q-35 0 -58 25t-23 61q0 22 9 41t23.5 32.5t33 21.5t38.5 8z" />
    <glyph glyph-name="less" unicode="&#x3c;" horiz-adv-x="611" 
d="M517 26l-442 229l11 90l498 230l-16 -127l-335 -148q27 -13 67 -33t82.5 -41.5t82.5 -41.5t67 -33z" />
    <glyph glyph-name="equal" unicode="=" horiz-adv-x="611" 
d="M107 336l12 101h429l-13 -101h-428zM85 163l13 99h429l-13 -99h-429z" />
    <glyph glyph-name="greater" unicode="&#x3e;" horiz-adv-x="611" 
d="M63 152l337 149l-300 148l15 126l442 -230l-11 -90l-498 -229z" />
    <glyph glyph-name="question" unicode="?" horiz-adv-x="525" 
d="M332 714q101 0 153 -44.5t52 -115.5q0 -35 -10.5 -63t-28.5 -50.5t-40.5 -41t-46.5 -34.5q-27 -18 -46.5 -32.5t-32 -28.5t-18.5 -30t-6 -38v-22q-4 0 -25.5 -2.5t-46 -5t-46 -5t-25.5 -3.5q-3 30 -3 54q0 31 8.5 56t23.5 46t35 39t43 36q29 22 50 44t21 51
q0 23 -16.5 38.5t-54.5 15.5q-14 0 -29.5 -2t-30.5 -5l-10 -75h-121l21 176q69 26 127.5 34t102.5 8zM247 157q35 0 57 -22t22 -54q0 -21 -8 -38.5t-22 -30t-32 -19.5t-37 -7q-34 0 -56 21.5t-22 52.5q0 19 7 36.5t20 31t31 21.5t40 8z" />
    <glyph glyph-name="at" unicode="@" horiz-adv-x="944" 
d="M515 247q-26 -47 -59.5 -65t-67.5 -18q-53 0 -85 31.5t-32 94.5q0 51 12.5 96t36.5 78t60 52t84 19q19 0 43.5 -5.5t43.5 -14.5l16 21l98 -8q-5 -27 -10.5 -59t-10.5 -64t-8.5 -62.5t-3.5 -55.5q0 -20 7.5 -32t27.5 -12q16 0 34 10t33 31t25 52.5t10 74.5
q0 100 -60.5 156.5t-175.5 56.5q-71 0 -131.5 -24.5t-105.5 -67.5t-71.5 -101.5t-27.5 -126.5q0 -53 14 -98t43.5 -78.5t75 -52.5t109.5 -19q25 0 59.5 4t82.5 20q6 -20 12 -39.5t11 -39.5q-45 -22 -92.5 -29.5t-84.5 -7.5q-84 0 -147 24.5t-105 69t-63 105t-21 132.5
q0 91 35 168.5t96 134.5t143 89.5t177 32.5q75 0 136.5 -21t105.5 -60t68 -94.5t24 -125.5q0 -58 -18 -107t-49.5 -85t-75 -56.5t-93.5 -20.5q-48 0 -83.5 22.5t-38.5 74.5h-3zM433 257q10 0 20.5 6t20.5 20.5t20 39.5t20 63l10 47q-15 5 -27 6.5t-21 1.5q-21 0 -35.5 -12.5
t-23.5 -32t-13 -43t-4 -44.5q0 -26 9 -39t24 -13z" />
    <glyph glyph-name="A" unicode="A" horiz-adv-x="770" 
d="M492 192h-219l-31 -70h58l-14 -122h-292l14 122h54l274 569h230l122 -569h53l-15 -122h-291l14 122h57zM378 427l-53 -119h147l-21 115l-19 120h-4z" />
    <glyph glyph-name="B" unicode="B" horiz-adv-x="720" 
d="M591 362q29 -11 46.5 -28t27.5 -36.5t13 -39.5t3 -38q0 -52 -18.5 -92.5t-51.5 -69t-78.5 -43.5t-99.5 -15h-416q1 3 3 21.5t4.5 39.5t5 39t2.5 22h71q2 16 6 51t9.5 79.5t11.5 93t11 93t9.5 79t6.5 51.5h-70l16 121h404q99 0 144.5 -45t45.5 -118q0 -23 -4.5 -46
t-16.5 -44.5t-32.5 -40t-51.5 -32.5zM311 297q-2 -11 -4.5 -36t-6 -52t-6.5 -51.5t-4 -35.5h93q48 0 74.5 27t26.5 72q0 31 -19 53.5t-60 22.5h-94zM345 569q-2 -10 -4.5 -32.5t-5.5 -47.5t-6 -47.5t-4 -32.5h84q42 0 67 25.5t25 66.5q0 31 -17 49.5t-55 18.5h-84z" />
    <glyph glyph-name="C" unicode="C" horiz-adv-x="648" 
d="M454 706q52 0 99.5 -7.5t88.5 -20.5l-27 -222h-129l11 97q-12 3 -25 5t-27 2q-49 0 -83.5 -19t-56.5 -53.5t-32.5 -82.5t-10.5 -105q0 -46 10.5 -76t31 -47t51.5 -24t72 -7q11 0 29 1.5t39 4t42.5 6t39.5 7.5l22 -137q-25 -9 -54.5 -16.5t-61 -12.5t-62.5 -7.5t-58 -2.5
q-89 0 -147 22.5t-92 62t-47.5 92.5t-13.5 113q0 76 16 152t59.5 137t119.5 99.5t196 38.5z" />
    <glyph glyph-name="D" unicode="D" horiz-adv-x="760" 
d="M18 0l14 122h73l55 447h-69l16 122h336q84 0 139.5 -22.5t88.5 -62t46.5 -92.5t13.5 -114q0 -80 -20 -152t-63.5 -127.5t-112.5 -88t-168 -32.5h-349zM348 569l-55 -447h62q34 0 66 16t56.5 49.5t39.5 85.5t15 125q0 91 -35 131t-91 40h-58z" />
    <glyph glyph-name="E" unicode="E" horiz-adv-x="692" 
d="M18 0l14 122h70l54 447h-68l15 121h598l-29 -235h-128l14 114h-214l-20 -158l182 4l-13 -120l-183 3l-21 -176h231l15 122h129l-29 -244h-617z" />
    <glyph glyph-name="F" unicode="F" horiz-adv-x="681" 
d="M18 0l14 122h71l55 447h-70l15 121h595l-30 -235h-128l14 114h-209l-20 -158l181 3l-13 -120l-182 4l-21 -176h89l-15 -122h-346z" />
    <glyph glyph-name="G" unicode="G" horiz-adv-x="715" 
d="M465 706q53 0 105 -7.5t92 -20.5l-25 -216h-130l11 95q-13 3 -29 4.5t-31 1.5q-52 0 -89 -20.5t-61 -57t-35.5 -86.5t-11.5 -109q0 -81 30.5 -117t96.5 -36q34 0 69 8l15 115h-69l13 109h283l-13 -109h-47l-28 -230q-63 -23 -126.5 -32t-120.5 -9q-88 0 -146 23.5
t-92.5 63.5t-48.5 92.5t-14 111.5q0 49 7 100t24.5 98t46.5 88.5t74 72.5t106.5 49t143.5 18z" />
    <glyph glyph-name="H" unicode="H" horiz-adv-x="830" 
d="M445 0l15 122h60l21 176h-229l-21 -176h61l-15 -122h-319l14 122h71l55 447h-71l15 122h319l-15 -122h-61l-19 -156h229l20 156h-61l15 122h319l-15 -122h-71l-54 -447h70l-14 -122h-319z" />
    <glyph glyph-name="I" unicode="I" horiz-adv-x="461" 
d="M43 0l15 122h70l54 447h-70l16 122h324l-15 -122h-68l-55 -447h68l-14 -122h-325z" />
    <glyph glyph-name="J" unicode="J" horiz-adv-x="489" 
d="M130 691h368l-15 -122h-84l-47 -386q-9 -77 -33.5 -140.5t-68.5 -110.5t-110.5 -77.5t-159.5 -40.5l-28 132q69 19 108.5 43t61 53.5t30 64.5t13.5 76l48 386h-97z" />
    <glyph glyph-name="K" unicode="K" horiz-adv-x="763" 
d="M518 420l165 -297h54l-14 -123h-311l15 123h51l-103 187l-75 -59l-16 -129h60l-15 -122h-311l14 122h71l54 447h-70l15 120h316l-15 -120h-65l-19 -162l202 162h-50l14 120h300l-15 -120h-63z" />
    <glyph glyph-name="L" unicode="L" horiz-adv-x="664" 
d="M18 0l14 122h72l54 447h-70l15 121h329l-16 -121h-70l-55 -447h216l16 130h129l-30 -252h-604z" />
    <glyph glyph-name="M" unicode="M" horiz-adv-x="1012" 
d="M524 317q8 17 17 33.5t18 33.5q21 41 41.5 80.5t42.5 79.5q6 12 17 31.5t22 41.5t21.5 41.5t16.5 31.5h309l-16 -121h-62q-14 -112 -27.5 -224t-27.5 -224h62l-14 -121h-299l14 121h56l40 330h-3q-8 -16 -16 -31.5t-17 -31.5q-14 -29 -29 -56.5t-30 -55.5l-84 -156h-151
q-13 36 -25 73t-24 73l-57 185h-3l-40 -330h61l-15 -121h-305l14 121h72l54 448h-71l15 121h304l48 -153q11 -35 21 -69.5t21 -69.5l24 -81h5z" />
    <glyph glyph-name="N" unicode="N" horiz-adv-x="854" 
d="M578 263l38 306h-66l16 121h304q-4 -30 -8 -60.5t-7 -60.5h-66l-69 -569h-183q-29 57 -57 113t-57 113q-6 12 -16.5 34t-22 46t-22.5 46l-17 34q-8 17 -16 33t-16 33h-2q-11 -83 -21 -165.5t-20 -165.5h66q-4 -31 -7.5 -61t-6.5 -60h-305l14 121h68q13 112 26.5 223.5
t27.5 224.5h-67l15 121h267l92 -187q20 -41 39.5 -83t40.5 -87l34 -70h4z" />
    <glyph glyph-name="O" unicode="O" horiz-adv-x="769" 
d="M438 705q79 0 136 -23t94 -63.5t54.5 -97t17.5 -122.5q0 -89 -25 -164t-72.5 -130t-117 -85.5t-159.5 -30.5q-78 0 -135 22t-94.5 61.5t-55.5 94.5t-18 122q0 86 23.5 162t71 132.5t117.5 89t163 32.5zM428 572q-47 0 -79 -24.5t-52 -65t-28.5 -92t-8.5 -105.5
q0 -78 27 -121t91 -43q44 0 75 22t50.5 60.5t28.5 91t9 113.5q0 35 -5.5 65t-18 52t-34.5 34.5t-55 12.5z" />
    <glyph glyph-name="P" unicode="P" horiz-adv-x="665" 
d="M452 691q61 0 103 -14t68.5 -39.5t38 -61.5t11.5 -79q0 -48 -16.5 -92.5t-49 -78t-81.5 -53.5t-114 -20h-108l-17 -131h88l-14 -122h-343l14 122h68l55 447h-68l15 122h350zM342 569l-24 -199h55q45 0 73 31.5t28 84.5q0 83 -79 83h-53z" />
    <glyph glyph-name="Q" unicode="Q" horiz-adv-x="773" 
d="M438 705q79 0 136 -23t94 -63.5t54.5 -97t17.5 -122.5q0 -118 -42.5 -210t-123.5 -142l136 -40l-71 -142l-341 131q-60 9 -104.5 33.5t-73.5 62.5t-43 88t-14 109q0 86 23.5 162t71 132.5t117.5 89t163 32.5zM428 572q-47 0 -79 -24.5t-52 -65t-28.5 -92t-8.5 -105.5
q0 -78 27 -121t91 -43q44 0 75 22t50.5 60.5t28.5 91t9 113.5q0 35 -5.5 65t-18 52t-34.5 34.5t-55 12.5z" />
    <glyph glyph-name="R" unicode="R" horiz-adv-x="726" 
d="M340 569l-22 -182h66q20 0 39 6t33.5 18.5t23.5 32.5t9 48q0 77 -76 77h-73zM303 272l-17 -150h64l-15 -122h-313l14 122h65l54 447h-65l16 122h371q60 0 100 -15t65 -40t35.5 -58.5t10.5 -69.5q0 -30 -7 -60t-23 -57t-40.5 -49.5t-59.5 -36.5l63 -186l77 -11l2 -104
q-17 -6 -37.5 -10.5t-40.5 -6.5t-37 -3t-27 -1q-26 0 -44 5.5t-30.5 17t-21 28t-15.5 39.5l-60 199h-84z" />
    <glyph glyph-name="S" unicode="S" horiz-adv-x="652" 
d="M379 568q-47 0 -73.5 -20t-26.5 -55q0 -15 10.5 -26t27.5 -20.5t40 -17t47 -14.5q45 -13 83.5 -27.5t66 -36t43.5 -52t16 -75.5q0 -117 -85.5 -177t-246.5 -60q-26 0 -58.5 2.5t-66 8.5t-66.5 15.5t-60 24.5l20 181h127l-9 -76q13 -5 28.5 -9t31 -6t29.5 -3t24 -1
q33 0 56 6.5t37 17t20 23.5t6 26q0 19 -9 31.5t-28.5 22t-50 18t-72.5 20.5q-81 23 -122 64t-41 113q0 113 81 174t224 61q23 0 53 -2.5t61.5 -8t61.5 -14t53 -20.5l-22 -176h-127l8 73q-22 8 -47.5 11.5t-43.5 3.5z" />
    <glyph glyph-name="T" unicode="T" horiz-adv-x="674" 
d="M140 0l14 122h80l55 447h-99l-14 -116h-128l30 238h637l-29 -238h-127l14 116h-99l-55 -447h80l-15 -122h-344z" />
    <glyph glyph-name="U" unicode="U" horiz-adv-x="776" 
d="M693 259q-8 -64 -30 -114t-61 -84.5t-95.5 -52.5t-134.5 -18q-83 0 -139.5 19.5t-89.5 55.5t-44.5 87.5t-3.5 116.5l36 300h-54l15 122h296l-15 -122h-57l-40 -320q-15 -128 107 -128q48 0 83.5 30t43.5 98l39 320h-57l16 122h295l-15 -122h-57z" />
    <glyph glyph-name="V" unicode="V" horiz-adv-x="756" 
d="M448 321l103 247h-60l15 123h297l-15 -123h-51l-264 -568h-235l-131 568h-49l15 123h299l-15 -123h-59l45 -245l30 -175h4z" />
    <glyph glyph-name="W" unicode="W" horiz-adv-x="1101" 
d="M564 305l-41 -97l-88 -208h-239l-87 568h-52l16 123h308l-15 -123h-55l27 -228l19 -176h2l69 173l74 181l-9 50h-56l16 123h299l-15 -123h-63l44 -227l31 -155h2l58 166l76 216h-58l16 123h307l-15 -123h-57q-5 -13 -22 -56.5t-40.5 -102t-50.5 -125t-50.5 -125
t-40.5 -102.5t-22 -57h-229l-39 209l-16 96h-4z" />
    <glyph glyph-name="X" unicode="X" horiz-adv-x="742" 
d="M503 691h280l-15 -123h-50l-200 -226l134 -219h63l-14 -123h-338l15 123h46l-78 141l-114 -141h51l-14 -123h-278l15 123h47l204 248l-114 196h-76l15 124h340l-15 -124h-47l71 -125l108 126h-51z" />
    <glyph glyph-name="Y" unicode="Y" horiz-adv-x="711" 
d="M504 568h-56l15 123h294l-16 -123h-48l-234 -318l-15 -128h73l-14 -122h-350l14 122h75l15 127l-152 319h-47l15 123h291l-15 -123h-55l80 -192h4z" />
    <glyph glyph-name="Z" unicode="Z" horiz-adv-x="652" 
d="M257 122h230l16 135h128l-31 -257h-598l15 120l393 450h-187l-15 -118h-128l30 239h557l-14 -116z" />
    <glyph glyph-name="bracketleft" unicode="[" horiz-adv-x="345" 
d="M23 -159q2 20 7.5 63t12.5 101t15.5 126.5t17 139t17 139t16 126.5t13 101.5t7.5 63.5h242l-12 -101h-91q-3 -23 -9 -74.5t-14.5 -118t-17.5 -140t-17 -140t-14.5 -118t-9.5 -73.5h91q0 -3 -2 -17.5t-4 -30.5t-3.5 -30t-2.5 -17h-242z" />
    <glyph glyph-name="backslash" unicode="\" horiz-adv-x="391" 
d="M64 711h130l161 -748h-129z" />
    <glyph glyph-name="bracketright" unicode="]" horiz-adv-x="345" 
d="M-2 -159q0 3 2 17t4 30t3.5 30.5t2.5 17.5h89l82 664h-90q0 3 1.5 18t4 32.5t4.5 32.5t2 18h242l-105 -860h-242z" />
    <glyph glyph-name="asciicircum" unicode="^" horiz-adv-x="506" 
d="M379 336l-87 208l-140 -208h-119l233 342h81l148 -342h-116z" />
    <glyph glyph-name="underscore" unicode="_" horiz-adv-x="485" 
d="M-44 -156l11 89h485l-11 -89h-485z" />
    <glyph glyph-name="grave" unicode="`" horiz-adv-x="585" 
d="M191 708l92 90l147 -192l-57 -57z" />
    <glyph glyph-name="a" unicode="a" horiz-adv-x="657" 
d="M315 504q30 0 61 -7.5t60 -23.5l21 29l138 -7q-18 -113 -31 -202.5t-22 -170.5q19 2 34 6.5t33 12.5l35 -85q-18 -16 -40 -29.5t-45.5 -23t-47 -15t-43.5 -5.5q-54 0 -78 20t-24 60q0 16 5 39h-5q-45 -66 -89.5 -90.5t-93.5 -24.5q-66 0 -104.5 42.5t-38.5 128.5
q0 72 17.5 135t52 110t86 74t119.5 27zM267 111q13 0 27.5 6.5t29 24t29.5 47t29 74.5l16 98q-21 7 -39 9t-30 2q-30 0 -51 -17.5t-34 -44.5t-19 -59.5t-6 -62.5q0 -39 13.5 -58t34.5 -19z" />
    <glyph glyph-name="b" unicode="b" horiz-adv-x="628" 
d="M279 403q44 56 88 78.5t86 22.5q66 0 104.5 -43t38.5 -128q0 -71 -18 -134t-54.5 -110t-92 -74.5t-129.5 -27.5q-20 0 -48 3t-60 9.5t-66.5 17.5t-66.5 28l-10 19q10 73 18.5 140.5t17 133t15.5 130.5t14 134l-91 14l7 86q59 17 105 24t78 7q28 0 45.5 -5.5t27.5 -15.5
t13 -25t3 -33q0 -9 -3 -38.5t-7.5 -67t-9.5 -76.5t-10 -67zM366 375q-13 0 -28 -7.5t-30 -25t-29 -46.5t-26 -72l-13 -94q20 -7 35 -9t27 -2q31 0 53 17t35.5 43.5t19.5 58.5t6 62q0 40 -14.5 57.5t-35.5 17.5z" />
    <glyph glyph-name="c" unicode="c" horiz-adv-x="517" 
d="M324 505q16 0 33.5 -1.5t33.5 -4t29.5 -6t21.5 -6.5q26 -11 37.5 -25.5t11.5 -35.5q0 -11 -3 -27.5t-8 -35.5t-11 -37.5t-13 -34.5q-3 0 -17.5 1t-31 2t-31 1.5t-16.5 0.5v15t0.5 23.5t0.5 23.5v15q-6 2 -14.5 3t-16.5 1q-26 0 -45.5 -12.5t-32.5 -34t-19.5 -51.5
t-6.5 -65q0 -49 21 -71t65 -22q50 0 120 17l29 -110q-20 -9 -45.5 -16t-53 -12.5t-55.5 -8t-53 -2.5q-63 0 -104.5 15t-66 42t-34 63t-9.5 78q0 53 12.5 109.5t45 103t87.5 76t139 29.5z" />
    <glyph glyph-name="d" unicode="d" horiz-adv-x="659" 
d="M318 503q23 0 47.5 -5t47.5 -13q2 17 3.5 30t3 25.5t3.5 27t4 33.5l-96 15l6 86q60 17 106 24t78 7q28 0 46 -6t28 -16.5t13.5 -25.5t3.5 -34q0 -10 -3.5 -39t-9.5 -71.5t-13.5 -95t-15 -108t-15.5 -111t-14 -104.5q19 2 36.5 7t34.5 12l34 -84q-20 -17 -43 -31
t-47.5 -23.5t-48 -14.5t-44.5 -5q-47 0 -68 19t-24 54q-1 11 -0.5 22t2.5 24h-5q-24 -35 -46.5 -57.5t-45 -35t-46 -17.5t-47.5 -5q-66 0 -104.5 42.5t-38.5 128.5q0 72 18 135t53 109.5t87 73.5t120 27zM266 111q13 0 27.5 6.5t29.5 24t30.5 47t29.5 74.5l15 98
q-20 7 -38.5 9t-29.5 2q-32 0 -53 -17.5t-34.5 -44.5t-19 -59.5t-5.5 -62.5q0 -40 13 -58.5t35 -18.5z" />
    <glyph glyph-name="e" unicode="e" horiz-adv-x="543" 
d="M340 506q35 0 66.5 -8.5t55 -26.5t37.5 -45t14 -64q0 -30 -13 -59.5t-46 -53t-90.5 -40t-146.5 -20.5q0 -5 -0.5 -9t-0.5 -9q0 -26 15.5 -43t64.5 -17q34 0 73.5 9t73.5 20l31 -100q-24 -14 -52.5 -23.5t-58 -15.5t-58.5 -9t-54 -3q-66 0 -107 16t-64.5 44t-31.5 64
t-8 77q0 58 15 114.5t50.5 101.5t93 72.5t141.5 27.5zM314 381q-42 0 -65.5 -31t-28.5 -86q132 6 132 77q0 18 -9 29t-29 11z" />
    <glyph glyph-name="f" unicode="f" horiz-adv-x="459" 
d="M373 734q27 0 63 -4.5t78 -18.5q-1 -2 -5 -20t-9 -39.5t-9.5 -39.5t-4.5 -20q-26 6 -45 8t-36 2q-16 0 -30 -4.5t-25.5 -16.5t-19.5 -32.5t-12 -52.5q0 -2 -1.5 -14t-1.5 -15h136l-14 -113h-136q-8 -66 -14 -132t-13 -132q-8 -72 -21.5 -130t-40 -98.5t-71 -62.5
t-115.5 -22q-28 0 -61.5 4.5t-71.5 17.5l28 115q27 -5 42 -6t32 -1q18 0 33 5t27 18.5t20.5 37.5t13.5 61q6 48 12 94.5t10.5 89t8 79t6.5 62.5h-88q0 1 1.5 16t4 33t4.5 32.5t2 16.5l90 22l6 48q6 38 19 76t38.5 68t66.5 49t103 19z" />
    <glyph glyph-name="g" unicode="g" horiz-adv-x="617" 
d="M335 502q20 0 49 -2.5t61.5 -8.5t66.5 -16t64 -25l9 -19q-6 -46 -12.5 -96t-12.5 -100.5t-12 -98.5t-11 -91t-15.5 -90.5t-40 -87.5t-84 -66.5t-147.5 -26.5q-29 0 -59.5 4t-59 11t-53 15.5t-41.5 17.5l43 116q52 -18 89 -24t69 -6q30 0 51 7t35.5 22.5t22.5 40.5t13 60
l8 56q-1 1 -2 1t-3 1q-43 -55 -88.5 -77.5t-87.5 -22.5q-66 0 -105.5 42.5t-39.5 128.5q0 71 18 132t54.5 106t91.5 71t129 26zM271 121q13 0 28 7.5t30.5 25.5t30 48t26.5 74l12 85q-21 7 -36.5 9t-28.5 2q-32 0 -53.5 -16t-35 -41t-19 -56t-5.5 -61q0 -41 14.5 -59
t36.5 -18z" />
    <glyph glyph-name="h" unicode="h" horiz-adv-x="684" 
d="M477 505q66 0 92.5 -30.5t26.5 -90.5q0 -11 -3 -37.5t-7 -62t-9.5 -77.5t-9.5 -85q19 1 35.5 5.5t33.5 11.5l34 -84q-22 -19 -47.5 -32.5t-50.5 -22.5t-48.5 -13.5t-41.5 -4.5q-60 0 -80.5 25t-20.5 68q0 7 0.5 13.5t1.5 14.5q10 72 15.5 113t8 63t3 30.5t0.5 13.5
q0 21 -8.5 33.5t-28.5 12.5q-25 0 -56 -31.5t-52 -105.5l-31 -232h-181q9 74 19 152t19.5 156t18 152.5t15.5 140.5l-91 14l8 86q60 17 106 24t78 7q28 0 46 -5.5t28 -15t13.5 -24t3.5 -32.5q0 -8 -2.5 -36t-7 -66t-9.5 -80t-11 -77l4 -2q22 31 47.5 52.5t50.5 34.5
t47.5 18.5t40.5 5.5z" />
    <glyph glyph-name="i" unicode="i" horiz-adv-x="405" 
d="M230 505q52 0 69 -18t17 -50q0 -9 -2 -30t-5.5 -49t-8 -61t-9 -65t-8.5 -61t-6 -49q18 1 37 5.5t35 11.5l34 -84q-20 -18 -45 -31.5t-50.5 -23t-49.5 -14t-42 -4.5q-61 0 -83 25.5t-22 67.5q0 7 0.5 13.5t1.5 14.5l36 272l-80 13l5 86q60 17 103 24t73 7zM239 759
q19 0 36 -7.5t30 -20.5t20 -30.5t7 -38.5q0 -48 -29.5 -81t-80.5 -33q-39 0 -66.5 26.5t-27.5 65.5q0 54 31.5 86.5t79.5 32.5z" />
    <glyph glyph-name="j" unicode="j" horiz-adv-x="359" 
d="M222 505q53 0 71 -17t18 -51q0 -8 -2.5 -37.5t-7 -74.5t-11 -101.5t-14.5 -119.5q-9 -72 -29 -129t-55 -99.5t-88.5 -70t-129.5 -39.5l-32 118q48 21 75.5 41.5t42.5 46t21.5 58.5t12.5 77l29 268l-80 13l6 86q59 17 101.5 24t71.5 7zM234 759q40 0 67 -27.5t27 -69.5
q0 -48 -30 -81t-81 -33q-39 0 -66.5 26.5t-27.5 65.5q0 54 31.5 86.5t79.5 32.5z" />
    <glyph glyph-name="k" unicode="k" horiz-adv-x="602" 
d="M489 505q24 0 40.5 -8.5t28.5 -21t19.5 -27.5t12.5 -28l-60 -66q-13 9 -26 14.5t-29 5.5q-25 0 -51.5 -18t-53.5 -47q14 -28 30 -57.5t31.5 -56.5t29.5 -48.5t24 -33.5q19 5 32 12.5t27 15.5l47 -66q-24 -27 -47.5 -45.5t-45 -29t-40 -15t-30.5 -4.5q-23 0 -42 8.5
t-37.5 30.5t-39 60.5t-45.5 98.5q-12 -18 -20 -32t-17 -34l-17 -113h-177l81 602l-87 13l6 86q58 17 104.5 25t78.5 8q51 0 69.5 -21.5t18.5 -57.5q0 -11 -5 -48.5t-12.5 -86t-15 -98.5t-13.5 -86l4 -1q24 33 51.5 64t56.5 54.5t59 37.5t60 14z" />
    <glyph glyph-name="l" unicode="l" horiz-adv-x="368" 
d="M222 733q51 0 70.5 -17t19.5 -52q0 -17 -4 -55t-10 -88t-13.5 -107.5t-15 -112t-13.5 -102t-10 -77.5q19 1 37.5 5.5t35.5 11.5l34 -84q-20 -18 -44.5 -31.5t-49.5 -23t-48.5 -14t-41.5 -4.5q-60 0 -84.5 24.5t-24.5 68.5q0 7 0.5 13.5t1.5 14.5l63 499l-91 14l6 86
q60 17 106 24t76 7z" />
    <glyph glyph-name="m" unicode="m" horiz-adv-x="980" 
d="M597 378q24 37 49.5 61.5t50 39t46.5 20.5t40 6q54 0 84 -31.5t30 -90.5q0 -8 -3 -33.5t-7 -61.5t-9.5 -79.5t-9.5 -86.5q19 1 33.5 5.5t31.5 11.5l34 -83q-22 -19 -47 -32.5t-49.5 -22.5t-47 -13.5t-40.5 -4.5q-60 0 -79.5 23.5t-19.5 62.5q0 8 0.5 16t1.5 16
q10 87 18 145.5t8 78.5q0 17 -6 30.5t-27 13.5q-28 0 -54 -39t-44 -108q-6 -44 -11 -84t-8.5 -70.5t-6 -48.5t-2.5 -19h-178q11 87 18.5 145.5t11.5 95t5.5 55.5t1.5 28q0 17 -6.5 30.5t-27.5 13.5q-27 0 -53 -38t-44 -108l-29 -222h-179q6 49 10.5 84t8 62t6.5 49.5
t5.5 47.5t6 55.5t8.5 74.5l-81 15q1 21 2.5 42.5t2.5 42.5q60 19 99.5 25t70.5 6q27 0 43 -5t25 -14t12 -21t3 -26q0 -12 -1.5 -28t-3.5 -36h5q25 40 51.5 65.5t51.5 40t47 20t40 5.5q54 0 80.5 -30.5t26.5 -85.5q0 -3 -0.5 -5.5t-0.5 -5.5h6z" />
    <glyph glyph-name="n" unicode="n" horiz-adv-x="697" 
d="M500 505q56 0 85 -33.5t29 -93.5q0 -11 -3 -38t-7 -62t-9.5 -76t-9.5 -80q18 1 33 5.5t32 11.5q1 -1 6 -14t11 -28t11 -28t6 -14q-23 -19 -48.5 -32.5t-51 -22.5t-49 -13t-40.5 -4q-30 0 -48 5.5t-28.5 17t-14 28t-3.5 37.5q0 4 0.5 14.5t1.5 18.5q4 34 8.5 69t8.5 65.5
t6.5 53t2.5 32.5q0 17 -8 30.5t-29 13.5q-30 0 -60 -37t-51 -109l-29 -222h-178q6 49 10.5 84t7.5 62t6 49.5t5.5 47.5t6 55.5t8.5 74.5l-81 14l6 86q60 19 99 25t71 6q27 0 43.5 -5t25 -14t11.5 -22t3 -29q0 -24 -6 -60h5q25 40 53.5 65.5t56.5 40t52.5 20t42.5 5.5z" />
    <glyph glyph-name="o" unicode="o" horiz-adv-x="605" 
d="M335 504q62 0 107.5 -16.5t75 -45.5t43.5 -70t14 -89q0 -60 -18.5 -113t-55 -93t-92.5 -63.5t-131 -23.5q-62 0 -107 16t-74 45t-43 68.5t-14 87.5q0 61 18.5 115t55 94.5t92 64t129.5 23.5zM324 375q-29 0 -48 -17t-30.5 -43t-16 -57t-4.5 -59q0 -36 14 -60t52 -24
q27 0 45.5 15t30 39.5t16.5 55.5t5 63q0 38 -13.5 62.5t-50.5 24.5z" />
    <glyph glyph-name="p" unicode="p" horiz-adv-x="648" 
d="M0 -93h57q6 54 14 116t15.5 124t14.5 120t12 105l-81 14l6 86q42 16 89 24.5t85 8.5q47 0 63 -19.5t15 -53.5q0 -13 -6 -58h5q46 70 93.5 99t95.5 29q62 0 99.5 -43.5t37.5 -135.5q0 -70 -17 -131.5t-51 -107t-84.5 -72t-117.5 -26.5q-23 0 -47 5t-48 13l-13 -97h73
l-14 -118h-310zM390 365q-14 0 -28.5 -6.5t-29.5 -23.5t-30 -46.5t-28 -74.5l-12 -86q20 -7 38 -9.5t30 -2.5q31 0 51.5 16t33 41t18 54.5t5.5 56.5q0 42 -13.5 61.5t-34.5 19.5z" />
    <glyph glyph-name="q" unicode="q" horiz-adv-x="623" 
d="M283 -94h61q6 57 11.5 102.5t10.5 76.5l-5 1q-44 -55 -89 -78t-87 -23q-66 0 -105.5 43t-39.5 129q0 71 18.5 134t55.5 110t92.5 74.5t129.5 27.5q19 0 48 -2t62 -8t67.5 -16.5t65.5 -26.5l9 -19q-5 -33 -10.5 -76.5t-11.5 -92t-12 -99t-11 -98t-9.5 -89t-7.5 -70.5h60
l-12 -118h-304zM269 112q13 0 28.5 7.5t30.5 25.5t30 47t27 73l13 96q-21 8 -36.5 9.5t-27.5 1.5q-32 0 -54 -17.5t-36 -44t-20 -59t-6 -62.5q0 -41 14.5 -59t36.5 -18z" />
    <glyph glyph-name="r" unicode="r" horiz-adv-x="520" 
d="M217 504q27 0 43.5 -5t25.5 -14.5t12 -22.5t3 -29q0 -11 -2.5 -31.5t-4.5 -37.5h4q16 46 34.5 74t37 43t37 19.5t36.5 4.5q42 0 65.5 -28.5t29.5 -66.5l-82 -101q-18 11 -35 14.5t-31 3.5q-45 0 -72.5 -44.5t-44.5 -124.5l-20 -158h-178q16 124 29.5 220t18.5 153
q-3 0 -14.5 2.5t-24.5 4.5t-24.5 4.5t-14.5 2.5q0 1 1 14.5t2 29t2 28.5t1 14q60 19 97.5 25t68.5 6z" />
    <glyph glyph-name="s" unicode="s" horiz-adv-x="548" 
d="M244 -11q-41 0 -80 5.5t-69 17.5t-48.5 30.5t-18.5 44.5q0 17 11.5 48t34.5 57l88 -4l-1 -72q20 -7 42 -9t39 -2q14 0 28 2t24.5 6.5t17 11t6.5 16.5q0 9 -9.5 18t-25 17.5t-35 16.5t-38.5 17q-26 12 -52 23.5t-46.5 26.5t-33.5 34.5t-13 46.5q0 39 17.5 70t50.5 52.5
t79.5 33.5t104.5 12q29 0 63 -4.5t63.5 -14.5t49.5 -27.5t20 -42.5q0 -9 -5 -23t-12.5 -29.5t-16.5 -30t-17 -24.5l-87 4l1 68q-10 4 -25.5 6t-29.5 2q-23 0 -42 -7t-19 -27q0 -14 18.5 -25.5t46 -23.5t60 -25.5t60 -32t46 -43t18.5 -57.5q0 -75 -68.5 -119t-196.5 -44z" />
    <glyph glyph-name="t" unicode="t" horiz-adv-x="455" 
d="M317 639l-17 -146h140q0 -3 -2 -20.5t-4.5 -37.5t-4.5 -37t-3 -20h-139l-22 -175q-1 -6 -1.5 -12.5t-0.5 -11.5q0 -27 12.5 -38.5t42.5 -11.5q5 0 15 0.5t23 2t26.5 3t25.5 4.5l19 -122q-18 -7 -42.5 -12.5t-49.5 -9t-47 -5t-35 -1.5q-52 0 -85.5 11.5t-53.5 31.5
t-28 46.5t-8 56.5q0 24 3 45l24 198h-70l11 100l86 23l59 127z" />
    <glyph glyph-name="u" unicode="u" horiz-adv-x="690" 
d="M225 504q46 0 64 -20t18 -57q0 -12 -4.5 -47t-10 -76t-10 -78.5t-4.5 -53.5q0 -18 7.5 -31t28.5 -13q13 0 27 8t28 25.5t27 45.5t24 68l29 217h173l-49 -371q19 1 35.5 6t33.5 11l34 -83q-21 -18 -45 -31.5t-48 -22.5t-47 -13t-41 -4q-53 0 -72.5 22.5t-19.5 60.5
q0 9 0.5 18t0.5 17h-5q-24 -35 -48.5 -57t-49.5 -34.5t-48.5 -17.5t-45.5 -5q-55 0 -86.5 25.5t-31.5 80.5q1 9 0.5 19.5t1.5 22.5q0 6 2.5 23.5t5.5 41.5t6.5 51.5t7 52t6 43.5t3.5 27l-83 13l8 85q59 17 102.5 24t75.5 7z" />
    <glyph glyph-name="v" unicode="v" horiz-adv-x="643" 
d="M186 505q47 0 66 -27.5t25 -82.5l29 -247h8q18 21 38 49t37.5 58.5t31 62.5t19.5 62l-65 -10l-17 80q45 29 89 45.5t86 16.5q17 0 33.5 -4t29 -13.5t20 -25.5t7.5 -40q0 -34 -13 -74t-35 -81.5t-51.5 -83t-61.5 -78.5t-66 -68t-65 -51h-177l-51 370l-64 -13l-25 78
q51 40 95 58.5t77 18.5z" />
    <glyph glyph-name="w" unicode="w" horiz-adv-x="901" 
d="M425 139q-1 0 -1.5 0.5t-1.5 0.5q-12 -23 -27.5 -46t-30.5 -42.5t-29 -35t-23 -22.5h-173q-9 91 -17.5 184t-18.5 185q-16 -3 -32 -7t-32 -7l-25 78q52 39 97.5 58t80.5 19q20 0 35 -5t25.5 -18t17 -35.5t8.5 -58.5q0 -8 1.5 -27t3 -44t3.5 -53.5t3.5 -53.5t2.5 -44.5
t1 -27.5h8q16 17 32 39t30 45t26 45.5t20 40.5q-2 16 -3 29t-3 29q-14 -3 -27 -6.5t-27 -6.5l-25 78q45 35 87.5 54.5t77.5 19.5q44 0 59.5 -24t18.5 -79l13 -263h7q17 22 35 51t34 60.5t28.5 65t18.5 65.5l-56 -8l-16 78q45 29 83.5 45t83.5 16q15 0 29.5 -4t26 -13.5
t19 -25.5t7.5 -41q0 -34 -11.5 -73.5t-31.5 -81t-47 -82.5t-57 -78t-62.5 -67.5t-63.5 -50.5h-173l-9 145v0z" />
    <glyph glyph-name="x" unicode="x" horiz-adv-x="622" 
d="M123 -22q-4 0 -7.5 -0.5t-8.5 -0.5q-23 25 -45 51t-45 52q0 5 0.5 10.5t0.5 10.5l192 149q-14 26 -26.5 52t-26.5 52l-77 -20q-10 20 -19 40t-20 40q56 50 103.5 69t84.5 19q25 0 41.5 -10.5t30 -29t26 -43.5t29.5 -55q31 35 61 69.5t62 69.5h19q46 -48 91 -100l-2 -18
q-43 -34 -86 -68.5t-86 -69.5l58 -114q21 5 37.5 12t34.5 18l62 -74q-24 -33 -50.5 -54t-52 -33t-48.5 -16t-39 -4q-30 0 -49.5 9.5t-35 28.5t-29.5 47.5t-33 66.5q-36 -40 -72.5 -79t-74.5 -77z" />
    <glyph glyph-name="y" unicode="y" horiz-adv-x="626" 
d="M513 507q39 0 61.5 -25.5t22.5 -86.5q0 -66 -23 -137.5t-63.5 -141t-95.5 -132.5t-119 -110.5t-134.5 -75.5t-140.5 -28q-17 0 -39.5 4t-42.5 15t-34 30.5t-14 51.5v10t1 10l66 39q26 -25 49.5 -32.5t49.5 -7.5q40 0 85.5 16t83.5 51q-12 48 -25.5 103t-28 109.5t-28 104
t-25.5 86.5l-72 -14l-25 79q48 40 94 58t78 18q29 0 46.5 -10t25.5 -38q7 -29 17.5 -74.5t22 -95.5t21.5 -99.5t18 -86.5q19 27 34 62.5t25 73t15.5 74t5.5 66.5l-30 -4l-30 -4l-17 80q43 30 83 46t82 16z" />
    <glyph glyph-name="z" unicode="z" horiz-adv-x="559" 
d="M17 90l281 292h-118l-36 -85l-90 8l11 124q1 20 9 32.5t19 19t23 9t21 2.5h389l9 -84l-286 -299h154l49 101l80 -5l-18 -146q-3 -19 -12 -30.5t-20.5 -18t-24 -8.5t-21.5 -2h-408z" />
    <glyph glyph-name="braceleft" unicode="{" horiz-adv-x="361" 
d="M193 -164q-37 0 -61 14t-37 37.5t-16.5 53t0.5 60.5l18 147q6 35 -10.5 57.5t-51.5 25.5l11 96q34 6 56.5 23.5t26.5 60.5l18 136q4 31 13.5 59.5t27 50.5t44.5 34.5t66 12.5h111l-13 -99h-35q-20 0 -31.5 -7t-18.5 -18.5t-9.5 -26t-4.5 -29.5l-17 -136
q-5 -42 -26.5 -69.5t-61.5 -35.5v-3q22 -5 35.5 -17.5t20 -28.5t7 -35t-1.5 -38l-21 -164q-1 -12 -2 -23.5t2 -21t12 -15.5t28 -6h42l-12 -95h-109z" />
    <glyph glyph-name="bar" unicode="|" horiz-adv-x="357" 
d="M129 -152v865h122v-865h-122z" />
    <glyph glyph-name="braceright" unicode="}" horiz-adv-x="364" 
d="M191 704q37 0 61 -14t37 -37.5t16.5 -53t-0.5 -60.5l-17 -124q-6 -35 10.5 -57.5t51.5 -25.5l-11 -96q-34 -6 -56.5 -23.5t-26.5 -60.5l-19 -159q-4 -32 -13.5 -60t-27 -50t-44.5 -34.5t-66 -12.5h-111l13 99h35q20 0 31.5 7t18.5 18.5t9.5 26t4.5 29.5l18 159
q5 42 26.5 69.5t61.5 35.5v3q-23 5 -36 17.5t-19.5 28.5t-7 35t1.5 38q3 20 5.5 37t4.5 33.5t4.5 33.5t5.5 37q1 12 2 23.5t-2 21t-12 15.5t-28 6h-42l12 95h109z" />
    <glyph glyph-name="asciitilde" unicode="~" horiz-adv-x="611" 
d="M425 217q-33 0 -65 7t-62 15.5t-56.5 15.5t-47.5 7l-71 -46l-54 46q34 70 72 97.5t81 27.5q28 0 57.5 -7t59.5 -15t58.5 -15t55.5 -7l70 48l53 -46q-60 -128 -151 -128z" />
    <glyph glyph-name="exclamdown" unicode="&#xa1;" horiz-adv-x="320" 
d="M23 -225l30 243l48 259h133l-16 -259l-27 -243h-168zM174 328q-39 0 -60 25.5t-18 60.5q5 35 31.5 62t68.5 27q40 0 61.5 -25.5t17.5 -59.5q-3 -38 -31 -64t-70 -26z" />
    <glyph glyph-name="cent" unicode="&#xa2;" horiz-adv-x="611" 
d="M414 502q22 -2 41 -6t30 -9q26 -11 37.5 -25.5t11.5 -35.5q0 -11 -3 -27.5t-8 -35.5t-11 -37.5t-13 -34.5q-3 0 -17.5 1t-31 2t-31 1.5t-16.5 0.5v15t0.5 23.5t0.5 23.5v15q-6 2 -14.5 3t-16.5 1q-26 0 -45.5 -12.5t-32.5 -34t-19.5 -51.5t-6.5 -65q0 -49 21 -71t65 -22
q50 0 120 17l29 -110q-29 -14 -69 -22.5t-82 -13.5l-9 -85h-110l11 85q-48 6 -79 23t-49.5 43t-26 58.5t-7.5 70.5q0 48 10 99t35.5 95t68.5 76t109 43l12 93h108z" />
    <glyph glyph-name="sterling" unicode="&#xa3;" horiz-adv-x="611" 
d="M141 380l13 81q16 114 73.5 170.5t168.5 56.5q63 0 112 -11.5t83 -29.5l-14 -169h-120l6 68q-14 4 -27 6.5t-30 2.5q-39 0 -59 -25t-29 -79l-12 -71h130l-7 -85h-137l-6 -42q-7 -42 -20 -78t-40 -59h317l-9 -116h-500l9 115q39 30 55 67.5t24 79.5l6 33h-58l8 85h63z" />
    <glyph glyph-name="currency" unicode="&#xa4;" horiz-adv-x="584" 
d="M208 305q0 -21 8 -39.5t21.5 -32t32 -21.5t39.5 -8t39 8t32 21.5t22 32t8 39.5t-8 39.5t-21.5 33t-32 22.5t-39.5 8t-39.5 -8t-32 -22t-21.5 -33t-8 -40zM65 476l74 76l65 -65q23 14 50.5 21.5t55.5 7.5q27 0 54.5 -7.5t51.5 -22.5l64 66l75 -76l-65 -65q28 -50 28 -106
q0 -26 -8 -54t-21 -51l66 -63l-75 -77l-65 65q-24 -16 -50 -22.5t-55 -6.5t-55 6.5t-51 22.5l-65 -65l-75 77l65 64q-15 25 -21.5 51.5t-6.5 52.5q0 27 7 54.5t21 50.5z" />
    <glyph glyph-name="yen" unicode="&#xa5;" horiz-adv-x="611" 
d="M73 314l7 59h79l-59 178h-43l15 119h260l-15 -119h-48l55 -191h3l100 191h-49l14 119h259l-14 -119h-44l-103 -178h83l-8 -59h-492zM559 272l-6 -60h-160l-13 -95h68l-14 -117h-313l14 117h68l11 95h-154l8 60h491z" />
    <glyph glyph-name="brokenbar" unicode="&#xa6;" horiz-adv-x="357" 
d="M148 359v354h122v-354h-122zM270 237v-389h-122v389h122z" />
    <glyph glyph-name="section" unicode="&#xa7;" horiz-adv-x="553" 
d="M344 605q-33 0 -52 -16t-19 -35q0 -16 10.5 -29t25.5 -24t33 -20t33 -15q23 -10 46.5 -22t43 -28.5t31.5 -39.5t12 -54q0 -42 -21.5 -74.5t-58.5 -60.5q31 -23 45.5 -54.5t14.5 -64.5q0 -38 -17 -70t-50 -55t-80 -36t-107 -13q-51 0 -101.5 9t-85.5 23l19 151h112l-9 -68
q19 -6 36 -8t30 -2q48 0 71 18t23 44q0 18 -19.5 33.5t-70.5 35.5q-32 13 -61 26.5t-51.5 31.5t-36 42t-13.5 57q0 51 22.5 83t57.5 57q-20 18 -32.5 41.5t-12.5 58.5q0 46 19 80t52 56t77 32.5t93 10.5q52 0 100.5 -10t73.5 -24l-18 -148h-113l8 73q-20 6 -34.5 7t-25.5 1z
M253 377q-19 -13 -28 -30t-9 -34q0 -14 9 -23.5t25 -18t38 -17.5t48 -20q17 13 26.5 27.5t7.5 36.5q-2 24 -35.5 41.5t-81.5 37.5z" />
    <glyph glyph-name="dieresis" unicode="&#xa8;" horiz-adv-x="587" 
d="M525 640q-1 -18 -8.5 -33.5t-19.5 -27t-28 -18t-33 -6.5q-32 0 -51.5 23t-17.5 56q4 36 30 60t59 24t53 -22t16 -56zM317 640q-2 -18 -9.5 -33.5t-20 -27t-28 -18t-31.5 -6.5q-32 0 -52.5 23t-17.5 56q2 18 10 33.5t20 26.5t27.5 17.5t31.5 6.5q32 0 52.5 -22t17.5 -56z
" />
    <glyph glyph-name="copyright" unicode="&#xa9;" horiz-adv-x="872" 
d="M836 328q0 -81 -30.5 -152t-83.5 -124t-123.5 -83.5t-149.5 -30.5q-84 0 -155 30.5t-123.5 83.5t-82 124t-29.5 152t30.5 152t83.5 124t124 83.5t152 30.5t152 -30.5t123 -83.5t82 -124t30 -152zM764 328q0 65 -24.5 123t-67 101t-100 68t-123.5 25t-123.5 -25
t-100.5 -68t-68 -101t-25 -123t24 -123t66.5 -101t100.5 -68t126 -25q65 0 122.5 25t100 68t67.5 101t25 123zM361 324q0 -41 8.5 -68t25 -43.5t41 -23t55.5 -6.5q8 0 21 1t27.5 2.5t29.5 3.5t26 5l18 -86q-32 -13 -75 -19t-81 -6q-69 0 -113.5 19.5t-70.5 52t-36 75
t-10 89.5q0 43 11 86.5t39 78.5t75.5 56.5t120.5 21.5q37 0 67.5 -5.5t58.5 -13.5v-143h-82v63q-8 2 -20 3t-20 1q-61 0 -88.5 -38t-27.5 -106z" />
    <glyph glyph-name="ordfeminine" unicode="&#xaa;" horiz-adv-x="454" 
d="M277 354q-29 -39 -60.5 -55.5t-63.5 -16.5q-48 0 -76 30t-28 88q0 48 12 88.5t36 70.5t60 46.5t83 16.5q19 0 39.5 -5t38.5 -13l13 18l102 -5q-11 -73 -18.5 -128.5t-14.5 -109.5q22 3 45 13l27 -60q-27 -23 -62 -37.5t-63 -14.5q-38 0 -53.5 16t-15.5 44q0 3 0.5 6.5
t0.5 7.5h-2zM208 371q8 0 19 5.5t21.5 18.5t20 34t14.5 53l7 41q-13 4 -24 5.5t-19 1.5q-18 0 -31.5 -10t-21.5 -26t-12 -35t-4 -38q0 -26 8.5 -38t21.5 -12z" />
    <glyph glyph-name="guillemotleft" unicode="&#xab;" horiz-adv-x="527" 
d="M40 223l201 195l67 -51l-124 -163l82 -159l-81 -56l-150 196zM251 223l200 195l67 -51l-123 -163l81 -159l-80 -56l-150 196z" />
    <glyph glyph-name="logicalnot" unicode="&#xac;" horiz-adv-x="611" 
d="M513 81h-103l22 173h-319l12 103h422z" />
    <glyph glyph-name="sfthyphen" unicode="&#xad;" horiz-adv-x="403" 
d="M62 210l16 125h279l-16 -125h-279z" />
    <glyph glyph-name="registered" unicode="&#xae;" horiz-adv-x="627" 
d="M605 461q0 -56 -19.5 -104.5t-55 -85t-84.5 -57.5t-108 -21q-58 0 -107.5 21t-85.5 57.5t-56 85t-20 104.5t20 105t55.5 85.5t85 57.5t108.5 21t108 -21t84.5 -57.5t55 -85.5t19.5 -105zM551 461q0 44 -15.5 83t-43.5 68t-67.5 46t-86.5 17t-86 -17t-67.5 -46t-44 -68
t-15.5 -83t15 -82.5t43 -67.5t67.5 -46t87.5 -17q51 0 90.5 17t67 46t41.5 67.5t14 82.5zM383 527q0 19 -10.5 27t-25.5 8h-30v-72h27q17 0 28 7.5t11 29.5zM317 438v-60h27v-52h-137v52h29v183h-29v53h160q28 0 47.5 -7t31.5 -19t17 -28t5 -34q0 -19 -11 -41t-34 -33
l36 -75q1 0 6 -0.5t11 -1t11 -1.5t6 -1l2 -46q-13 -4 -31 -6t-28 -2q-22 0 -32 9.5t-20 29.5l-37 80h-30z" />
    <glyph glyph-name="macron" unicode="&#xaf;" horiz-adv-x="587" 
d="M174 675h366l-15 -114h-365z" />
    <glyph glyph-name="degree" unicode="&#xb0;" horiz-adv-x="387" 
d="M375 539q-2 -34 -15.5 -62.5t-36.5 -49.5t-53 -32.5t-63 -11.5t-60.5 11t-47 31.5t-29 49t-6.5 64.5q8 75 55.5 115t114.5 40q33 0 59.5 -11.5t45.5 -32t28 -49t8 -62.5zM290 538q2 33 -16.5 53.5t-50.5 20.5q-31 0 -51.5 -21t-22.5 -53q-3 -32 15 -52t49 -20t53 18.5
t24 53.5z" />
    <glyph glyph-name="plusminus" unicode="&#xb1;" horiz-adv-x="611" 
d="M379 285l-17 -143h-104l17 143h-159l13 103h159l19 145h103l-18 -145h158l-13 -103h-158zM516 101l-13 -101h-421l12 101h422z" />
    <glyph glyph-name="twosuperior" unicode="&#xb2;" horiz-adv-x="364" 
d="M199 769q75 0 113.5 -29.5t38.5 -82.5q0 -33 -18.5 -63t-46.5 -56.5t-60.5 -49t-59.5 -38.5h84l3 30h98l-14 -124h-340l9 82q25 18 60.5 42t67.5 50t55 52.5t25 49.5q0 15 -8.5 23.5t-31.5 8.5q-19 0 -46.5 -7t-62.5 -25l-37 84q48 29 90.5 41t80.5 12z" />
    <glyph glyph-name="threesuperior" unicode="&#xb3;" horiz-adv-x="364" 
d="M211 769q37 0 63 -7.5t42 -20.5t23 -30t7 -36q0 -23 -17.5 -49t-49.5 -41q35 -13 49.5 -36t14.5 -49q0 -31 -14 -58t-40.5 -47.5t-64.5 -32t-87 -11.5q-13 0 -32 1.5t-40 5.5t-41.5 10.5t-36.5 16.5l37 85q39 -13 63 -17t44 -4q31 0 56 11t25 35q0 18 -15.5 25.5
t-38.5 7.5q-10 0 -23 -1.5t-27 -3.5l-9 74q62 10 89 23t27 33t-34 20q-19 0 -47.5 -5.5t-69.5 -21.5l-29 85q56 22 96.5 30t79.5 8z" />
    <glyph glyph-name="acute" unicode="&#xb4;" horiz-adv-x="587" 
d="M337 544l-54 57l171 193l81 -91z" />
    <glyph glyph-name="mu" unicode="&#xb5;" horiz-adv-x="686" 
d="M222 504q25 0 40.5 -7t24.5 -18t12.5 -26.5t3.5 -31.5q0 -12 -4.5 -46.5t-9.5 -74.5t-9.5 -76.5t-4.5 -51.5q0 -18 7 -31t29 -13q13 0 27 8t28 25.5t27 45.5t23 68l29 217h174l-49 -371q19 1 35.5 6t33.5 11l33 -83q-21 -19 -45 -32.5t-48 -22t-46.5 -12.5t-40.5 -4
q-29 0 -47 6t-28 18t-13.5 29t-3.5 38q0 5 0.5 10t0.5 10h-5q-17 -27 -33.5 -43t-33.5 -24.5t-35.5 -11t-39.5 -2.5l-13 -109h62l-15 -116h-293l12 116h56q7 65 13 120t12.5 109.5t14 112t16.5 127.5q-21 3 -41.5 6.5t-41.5 7.5q2 21 3.5 42.5t3.5 42.5q60 17 103.5 24
t75.5 7z" />
    <glyph glyph-name="mu" unicode="&#x3bc;" horiz-adv-x="686" 
d="M222 504q25 0 40.5 -7t24.5 -18t12.5 -26.5t3.5 -31.5q0 -12 -4.5 -46.5t-9.5 -74.5t-9.5 -76.5t-4.5 -51.5q0 -18 7 -31t29 -13q13 0 27 8t28 25.5t27 45.5t23 68l29 217h174l-49 -371q19 1 35.5 6t33.5 11l33 -83q-21 -19 -45 -32.5t-48 -22t-46.5 -12.5t-40.5 -4
q-29 0 -47 6t-28 18t-13.5 29t-3.5 38q0 5 0.5 10t0.5 10h-5q-17 -27 -33.5 -43t-33.5 -24.5t-35.5 -11t-39.5 -2.5l-13 -109h62l-15 -116h-293l12 116h56q7 65 13 120t12.5 109.5t14 112t16.5 127.5q-21 3 -41.5 6.5t-41.5 7.5q2 21 3.5 42.5t3.5 42.5q60 17 103.5 24
t75.5 7z" />
    <glyph glyph-name="paragraph" unicode="&#xb6;" horiz-adv-x="661" 
d="M262 270q-87 0 -137.5 51.5t-50.5 142.5q0 52 18 97t49.5 78.5t75.5 53t97 19.5h378l-15 -121h-65l-99 -808h-120l100 808h-54l-99 -808h-210l13 110h89l47 377h-17z" />
    <glyph glyph-name="periodcentered" unicode="&#xb7;" horiz-adv-x="295" 
d="M162 370q35 0 57.5 -24t22.5 -60q0 -23 -8.5 -42t-23 -33t-33 -22t-38.5 -8q-35 0 -58 24.5t-23 60.5q0 22 9 41.5t23.5 33t33 21.5t38.5 8z" />
    <glyph glyph-name="cedilla" unicode="&#xb8;" horiz-adv-x="513" 
d="M244 -50q91 -15 91 -84q0 -18 -9.5 -40t-33.5 -41.5t-65.5 -32.5t-105.5 -14l-4 63q56 5 89.5 20t33.5 36q0 8 -5.5 13t-14.5 8t-20.5 4t-22.5 1q-5 0 -9 -0.5t-9 -0.5l-15 30q30 36 60 70t59 69l43 -28z" />
    <glyph glyph-name="onesuperior" unicode="&#xb9;" horiz-adv-x="364" 
d="M29 450h84l24 202q-3 0 -16 -1.5t-27 -3t-27 -3t-16 -2.5l-4 81l125 41h113l-38 -314h85l-11 -94h-303z" />
    <glyph glyph-name="ordmasculine" unicode="&#xba;" horiz-adv-x="418" 
d="M255 624q87 0 128.5 -41t41.5 -104q0 -39 -12 -74t-37 -61.5t-63.5 -42.5t-90.5 -16q-87 0 -127.5 40t-40.5 104q0 40 12 75.5t37 62t63 42t89 15.5zM249 533q-18 0 -30 -10.5t-19 -26.5t-9.5 -35t-2.5 -37q1 -20 9.5 -34.5t31.5 -14.5q18 0 29.5 9.5t18.5 24.5t9.5 34
t2.5 39q0 22 -8.5 36.5t-31.5 14.5z" />
    <glyph glyph-name="guillemotright" unicode="&#xbb;" horiz-adv-x="527" 
d="M493 185l-198 -196l-67 56l120 159l-83 163l81 51l152 -195zM283 185l-197 -196l-69 56l121 159l-83 163l80 51l153 -195z" />
    <glyph glyph-name="onequarter" unicode="&#xbc;" horiz-adv-x="920" 
d="M856 409l-26 -214h62l-9 -78h-62l-4 -35h38l-8 -78h-200l10 78h36l4 35h-179q0 1 1 10.5t2.5 21t2.5 21t1 11.5q18 19 48.5 55t61 73t54.5 66t28 34h139zM82 360h84l24 202q-3 0 -16 -1.5t-27 -3t-27 -3t-16 -2.5l-4 81l125 41h113l-38 -314h85l-11 -94h-303zM357 -19
h-103l414 733h104zM720 296q-6 -6 -18 -20.5t-25.5 -30.5t-25.5 -30t-18 -20h74l14 101h-1z" />
    <glyph glyph-name="onehalf" unicode="&#xbd;" horiz-adv-x="920" 
d="M748 414q75 0 113.5 -29.5t38.5 -83.5q0 -32 -18.5 -62t-46.5 -56.5t-60.5 -49t-59.5 -38.5h84q1 3 2 14.5t1 14.5h98l-14 -123h-340l9 82q27 19 62 43t67 50t55 52t25 49q0 15 -9 23.5t-31 8.5q-19 0 -47 -7t-63 -26l-38 85q48 29 91 41t81 12zM69 360h84l24 202
q-3 0 -16 -1.5t-27 -3t-27 -3t-16 -2.5l-4 81l125 41h113l-38 -314h85l-11 -94h-303zM339 -19h-103l414 733h104z" />
    <glyph glyph-name="threequarters" unicode="&#xbe;" horiz-adv-x="920" 
d="M284 679q37 0 63 -7.5t42 -20.5t23 -30t7 -36q0 -23 -17.5 -49t-49.5 -41q35 -13 49.5 -36t14.5 -49q0 -31 -14 -58t-40.5 -47.5t-64.5 -32t-87 -11.5q-13 0 -32 1.5t-40 5.5t-41.5 10.5t-36.5 16.5l37 85q39 -13 63 -17t44 -4q31 0 56 11t25 35q0 18 -15.5 25.5
t-38.5 7.5q-10 0 -23 -1.5t-27 -3.5l-9 74q62 10 89 23t27 33t-34 20q-19 0 -47.5 -5.5t-69.5 -21.5l-29 85q56 22 96.5 30t79.5 8zM352 -19h-103l414 733h104zM868 409l-26 -214h62l-9 -78h-62l-4 -35h38l-8 -78h-200l10 78h36l4 35h-179q0 1 1 10.5t2.5 21t2.5 21t1 11.5
q18 19 48.5 55t61 73t54.5 66t28 34h139zM732 296q-6 -6 -18 -20.5t-25.5 -30.5t-25.5 -30t-18 -20h74l14 101h-1z" />
    <glyph glyph-name="questiondown" unicode="&#xbf;" horiz-adv-x="525" 
d="M227 -227q-103 0 -153.5 43t-50.5 115q1 51 25 90.5t58 67.5q36 30 63.5 48.5t45.5 34.5t27 33.5t9 44.5v21l141 16q2 -15 3 -28.5t1 -25.5q0 -38 -11.5 -65.5t-30.5 -49t-42.5 -40.5t-47.5 -38q-21 -17 -34.5 -34t-13.5 -40q0 -58 71 -58q14 0 29.5 2t31.5 5l9 75h121
l-21 -176q-69 -25 -127.5 -33t-102.5 -8zM312 329q-35 0 -57 21.5t-22 53.5q0 21 8.5 38.5t22 30t31.5 19.5t37 7q34 0 56 -21.5t22 -52.5q0 -19 -7 -36t-20 -30.5t-31 -21.5t-40 -8z" />
    <glyph glyph-name="Agrave" unicode="&#xc0;" horiz-adv-x="770" 
d="M492 192h-219l-31 -70h58l-14 -122h-292l14 122h54l274 569h230l122 -569h53l-15 -122h-291l14 122h57zM378 427l-53 -119h147l-21 115l-19 120h-4zM280 878l87 101l162 -175l-51 -62z" />
    <glyph glyph-name="Aacute" unicode="&#xc1;" horiz-adv-x="770" 
d="M492 192h-219l-31 -70h58l-14 -122h-292l14 122h54l274 569h230l122 -569h53l-15 -122h-291l14 122h57zM378 427l-53 -119h147l-21 115l-19 120h-4zM444 739l-43 65l196 162l69 -101z" />
    <glyph glyph-name="Acircumflex" unicode="&#xc2;" horiz-adv-x="770" 
d="M492 192h-219l-31 -70h58l-14 -122h-292l14 122h54l274 569h230l122 -569h53l-15 -122h-291l14 122h57zM378 427l-53 -119h147l-21 115l-19 120h-4zM613 735l-155 101l-178 -100l-36 50l171 156h111l136 -155z" />
    <glyph glyph-name="Atilde" unicode="&#xc3;" horiz-adv-x="770" 
d="M492 192h-219l-31 -70h58l-14 -122h-292l14 122h54l274 569h230l122 -569h53l-15 -122h-291l14 122h57zM378 427l-53 -119h147l-21 115l-19 120h-4zM542 754q-27 0 -53 6t-50 13.5t-45.5 13.5t-38.5 6l-57 -39l-45 38q27 59 58.5 82t65.5 23q24 0 48 -5.5t47.5 -12.5
t46.5 -12.5t44 -5.5l59 40l42 -38q-47 -109 -122 -109z" />
    <glyph glyph-name="Adieresis" unicode="&#xc4;" horiz-adv-x="770" 
d="M492 192h-219l-31 -70h58l-14 -122h-292l14 122h54l274 569h230l122 -569h53l-15 -122h-291l14 122h57zM378 427l-53 -119h147l-21 115l-19 120h-4zM640 817q-3 -33 -27.5 -55.5t-56.5 -22.5t-50.5 21.5t-14.5 53.5q3 34 27.5 56t56.5 22q31 0 50 -21.5t15 -53.5z
M442 817q-4 -33 -28 -55.5t-56 -22.5q-31 0 -50 21.5t-16 53.5q3 34 28 56t56 22t50 -21.5t16 -53.5z" />
    <glyph glyph-name="Aring" unicode="&#xc5;" horiz-adv-x="770" 
d="M492 192h-219l-31 -70h58l-14 -122h-292l14 122h54l274 569h230l122 -569h53l-15 -122h-291l14 122h57zM378 427l-53 -119h147l-21 115l-19 120h-4zM448 731q-28 0 -51 10.5t-38.5 28.5t-23 42t-4.5 51t16.5 51t33.5 42.5t45.5 29t54.5 10.5q28 0 50.5 -10.5t37 -28.5
t21 -42.5t3.5 -51.5q-3 -28 -16.5 -52t-33 -42t-44 -28t-51.5 -10zM471 915q-23 0 -40.5 -16t-19.5 -39q-3 -20 9 -36.5t38 -16.5q23 0 38 16.5t17 36.5q3 23 -8 39t-34 16z" />
    <glyph glyph-name="AE" unicode="&#xc6;" horiz-adv-x="1056" 
d="M518 121l4 76h-216l-50 -76h51l-8 -121h-292l8 121h47l368 568h607l-14 -234h-128l6 114h-171l-9 -158l150 3l-8 -122l-150 4l-10 -175h190l8 122h129l-14 -243h-577l8 121h71zM373 313h155l17 251h-6z" />
    <glyph glyph-name="Ccedilla" unicode="&#xc7;" horiz-adv-x="648" 
d="M454 706q52 0 99.5 -7.5t88.5 -20.5l-27 -222h-129l11 97q-12 3 -25 5t-27 2q-49 0 -83.5 -19t-56.5 -53.5t-32.5 -82.5t-10.5 -105q0 -46 10.5 -76t31 -47t51.5 -24t72 -7q11 0 29 1.5t39 4t42.5 6t39.5 7.5l22 -137q-47 -17 -107 -27t-113 -12l-47 -55q91 -15 91 -84
q0 -18 -9.5 -40t-33.5 -41.5t-65.5 -32.5t-105.5 -14l-4 63q56 5 89.5 20t33.5 36q0 8 -5.5 13t-14.5 8t-20.5 4t-22.5 1q-5 0 -9 -0.5t-9 -0.5l-15 30q20 25 40.5 48.5t40.5 46.5q-74 6 -122 31t-76.5 63.5t-40 88t-11.5 105.5q0 76 16 152t59.5 137t119.5 99.5t196 38.5z
" />
    <glyph glyph-name="Egrave" unicode="&#xc8;" horiz-adv-x="692" 
d="M18 0l14 122h70l54 447h-68l15 121h598l-29 -235h-128l14 114h-214l-20 -158l182 4l-13 -120l-183 3l-21 -176h231l15 122h129l-29 -244h-617zM278 878l87 101l162 -175l-51 -62z" />
    <glyph glyph-name="Eacute" unicode="&#xc9;" horiz-adv-x="692" 
d="M18 0l14 122h70l54 447h-68l15 121h598l-29 -235h-128l14 114h-214l-20 -158l182 4l-13 -120l-183 3l-21 -176h231l15 122h129l-29 -244h-617zM391 739l-43 65l196 162l69 -101z" />
    <glyph glyph-name="Ecircumflex" unicode="&#xca;" horiz-adv-x="692" 
d="M18 0l14 122h70l54 447h-68l15 121h598l-29 -235h-128l14 114h-214l-20 -158l182 4l-13 -120l-183 3l-21 -176h231l15 122h129l-29 -244h-617zM591 735l-155 101l-178 -100l-36 50l171 156h111l136 -155z" />
    <glyph glyph-name="Edieresis" unicode="&#xcb;" horiz-adv-x="692" 
d="M18 0l14 122h70l54 447h-68l15 121h598l-29 -235h-128l14 114h-214l-20 -158l182 4l-13 -120l-183 3l-21 -176h231l15 122h129l-29 -244h-617zM614 817q-3 -33 -27.5 -55.5t-56.5 -22.5t-50.5 21.5t-14.5 53.5q3 34 27.5 56t56.5 22q31 0 50 -21.5t15 -53.5zM416 817
q-4 -33 -28 -55.5t-56 -22.5q-31 0 -50 21.5t-16 53.5q3 34 28 56t56 22t50 -21.5t16 -53.5z" />
    <glyph glyph-name="Igrave" unicode="&#xcc;" horiz-adv-x="461" 
d="M43 0l15 122h70l54 447h-70l16 122h324l-15 -122h-68l-55 -447h68l-14 -122h-325zM117 878l87 101l162 -175l-51 -62z" />
    <glyph glyph-name="Iacute" unicode="&#xcd;" horiz-adv-x="461" 
d="M43 0l15 122h70l54 447h-70l16 122h324l-15 -122h-68l-55 -447h68l-14 -122h-325zM288 739l-43 65l196 162l69 -101z" />
    <glyph glyph-name="Icircumflex" unicode="&#xce;" horiz-adv-x="461" 
d="M43 0l15 122h70l54 447h-70l16 122h324l-15 -122h-68l-55 -447h68l-14 -122h-325zM463 735l-155 101l-178 -100l-36 50l171 156h111l136 -155z" />
    <glyph glyph-name="Idieresis" unicode="&#xcf;" horiz-adv-x="461" 
d="M43 0l15 122h70l54 447h-70l16 122h324l-15 -122h-68l-55 -447h68l-14 -122h-325zM478 817q-3 -33 -27.5 -55.5t-56.5 -22.5t-50.5 21.5t-14.5 53.5q3 34 27.5 56t56.5 22q31 0 50 -21.5t15 -53.5zM280 817q-4 -33 -28 -55.5t-56 -22.5q-31 0 -50 21.5t-16 53.5
q3 34 28 56t56 22t50 -21.5t16 -53.5z" />
    <glyph glyph-name="Eth" unicode="&#xd0;" horiz-adv-x="760" 
d="M18 0l14 122h73l23 191h-68l11 78h66l23 178h-69l16 122h336q84 0 139.5 -22.5t88.5 -62t46.5 -92.5t13.5 -114q0 -80 -20 -152t-63.5 -127.5t-112.5 -88t-168 -32.5h-349zM348 569l-22 -178h92l-10 -78h-92l-23 -191h62q34 0 66 16t56.5 49.5t39.5 85.5t15 125
q0 91 -35 131t-91 40h-58z" />
    <glyph glyph-name="Ntilde" unicode="&#xd1;" horiz-adv-x="854" 
d="M578 263l38 306h-66l16 121h304q-4 -30 -8 -60.5t-7 -60.5h-66l-69 -569h-183q-29 57 -57 113t-57 113q-6 12 -16.5 34t-22 46t-22.5 46l-17 34q-8 17 -16 33t-16 33h-2q-11 -83 -21 -165.5t-20 -165.5h66q-4 -31 -7.5 -61t-6.5 -60h-305l14 121h68q13 112 26.5 223.5
t27.5 224.5h-67l15 121h267l92 -187q20 -41 39.5 -83t40.5 -87l34 -70h4zM573 765q-27 0 -53 6t-50 13.5t-45.5 13.5t-38.5 6l-57 -39l-45 38q27 59 58.5 82t65.5 23q24 0 48 -5.5t47.5 -12.5t46.5 -12.5t44 -5.5l59 40l42 -38q-47 -109 -122 -109z" />
    <glyph glyph-name="Ograve" unicode="&#xd2;" horiz-adv-x="769" 
d="M438 705q79 0 136 -23t94 -63.5t54.5 -97t17.5 -122.5q0 -89 -25 -164t-72.5 -130t-117 -85.5t-159.5 -30.5q-78 0 -135 22t-94.5 61.5t-55.5 94.5t-18 122q0 86 23.5 162t71 132.5t117.5 89t163 32.5zM428 572q-47 0 -79 -24.5t-52 -65t-28.5 -92t-8.5 -105.5
q0 -78 27 -121t91 -43q44 0 75 22t50.5 60.5t28.5 91t9 113.5q0 35 -5.5 65t-18 52t-34.5 34.5t-55 12.5zM270 878l87 101l162 -175l-51 -62z" />
    <glyph glyph-name="Oacute" unicode="&#xd3;" horiz-adv-x="769" 
d="M438 705q79 0 136 -23t94 -63.5t54.5 -97t17.5 -122.5q0 -89 -25 -164t-72.5 -130t-117 -85.5t-159.5 -30.5q-78 0 -135 22t-94.5 61.5t-55.5 94.5t-18 122q0 86 23.5 162t71 132.5t117.5 89t163 32.5zM428 572q-47 0 -79 -24.5t-52 -65t-28.5 -92t-8.5 -105.5
q0 -78 27 -121t91 -43q44 0 75 22t50.5 60.5t28.5 91t9 113.5q0 35 -5.5 65t-18 52t-34.5 34.5t-55 12.5zM443 739l-43 65l196 162l69 -101z" />
    <glyph glyph-name="Ocircumflex" unicode="&#xd4;" horiz-adv-x="769" 
d="M438 705q79 0 136 -23t94 -63.5t54.5 -97t17.5 -122.5q0 -89 -25 -164t-72.5 -130t-117 -85.5t-159.5 -30.5q-78 0 -135 22t-94.5 61.5t-55.5 94.5t-18 122q0 86 23.5 162t71 132.5t117.5 89t163 32.5zM428 572q-47 0 -79 -24.5t-52 -65t-28.5 -92t-8.5 -105.5
q0 -78 27 -121t91 -43q44 0 75 22t50.5 60.5t28.5 91t9 113.5q0 35 -5.5 65t-18 52t-34.5 34.5t-55 12.5zM620 735l-155 101l-178 -100l-36 50l171 156h111l136 -155z" />
    <glyph glyph-name="Otilde" unicode="&#xd5;" horiz-adv-x="769" 
d="M438 705q79 0 136 -23t94 -63.5t54.5 -97t17.5 -122.5q0 -89 -25 -164t-72.5 -130t-117 -85.5t-159.5 -30.5q-78 0 -135 22t-94.5 61.5t-55.5 94.5t-18 122q0 86 23.5 162t71 132.5t117.5 89t163 32.5zM428 572q-47 0 -79 -24.5t-52 -65t-28.5 -92t-8.5 -105.5
q0 -78 27 -121t91 -43q44 0 75 22t50.5 60.5t28.5 91t9 113.5q0 35 -5.5 65t-18 52t-34.5 34.5t-55 12.5zM547 767q-27 0 -53 6t-50 13.5t-45.5 13.5t-38.5 6l-57 -39l-45 38q27 59 58.5 82t65.5 23q24 0 48 -5.5t47.5 -12.5t46.5 -12.5t44 -5.5l59 40l42 -38
q-47 -109 -122 -109z" />
    <glyph glyph-name="Odieresis" unicode="&#xd6;" horiz-adv-x="769" 
d="M438 705q79 0 136 -23t94 -63.5t54.5 -97t17.5 -122.5q0 -89 -25 -164t-72.5 -130t-117 -85.5t-159.5 -30.5q-78 0 -135 22t-94.5 61.5t-55.5 94.5t-18 122q0 86 23.5 162t71 132.5t117.5 89t163 32.5zM428 572q-47 0 -79 -24.5t-52 -65t-28.5 -92t-8.5 -105.5
q0 -78 27 -121t91 -43q44 0 75 22t50.5 60.5t28.5 91t9 113.5q0 35 -5.5 65t-18 52t-34.5 34.5t-55 12.5zM638 817q-3 -33 -27.5 -55.5t-56.5 -22.5t-50.5 21.5t-14.5 53.5q3 34 27.5 56t56.5 22q31 0 50 -21.5t15 -53.5zM440 817q-4 -33 -28 -55.5t-56 -22.5
q-31 0 -50 21.5t-16 53.5q3 34 28 56t56 22t50 -21.5t16 -53.5z" />
    <glyph glyph-name="multiply" unicode="&#xd7;" horiz-adv-x="611" 
d="M315 228l-137 -126l-64 75l138 126l-106 126l80 73l105 -126l135 124l64 -76l-135 -123l105 -124l-79 -74z" />
    <glyph glyph-name="Oslash" unicode="&#xd8;" horiz-adv-x="769" 
d="M438 704q67 0 118 -16.5t87 -47.5l61 64h78l-101 -104q30 -39 44 -90t14 -111q0 -89 -25 -164t-72.5 -129.5t-117 -85t-159.5 -30.5q-71 0 -123.5 17t-89.5 49l-62 -64h-70q42 40 98 101q-27 38 -41 87.5t-14 107.5q0 87 23.5 163t71 132.5t117.5 88.5t163 32zM541 408
q0 13 -1 24t-4 22l-260 -273q14 -29 38.5 -45t62.5 -16q44 0 75 22t51 61t29 91.5t9 113.5zM428 572q-50 0 -82.5 -27t-51.5 -70.5t-26.5 -97.5t-7.5 -108q1 -7 1 -14t2 -14q63 66 130.5 137.5t128.5 136.5q-13 26 -36 41.5t-58 15.5z" />
    <glyph glyph-name="Ugrave" unicode="&#xd9;" horiz-adv-x="776" 
d="M693 259q-8 -64 -30 -114t-61 -84.5t-95.5 -52.5t-134.5 -18q-83 0 -139.5 19.5t-89.5 55.5t-44.5 87.5t-3.5 116.5l36 300h-54l15 122h296l-15 -122h-57l-40 -320q-15 -128 107 -128q48 0 83.5 30t43.5 98l39 320h-57l16 122h295l-15 -122h-57zM275 878l87 101l162 -175
l-51 -62z" />
    <glyph glyph-name="Uacute" unicode="&#xda;" horiz-adv-x="776" 
d="M693 259q-8 -64 -30 -114t-61 -84.5t-95.5 -52.5t-134.5 -18q-83 0 -139.5 19.5t-89.5 55.5t-44.5 87.5t-3.5 116.5l36 300h-54l15 122h296l-15 -122h-57l-40 -320q-15 -128 107 -128q48 0 83.5 30t43.5 98l39 320h-57l16 122h295l-15 -122h-57zM438 739l-43 65l196 162
l69 -101z" />
    <glyph glyph-name="Ucircumflex" unicode="&#xdb;" horiz-adv-x="776" 
d="M693 259q-8 -64 -30 -114t-61 -84.5t-95.5 -52.5t-134.5 -18q-83 0 -139.5 19.5t-89.5 55.5t-44.5 87.5t-3.5 116.5l36 300h-54l15 122h296l-15 -122h-57l-40 -320q-15 -128 107 -128q48 0 83.5 30t43.5 98l39 320h-57l16 122h295l-15 -122h-57zM629 735l-161 99
l-185 -98l-38 49l178 153h115l141 -152z" />
    <glyph glyph-name="Udieresis" unicode="&#xdc;" horiz-adv-x="776" 
d="M693 259q-8 -64 -30 -114t-61 -84.5t-95.5 -52.5t-134.5 -18q-83 0 -139.5 19.5t-89.5 55.5t-44.5 87.5t-3.5 116.5l36 300h-54l15 122h296l-15 -122h-57l-40 -320q-15 -128 107 -128q48 0 83.5 30t43.5 98l39 320h-57l16 122h295l-15 -122h-57zM639 817
q-3 -33 -27.5 -55.5t-56.5 -22.5t-50.5 21.5t-14.5 53.5q3 34 27.5 56t56.5 22q31 0 50 -21.5t15 -53.5zM441 817q-4 -33 -28 -55.5t-56 -22.5q-31 0 -50 21.5t-16 53.5q3 34 28 56t56 22t50 -21.5t16 -53.5z" />
    <glyph glyph-name="Yacute" unicode="&#xdd;" horiz-adv-x="711" 
d="M504 568h-56l15 123h294l-16 -123h-48l-234 -318l-15 -128h73l-14 -122h-350l14 122h75l15 127l-152 319h-47l15 123h291l-15 -123h-55l80 -192h4zM400 738l-43 65l196 162l69 -101z" />
    <glyph glyph-name="Thorn" unicode="&#xde;" horiz-adv-x="665" 
d="M339 532h95q63 0 106.5 -11.5t70.5 -32.5t39 -51.5t12 -69.5q0 -44 -16.5 -81.5t-49.5 -65.5t-81.5 -43.5t-111.5 -14.5l-109 1l-7 -52h67l-13 -111h-325l14 111h71l56 462h-72l15 118h325l-15 -118h-66zM326 433l-20 -169h58q45 0 73.5 24t28.5 72q0 39 -23 56t-62 17
h-55z" />
    <glyph glyph-name="germandbls" unicode="&#xdf;" horiz-adv-x="708" 
d="M260 96q-8 -72 -20.5 -131t-39 -100.5t-71 -64t-116.5 -22.5q-26 0 -60 5t-72 17l28 115q26 -5 41 -6.5t32 -1.5q23 0 39 7t27 26t19 51.5t15 83.5t15 123t19 169l-64 -1q2 23 5.5 47t5.5 47h61q2 12 3.5 36.5t9 55t23 62t46 58t78.5 43t120 16.5q61 0 101 -14.5
t63 -35.5t32 -45.5t9 -45.5q0 -37 -19 -65.5t-41.5 -50.5t-41 -39t-18.5 -31t13 -28t32 -30.5t42 -36t42 -42.5t32 -50t13 -60q0 -40 -17 -71.5t-46 -53.5t-69 -33.5t-86 -11.5q-38 0 -76 6t-73 16l33 114q25 -8 47.5 -12t42.5 -4q24 0 41.5 10t17.5 32q0 28 -21.5 53.5
t-48 53.5t-48 60t-21.5 73q0 38 17 62.5t38 43t38 34t17 36.5q0 17 -13 29.5t-44 12.5q-42 0 -61.5 -26t-23.5 -61z" />
    <glyph glyph-name="agrave" unicode="&#xe0;" horiz-adv-x="657" 
d="M315 504q30 0 61 -7.5t60 -23.5l21 29l138 -7q-18 -113 -31 -202.5t-22 -170.5q19 2 34 6.5t33 12.5l35 -85q-18 -16 -40 -29.5t-45.5 -23t-47 -15t-43.5 -5.5q-54 0 -78 20t-24 60q0 16 5 39h-5q-45 -66 -89.5 -90.5t-93.5 -24.5q-66 0 -104.5 42.5t-38.5 128.5
q0 72 17.5 135t52 110t86 74t119.5 27zM267 111q13 0 27.5 6.5t29 24t29.5 47t29 74.5l16 98q-21 7 -39 9t-30 2q-30 0 -51 -17.5t-34 -44.5t-19 -59.5t-6 -62.5q0 -39 13.5 -58t34.5 -19zM194 708l92 90l147 -192l-57 -57z" />
    <glyph glyph-name="aacute" unicode="&#xe1;" horiz-adv-x="657" 
d="M315 504q30 0 61 -7.5t60 -23.5l21 29l138 -7q-18 -113 -31 -202.5t-22 -170.5q19 2 34 6.5t33 12.5l35 -85q-18 -16 -40 -29.5t-45.5 -23t-47 -15t-43.5 -5.5q-54 0 -78 20t-24 60q0 16 5 39h-5q-45 -66 -89.5 -90.5t-93.5 -24.5q-66 0 -104.5 42.5t-38.5 128.5
q0 72 17.5 135t52 110t86 74t119.5 27zM267 111q13 0 27.5 6.5t29 24t29.5 47t29 74.5l16 98q-21 7 -39 9t-30 2q-30 0 -51 -17.5t-34 -44.5t-19 -59.5t-6 -62.5q0 -39 13.5 -58t34.5 -19zM341 544l-54 57l171 193l81 -91z" />
    <glyph glyph-name="acircumflex" unicode="&#xe2;" horiz-adv-x="657" 
d="M315 504q30 0 61 -7.5t60 -23.5l21 29l138 -7q-18 -113 -31 -202.5t-22 -170.5q19 2 34 6.5t33 12.5l35 -85q-18 -16 -40 -29.5t-45.5 -23t-47 -15t-43.5 -5.5q-54 0 -78 20t-24 60q0 16 5 39h-5q-45 -66 -89.5 -90.5t-93.5 -24.5q-66 0 -104.5 42.5t-38.5 128.5
q0 72 17.5 135t52 110t86 74t119.5 27zM511 535l-155 102l-177 -100l-36 50l170 155h112l135 -155zM267 111q13 0 27.5 6.5t29 24t29.5 47t29 74.5l16 98q-21 7 -39 9t-30 2q-30 0 -51 -17.5t-34 -44.5t-19 -59.5t-6 -62.5q0 -39 13.5 -58t34.5 -19z" />
    <glyph glyph-name="atilde" unicode="&#xe3;" horiz-adv-x="657" 
d="M315 504q30 0 61 -7.5t60 -23.5l21 29l138 -7q-18 -113 -31 -202.5t-22 -170.5q19 2 34 6.5t33 12.5l35 -85q-18 -16 -40 -29.5t-45.5 -23t-47 -15t-43.5 -5.5q-54 0 -78 20t-24 60q0 16 5 39h-5q-45 -66 -89.5 -90.5t-93.5 -24.5q-66 0 -104.5 42.5t-38.5 128.5
q0 72 17.5 135t52 110t86 74t119.5 27zM442 571q-27 0 -53 6t-50 13.5t-45.5 13.5t-38.5 6l-57 -39l-45 38q27 59 58.5 82t65.5 23q24 0 48 -5.5t47.5 -12.5t46.5 -12.5t44 -5.5l59 40l42 -38q-47 -109 -122 -109zM267 111q13 0 27.5 6.5t29 24t29.5 47t29 74.5l16 98
q-21 7 -39 9t-30 2q-30 0 -51 -17.5t-34 -44.5t-19 -59.5t-6 -62.5q0 -39 13.5 -58t34.5 -19z" />
    <glyph glyph-name="adieresis" unicode="&#xe4;" horiz-adv-x="657" 
d="M315 504q30 0 61 -7.5t60 -23.5l21 29l138 -7q-18 -113 -31 -202.5t-22 -170.5q19 2 34 6.5t33 12.5l35 -85q-18 -16 -40 -29.5t-45.5 -23t-47 -15t-43.5 -5.5q-54 0 -78 20t-24 60q0 16 5 39h-5q-45 -66 -89.5 -90.5t-93.5 -24.5q-66 0 -104.5 42.5t-38.5 128.5
q0 72 17.5 135t52 110t86 74t119.5 27zM267 111q13 0 27.5 6.5t29 24t29.5 47t29 74.5l16 98q-21 7 -39 9t-30 2q-30 0 -51 -17.5t-34 -44.5t-19 -59.5t-6 -62.5q0 -39 13.5 -58t34.5 -19zM328 640q-2 -18 -9.5 -33.5t-20 -27t-28 -18t-31.5 -6.5q-32 0 -52.5 23t-17.5 56
q2 18 10 33.5t20 26.5t27.5 17.5t31.5 6.5q32 0 52.5 -22t17.5 -56zM536 640q-1 -18 -8.5 -33.5t-19.5 -27t-28 -18t-33 -6.5q-32 0 -51.5 23t-17.5 56q4 36 30 60t59 24t53 -22t16 -56z" />
    <glyph glyph-name="aring" unicode="&#xe5;" horiz-adv-x="657" 
d="M315 504q30 0 61 -7.5t60 -23.5l21 29l138 -7q-18 -113 -31 -202.5t-22 -170.5q19 2 34 6.5t33 12.5l35 -85q-18 -16 -40 -29.5t-45.5 -23t-47 -15t-43.5 -5.5q-54 0 -78 20t-24 60q0 16 5 39h-5q-45 -66 -89.5 -90.5t-93.5 -24.5q-66 0 -104.5 42.5t-38.5 128.5
q0 72 17.5 135t52 110t86 74t119.5 27zM354 552q-28 0 -51 10.5t-38.5 28.5t-23 42t-4.5 51t16.5 51t33.5 42.5t45.5 29t54.5 10.5q28 0 50.5 -10.5t37 -28.5t21 -42.5t3.5 -51.5q-3 -28 -16.5 -52t-33 -42t-44 -28t-51.5 -10zM267 111q13 0 27.5 6.5t29 24t29.5 47t29 74.5
l16 98q-21 7 -39 9t-30 2q-30 0 -51 -17.5t-34 -44.5t-19 -59.5t-6 -62.5q0 -39 13.5 -58t34.5 -19zM377 736q-23 0 -40.5 -16t-19.5 -39q-3 -20 9 -36.5t38 -16.5q23 0 38 16.5t17 36.5q3 23 -8 39t-34 16z" />
    <glyph glyph-name="ae" unicode="&#xe6;" horiz-adv-x="863" 
d="M661 506q35 0 66 -8.5t54.5 -26.5t37.5 -45t14 -64q0 -30 -13 -58t-46 -50.5t-90.5 -38t-146.5 -19.5q0 -5 -0.5 -11t-0.5 -12q0 -29 15.5 -45.5t64.5 -16.5q35 0 74 9t74 20l31 -100q-24 -14 -53 -23.5t-58.5 -15.5t-58.5 -9t-54 -3q-70 0 -112 19t-64 51
q-52 -39 -112.5 -57.5t-106.5 -18.5q-45 0 -72.5 11t-42.5 28t-20 38.5t-5 42.5q0 19 3.5 40.5t15.5 42t34 39t59 31.5t91 19.5t129 2.5q0 5 1 18t1 16q0 35 -19.5 49t-68.5 14q-44 0 -82 -6t-70 -14l-22 109q46 19 105 29.5t115 10.5q24 0 46 -2t40.5 -9t33.5 -21t24 -37
q34 38 80.5 54.5t108.5 16.5zM272 94q14 0 41 7t50 31q-3 22 -3 48v24q-41 0 -66.5 -5.5t-39.5 -14.5t-19 -21.5t-5 -27.5q0 -41 42 -41zM634 381q-44 0 -67.5 -30.5t-26.5 -80.5q135 3 135 71q0 18 -10.5 29t-30.5 11z" />
    <glyph glyph-name="ccedilla" unicode="&#xe7;" horiz-adv-x="517" 
d="M324 505q16 0 33.5 -1.5t33.5 -4t29.5 -6t21.5 -6.5q26 -11 37.5 -25.5t11.5 -35.5q0 -11 -3 -27.5t-8 -35.5t-11 -37.5t-13 -34.5q-3 0 -17.5 1t-31 2t-31 1.5t-16.5 0.5v15t0.5 23.5t0.5 23.5v15q-6 2 -14.5 3t-16.5 1q-26 0 -45.5 -12.5t-32.5 -34t-19.5 -51.5
t-6.5 -65q0 -49 21 -71t65 -22q50 0 120 17l29 -110q-34 -16 -82.5 -25.5t-94.5 -12.5q-17 -19 -34 -40q91 -15 91 -84q0 -18 -9.5 -40t-33.5 -41.5t-65.5 -32.5t-105.5 -14l-4 63q56 5 89.5 20t33.5 36q0 8 -5.5 13t-14.5 8t-20.5 4t-22.5 1q-5 0 -9 -0.5t-9 -0.5l-15 30
q17 20 33.5 39.5t33.5 39.5q-52 4 -86 20.5t-54.5 42.5t-28.5 60t-8 73q0 53 12.5 109.5t45 103t87.5 76t139 29.5z" />
    <glyph glyph-name="egrave" unicode="&#xe8;" horiz-adv-x="543" 
d="M340 506q35 0 66.5 -8.5t55 -26.5t37.5 -45t14 -64q0 -30 -13 -59.5t-46 -53t-90.5 -40t-146.5 -20.5q0 -5 -0.5 -9t-0.5 -9q0 -26 15.5 -43t64.5 -17q34 0 73.5 9t73.5 20l31 -100q-24 -14 -52.5 -23.5t-58 -15.5t-58.5 -9t-54 -3q-66 0 -107 16t-64.5 44t-31.5 64
t-8 77q0 58 15 114.5t50.5 101.5t93 72.5t141.5 27.5zM314 381q-42 0 -65.5 -31t-28.5 -86q132 6 132 77q0 18 -9 29t-29 11zM167 708l92 90l147 -192l-57 -57z" />
    <glyph glyph-name="eacute" unicode="&#xe9;" horiz-adv-x="543" 
d="M340 506q35 0 66.5 -8.5t55 -26.5t37.5 -45t14 -64q0 -30 -13 -59.5t-46 -53t-90.5 -40t-146.5 -20.5q0 -5 -0.5 -9t-0.5 -9q0 -26 15.5 -43t64.5 -17q34 0 73.5 9t73.5 20l31 -100q-24 -14 -52.5 -23.5t-58 -15.5t-58.5 -9t-54 -3q-66 0 -107 16t-64.5 44t-31.5 64
t-8 77q0 58 15 114.5t50.5 101.5t93 72.5t141.5 27.5zM314 381q-42 0 -65.5 -31t-28.5 -86q132 6 132 77q0 18 -9 29t-29 11zM312 544l-54 57l171 193l81 -91z" />
    <glyph glyph-name="ecircumflex" unicode="&#xea;" horiz-adv-x="543" 
d="M340 506q35 0 66.5 -8.5t55 -26.5t37.5 -45t14 -64q0 -30 -13 -59.5t-46 -53t-90.5 -40t-146.5 -20.5q0 -5 -0.5 -9t-0.5 -9q0 -26 15.5 -43t64.5 -17q34 0 73.5 9t73.5 20l31 -100q-24 -14 -52.5 -23.5t-58 -15.5t-58.5 -9t-54 -3q-66 0 -107 16t-64.5 44t-31.5 64
t-8 77q0 58 15 114.5t50.5 101.5t93 72.5t141.5 27.5zM314 381q-42 0 -65.5 -31t-28.5 -86q132 6 132 77q0 18 -9 29t-29 11zM479 535l-155 102l-177 -100l-36 50l170 155h112l135 -155z" />
    <glyph glyph-name="edieresis" unicode="&#xeb;" horiz-adv-x="543" 
d="M340 506q35 0 66.5 -8.5t55 -26.5t37.5 -45t14 -64q0 -30 -13 -59.5t-46 -53t-90.5 -40t-146.5 -20.5q0 -5 -0.5 -9t-0.5 -9q0 -26 15.5 -43t64.5 -17q34 0 73.5 9t73.5 20l31 -100q-24 -14 -52.5 -23.5t-58 -15.5t-58.5 -9t-54 -3q-66 0 -107 16t-64.5 44t-31.5 64
t-8 77q0 58 15 114.5t50.5 101.5t93 72.5t141.5 27.5zM314 381q-42 0 -65.5 -31t-28.5 -86q132 6 132 77q0 18 -9 29t-29 11zM517 640q-1 -18 -8.5 -33.5t-19.5 -27t-28 -18t-33 -6.5q-32 0 -51.5 23t-17.5 56q4 36 30 60t59 24t53 -22t16 -56zM309 640q-2 -18 -9.5 -33.5
t-20 -27t-28 -18t-31.5 -6.5q-32 0 -52.5 23t-17.5 56q2 18 10 33.5t20 26.5t27.5 17.5t31.5 6.5q32 0 52.5 -22t17.5 -56z" />
    <glyph glyph-name="igrave" unicode="&#xec;" horiz-adv-x="405" 
d="M230 505q52 0 69 -18t17 -50q0 -9 -2 -30t-5.5 -49t-8 -61t-9 -65t-8.5 -61t-6 -49q18 1 37 5.5t35 11.5l34 -84q-20 -18 -45 -31.5t-50.5 -23t-49.5 -14t-42 -4.5q-61 0 -83 25.5t-22 67.5q0 7 0.5 13.5t1.5 13.5l36 273l-80 13l5 86q60 17 103 24t73 7zM57 708l92 90
l147 -192l-57 -57z" />
    <glyph glyph-name="iacute" unicode="&#xed;" horiz-adv-x="412" 
d="M230 505q52 0 69 -18t17 -50q0 -9 -2 -30t-5.5 -49t-8 -61t-9 -65t-8.5 -61t-6 -49q18 1 37 5.5t35 11.5l34 -84q-20 -18 -45 -31.5t-50.5 -23t-49.5 -14t-42 -4.5q-61 0 -83 25.5t-22 67.5q0 7 0.5 13.5t1.5 13.5l36 273l-80 13l5 86q60 17 103 24t73 7zM224 544l-54 57
l171 193l81 -91z" />
    <glyph glyph-name="icircumflex" unicode="&#xee;" horiz-adv-x="415" 
d="M230 505q52 0 69 -18t17 -50q0 -9 -2 -30t-5.5 -49t-8 -61t-9 -65t-8.5 -61t-6 -49q18 1 37 5.5t35 11.5l34 -84q-20 -18 -45 -31.5t-50.5 -23t-49.5 -14t-42 -4.5q-61 0 -83 25.5t-22 67.5q0 7 0.5 13.5t1.5 13.5l36 273l-80 13l5 86q60 17 103 24t73 7zM376 535
l-155 102l-177 -100l-36 50l170 155h112l135 -155z" />
    <glyph glyph-name="idieresis" unicode="&#xef;" horiz-adv-x="405" 
d="M230 505q52 0 69 -18t17 -50q0 -9 -2 -30t-5.5 -49t-8 -61t-9 -65t-8.5 -61t-6 -49q18 1 37 5.5t35 11.5l34 -84q-20 -18 -45 -31.5t-50.5 -23t-49.5 -14t-42 -4.5q-61 0 -83 25.5t-22 67.5q0 7 0.5 13.5t1.5 13.5l36 273l-80 13l5 86q60 17 103 24t73 7zM401 640
q-1 -18 -8.5 -33.5t-19.5 -27t-28 -18t-33 -6.5q-32 0 -51.5 23t-17.5 56q4 36 30 60t59 24t53 -22t16 -56zM193 640q-2 -18 -9.5 -33.5t-20 -27t-28 -18t-31.5 -6.5q-32 0 -52.5 23t-17.5 56q2 18 10 33.5t20 26.5t27.5 17.5t31.5 6.5q32 0 52.5 -22t17.5 -56z" />
    <glyph glyph-name="eth" unicode="&#xf0;" horiz-adv-x="613" 
d="M547 700l-75 -48q59 -56 86.5 -129t27.5 -164q0 -31 -3.5 -70.5t-15 -80.5t-32.5 -80t-55.5 -69.5t-85 -49t-119.5 -18.5q-63 0 -107.5 16t-73 43.5t-41.5 64t-13 78.5q0 66 21 117.5t56.5 87t83.5 54t102 18.5q22 0 51.5 -4.5t49.5 -16.5q-9 73 -53 127q-23 -14 -45 -28
t-45 -28q-8 11 -14.5 22t-13.5 22l80 51q-31 26 -71 50l53 92q79 -31 133 -69q23 14 45 28l44 28zM324 350q-29 0 -48 -15t-30.5 -37.5t-16 -49.5t-4.5 -52q0 -16 3 -31t10.5 -26t20.5 -18t33 -7q34 0 54.5 22t32 54t16 68.5t6.5 65.5q-40 26 -77 26z" />
    <glyph glyph-name="ntilde" unicode="&#xf1;" horiz-adv-x="697" 
d="M500 505q56 0 85 -33.5t29 -93.5q0 -11 -3 -38t-7 -62t-9.5 -76t-9.5 -80q18 1 33 5.5t32 11.5q1 -1 6 -14t11 -28t11 -28t6 -14q-23 -19 -48.5 -32.5t-51 -22.5t-49 -13t-40.5 -4q-30 0 -48 5.5t-28.5 17t-14 28t-3.5 37.5q0 4 0.5 14.5t1.5 18.5q4 34 8.5 69t8.5 65.5
t6.5 53t2.5 32.5q0 17 -8 30.5t-29 13.5q-30 0 -60 -37t-51 -109l-29 -222h-178q6 49 10.5 84t7.5 62t6 49.5t5.5 47.5t6 55.5t8.5 74.5l-81 14l6 86q60 19 99 25t71 6q27 0 43.5 -5t25 -14t11.5 -22t3 -29q0 -24 -6 -60h5q25 40 53.5 65.5t56.5 40t52.5 20t42.5 5.5z
M437 573q-27 0 -53 6t-50 13.5t-45.5 13.5t-38.5 6l-57 -39l-45 38q27 59 58.5 82t65.5 23q24 0 48 -5.5t47.5 -12.5t46.5 -12.5t44 -5.5l59 40l42 -38q-47 -109 -122 -109z" />
    <glyph glyph-name="ograve" unicode="&#xf2;" horiz-adv-x="605" 
d="M335 504q62 0 107.5 -16.5t75 -45.5t43.5 -70t14 -89q0 -60 -18.5 -113t-55 -93t-92.5 -63.5t-131 -23.5q-62 0 -107 16t-74 45t-43 68.5t-14 87.5q0 61 18.5 115t55 94.5t92 64t129.5 23.5zM324 375q-29 0 -48 -17t-30.5 -43t-16 -57t-4.5 -59q0 -36 14 -60t52 -24
q27 0 45.5 15t30 39.5t16.5 55.5t5 63q0 38 -13.5 62.5t-50.5 24.5zM184 708l92 90l147 -192l-57 -57z" />
    <glyph glyph-name="oacute" unicode="&#xf3;" horiz-adv-x="605" 
d="M335 504q62 0 107.5 -16.5t75 -45.5t43.5 -70t14 -89q0 -60 -18.5 -113t-55 -93t-92.5 -63.5t-131 -23.5q-62 0 -107 16t-74 45t-43 68.5t-14 87.5q0 61 18.5 115t55 94.5t92 64t129.5 23.5zM324 375q-29 0 -48 -17t-30.5 -43t-16 -57t-4.5 -59q0 -36 14 -60t52 -24
q27 0 45.5 15t30 39.5t16.5 55.5t5 63q0 38 -13.5 62.5t-50.5 24.5zM321 544l-54 57l171 193l81 -91z" />
    <glyph glyph-name="ocircumflex" unicode="&#xf4;" horiz-adv-x="605" 
d="M335 504q62 0 107.5 -16.5t75 -45.5t43.5 -70t14 -89q0 -60 -18.5 -113t-55 -93t-92.5 -63.5t-131 -23.5q-62 0 -107 16t-74 45t-43 68.5t-14 87.5q0 61 18.5 115t55 94.5t92 64t129.5 23.5zM324 375q-29 0 -48 -17t-30.5 -43t-16 -57t-4.5 -59q0 -36 14 -60t52 -24
q27 0 45.5 15t30 39.5t16.5 55.5t5 63q0 38 -13.5 62.5t-50.5 24.5zM508 535l-155 102l-177 -100l-36 50l170 155h112l135 -155z" />
    <glyph glyph-name="otilde" unicode="&#xf5;" horiz-adv-x="605" 
d="M335 504q62 0 107.5 -16.5t75 -45.5t43.5 -70t14 -89q0 -60 -18.5 -113t-55 -93t-92.5 -63.5t-131 -23.5q-62 0 -107 16t-74 45t-43 68.5t-14 87.5q0 61 18.5 115t55 94.5t92 64t129.5 23.5zM324 375q-29 0 -48 -17t-30.5 -43t-16 -57t-4.5 -59q0 -36 14 -60t52 -24
q27 0 45.5 15t30 39.5t16.5 55.5t5 63q0 38 -13.5 62.5t-50.5 24.5zM440 562q-27 0 -53 6t-50 13.5t-45.5 13.5t-38.5 6l-57 -39l-45 38q27 59 58.5 82t65.5 23q24 0 48 -5.5t47.5 -12.5t46.5 -12.5t44 -5.5l59 40l42 -38q-47 -109 -122 -109z" />
    <glyph glyph-name="odieresis" unicode="&#xf6;" horiz-adv-x="605" 
d="M335 504q62 0 107.5 -16.5t75 -45.5t43.5 -70t14 -89q0 -60 -18.5 -113t-55 -93t-92.5 -63.5t-131 -23.5q-62 0 -107 16t-74 45t-43 68.5t-14 87.5q0 61 18.5 115t55 94.5t92 64t129.5 23.5zM324 375q-29 0 -48 -17t-30.5 -43t-16 -57t-4.5 -59q0 -36 14 -60t52 -24
q27 0 45.5 15t30 39.5t16.5 55.5t5 63q0 38 -13.5 62.5t-50.5 24.5zM539 640q-1 -18 -8.5 -33.5t-19.5 -27t-28 -18t-33 -6.5q-32 0 -51.5 23t-17.5 56q4 36 30 60t59 24t53 -22t16 -56zM331 640q-2 -18 -9.5 -33.5t-20 -27t-28 -18t-31.5 -6.5q-32 0 -52.5 23t-17.5 56
q2 18 10 33.5t20 26.5t27.5 17.5t31.5 6.5q32 0 52.5 -22t17.5 -56z" />
    <glyph glyph-name="divide" unicode="&#xf7;" horiz-adv-x="611" 
d="M415 491q-2 -17 -9.5 -31.5t-19 -25.5t-26 -17.5t-30.5 -6.5q-32 0 -51 23t-16 55q1 16 9 30.5t20 25t26.5 17t30.5 6.5q31 0 50.5 -22t15.5 -54zM97 254l12 104h428l-12 -104h-428zM371 126q-4 -33 -28.5 -57t-56.5 -24t-51.5 23t-16.5 55q4 33 29 56t57 23t51 -22
t16 -54z" />
    <glyph glyph-name="oslash" unicode="&#xf8;" horiz-adv-x="610" 
d="M334 503q53 0 93 -12t69 -34l46 46h60l-75 -73q24 -29 35.5 -68t11.5 -85q0 -60 -19 -112t-56.5 -90.5t-93 -61t-128.5 -22.5q-53 0 -93 11t-69 32l-43 -41h-58l71 68q-45 56 -45 136q0 64 17 120t53 97.5t91.5 65t132.5 23.5zM290 114q27 0 45.5 15.5t30 39.5t16 52.5
t4.5 54.5v11t-2 11l-149 -154q8 -14 21 -22t34 -8zM324 375q-27 0 -46 -16t-31 -40.5t-17 -53t-5 -53.5q0 -5 0.5 -10.5t1.5 -10.5q38 38 74.5 77t73.5 78q-7 14 -19 21.5t-32 7.5z" />
    <glyph glyph-name="ugrave" unicode="&#xf9;" horiz-adv-x="690" 
d="M225 504q46 0 64 -20t18 -57q0 -12 -4.5 -47t-10 -76t-10 -78.5t-4.5 -53.5q0 -18 7.5 -31t28.5 -13q13 0 27 8t28 25.5t27 45.5t24 68l29 217h173l-49 -371q19 1 35.5 6t33.5 11l34 -83q-21 -18 -45 -31.5t-48 -22.5t-47 -13t-41 -4q-53 0 -72.5 22.5t-19.5 60.5
q0 9 0.5 18t0.5 17h-5q-24 -35 -48.5 -57t-49.5 -34.5t-48.5 -17.5t-45.5 -5q-55 0 -86.5 25.5t-31.5 80.5q1 9 0.5 19.5t1.5 22.5q0 6 2.5 23.5t5.5 41.5t6.5 51.5t7 52t6 43.5t3.5 27l-83 13l8 85q59 17 102.5 24t75.5 7zM211 708l92 90l147 -192l-57 -57z" />
    <glyph glyph-name="uacute" unicode="&#xfa;" horiz-adv-x="690" 
d="M225 504q46 0 64 -20t18 -57q0 -12 -4.5 -47t-10 -76t-10 -78.5t-4.5 -53.5q0 -18 7.5 -31t28.5 -13q13 0 27 8t28 25.5t27 45.5t24 68l29 217h173l-49 -371q19 1 35.5 6t33.5 11l34 -83q-21 -18 -45 -31.5t-48 -22.5t-47 -13t-41 -4q-53 0 -72.5 22.5t-19.5 60.5
q0 9 0.5 18t0.5 17h-5q-24 -35 -48.5 -57t-49.5 -34.5t-48.5 -17.5t-45.5 -5q-55 0 -86.5 25.5t-31.5 80.5q1 9 0.5 19.5t1.5 22.5q0 6 2.5 23.5t5.5 41.5t6.5 51.5t7 52t6 43.5t3.5 27l-83 13l8 85q59 17 102.5 24t75.5 7zM365 544l-54 57l171 193l81 -91z" />
    <glyph glyph-name="ucircumflex" unicode="&#xfb;" horiz-adv-x="690" 
d="M225 504q46 0 64 -20t18 -57q0 -12 -4.5 -47t-10 -76t-10 -78.5t-4.5 -53.5q0 -18 7.5 -31t28.5 -13q13 0 27 8t28 25.5t27 45.5t24 68l29 217h173l-49 -371q19 1 35.5 6t33.5 11l34 -83q-21 -18 -45 -31.5t-48 -22.5t-47 -13t-41 -4q-53 0 -72.5 22.5t-19.5 60.5
q0 9 0.5 18t0.5 17h-5q-24 -35 -48.5 -57t-49.5 -34.5t-48.5 -17.5t-45.5 -5q-55 0 -86.5 25.5t-31.5 80.5q1 9 0.5 19.5t1.5 22.5q0 6 2.5 23.5t5.5 41.5t6.5 51.5t7 52t6 43.5t3.5 27l-83 13l8 85q59 17 102.5 24t75.5 7zM542 535l-155 102l-177 -100l-36 50l170 155h112
l135 -155z" />
    <glyph glyph-name="udieresis" unicode="&#xfc;" horiz-adv-x="690" 
d="M225 504q46 0 64 -20t18 -57q0 -12 -4.5 -47t-10 -76t-10 -78.5t-4.5 -53.5q0 -18 7.5 -31t28.5 -13q13 0 27 8t28 25.5t27 45.5t24 68l29 217h173l-49 -371q19 1 35.5 6t33.5 11l34 -83q-21 -18 -45 -31.5t-48 -22.5t-47 -13t-41 -4q-53 0 -72.5 22.5t-19.5 60.5
q0 9 0.5 18t0.5 17h-5q-24 -35 -48.5 -57t-49.5 -34.5t-48.5 -17.5t-45.5 -5q-55 0 -86.5 25.5t-31.5 80.5q1 9 0.5 19.5t1.5 22.5q0 6 2.5 23.5t5.5 41.5t6.5 51.5t7 52t6 43.5t3.5 27l-83 13l8 85q59 17 102.5 24t75.5 7zM362 640q-2 -18 -9.5 -33.5t-20 -27t-28 -18
t-31.5 -6.5q-32 0 -52.5 23t-17.5 56q2 18 10 33.5t20 26.5t27.5 17.5t31.5 6.5q32 0 52.5 -22t17.5 -56zM570 640q-1 -18 -8.5 -33.5t-19.5 -27t-28 -18t-33 -6.5q-32 0 -51.5 23t-17.5 56q4 36 30 60t59 24t53 -22t16 -56z" />
    <glyph glyph-name="yacute" unicode="&#xfd;" horiz-adv-x="626" 
d="M513 507q39 0 61.5 -25.5t22.5 -86.5q0 -66 -23 -137.5t-63.5 -141t-95.5 -132.5t-119 -110.5t-134.5 -75.5t-140.5 -28q-17 0 -39.5 4t-42.5 15t-34 30.5t-14 51.5v10t1 10l66 39q26 -25 49.5 -32.5t49.5 -7.5q40 0 85.5 16t83.5 51q-12 48 -25.5 103t-28 109.5t-28 104
t-25.5 86.5l-72 -14l-25 79q48 40 94 58t78 18q29 0 46.5 -10t25.5 -38q7 -29 17.5 -74.5t22 -95.5t21.5 -99.5t18 -86.5q19 27 34 62.5t25 73t15.5 74t5.5 66.5l-30 -4l-30 -4l-17 80q43 30 83 46t82 16zM333 544l-54 57l171 193l81 -91z" />
    <glyph glyph-name="thorn" unicode="&#xfe;" horiz-adv-x="630" 
d="M39 -93q5 41 11.5 98t14.5 121.5t16 133t15.5 132t13.5 117.5l10 90l-81 15l6 85q43 16 89.5 24.5t84.5 8.5q45 0 61.5 -20t16.5 -55q0 -7 -2 -28t-5 -50t-7 -61.5t-7.5 -61.5t-6 -51.5t-3.5 -30.5h5q46 69 93.5 98t95.5 29q62 0 99 -43.5t37 -135.5q0 -70 -17 -131
t-51 -106.5t-84 -71.5t-117 -26q-23 0 -47 4t-49 12l-12 -96h73l-14 -118h-310l15 118h56zM371 365q-13 0 -28 -6.5t-30 -23.5t-29.5 -46.5t-27.5 -75.5l-12 -86q20 -7 38 -9t29 -2q31 0 51.5 16t33.5 40.5t18.5 54t5.5 56.5q0 42 -13.5 62t-35.5 20z" />
    <glyph glyph-name="ydieresis" unicode="&#xff;" horiz-adv-x="626" 
d="M513 507q39 0 61.5 -25.5t22.5 -86.5q0 -66 -23 -137.5t-63.5 -141t-95.5 -132.5t-119 -110.5t-134.5 -75.5t-140.5 -28q-17 0 -39.5 4t-42.5 15t-34 30.5t-14 51.5v10t1 10l66 39q26 -25 49.5 -32.5t49.5 -7.5q40 0 85.5 16t83.5 51q-12 48 -25.5 103t-28 109.5t-28 104
t-25.5 86.5l-72 -14l-25 79q48 40 94 58t78 18q29 0 46.5 -10t25.5 -38q7 -29 17.5 -74.5t22 -95.5t21.5 -99.5t18 -86.5q19 27 34 62.5t25 73t15.5 74t5.5 66.5l-30 -4l-30 -4l-17 80q43 30 83 46t82 16zM332 640q-2 -18 -9.5 -33.5t-20 -27t-28 -18t-31.5 -6.5
q-32 0 -52.5 23t-17.5 56q2 18 10 33.5t20 26.5t27.5 17.5t31.5 6.5q32 0 52.5 -22t17.5 -56zM540 640q-1 -18 -8.5 -33.5t-19.5 -27t-28 -18t-33 -6.5q-32 0 -51.5 23t-17.5 56q4 36 30 60t59 24t53 -22t16 -56z" />
    <glyph glyph-name="Amacron" unicode="&#x100;" horiz-adv-x="770" 
d="M492 192h-219l-31 -70h58l-14 -122h-292l14 122h54l274 569h230l122 -569h53l-15 -122h-291l14 122h57zM378 427l-53 -119h147l-21 115l-19 120h-4zM292 862h368l-14 -113h-368z" />
    <glyph glyph-name="amacron" unicode="&#x101;" horiz-adv-x="657" 
d="M315 504q30 0 61 -7.5t60 -23.5l21 29l138 -7q-18 -113 -31 -202.5t-22 -170.5q19 2 34 6.5t33 12.5l35 -85q-18 -16 -40 -29.5t-45.5 -23t-47 -15t-43.5 -5.5q-54 0 -78 20t-24 60q0 16 5 39h-5q-45 -66 -89.5 -90.5t-93.5 -24.5q-66 0 -104.5 42.5t-38.5 128.5
q0 72 17.5 135t52 110t86 74t119.5 27zM187 675h366l-15 -114h-365zM267 111q13 0 27.5 6.5t29 24t29.5 47t29 74.5l16 98q-21 7 -39 9t-30 2q-30 0 -51 -17.5t-34 -44.5t-19 -59.5t-6 -62.5q0 -39 13.5 -58t34.5 -19z" />
    <glyph glyph-name="Abreve" unicode="&#x102;" horiz-adv-x="770" 
d="M492 192h-219l-31 -70h58l-14 -122h-292l14 122h54l274 569h230l122 -569h53l-15 -122h-291l14 122h57zM378 427l-53 -119h147l-21 115l-19 120h-4zM452 741q-31 0 -57 11t-48.5 30.5t-40.5 45.5t-32 56l72 55q29 -48 63 -70t60 -22q9 0 21.5 1t32 9t46.5 25.5t64 49.5
l41 -48q-29 -41 -59 -68.5t-58.5 -44t-55 -23.5t-49.5 -7z" />
    <glyph glyph-name="abreve" unicode="&#x103;" horiz-adv-x="657" 
d="M315 504q30 0 61 -7.5t60 -23.5l21 29l138 -7q-18 -113 -31 -202.5t-22 -170.5q19 2 34 6.5t33 12.5l35 -85q-18 -16 -40 -29.5t-45.5 -23t-47 -15t-43.5 -5.5q-54 0 -78 20t-24 60q0 16 5 39h-5q-45 -66 -89.5 -90.5t-93.5 -24.5q-66 0 -104.5 42.5t-38.5 128.5
q0 72 17.5 135t52 110t86 74t119.5 27zM337 549q-31 0 -57 11t-48 30.5t-40 45.5t-32 56l72 55q28 -48 62 -69.5t60 -21.5q9 0 21.5 1t32 8.5t46.5 25t64 49.5l41 -48q-29 -41 -58.5 -68.5t-58 -44t-55.5 -23.5t-50 -7zM267 111q13 0 27.5 6.5t29 24t29.5 47t29 74.5l16 98
q-21 7 -39 9t-30 2q-30 0 -51 -17.5t-34 -44.5t-19 -59.5t-6 -62.5q0 -39 13.5 -58t34.5 -19z" />
    <glyph glyph-name="Aogonek" unicode="&#x104;" horiz-adv-x="770" 
d="M492 192h-219l-31 -70h58l-14 -122h-292l14 122h54l274 569h230l122 -569h53l-15 -122h-111q-26 -31 -46.5 -66t-20.5 -61t11.5 -37t35.5 -11q17 0 35.5 2.5t36.5 7.5q3 -14 5 -27l4 -26q-32 -17 -65.5 -25.5t-64.5 -8.5q-50 0 -75 20t-25 55q0 14 4.5 33.5t16.5 43
t33 49t54 51.5h-119l14 122h57zM378 427l-53 -119h147l-21 115l-19 120h-4z" />
    <glyph glyph-name="aogonek" unicode="&#x105;" horiz-adv-x="657" 
d="M315 504q30 0 61 -7.5t60 -23.5l21 29l138 -7q-18 -113 -31 -202.5t-22 -170.5q19 2 34 6.5t33 12.5l35 -85q-29 -26 -69.5 -45t-77.5 -25q-20 -27 -34.5 -55t-14.5 -49q0 -26 11.5 -37t35.5 -11q17 0 35.5 2.5t36.5 7.5q3 -14 5 -27l4 -26q-32 -17 -65.5 -25.5
t-64.5 -8.5q-50 0 -75 20t-25 55q0 12 3.5 29t12.5 37.5t25 43t41 45.5q-62 13 -62 76q0 16 5 39h-5q-45 -66 -89.5 -90.5t-93.5 -24.5q-66 0 -104.5 42.5t-38.5 128.5q0 72 17.5 135t52 110t86 74t119.5 27zM267 111q13 0 27.5 6.5t29 24t29.5 47t29 74.5l16 98
q-21 7 -39 9t-30 2q-30 0 -51 -17.5t-34 -44.5t-19 -59.5t-6 -62.5q0 -39 13.5 -58t34.5 -19z" />
    <glyph glyph-name="Cacute" unicode="&#x106;" horiz-adv-x="648" 
d="M454 706q52 0 99.5 -7.5t88.5 -20.5l-27 -222h-129l11 97q-12 3 -25 5t-27 2q-49 0 -83.5 -19t-56.5 -53.5t-32.5 -82.5t-10.5 -105q0 -46 10.5 -76t31 -47t51.5 -24t72 -7q11 0 29 1.5t39 4t42.5 6t39.5 7.5l22 -137q-25 -9 -54.5 -16.5t-61 -12.5t-62.5 -7.5t-58 -2.5
q-89 0 -147 22.5t-92 62t-47.5 92.5t-13.5 113q0 76 16 152t59.5 137t119.5 99.5t196 38.5zM402 739l-43 65l196 162l69 -101z" />
    <glyph glyph-name="cacute" unicode="&#x107;" horiz-adv-x="517" 
d="M324 505q16 0 33.5 -1.5t33.5 -4t29.5 -6t21.5 -6.5q26 -11 37.5 -25.5t11.5 -35.5q0 -11 -3 -27.5t-8 -35.5t-11 -37.5t-13 -34.5q-3 0 -17.5 1t-31 2t-31 1.5t-16.5 0.5v15t0.5 23.5t0.5 23.5v15q-6 2 -14.5 3t-16.5 1q-26 0 -45.5 -12.5t-32.5 -34t-19.5 -51.5
t-6.5 -65q0 -49 21 -71t65 -22q50 0 120 17l29 -110q-20 -9 -45.5 -16t-53 -12.5t-55.5 -8t-53 -2.5q-63 0 -104.5 15t-66 42t-34 63t-9.5 78q0 53 12.5 109.5t45 103t87.5 76t139 29.5zM291 544l-54 57l171 193l81 -91z" />
    <glyph glyph-name="Ccircumflex" unicode="&#x108;" horiz-adv-x="648" 
d="M454 706q52 0 99.5 -7.5t88.5 -20.5l-27 -222h-129l11 97q-12 3 -25 5t-27 2q-49 0 -83.5 -19t-56.5 -53.5t-32.5 -82.5t-10.5 -105q0 -46 10.5 -76t31 -47t51.5 -24t72 -7q11 0 29 1.5t39 4t42.5 6t39.5 7.5l22 -137q-25 -9 -54.5 -16.5t-61 -12.5t-62.5 -7.5t-58 -2.5
q-89 0 -147 22.5t-92 62t-47.5 92.5t-13.5 113q0 76 16 152t59.5 137t119.5 99.5t196 38.5zM581 735l-155 101l-178 -100l-36 50l171 156h111l136 -155z" />
    <glyph glyph-name="ccircumflex" unicode="&#x109;" horiz-adv-x="517" 
d="M324 505q16 0 33.5 -1.5t33.5 -4t29.5 -6t21.5 -6.5q26 -11 37.5 -25.5t11.5 -35.5q0 -11 -3 -27.5t-8 -35.5t-11 -37.5t-13 -34.5q-3 0 -17.5 1t-31 2t-31 1.5t-16.5 0.5v15t0.5 23.5t0.5 23.5v15q-6 2 -14.5 3t-16.5 1q-26 0 -45.5 -12.5t-32.5 -34t-19.5 -51.5
t-6.5 -65q0 -49 21 -71t65 -22q50 0 120 17l29 -110q-20 -9 -45.5 -16t-53 -12.5t-55.5 -8t-53 -2.5q-63 0 -104.5 15t-66 42t-34 63t-9.5 78q0 53 12.5 109.5t45 103t87.5 76t139 29.5zM480 535l-155 102l-177 -100l-36 50l170 155h112l135 -155z" />
    <glyph glyph-name="Cdotaccent" unicode="&#x10a;" horiz-adv-x="648" 
d="M454 706q52 0 99.5 -7.5t88.5 -20.5l-27 -222h-129l11 97q-12 3 -25 5t-27 2q-49 0 -83.5 -19t-56.5 -53.5t-32.5 -82.5t-10.5 -105q0 -46 10.5 -76t31 -47t51.5 -24t72 -7q11 0 29 1.5t39 4t42.5 6t39.5 7.5l22 -137q-25 -9 -54.5 -16.5t-61 -12.5t-62.5 -7.5t-58 -2.5
q-89 0 -147 22.5t-92 62t-47.5 92.5t-13.5 113q0 76 16 152t59.5 137t119.5 99.5t196 38.5zM532 856q-2 -20 -11.5 -37.5t-23.5 -30.5t-31.5 -20.5t-36.5 -7.5q-38 0 -61 27t-18 66q2 20 11 37.5t23 30.5t31.5 20.5t36.5 7.5t34.5 -7.5t26 -20t16 -29.5t3.5 -36z" />
    <glyph glyph-name="cdotaccent" unicode="&#x10b;" horiz-adv-x="517" 
d="M324 505q16 0 33.5 -1.5t33.5 -4t29.5 -6t21.5 -6.5q26 -11 37.5 -25.5t11.5 -35.5q0 -11 -3 -27.5t-8 -35.5t-11 -37.5t-13 -34.5q-3 0 -17.5 1t-31 2t-31 1.5t-16.5 0.5v15t0.5 23.5t0.5 23.5v15q-6 2 -14.5 3t-16.5 1q-26 0 -45.5 -12.5t-32.5 -34t-19.5 -51.5
t-6.5 -65q0 -49 21 -71t65 -22q50 0 120 17l29 -110q-20 -9 -45.5 -16t-53 -12.5t-55.5 -8t-53 -2.5q-63 0 -104.5 15t-66 42t-34 63t-9.5 78q0 53 12.5 109.5t45 103t87.5 76t139 29.5zM419 656q-2 -19 -10 -36t-20.5 -29.5t-28.5 -20t-33 -7.5q-35 0 -55 26t-16 64
q2 19 10 36t20.5 29.5t28.5 20t33 7.5q33 0 54 -26.5t17 -63.5z" />
    <glyph glyph-name="Ccaron" unicode="&#x10c;" horiz-adv-x="648" 
d="M454 706q52 0 99.5 -7.5t88.5 -20.5l-27 -222h-129l11 97q-12 3 -25 5t-27 2q-49 0 -83.5 -19t-56.5 -53.5t-32.5 -82.5t-10.5 -105q0 -46 10.5 -76t31 -47t51.5 -24t72 -7q11 0 29 1.5t39 4t42.5 6t39.5 7.5l22 -137q-25 -9 -54.5 -16.5t-61 -12.5t-62.5 -7.5t-58 -2.5
q-89 0 -147 22.5t-92 62t-47.5 92.5t-13.5 113q0 76 16 152t59.5 137t119.5 99.5t196 38.5zM666 895l-174 -152h-111l-132 153l47 49l153 -97l181 99z" />
    <glyph glyph-name="ccaron" unicode="&#x10d;" horiz-adv-x="517" 
d="M324 505q16 0 33.5 -1.5t33.5 -4t29.5 -6t21.5 -6.5q26 -11 37.5 -25.5t11.5 -35.5q0 -11 -3 -27.5t-8 -35.5t-11 -37.5t-13 -34.5q-3 0 -17.5 1t-31 2t-31 1.5t-16.5 0.5v15t0.5 23.5t0.5 23.5v15q-6 2 -14.5 3t-16.5 1q-26 0 -45.5 -12.5t-32.5 -34t-19.5 -51.5
t-6.5 -65q0 -49 21 -71t65 -22q50 0 120 17l29 -110q-20 -9 -45.5 -16t-53 -12.5t-55.5 -8t-53 -2.5q-63 0 -104.5 15t-66 42t-34 63t-9.5 78q0 53 12.5 109.5t45 103t87.5 76t139 29.5zM557 705l-174 -155h-111l-132 156l46 50l153 -100l181 101z" />
    <glyph glyph-name="Dcaron" unicode="&#x10e;" horiz-adv-x="760" 
d="M18 0l14 122h73l55 447h-69l16 122h336q84 0 139.5 -22.5t88.5 -62t46.5 -92.5t13.5 -114q0 -80 -20 -152t-63.5 -127.5t-112.5 -88t-168 -32.5h-349zM348 569l-55 -447h62q34 0 66 16t56.5 49.5t39.5 85.5t15 125q0 91 -35 131t-91 40h-58zM624 895l-174 -152h-111
l-132 153l47 49l153 -97l181 99z" />
    <glyph glyph-name="dcaron" unicode="&#x10f;" horiz-adv-x="839" 
d="M318 503q23 0 47.5 -5t47.5 -13q2 17 3.5 30t3 25.5t3.5 27t4 33.5l-96 15l6 86q60 17 106 24t78 7q28 0 46 -6t28 -16.5t13.5 -25.5t3.5 -34q0 -10 -3.5 -39t-9.5 -71.5t-13.5 -95t-15 -108t-15.5 -111t-14 -104.5q19 2 36.5 7t34.5 12l34 -84q-20 -17 -43 -31
t-47.5 -23.5t-48 -14.5t-44.5 -5q-47 0 -68 19t-24 54q-1 11 -0.5 22t2.5 24h-5q-24 -35 -46.5 -57.5t-45 -35t-46 -17.5t-47.5 -5q-66 0 -104.5 42.5t-38.5 128.5q0 72 18 135t53 109.5t87 73.5t120 27zM266 111q13 0 27.5 6.5t29.5 24t30.5 47t29.5 74.5l15 98
q-20 7 -38.5 9t-29.5 2q-32 0 -53 -17.5t-34.5 -44.5t-19 -59.5t-5.5 -62.5q0 -40 13 -58.5t35 -18.5zM767 751q39 0 56 -23t17 -53t-13 -59t-35 -55.5t-49.5 -47.5t-55.5 -34l-35 51q26 18 43.5 35.5t24.5 44.5q-46 12 -46 59q0 33 25.5 57.5t67.5 24.5z" />
    <glyph glyph-name="Dcroat" unicode="&#x110;" horiz-adv-x="760" 
d="M18 0l14 122h73l23 191h-68l11 78h66l23 178h-69l16 122h336q84 0 139.5 -22.5t88.5 -62t46.5 -92.5t13.5 -114q0 -80 -20 -152t-63.5 -127.5t-112.5 -88t-168 -32.5h-349zM348 569l-22 -178h92l-10 -78h-92l-23 -191h62q34 0 66 16t56.5 49.5t39.5 85.5t15 125
q0 91 -35 131t-91 40h-58z" />
    <glyph glyph-name="dcroat" unicode="&#x111;" horiz-adv-x="652" 
d="M520 732q55 0 73 -20t18 -56q0 -11 -2.5 -37t-7.5 -61h62l-7 -55h-63q-7 -50 -14.5 -103.5t-14.5 -105t-13 -96.5t-10 -77q18 1 35.5 6.5t34.5 12.5l34 -84q-21 -18 -45 -31.5t-48.5 -22.5t-47.5 -13.5t-41 -4.5q-54 0 -75 21t-21 58q0 9 1 18.5t3 20.5h-4
q-24 -35 -46.5 -57t-45 -35t-46 -17.5t-47.5 -4.5q-66 0 -104 42t-38 128q0 70 18.5 126.5t54.5 96t88.5 60.5t120.5 21q20 -1 43 -4.5t43 -11.5l7 57h-143l7 55h143l6 43l-98 14l7 86q59 17 105 24t78 7zM265 110q12 0 26.5 6t30 22t31 44t29.5 71l12 79q-20 7 -38.5 9
t-29.5 2q-32 0 -52.5 -14.5t-33.5 -37.5t-18 -50.5t-5 -54.5q0 -38 13 -57t35 -19z" />
    <glyph glyph-name="Emacron" unicode="&#x112;" horiz-adv-x="692" 
d="M18 0l14 122h70l54 447h-68l15 121h598l-29 -235h-128l14 114h-214l-20 -158l182 4l-13 -120l-183 3l-21 -176h231l15 122h129l-29 -244h-617zM270 862h368l-14 -113h-368z" />
    <glyph glyph-name="emacron" unicode="&#x113;" horiz-adv-x="543" 
d="M340 506q35 0 66.5 -8.5t55 -26.5t37.5 -45t14 -64q0 -30 -13 -59.5t-46 -53t-90.5 -40t-146.5 -20.5q0 -5 -0.5 -9t-0.5 -9q0 -26 15.5 -43t64.5 -17q34 0 73.5 9t73.5 20l31 -100q-24 -14 -52.5 -23.5t-58 -15.5t-58.5 -9t-54 -3q-66 0 -107 16t-64.5 44t-31.5 64
t-8 77q0 58 15 114.5t50.5 101.5t93 72.5t141.5 27.5zM314 381q-42 0 -65.5 -31t-28.5 -86q132 6 132 77q0 18 -9 29t-29 11zM161 675h366l-15 -114h-365z" />
    <glyph glyph-name="Ebreve" unicode="&#x114;" horiz-adv-x="692" 
d="M18 0l14 122h70l54 447h-68l15 121h598l-29 -235h-128l14 114h-214l-20 -158l182 4l-13 -120l-183 3l-21 -176h231l15 122h129l-29 -244h-617zM427 741q-31 0 -57 11t-48.5 30.5t-40.5 45.5t-32 56l72 55q29 -48 63 -70t60 -22q9 0 21.5 1t32 9t46.5 25.5t64 49.5l41 -48
q-29 -41 -59 -68.5t-58.5 -44t-55 -23.5t-49.5 -7z" />
    <glyph glyph-name="ebreve" unicode="&#x115;" horiz-adv-x="543" 
d="M340 506q35 0 66.5 -8.5t55 -26.5t37.5 -45t14 -64q0 -30 -13 -59.5t-46 -53t-90.5 -40t-146.5 -20.5q0 -5 -0.5 -9t-0.5 -9q0 -26 15.5 -43t64.5 -17q34 0 73.5 9t73.5 20l31 -100q-24 -14 -52.5 -23.5t-58 -15.5t-58.5 -9t-54 -3q-66 0 -107 16t-64.5 44t-31.5 64
t-8 77q0 58 15 114.5t50.5 101.5t93 72.5t141.5 27.5zM314 381q-42 0 -65.5 -31t-28.5 -86q132 6 132 77q0 18 -9 29t-29 11zM331 549q-31 0 -57 11t-48 30.5t-40 45.5t-32 56l72 55q28 -48 62 -69.5t60 -21.5q9 0 21.5 1t32 8.5t46.5 25t64 49.5l41 -48
q-29 -41 -58.5 -68.5t-58 -44t-55.5 -23.5t-50 -7z" />
    <glyph glyph-name="Edotaccent" unicode="&#x116;" horiz-adv-x="692" 
d="M18 0l14 122h70l54 447h-68l15 121h598l-29 -235h-128l14 114h-214l-20 -158l182 4l-13 -120l-183 3l-21 -176h231l15 122h129l-29 -244h-617zM507 850q-2 -20 -11.5 -37.5t-23.5 -30.5t-31.5 -20.5t-36.5 -7.5q-38 0 -61 27t-18 66q2 20 11 37.5t23 30.5t31.5 20.5
t36.5 7.5t34.5 -7.5t26 -20t16 -29.5t3.5 -36z" />
    <glyph glyph-name="edotaccent" unicode="&#x117;" horiz-adv-x="543" 
d="M340 506q35 0 66.5 -8.5t55 -26.5t37.5 -45t14 -64q0 -30 -13 -59.5t-46 -53t-90.5 -40t-146.5 -20.5q0 -5 -0.5 -9t-0.5 -9q0 -26 15.5 -43t64.5 -17q34 0 73.5 9t73.5 20l31 -100q-24 -14 -52.5 -23.5t-58 -15.5t-58.5 -9t-54 -3q-66 0 -107 16t-64.5 44t-31.5 64
t-8 77q0 58 15 114.5t50.5 101.5t93 72.5t141.5 27.5zM314 381q-42 0 -65.5 -31t-28.5 -86q132 6 132 77q0 18 -9 29t-29 11zM433 656q-2 -20 -11.5 -37.5t-23.5 -30.5t-31.5 -20.5t-36.5 -7.5q-38 0 -61 27t-18 66q2 20 11 37.5t23 30.5t31.5 20.5t36.5 7.5t34.5 -7.5
t26 -20t16 -29.5t3.5 -36z" />
    <glyph glyph-name="Eogonek" unicode="&#x118;" horiz-adv-x="692" 
d="M609 0q-25 -30 -44 -63.5t-19 -58.5q0 -26 11.5 -37t35.5 -11q17 0 35.5 2.5t36.5 7.5q3 -14 5 -27l4 -26q-32 -17 -65.5 -25.5t-64.5 -8.5q-50 0 -75 20t-25 55q0 13 4 32t15.5 41.5t31 47.5t51.5 51h-528l14 122h70l54 447h-68l15 121h598l-29 -235h-128l14 114h-214
l-20 -158l182 4l-13 -120l-183 3l-21 -176h231l15 122h129l-29 -244h-26z" />
    <glyph glyph-name="eogonek" unicode="&#x119;" horiz-adv-x="543" 
d="M340 506q35 0 66.5 -8.5t55 -26.5t37.5 -45t14 -64q0 -30 -13 -59.5t-46 -53t-90.5 -40t-146.5 -20.5q0 -5 -0.5 -9t-0.5 -9q0 -26 15.5 -43t64.5 -17q34 0 73.5 9t73.5 20l31 -100q-5 -3 -10.5 -5.5t-10.5 -4.5q-25 -30 -43.5 -63t-18.5 -58q0 -26 11.5 -37t35.5 -11
q17 0 35.5 2.5t36.5 7.5q3 -14 5 -27l4 -26q-32 -17 -65.5 -25.5t-64.5 -8.5q-50 0 -75 20t-25 55q0 23 13 60.5t54 80.5q-28 -6 -55 -8.5t-50 -2.5q-66 0 -107 16t-64.5 44t-31.5 64t-8 77q0 58 15 114.5t50.5 101.5t93 72.5t141.5 27.5zM314 381q-42 0 -65.5 -31
t-28.5 -86q132 6 132 77q0 18 -9 29t-29 11z" />
    <glyph glyph-name="Ecaron" unicode="&#x11a;" horiz-adv-x="692" 
d="M18 0l14 122h70l54 447h-68l15 121h598l-29 -235h-128l14 114h-214l-20 -158l182 4l-13 -120l-183 3l-21 -176h231l15 122h129l-29 -244h-617zM662 895l-174 -152h-111l-132 153l47 49l153 -97l181 99z" />
    <glyph glyph-name="ecaron" unicode="&#x11b;" horiz-adv-x="543" 
d="M340 506q35 0 66.5 -8.5t55 -26.5t37.5 -45t14 -64q0 -30 -13 -59.5t-46 -53t-90.5 -40t-146.5 -20.5q0 -5 -0.5 -9t-0.5 -9q0 -26 15.5 -43t64.5 -17q34 0 73.5 9t73.5 20l31 -100q-24 -14 -52.5 -23.5t-58 -15.5t-58.5 -9t-54 -3q-66 0 -107 16t-64.5 44t-31.5 64
t-8 77q0 58 15 114.5t50.5 101.5t93 72.5t141.5 27.5zM314 381q-42 0 -65.5 -31t-28.5 -86q132 6 132 77q0 18 -9 29t-29 11zM550 705l-174 -155h-111l-132 156l46 50l153 -100l181 101z" />
    <glyph glyph-name="Gcircumflex" unicode="&#x11c;" horiz-adv-x="715" 
d="M465 706q53 0 105 -7.5t92 -20.5l-25 -216h-130l11 95q-13 3 -29 4.5t-31 1.5q-52 0 -89 -20.5t-61 -57t-35.5 -86.5t-11.5 -109q0 -81 30.5 -117t96.5 -36q34 0 69 8l15 115h-69l13 109h283l-13 -109h-47l-28 -230q-63 -23 -126.5 -32t-120.5 -9q-88 0 -146 23.5
t-92.5 63.5t-48.5 92.5t-14 111.5q0 49 7 100t24.5 98t46.5 88.5t74 72.5t106.5 49t143.5 18zM599 735l-155 101l-178 -100l-36 50l171 156h111l136 -155z" />
    <glyph glyph-name="gcircumflex" unicode="&#x11d;" horiz-adv-x="617" 
d="M335 502q20 0 49 -2.5t61.5 -8.5t66.5 -16t64 -25l9 -19q-6 -46 -12.5 -96t-12.5 -100.5t-12 -98.5t-11 -91t-15.5 -90.5t-40 -87.5t-84 -66.5t-147.5 -26.5q-29 0 -59.5 4t-59 11t-53 15.5t-41.5 17.5l43 116q52 -18 89 -24t69 -6q30 0 51 7t35.5 22.5t22.5 40.5t13 60
l8 56q-1 1 -2 1t-3 1q-43 -55 -88.5 -77.5t-87.5 -22.5q-66 0 -105.5 42.5t-39.5 128.5q0 71 18 132t54.5 106t91.5 71t129 26zM541 535l-155 102l-177 -100l-36 50l170 155h112l135 -155zM271 121q13 0 28 7.5t30.5 25.5t30 48t26.5 74l12 85q-21 7 -36.5 9t-28.5 2
q-32 0 -53.5 -16t-35 -41t-19 -56t-5.5 -61q0 -41 14.5 -59t36.5 -18z" />
    <glyph glyph-name="Gbreve" unicode="&#x11e;" horiz-adv-x="715" 
d="M465 706q53 0 105 -7.5t92 -20.5l-25 -216h-130l11 95q-13 3 -29 4.5t-31 1.5q-52 0 -89 -20.5t-61 -57t-35.5 -86.5t-11.5 -109q0 -81 30.5 -117t96.5 -36q34 0 69 8l15 115h-69l13 109h283l-13 -109h-47l-28 -230q-63 -23 -126.5 -32t-120.5 -9q-88 0 -146 23.5
t-92.5 63.5t-48.5 92.5t-14 111.5q0 49 7 100t24.5 98t46.5 88.5t74 72.5t106.5 49t143.5 18zM441 741q-31 0 -57 11t-48.5 30.5t-40.5 45.5t-32 56l72 55q29 -48 63 -70t60 -22q9 0 21.5 1t32 9t46.5 25.5t64 49.5l41 -48q-29 -41 -59 -68.5t-58.5 -44t-55 -23.5t-49.5 -7z
" />
    <glyph glyph-name="gbreve" unicode="&#x11f;" horiz-adv-x="617" 
d="M335 502q20 0 49 -2.5t61.5 -8.5t66.5 -16t64 -25l9 -19q-6 -46 -12.5 -96t-12.5 -100.5t-12 -98.5t-11 -91t-15.5 -90.5t-40 -87.5t-84 -66.5t-147.5 -26.5q-29 0 -59.5 4t-59 11t-53 15.5t-41.5 17.5l43 116q52 -18 89 -24t69 -6q30 0 51 7t35.5 22.5t22.5 40.5t13 60
l8 56q-1 1 -2 1t-3 1q-43 -55 -88.5 -77.5t-87.5 -22.5q-66 0 -105.5 42.5t-39.5 128.5q0 71 18 132t54.5 106t91.5 71t129 26zM337 549q-31 0 -57 11t-48 30.5t-40 45.5t-32 56l72 55q28 -48 62 -69.5t60 -21.5q9 0 21.5 1t32 8.5t46.5 25t64 49.5l41 -48
q-29 -41 -58.5 -68.5t-58 -44t-55.5 -23.5t-50 -7zM271 121q13 0 28 7.5t30.5 25.5t30 48t26.5 74l12 85q-21 7 -36.5 9t-28.5 2q-32 0 -53.5 -16t-35 -41t-19 -56t-5.5 -61q0 -41 14.5 -59t36.5 -18z" />
    <glyph glyph-name="Gdotaccent" unicode="&#x120;" horiz-adv-x="715" 
d="M465 706q53 0 105 -7.5t92 -20.5l-25 -216h-130l11 95q-13 3 -29 4.5t-31 1.5q-52 0 -89 -20.5t-61 -57t-35.5 -86.5t-11.5 -109q0 -81 30.5 -117t96.5 -36q34 0 69 8l15 115h-69l13 109h283l-13 -109h-47l-28 -230q-63 -23 -126.5 -32t-120.5 -9q-88 0 -146 23.5
t-92.5 63.5t-48.5 92.5t-14 111.5q0 49 7 100t24.5 98t46.5 88.5t74 72.5t106.5 49t143.5 18zM561 855q-2 -20 -11.5 -37.5t-23.5 -30.5t-31.5 -20.5t-36.5 -7.5q-38 0 -61 27t-18 66q2 20 11 37.5t23 30.5t31.5 20.5t36.5 7.5t34.5 -7.5t26 -20t16 -29.5t3.5 -36z" />
    <glyph glyph-name="gdotaccent" unicode="&#x121;" horiz-adv-x="617" 
d="M335 502q20 0 49 -2.5t61.5 -8.5t66.5 -16t64 -25l9 -19q-6 -46 -12.5 -96t-12.5 -100.5t-12 -98.5t-11 -91t-15.5 -90.5t-40 -87.5t-84 -66.5t-147.5 -26.5q-29 0 -59.5 4t-59 11t-53 15.5t-41.5 17.5l43 116q52 -18 89 -24t69 -6q30 0 51 7t35.5 22.5t22.5 40.5t13 60
l8 56q-1 1 -2 1t-3 1q-43 -55 -88.5 -77.5t-87.5 -22.5q-66 0 -105.5 42.5t-39.5 128.5q0 71 18 132t54.5 106t91.5 71t129 26zM271 121q13 0 28 7.5t30.5 25.5t30 48t26.5 74l12 85q-21 7 -36.5 9t-28.5 2q-32 0 -53.5 -16t-35 -41t-19 -56t-5.5 -61q0 -41 14.5 -59
t36.5 -18zM469 656q-2 -20 -11.5 -37.5t-23.5 -30.5t-31.5 -20.5t-36.5 -7.5q-38 0 -61 27t-18 66q2 20 11 37.5t23 30.5t31.5 20.5t36.5 7.5t34.5 -7.5t26 -20t16 -29.5t3.5 -36z" />
    <glyph glyph-name="Gcommaaccent" unicode="&#x122;" horiz-adv-x="715" 
d="M465 706q53 0 105 -7.5t92 -20.5l-25 -216h-130l11 95q-13 3 -29 4.5t-31 1.5q-52 0 -89 -20.5t-61 -57t-35.5 -86.5t-11.5 -109q0 -81 30.5 -117t96.5 -36q34 0 69 8l15 115h-69l13 109h283l-13 -109h-47l-28 -230q-63 -23 -126.5 -32t-120.5 -9q-88 0 -146 23.5
t-92.5 63.5t-48.5 92.5t-14 111.5q0 49 7 100t24.5 98t46.5 88.5t74 72.5t106.5 49t143.5 18zM367 -41q39 0 56 -23t17 -53t-13 -59t-35 -55.5t-49.5 -47.5t-55.5 -34l-35 51q26 18 43.5 35.5t24.5 44.5q-46 12 -46 59q0 33 25.5 57.5t67.5 24.5z" />
    <glyph glyph-name="gcommaaccent" unicode="&#x123;" horiz-adv-x="617" 
d="M335 502q20 0 49 -2.5t61.5 -8.5t66.5 -16t64 -25l9 -19q-6 -46 -12.5 -96t-12.5 -100.5t-12 -98.5t-11 -91t-15.5 -90.5t-40 -87.5t-84 -66.5t-147.5 -26.5q-29 0 -59.5 4t-59 11t-53 15.5t-41.5 17.5l43 116q52 -18 89 -24t69 -6q30 0 51 7t35.5 22.5t22.5 40.5t13 60
l8 56q-1 1 -2 1t-3 1q-43 -55 -88.5 -77.5t-87.5 -22.5q-66 0 -105.5 42.5t-39.5 128.5q0 71 18 132t54.5 106t91.5 71t129 26zM289 632q0 32 14 63t37.5 59t53 50t60.5 36l35 -55q-28 -20 -45.5 -38.5t-25.5 -47.5q27 -3 38.5 -18.5t11.5 -38.5q0 -37 -27.5 -65t-73.5 -28
q-22 0 -37 7t-24 18.5t-13 26.5t-4 31zM271 121q13 0 28 7.5t30.5 25.5t30 48t26.5 74l12 85q-21 7 -36.5 9t-28.5 2q-32 0 -53.5 -16t-35 -41t-19 -56t-5.5 -61q0 -41 14.5 -59t36.5 -18z" />
    <glyph glyph-name="Hcircumflex" unicode="&#x124;" horiz-adv-x="830" 
d="M445 0l15 122h60l21 176h-229l-21 -176h61l-15 -122h-319l14 122h71l55 447h-71l15 122h319l-15 -122h-61l-19 -156h229l20 156h-61l15 122h319l-15 -122h-71l-54 -447h70l-14 -122h-319zM648 735l-155 101l-178 -100l-36 50l171 156h111l136 -155z" />
    <glyph glyph-name="hcircumflex" unicode="&#x125;" horiz-adv-x="684" 
d="M477 505q66 0 92.5 -30.5t26.5 -90.5q0 -11 -3 -37.5t-7 -62t-9.5 -77.5t-9.5 -85q19 1 35.5 5.5t33.5 11.5l34 -84q-22 -19 -47.5 -32.5t-50.5 -22.5t-48.5 -13.5t-41.5 -4.5q-60 0 -80.5 25t-20.5 68q0 7 0.5 13.5t1.5 14.5q10 72 15.5 113t8 63t3 30.5t0.5 13.5
q0 21 -8.5 33.5t-28.5 12.5q-25 0 -56 -31.5t-52 -105.5l-31 -232h-181q9 74 19 152t19.5 156t18 152.5t15.5 140.5l-91 14l8 86q60 17 106 24t78 7q28 0 46 -5.5t28 -15t13.5 -24t3.5 -32.5q0 -8 -2.5 -36t-7 -66t-9.5 -80t-11 -77l4 -2q22 31 47.5 52.5t50.5 34.5
t47.5 18.5t40.5 5.5zM403 766l-155 101l-178 -100l-36 50l171 156h111l136 -155z" />
    <glyph glyph-name="Hbar" unicode="&#x126;" horiz-adv-x="830" 
d="M445 0l15 122h60l21 169h-230l-20 -169h61l-15 -122h-319l14 122h71l40 322h-72l8 64h72l7 61h-71l15 122h319l-15 -122h-61l-7 -61h230l7 61h-61l15 122h319l-15 -122h-71l-7 -61h70l-8 -64h-70l-39 -322h70l-14 -122h-319zM553 383l7 61h-230l-7 -61h230z" />
    <glyph glyph-name="hbar" unicode="&#x127;" horiz-adv-x="684" 
d="M68 566h53q2 9 2.5 18t1.5 17l-91 14l8 86q60 17 106 24t78 7q28 0 46 -5.5t28 -15t13.5 -24t3.5 -32.5q0 -6 -2.5 -30.5t-6.5 -58.5h151l-8 -59h-150l-20 -149l4 -1q22 30 47.5 51t50.5 34t48 19t41 6q65 0 91.5 -30.5t26.5 -90.5q0 -23 -7 -80t-16 -144q19 1 35.5 5.5
t33.5 11.5l34 -84q-22 -19 -47.5 -32.5t-50.5 -22.5t-48.5 -13.5t-41.5 -4.5q-60 0 -80.5 25t-20.5 68q0 7 0.5 13.5t1.5 14.5q10 81 15.5 127t5.5 56q0 21 -8.5 33t-28.5 12q-25 0 -55.5 -31t-52.5 -106l-23 -194h-181q15 124 30.5 254.5t29.5 252.5h-55z" />
    <glyph glyph-name="Itilde" unicode="&#x128;" horiz-adv-x="461" 
d="M43 0l15 122h70l54 447h-70l16 122h324l-15 -122h-68l-55 -447h68l-14 -122h-325zM374 756q-27 0 -53 6t-50 13.5t-45.5 13.5t-38.5 6l-57 -39l-45 38q27 59 58.5 82t65.5 23q24 0 48 -5.5t47.5 -12.5t46.5 -12.5t44 -5.5l59 40l42 -38q-47 -109 -122 -109z" />
    <glyph glyph-name="itilde" unicode="&#x129;" horiz-adv-x="414" 
d="M230 505q52 0 69 -18t17 -50q0 -9 -2 -30t-5.5 -49t-8 -61t-9 -65t-8.5 -61t-6 -49q18 1 37 5.5t35 11.5l34 -84q-20 -18 -45 -31.5t-50.5 -23t-49.5 -14t-42 -4.5q-61 0 -83 25.5t-22 67.5q0 7 0.5 13.5t1.5 13.5l36 273l-80 13l5 86q60 17 103 24t73 7zM302 578
q-27 0 -53 6t-50 13.5t-45.5 13.5t-38.5 6l-57 -39l-45 38q27 59 58.5 82t65.5 23q24 0 48 -5.5t47.5 -12.5t46.5 -12.5t44 -5.5l59 40l42 -38q-47 -109 -122 -109z" />
    <glyph glyph-name="Imacron" unicode="&#x12a;" horiz-adv-x="461" 
d="M43 0l15 122h70l54 447h-70l16 122h324l-15 -122h-68l-55 -447h68l-14 -122h-325zM124 862h368l-14 -113h-368z" />
    <glyph glyph-name="imacron" unicode="&#x12b;" horiz-adv-x="405" 
d="M230 505q52 0 69 -18t17 -50q0 -9 -2 -30t-5.5 -49t-8 -61t-9 -65t-8.5 -61t-6 -49q18 1 37 5.5t35 11.5l34 -84q-20 -18 -45 -31.5t-50.5 -23t-49.5 -14t-42 -4.5q-61 0 -83 25.5t-22 67.5q0 7 0.5 13.5t1.5 13.5l36 273l-80 13l5 86q60 17 103 24t73 7zM36 675h366
l-15 -114h-365z" />
    <glyph glyph-name="Ibreve" unicode="&#x12c;" horiz-adv-x="461" 
d="M295 744q-31 0 -57 11t-48.5 30.5t-40.5 45.5t-32 56l72 55q29 -48 63 -70t60 -22q9 0 21.5 1t32 9t46.5 25.5t64 49.5l41 -48q-29 -41 -59 -68.5t-58.5 -44t-55 -23.5t-49.5 -7zM43 0l15 122h70l54 447h-70l16 122h324l-15 -122h-68l-55 -447h68l-14 -122h-325z" />
    <glyph glyph-name="ibreve" unicode="&#x12d;" horiz-adv-x="421" 
d="M230 505q52 0 69 -18t17 -50q0 -9 -2 -30t-5.5 -49t-8 -61t-9 -65t-8.5 -61t-6 -49q18 1 37 5.5t35 11.5l34 -84q-20 -18 -45 -31.5t-50.5 -23t-49.5 -14t-42 -4.5q-61 0 -83 25.5t-22 67.5q0 7 0.5 13.5t1.5 13.5l36 273l-80 13l5 86q60 17 103 24t73 7zM209 549
q-31 0 -57 11t-48 30.5t-40 45.5t-32 56l72 55q28 -48 62 -69.5t60 -21.5q9 0 21.5 1t32 8.5t46.5 25t64 49.5l41 -48q-29 -41 -58.5 -68.5t-58 -44t-55.5 -23.5t-50 -7z" />
    <glyph glyph-name="Iogonek" unicode="&#x12e;" horiz-adv-x="461" 
d="M240 0q-25 -30 -43.5 -63t-18.5 -57q0 -26 11.5 -37t35.5 -11q17 0 35.5 2.5t36.5 7.5q3 -14 5 -27l4 -26q-32 -17 -65.5 -25.5t-64.5 -8.5q-50 0 -75 20t-25 55q0 13 4 32t15 41.5t30.5 47t49.5 49.5h-132l15 122h70l54 447h-70l16 122h324l-15 -122h-68l-55 -447h68
l-14 -122h-128z" />
    <glyph glyph-name="iogonek" unicode="&#x12f;" horiz-adv-x="405" 
d="M230 505q52 0 69 -18t17 -50q0 -9 -2 -30t-5.5 -49t-8 -61t-9 -65t-8.5 -61t-6 -49q18 1 37 5.5t35 11.5l34 -84q-29 -25 -65 -41.5t-69 -24.5q-20 -26 -33.5 -53.5t-13.5 -47.5q0 -26 11.5 -37t35.5 -11q17 0 35.5 2.5t36.5 7.5q3 -14 5 -27l4 -26q-32 -17 -65.5 -25.5
t-64.5 -8.5q-50 0 -75 20t-25 55q0 23 14 62t58 83q-47 5 -64 29.5t-17 62.5q0 7 0.5 13.5t1.5 14.5l36 272l-80 13l5 86q60 17 103 24t73 7zM239 759q19 0 36 -7.5t30 -20.5t20 -30.5t7 -38.5q0 -48 -29.5 -81t-80.5 -33q-39 0 -66.5 26.5t-27.5 65.5q0 54 31.5 86.5
t79.5 32.5z" />
    <glyph glyph-name="Idotaccent" unicode="&#x130;" horiz-adv-x="461" 
d="M43 0l15 122h70l54 447h-70l16 122h324l-15 -122h-68l-55 -447h68l-14 -122h-325zM405 848q-2 -20 -11.5 -37.5t-23.5 -30.5t-31.5 -20.5t-36.5 -7.5q-38 0 -61 27t-18 66q2 20 11 37.5t23 30.5t31.5 20.5t36.5 7.5t34.5 -7.5t26 -20t16 -29.5t3.5 -36z" />
    <glyph glyph-name="dotlessi" unicode="&#x131;" horiz-adv-x="405" 
d="M230 505q52 0 69 -18t17 -50q0 -9 -2 -30t-5.5 -49t-8 -61t-9 -65t-8.5 -61t-6 -49q18 1 37 5.5t35 11.5l34 -84q-20 -18 -45 -31.5t-50.5 -23t-49.5 -14t-42 -4.5q-61 0 -83 25.5t-22 67.5q0 7 0.5 13.5t1.5 13.5l36 273l-80 13l5 86q60 17 103 24t73 7z" />
    <glyph glyph-name="IJ" unicode="&#x132;" horiz-adv-x="943" 
d="M43 0l15 122h70l54 447h-70l16 122h324l-15 -122h-68l-55 -447h68l-14 -122h-325zM575 691h368l-15 -122h-84l-47 -386q-9 -77 -33.5 -140.5t-68.5 -110.5t-110.5 -77.5t-159.5 -40.5l-28 132q69 19 108.5 43t61 53.5t30 64.5t13.5 76l48 386h-97z" />
    <glyph glyph-name="ij" unicode="&#x133;" horiz-adv-x="723" 
d="M230 505q52 0 69 -18t17 -50q0 -9 -2 -30t-5.5 -49t-8 -61t-9 -65t-8.5 -61t-6 -49q18 1 37 5.5t35 11.5l34 -84q-20 -18 -45 -31.5t-50.5 -23t-49.5 -14t-42 -4.5q-61 0 -83 25.5t-22 67.5q0 7 0.5 13.5t1.5 14.5l36 272l-80 13l5 86q60 17 103 24t73 7zM239 759
q19 0 36 -7.5t30 -20.5t20 -30.5t7 -38.5q0 -48 -29.5 -81t-80.5 -33q-39 0 -66.5 26.5t-27.5 65.5q0 54 31.5 86.5t79.5 32.5zM586 505q53 0 71 -17t18 -51q0 -8 -2.5 -37.5t-7 -74.5t-11 -101.5t-14.5 -119.5q-9 -72 -29 -129t-55 -99.5t-88.5 -70t-129.5 -39.5l-32 118
q48 21 75.5 41.5t42.5 46t21.5 58.5t12.5 77l29 268l-80 13l6 86q59 17 101.5 24t71.5 7zM598 759q40 0 67 -27.5t27 -69.5q0 -48 -30 -81t-81 -33q-39 0 -66.5 26.5t-27.5 65.5q0 54 31.5 86.5t79.5 32.5z" />
    <glyph glyph-name="Jcircumflex" unicode="&#x134;" horiz-adv-x="509" 
d="M130 692h368l-15 -122h-84l-47 -386q-9 -77 -33.5 -140.5t-68.5 -110.5t-110.5 -77.5t-159.5 -40.5l-28 132q69 19 108.5 43t61 53.5t30 64.5t13.5 76l48 386h-97zM490 735l-155 101l-178 -100l-36 50l171 156h111l136 -155z" />
    <glyph glyph-name="jcircumflex" unicode="&#x135;" horiz-adv-x="405" 
d="M222 505q53 0 71 -17t18 -51q0 -8 -2.5 -37.5t-7 -74.5t-11 -101.5t-14.5 -119.5q-9 -72 -29 -129t-55 -99.5t-88.5 -70t-129.5 -39.5l-32 118q48 21 75.5 41.5t42.5 46t21.5 58.5t12.5 77l29 268l-80 13l6 86q59 17 101.5 24t71.5 7zM377 535l-156 102l-177 -100l-36 50
l171 155h111l135 -155z" />
    <glyph glyph-name="Kcommaaccent" unicode="&#x136;" horiz-adv-x="763" 
d="M518 420l165 -297h54l-14 -123h-311l15 123h51l-103 187l-75 -59l-16 -129h60l-15 -122h-311l14 122h71l54 447h-70l15 120h316l-15 -120h-65l-19 -162l202 162h-50l14 120h300l-15 -120h-63zM382 -41q39 0 56 -23t17 -53t-13 -59t-35 -55.5t-49.5 -47.5t-55.5 -34
l-35 51q26 18 43.5 35.5t24.5 44.5q-46 12 -46 59q0 33 25.5 57.5t67.5 24.5z" />
    <glyph glyph-name="kcommaaccent" unicode="&#x137;" horiz-adv-x="602" 
d="M489 505q24 0 40.5 -8.5t28.5 -21t19.5 -27.5t12.5 -28l-60 -66q-13 9 -26 14.5t-29 5.5q-25 0 -51.5 -18t-53.5 -47q14 -28 30 -57.5t31.5 -56.5t29.5 -48.5t24 -33.5q19 5 32 12.5t27 15.5l47 -66q-24 -27 -47.5 -45.5t-45 -29t-40 -15t-30.5 -4.5q-23 0 -42 8.5
t-37.5 30.5t-39 60.5t-45.5 98.5q-12 -18 -20 -32t-17 -34l-17 -113h-177l81 602l-87 13l6 86q58 17 104.5 25t78.5 8q51 0 69.5 -21.5t18.5 -57.5q0 -11 -5 -48.5t-12.5 -86t-15 -98.5t-13.5 -86l4 -1q24 33 51.5 64t56.5 54.5t59 37.5t60 14zM290 -41q39 0 56 -23t17 -53
t-13 -59t-35 -55.5t-49.5 -47.5t-55.5 -34l-35 51q26 18 43.5 35.5t24.5 44.5q-46 12 -46 59q0 33 25.5 57.5t67.5 24.5z" />
    <glyph glyph-name="kgreenlandic" unicode="&#x138;" horiz-adv-x="638" 
d="M529 505q24 0 40.5 -8.5t28.5 -21t19.5 -27.5t12.5 -28l-60 -66q-13 9 -26 14.5t-29 5.5q-25 0 -51.5 -18t-53.5 -47q14 -28 30 -57.5t31.5 -56.5t29.5 -48.5t24 -33.5q19 5 32 12.5t27 15.5l47 -66q-24 -27 -47.5 -45.5t-45 -29t-40 -15t-30.5 -4.5q-23 0 -42 8.5
t-37.5 30.5t-39 60.5t-45.5 98.5q-12 -18 -20 -32t-17 -34l-17 -113h-177l47 377l-87 13l6 86q58 17 104.5 25t78.5 8q51 0 69.5 -21.5t18.5 -57.5q0 -7 -1.5 -19t-3 -25.5t-4 -27t-3.5 -22.5l4 -1q24 33 51.5 64t56.5 54.5t59 37.5t60 14z" />
    <glyph glyph-name="Lacute" unicode="&#x139;" horiz-adv-x="664" 
d="M18 0l14 122h72l54 447h-70l15 121h329l-16 -121h-70l-55 -447h216l16 130h129l-30 -252h-604zM264 739l-43 65l196 162l69 -101z" />
    <glyph glyph-name="lacute" unicode="&#x13a;" horiz-adv-x="368" 
d="M222 733q51 0 70.5 -17t19.5 -52q0 -17 -4 -55t-10 -88t-13.5 -107.5t-15 -112t-13.5 -102t-10 -77.5q19 1 37.5 5.5t35.5 11.5l34 -84q-20 -18 -44.5 -31.5t-49.5 -23t-48.5 -14t-41.5 -4.5q-60 0 -84.5 24.5t-24.5 68.5q0 7 0.5 13.5t1.5 14.5l63 499l-91 14l6 86
q60 17 106 24t76 7zM188 754l-43 65l196 162l69 -101z" />
    <glyph glyph-name="Lcommaaccent" unicode="&#x13b;" horiz-adv-x="664" 
d="M18 0l14 122h72l54 447h-70l15 121h329l-16 -121h-70l-55 -447h216l16 130h129l-30 -252h-604zM308 -41q39 0 56 -23t17 -53t-13 -59t-35 -55.5t-49.5 -47.5t-55.5 -34l-35 51q26 18 43.5 35.5t24.5 44.5q-46 12 -46 59q0 33 25.5 57.5t67.5 24.5z" />
    <glyph glyph-name="lcommaaccent" unicode="&#x13c;" horiz-adv-x="368" 
d="M222 733q51 0 70.5 -17t19.5 -52q0 -17 -4 -55t-10 -88t-13.5 -107.5t-15 -112t-13.5 -102t-10 -77.5q19 1 37.5 5.5t35.5 11.5l34 -84q-20 -18 -44.5 -31.5t-49.5 -23t-48.5 -14t-41.5 -4.5q-60 0 -84.5 24.5t-24.5 68.5q0 7 0.5 13.5t1.5 14.5l63 499l-91 14l6 86
q60 17 106 24t76 7zM148 -41q39 0 56 -23t17 -53t-13 -59t-35 -55.5t-49.5 -47.5t-55.5 -34l-35 51q26 18 43.5 35.5t24.5 44.5q-46 12 -46 59q0 33 25.5 57.5t67.5 24.5z" />
    <glyph glyph-name="Lcaron" unicode="&#x13d;" horiz-adv-x="664" 
d="M18 0l14 122h72l54 447h-70l15 121h329l-16 -121h-70l-55 -447h216l16 130h129l-30 -252h-604zM642 703q39 0 56 -23t17 -53t-13 -59t-35 -55.5t-49.5 -47.5t-55.5 -34l-35 51q26 18 43.5 35.5t24.5 44.5q-46 12 -46 59q0 33 25.5 57.5t67.5 24.5z" />
    <glyph glyph-name="lcaron" unicode="&#x13e;" horiz-adv-x="536" 
d="M470 737q39 0 56 -23t17 -53t-13 -59t-35 -55.5t-49.5 -47.5t-55.5 -34l-35 51q26 18 43.5 35.5t24.5 44.5q-46 12 -46 59q0 33 25.5 57.5t67.5 24.5zM222 733q51 0 70.5 -17t19.5 -52q0 -17 -4 -55t-10 -88t-13.5 -107.5t-15 -112t-13.5 -102t-10 -77.5q19 1 37.5 5.5
t35.5 11.5l34 -84q-20 -18 -44.5 -31.5t-49.5 -23t-48.5 -14t-41.5 -4.5q-60 0 -84.5 24.5t-24.5 68.5q0 7 0.5 13.5t1.5 14.5l63 499l-91 14l6 86q60 17 106 24t76 7z" />
    <glyph glyph-name="Ldot" unicode="&#x13f;" horiz-adv-x="664" 
d="M18 0l14 122h72l54 447h-70l15 121h329l-16 -121h-70l-55 -447h216l16 130h129l-30 -252h-604zM636 442q-2 -20 -11.5 -37.5t-23.5 -30.5t-31.5 -20.5t-36.5 -7.5q-38 0 -61 27t-18 66q2 20 11 37.5t23 30.5t31.5 20.5t36.5 7.5t34.5 -7.5t26 -20t16 -29.5t3.5 -36z" />
    <glyph glyph-name="ldot" unicode="&#x140;" horiz-adv-x="518" 
d="M533 390q-2 -20 -11.5 -37.5t-23.5 -30.5t-31.5 -20.5t-36.5 -7.5q-38 0 -61 27t-18 66q2 20 11 37.5t23 30.5t31.5 20.5t36.5 7.5t34.5 -7.5t26 -20t16 -29.5t3.5 -36zM222 733q51 0 70.5 -17t19.5 -52q0 -17 -4 -55t-10 -88t-13.5 -107.5t-15 -112t-13.5 -102
t-10 -77.5q19 1 37.5 5.5t35.5 11.5l34 -84q-20 -18 -44.5 -31.5t-49.5 -23t-48.5 -14t-41.5 -4.5q-60 0 -84.5 24.5t-24.5 68.5q0 7 0.5 13.5t1.5 14.5l63 499l-91 14l6 86q60 17 106 24t76 7z" />
    <glyph glyph-name="Lslash" unicode="&#x141;" horiz-adv-x="664" 
d="M18 0l14 122h72l11 91l-49 -26l-31 64l91 50l32 268h-70l15 121h329l-16 -121h-70l-19 -157l89 49l31 -62l-130 -73l-26 -204h216l16 130h129l-30 -252h-604z" />
    <glyph glyph-name="lslash" unicode="&#x142;" horiz-adv-x="368" 
d="M222 733q51 0 70.5 -17t19.5 -52q0 -10 -1.5 -29.5t-4.5 -46.5t-7 -59.5t-8 -67.5l70 38l31 -62l-113 -63q-5 -38 -10 -74.5t-9.5 -69.5t-8 -60.5t-5.5 -47.5q19 1 37.5 5.5t35.5 11.5l34 -84q-20 -18 -44.5 -31.5t-49.5 -23t-48.5 -14t-41.5 -4.5q-60 0 -84.5 24.5
t-24.5 68.5q0 7 0.5 13.5t1.5 14.5l20 160l-64 -35l-32 64l106 59l33 251l-91 14l6 86q60 17 106 24t76 7z" />
    <glyph glyph-name="Nacute" unicode="&#x143;" horiz-adv-x="854" 
d="M578 263l38 306h-66l16 121h304q-4 -30 -8 -60.5t-7 -60.5h-66l-69 -569h-183q-29 57 -57 113t-57 113q-6 12 -16.5 34t-22 46t-22.5 46l-17 34q-8 17 -16 33t-16 33h-2q-11 -83 -21 -165.5t-20 -165.5h66q-4 -31 -7.5 -61t-6.5 -60h-305l14 121h68q13 112 26.5 223.5
t27.5 224.5h-67l15 121h267l92 -187q20 -41 39.5 -83t40.5 -87l34 -70h4zM461 739l-43 65l196 162l69 -101z" />
    <glyph glyph-name="nacute" unicode="&#x144;" horiz-adv-x="697" 
d="M500 505q56 0 85 -33.5t29 -93.5q0 -11 -3 -38t-7 -62t-9.5 -76t-9.5 -80q18 1 33 5.5t32 11.5q1 -1 6 -14t11 -28t11 -28t6 -14q-23 -19 -48.5 -32.5t-51 -22.5t-49 -13t-40.5 -4q-30 0 -48 5.5t-28.5 17t-14 28t-3.5 37.5q0 4 0.5 14.5t1.5 18.5q4 34 8.5 69t8.5 65.5
t6.5 53t2.5 32.5q0 17 -8 30.5t-29 13.5q-30 0 -60 -37t-51 -109l-29 -222h-178q6 49 10.5 84t7.5 62t6 49.5t5.5 47.5t6 55.5t8.5 74.5l-81 14l6 86q60 19 99 25t71 6q27 0 43.5 -5t25 -14t11.5 -22t3 -29q0 -24 -6 -60h5q25 40 53.5 65.5t56.5 40t52.5 20t42.5 5.5z
M342 544l-54 57l171 193l81 -91z" />
    <glyph glyph-name="Ncommaaccent" unicode="&#x145;" horiz-adv-x="854" 
d="M578 263l38 306h-66l16 121h304q-4 -30 -8 -60.5t-7 -60.5h-66l-69 -569h-183q-29 57 -57 113t-57 113q-6 12 -16.5 34t-22 46t-22.5 46l-17 34q-8 17 -16 33t-16 33h-2q-11 -83 -21 -165.5t-20 -165.5h66q-4 -31 -7.5 -61t-6.5 -60h-305l14 121h68q13 112 26.5 223.5
t27.5 224.5h-67l15 121h267l92 -187q20 -41 39.5 -83t40.5 -87l34 -70h4zM418 -41q39 0 56 -23t17 -53t-13 -59t-35 -55.5t-49.5 -47.5t-55.5 -34l-35 51q26 18 43.5 35.5t24.5 44.5q-46 12 -46 59q0 33 25.5 57.5t67.5 24.5z" />
    <glyph glyph-name="ncommaaccent" unicode="&#x146;" horiz-adv-x="697" 
d="M500 505q56 0 85 -33.5t29 -93.5q0 -11 -3 -38t-7 -62t-9.5 -76t-9.5 -80q18 1 33 5.5t32 11.5q1 -1 6 -14t11 -28t11 -28t6 -14q-23 -19 -48.5 -32.5t-51 -22.5t-49 -13t-40.5 -4q-30 0 -48 5.5t-28.5 17t-14 28t-3.5 37.5q0 4 0.5 14.5t1.5 18.5q4 34 8.5 69t8.5 65.5
t6.5 53t2.5 32.5q0 17 -8 30.5t-29 13.5q-30 0 -60 -37t-51 -109l-29 -222h-178q6 49 10.5 84t7.5 62t6 49.5t5.5 47.5t6 55.5t8.5 74.5l-81 14l6 86q60 19 99 25t71 6q27 0 43.5 -5t25 -14t11.5 -22t3 -29q0 -24 -6 -60h5q25 40 53.5 65.5t56.5 40t52.5 20t42.5 5.5z
M345 -41q39 0 56 -23t17 -53t-13 -59t-35 -55.5t-49.5 -47.5t-55.5 -34l-35 51q26 18 43.5 35.5t24.5 44.5q-46 12 -46 59q0 33 25.5 57.5t67.5 24.5z" />
    <glyph glyph-name="Ncaron" unicode="&#x147;" horiz-adv-x="854" 
d="M578 263l38 306h-66l16 121h304q-4 -30 -8 -60.5t-7 -60.5h-66l-69 -569h-183q-29 57 -57 113t-57 113q-6 12 -16.5 34t-22 46t-22.5 46l-17 34q-8 17 -16 33t-16 33h-2q-11 -83 -21 -165.5t-20 -165.5h66q-4 -31 -7.5 -61t-6.5 -60h-305l14 121h68q13 112 26.5 223.5
t27.5 224.5h-67l15 121h267l92 -187q20 -41 39.5 -83t40.5 -87l34 -70h4zM712 895l-174 -152h-111l-132 153l47 49l153 -97l181 99z" />
    <glyph glyph-name="ncaron" unicode="&#x148;" horiz-adv-x="697" 
d="M500 505q56 0 85 -33.5t29 -93.5q0 -11 -3 -38t-7 -62t-9.5 -76t-9.5 -80q18 1 33 5.5t32 11.5q1 -1 6 -14t11 -28t11 -28t6 -14q-23 -19 -48.5 -32.5t-51 -22.5t-49 -13t-40.5 -4q-30 0 -48 5.5t-28.5 17t-14 28t-3.5 37.5q0 4 0.5 14.5t1.5 18.5q4 34 8.5 69t8.5 65.5
t6.5 53t2.5 32.5q0 17 -8 30.5t-29 13.5q-30 0 -60 -37t-51 -109l-29 -222h-178q6 49 10.5 84t7.5 62t6 49.5t5.5 47.5t6 55.5t8.5 74.5l-81 14l6 86q60 19 99 25t71 6q27 0 43.5 -5t25 -14t11.5 -22t3 -29q0 -24 -6 -60h5q25 40 53.5 65.5t56.5 40t52.5 20t42.5 5.5z
M587 705l-174 -155h-111l-132 156l46 50l153 -100l181 101z" />
    <glyph glyph-name="napostrophe" unicode="&#x149;" horiz-adv-x="797" 
d="M600 505q56 0 85 -33.5t29 -93.5q0 -11 -3 -38t-7 -62t-9.5 -76t-9.5 -80q18 1 33 5.5t32 11.5q1 -1 6 -14t11 -28t11 -28t6 -14q-23 -19 -48.5 -32.5t-51 -22.5t-49 -13t-40.5 -4q-30 0 -48 5.5t-28.5 17t-14 28t-3.5 37.5q0 4 0.5 14.5t1.5 18.5q4 34 8.5 69t8.5 65.5
t6.5 53t2.5 32.5q0 17 -8 30.5t-29 13.5q-30 0 -60 -37t-51 -109l-29 -222h-178q6 49 10.5 84t7.5 62t6 49.5t5.5 47.5t6 55.5t8.5 74.5l-81 14l6 86q60 19 99 25t71 6q27 0 43.5 -5t25 -14t11.5 -22t3 -29q0 -24 -6 -60h5q25 40 53.5 65.5t56.5 40t52.5 20t42.5 5.5z
M108 722q39 0 56 -23t17 -53t-13 -59t-35 -55.5t-49.5 -47.5t-55.5 -34l-35 51q26 18 43.5 35.5t24.5 44.5q-46 12 -46 59q0 33 25.5 57.5t67.5 24.5z" />
    <glyph glyph-name="Eng" unicode="&#x14a;" horiz-adv-x="854" 
d="M374 -221q7 32 13 63.5t12 63.5q16 -2 30.5 -3t28.5 -1q22 0 38.5 4t27.5 15t17 30t9 49q-23 43 -51.5 97.5t-60 114.5t-64 122t-62.5 120h-2l-40 -333h66q-4 -31 -7.5 -61t-6.5 -60h-305l14 121h68q13 112 26.5 223.5t27.5 224.5h-68q5 30 8 60.5t8 60.5h257
q21 -40 47.5 -89.5t55 -103.5t57.5 -111.5t57 -112.5h4l36 296h-65l15 121h304q-3 -30 -7 -60.5t-8 -60.5h-65l-67 -560q-5 -51 -15 -95.5t-34 -77t-67.5 -51.5t-116.5 -19q-11 0 -26 1t-31 3t-31 4t-27 5z" />
    <glyph glyph-name="eng" unicode="&#x14b;" horiz-adv-x="647" 
d="M574 22q-6 -42 -16 -83t-34 -73.5t-68 -52.5t-117 -20q-11 0 -24.5 1t-28 3t-28.5 4t-24 5l21 118q12 -2 24.5 -2.5t23.5 -0.5q37 0 58.5 14t26.5 56q7 63 14.5 119.5t13.5 101t9.5 74t3.5 38.5q0 19 -8 31.5t-29 12.5q-30 0 -60 -36.5t-51 -108.5l-28 -223h-179
q6 49 10.5 84t7.5 62t6 49.5t5.5 47.5t6 55.5t8.5 74.5l-81 15l6 85q60 20 99 26t71 6q27 0 43 -5.5t25 -14.5t12 -22t3 -28q0 -22 -6 -61h5q25 40 54 66t56.5 40t52 19.5t42.5 5.5q54 0 84 -30.5t30 -92.5q0 -13 -3 -47.5t-8.5 -83.5t-13 -108t-15.5 -121z" />
    <glyph glyph-name="Omacron" unicode="&#x14c;" horiz-adv-x="769" 
d="M438 705q79 0 136 -23t94 -63.5t54.5 -97t17.5 -122.5q0 -89 -25 -164t-72.5 -130t-117 -85.5t-159.5 -30.5q-78 0 -135 22t-94.5 61.5t-55.5 94.5t-18 122q0 86 23.5 162t71 132.5t117.5 89t163 32.5zM428 572q-47 0 -79 -24.5t-52 -65t-28.5 -92t-8.5 -105.5
q0 -78 27 -121t91 -43q44 0 75 22t50.5 60.5t28.5 91t9 113.5q0 35 -5.5 65t-18 52t-34.5 34.5t-55 12.5zM285 862h368l-14 -113h-368z" />
    <glyph glyph-name="omacron" unicode="&#x14d;" horiz-adv-x="605" 
d="M335 504q62 0 107.5 -16.5t75 -45.5t43.5 -70t14 -89q0 -60 -18.5 -113t-55 -93t-92.5 -63.5t-131 -23.5q-62 0 -107 16t-74 45t-43 68.5t-14 87.5q0 61 18.5 115t55 94.5t92 64t129.5 23.5zM324 375q-29 0 -48 -17t-30.5 -43t-16 -57t-4.5 -59q0 -36 14 -60t52 -24
q27 0 45.5 15t30 39.5t16.5 55.5t5 63q0 38 -13.5 62.5t-50.5 24.5zM180 675h366l-15 -114h-365z" />
    <glyph glyph-name="Obreve" unicode="&#x14e;" horiz-adv-x="769" 
d="M438 705q79 0 136 -23t94 -63.5t54.5 -97t17.5 -122.5q0 -89 -25 -164t-72.5 -130t-117 -85.5t-159.5 -30.5q-78 0 -135 22t-94.5 61.5t-55.5 94.5t-18 122q0 86 23.5 162t71 132.5t117.5 89t163 32.5zM428 572q-47 0 -79 -24.5t-52 -65t-28.5 -92t-8.5 -105.5
q0 -78 27 -121t91 -43q44 0 75 22t50.5 60.5t28.5 91t9 113.5q0 35 -5.5 65t-18 52t-34.5 34.5t-55 12.5zM458 741q-31 0 -57 11t-48.5 30.5t-40.5 45.5t-32 56l72 55q29 -48 63 -70t60 -22q9 0 21.5 1t32 9t46.5 25.5t64 49.5l41 -48q-29 -41 -59 -68.5t-58.5 -44
t-55 -23.5t-49.5 -7z" />
    <glyph glyph-name="obreve" unicode="&#x14f;" horiz-adv-x="605" 
d="M335 504q62 0 107.5 -16.5t75 -45.5t43.5 -70t14 -89q0 -60 -18.5 -113t-55 -93t-92.5 -63.5t-131 -23.5q-62 0 -107 16t-74 45t-43 68.5t-14 87.5q0 61 18.5 115t55 94.5t92 64t129.5 23.5zM324 375q-29 0 -48 -17t-30.5 -43t-16 -57t-4.5 -59q0 -36 14 -60t52 -24
q27 0 45.5 15t30 39.5t16.5 55.5t5 63q0 38 -13.5 62.5t-50.5 24.5zM342 549q-31 0 -57 11t-48 30.5t-40 45.5t-32 56l72 55q28 -48 62 -69.5t60 -21.5q9 0 21.5 1t32 8.5t46.5 25t64 49.5l41 -48q-29 -41 -58.5 -68.5t-58 -44t-55.5 -23.5t-50 -7z" />
    <glyph glyph-name="Ohungarumlaut" unicode="&#x150;" horiz-adv-x="769" 
d="M438 705q79 0 136 -23t94 -63.5t54.5 -97t17.5 -122.5q0 -89 -25 -164t-72.5 -130t-117 -85.5t-159.5 -30.5q-78 0 -135 22t-94.5 61.5t-55.5 94.5t-18 122q0 86 23.5 162t71 132.5t117.5 89t163 32.5zM428 572q-47 0 -79 -24.5t-52 -65t-28.5 -92t-8.5 -105.5
q0 -78 27 -121t91 -43q44 0 75 22t50.5 60.5t28.5 91t9 113.5q0 35 -5.5 65t-18 52t-34.5 34.5t-55 12.5zM384 741l-54 54l169 191l87 -85zM566 741l-55 54l170 191l86 -85z" />
    <glyph glyph-name="ohungarumlaut" unicode="&#x151;" horiz-adv-x="605" 
d="M335 504q62 0 107.5 -16.5t75 -45.5t43.5 -70t14 -89q0 -60 -18.5 -113t-55 -93t-92.5 -63.5t-131 -23.5q-62 0 -107 16t-74 45t-43 68.5t-14 87.5q0 61 18.5 115t55 94.5t92 64t129.5 23.5zM324 375q-29 0 -48 -17t-30.5 -43t-16 -57t-4.5 -59q0 -36 14 -60t52 -24
q27 0 45.5 15t30 39.5t16.5 55.5t5 63q0 38 -13.5 62.5t-50.5 24.5zM245 543l-56 52l160 201l89 -83zM424 543l-56 52l160 201l89 -83z" />
    <glyph glyph-name="OE" unicode="&#x152;" horiz-adv-x="939" 
d="M434 704q31 0 60.5 -4t55.5 -11h408q-7 -59 -14.5 -117t-14.5 -117h-128l14 114h-186l-19 -158q37 1 74 3t75 3q-4 -29 -7 -62t-7 -62q-38 1 -74.5 2.5t-74.5 1.5l-21 -176h197q3 31 7 61.5t8 60.5h128q-7 -61 -14.5 -121.5t-14.5 -121.5h-437q-23 -5 -47 -7.5t-49 -2.5
q-78 0 -134 22t-92 61.5t-53.5 94.5t-17.5 121q0 86 23.5 161.5t71 132t118 89t165.5 32.5zM367 120h10t10 1q14 113 27.5 224t27.5 224q-4 1 -8.5 1.5t-14.5 0.5q-46 -1 -78.5 -27.5t-52.5 -68.5t-29.5 -94.5t-9.5 -105.5q0 -32 6.5 -60t20.5 -49t36.5 -33.5t54.5 -12.5z
" />
    <glyph glyph-name="oe" unicode="&#x153;" horiz-adv-x="891" 
d="M695 505q36 0 67.5 -8.5t55 -26t37 -44.5t13.5 -64q0 -30 -13 -59.5t-46 -53.5t-90.5 -40.5t-146.5 -20.5q0 -4 -0.5 -8t-0.5 -9q0 -26 15.5 -43t64.5 -17q35 0 74 9t74 20l31 -100q-50 -27 -111.5 -38.5t-112.5 -11.5q-58 0 -95 15.5t-60 44.5q-31 -26 -75 -43t-98 -17
q-63 0 -108 16t-74 44.5t-42.5 68.5t-13.5 88q0 61 18 115t55 94t92 63.5t129 23.5q59 0 103 -18t68 -49q36 32 81 50.5t109 18.5zM324 375q-29 0 -48 -17t-30.5 -43t-16 -57t-4.5 -59q0 -36 14 -60t52 -24q27 0 45.5 15t30 39.5t16.5 55.5t5 63q0 38 -13.5 62.5t-50.5 24.5
zM670 381q-44 0 -67 -31.5t-27 -86.5q134 6 134 78q0 18 -10 29t-30 11z" />
    <glyph glyph-name="Racute" unicode="&#x154;" horiz-adv-x="726" 
d="M340 569l-22 -182h66q20 0 39 6t33.5 18.5t23.5 32.5t9 48q0 77 -76 77h-73zM303 272l-17 -150h64l-15 -122h-313l14 122h65l54 447h-65l16 122h371q60 0 100 -15t65 -40t35.5 -58.5t10.5 -69.5q0 -30 -7 -60t-23 -57t-40.5 -49.5t-59.5 -36.5l63 -186l77 -11l2 -104
q-17 -6 -37.5 -10.5t-40.5 -6.5t-37 -3t-27 -1q-26 0 -44 5.5t-30.5 17t-21 28t-15.5 39.5l-60 199h-84zM375 739l-43 65l196 162l69 -101z" />
    <glyph glyph-name="racute" unicode="&#x155;" horiz-adv-x="520" 
d="M217 504q27 0 43.5 -5t25.5 -14.5t12 -22.5t3 -29q0 -11 -2.5 -31.5t-4.5 -37.5h4q16 46 34.5 74t37 43t37 19.5t36.5 4.5q42 0 65.5 -28.5t29.5 -66.5l-82 -101q-18 11 -35 14.5t-31 3.5q-45 0 -72.5 -44.5t-44.5 -124.5l-20 -158h-178q16 124 29.5 220t18.5 153
q-3 0 -14.5 2.5t-24.5 4.5t-24.5 4.5t-14.5 2.5q0 1 1 14.5t2 29t2 28.5t1 14q60 19 97.5 25t68.5 6zM283 544l-54 57l171 193l81 -91z" />
    <glyph glyph-name="Rcommaaccent" unicode="&#x156;" horiz-adv-x="726" 
d="M340 569l-22 -182h66q20 0 39 6t33.5 18.5t23.5 32.5t9 48q0 77 -76 77h-73zM303 272l-17 -150h64l-15 -122h-313l14 122h65l54 447h-65l16 122h371q60 0 100 -15t65 -40t35.5 -58.5t10.5 -69.5q0 -30 -7 -60t-23 -57t-40.5 -49.5t-59.5 -36.5l63 -186l77 -11l2 -104
q-17 -6 -37.5 -10.5t-40.5 -6.5t-37 -3t-27 -1q-26 0 -44 5.5t-30.5 17t-21 28t-15.5 39.5l-60 199h-84zM343 -41q39 0 56 -23t17 -53t-13 -59t-35 -55.5t-49.5 -47.5t-55.5 -34l-35 51q26 18 43.5 35.5t24.5 44.5q-46 12 -46 59q0 33 25.5 57.5t67.5 24.5z" />
    <glyph glyph-name="rcommaaccent" unicode="&#x157;" horiz-adv-x="520" 
d="M217 504q27 0 43.5 -5t25.5 -14.5t12 -22.5t3 -29q0 -11 -2.5 -31.5t-4.5 -37.5h4q16 46 34.5 74t37 43t37 19.5t36.5 4.5q42 0 65.5 -28.5t29.5 -66.5l-82 -101q-18 11 -35 14.5t-31 3.5q-45 0 -72.5 -44.5t-44.5 -124.5l-20 -158h-178q16 124 29.5 220t18.5 153
q-3 0 -14.5 2.5t-24.5 4.5t-24.5 4.5t-14.5 2.5q0 1 1 14.5t2 29t2 28.5t1 14q60 19 97.5 25t68.5 6zM165 -41q39 0 56 -23t17 -53t-13 -59t-35 -55.5t-49.5 -47.5t-55.5 -34l-35 51q26 18 43.5 35.5t24.5 44.5q-46 12 -46 59q0 33 25.5 57.5t67.5 24.5z" />
    <glyph glyph-name="Rcaron" unicode="&#x158;" horiz-adv-x="726" 
d="M340 569l-22 -182h66q20 0 39 6t33.5 18.5t23.5 32.5t9 48q0 77 -76 77h-73zM303 272l-17 -150h64l-15 -122h-313l14 122h65l54 447h-65l16 122h371q60 0 100 -15t65 -40t35.5 -58.5t10.5 -69.5q0 -30 -7 -60t-23 -57t-40.5 -49.5t-59.5 -36.5l63 -186l77 -11l2 -104
q-17 -6 -37.5 -10.5t-40.5 -6.5t-37 -3t-27 -1q-26 0 -44 5.5t-30.5 17t-21 28t-15.5 39.5l-60 199h-84zM637 895l-174 -152h-111l-132 153l47 49l153 -97l181 99z" />
    <glyph glyph-name="rcaron" unicode="&#x159;" horiz-adv-x="520" 
d="M217 504q27 0 43.5 -5t25.5 -14.5t12 -22.5t3 -29q0 -11 -2.5 -31.5t-4.5 -37.5h4q16 46 34.5 74t37 43t37 19.5t36.5 4.5q42 0 65.5 -28.5t29.5 -66.5l-82 -101q-18 11 -35 14.5t-31 3.5q-45 0 -72.5 -44.5t-44.5 -124.5l-20 -158h-178q16 124 29.5 220t18.5 153
q-3 0 -14.5 2.5t-24.5 4.5t-24.5 4.5t-14.5 2.5q0 1 1 14.5t2 29t2 28.5t1 14q60 19 97.5 25t68.5 6zM502 705l-174 -155h-111l-132 156l46 50l153 -100l181 101z" />
    <glyph glyph-name="Sacute" unicode="&#x15a;" horiz-adv-x="652" 
d="M379 568q-47 0 -73.5 -20t-26.5 -55q0 -15 10.5 -26t27.5 -20.5t40 -17t47 -14.5q45 -13 83.5 -27.5t66 -36t43.5 -52t16 -75.5q0 -117 -85.5 -177t-246.5 -60q-26 0 -58.5 2.5t-66 8.5t-66.5 15.5t-60 24.5l20 181h127l-9 -76q13 -5 28.5 -9t31 -6t29.5 -3t24 -1
q33 0 56 6.5t37 17t20 23.5t6 26q0 19 -9 31.5t-28.5 22t-50 18t-72.5 20.5q-81 23 -122 64t-41 113q0 113 81 174t224 61q23 0 53 -2.5t61.5 -8t61.5 -14t53 -20.5l-22 -176h-127l8 73q-22 8 -47.5 11.5t-43.5 3.5zM351 737l-43 65l196 162l69 -101z" />
    <glyph glyph-name="sacute" unicode="&#x15b;" horiz-adv-x="548" 
d="M244 -11q-41 0 -80 5.5t-69 17.5t-48.5 30.5t-18.5 44.5q0 17 11.5 48t34.5 57l88 -4l-1 -72q20 -7 42 -9t39 -2q14 0 28 2t24.5 6.5t17 11t6.5 16.5q0 9 -9.5 18t-25 17.5t-35 16.5t-38.5 17q-26 12 -52 23.5t-46.5 26.5t-33.5 34.5t-13 46.5q0 39 17.5 70t50.5 52.5
t79.5 33.5t104.5 12q29 0 63 -4.5t63.5 -14.5t49.5 -27.5t20 -42.5q0 -9 -5 -23t-12.5 -29.5t-16.5 -30t-17 -24.5l-87 4l1 68q-10 4 -25.5 6t-29.5 2q-23 0 -42 -7t-19 -27q0 -14 18.5 -25.5t46 -23.5t60 -25.5t60 -32t46 -43t18.5 -57.5q0 -75 -68.5 -119t-196.5 -44z
M305 544l-54 57l171 193l81 -91z" />
    <glyph glyph-name="Scircumflex" unicode="&#x15c;" horiz-adv-x="652" 
d="M379 568q-47 0 -73.5 -20t-26.5 -55q0 -15 10.5 -26t27.5 -20.5t40 -17t47 -14.5q45 -13 83.5 -27.5t66 -36t43.5 -52t16 -75.5q0 -117 -85.5 -177t-246.5 -60q-26 0 -58.5 2.5t-66 8.5t-66.5 15.5t-60 24.5l20 181h127l-9 -76q13 -5 28.5 -9t31 -6t29.5 -3t24 -1
q33 0 56 6.5t37 17t20 23.5t6 26q0 19 -9 31.5t-28.5 22t-50 18t-72.5 20.5q-81 23 -122 64t-41 113q0 113 81 174t224 61q23 0 53 -2.5t61.5 -8t61.5 -14t53 -20.5l-22 -176h-127l8 73q-22 8 -47.5 11.5t-43.5 3.5zM548 735l-155 101l-178 -100l-36 50l171 156h111
l136 -155z" />
    <glyph glyph-name="scircumflex" unicode="&#x15d;" horiz-adv-x="548" 
d="M244 -11q-41 0 -80 5.5t-69 17.5t-48.5 30.5t-18.5 44.5q0 17 11.5 48t34.5 57l88 -4l-1 -72q20 -7 42 -9t39 -2q14 0 28 2t24.5 6.5t17 11t6.5 16.5q0 9 -9.5 18t-25 17.5t-35 16.5t-38.5 17q-26 12 -52 23.5t-46.5 26.5t-33.5 34.5t-13 46.5q0 39 17.5 70t50.5 52.5
t79.5 33.5t104.5 12q29 0 63 -4.5t63.5 -14.5t49.5 -27.5t20 -42.5q0 -9 -5 -23t-12.5 -29.5t-16.5 -30t-17 -24.5l-87 4l1 68q-10 4 -25.5 6t-29.5 2q-23 0 -42 -7t-19 -27q0 -14 18.5 -25.5t46 -23.5t60 -25.5t60 -32t46 -43t18.5 -57.5q0 -75 -68.5 -119t-196.5 -44z
M481 535l-155 102l-177 -100l-36 50l170 155h112l135 -155z" />
    <glyph glyph-name="Scedilla" unicode="&#x15e;" horiz-adv-x="652" 
d="M379 568q-47 0 -73.5 -20t-26.5 -55q0 -15 10.5 -26t27.5 -20.5t40 -17t47 -14.5q45 -13 83.5 -27.5t66 -36t43.5 -52t16 -75.5q0 -108 -72.5 -167t-209.5 -68l-35 -42q91 -15 91 -84q0 -18 -9.5 -40t-33.5 -41.5t-65.5 -32.5t-105.5 -14l-4 63q56 5 89.5 20t33.5 36
q0 8 -5.5 13t-14.5 8t-20.5 4t-22.5 1q-5 0 -9 -0.5t-9 -0.5l-15 30q33 40 66 78q-26 1 -56 4t-61 9t-60.5 15t-54.5 23l20 181h127l-9 -76q13 -5 28.5 -9t31 -6t29.5 -3t24 -1q33 0 56 6.5t37 17t20 23.5t6 26q0 19 -9 31.5t-28.5 22t-50 18t-72.5 20.5q-81 23 -122 64
t-41 113q0 113 81 174t224 61q23 0 53 -2.5t61.5 -8t61.5 -14t53 -20.5l-22 -176h-127l8 73q-22 8 -47.5 11.5t-43.5 3.5z" />
    <glyph glyph-name="scedilla" unicode="&#x15f;" horiz-adv-x="548" 
d="M509 152q0 -69 -59 -112t-168 -50q-8 -10 -17 -19.5t-17 -20.5q91 -15 91 -84q0 -18 -9.5 -40t-33.5 -41.5t-65.5 -32.5t-105.5 -14l-4 63q56 5 89.5 20t33.5 36q0 8 -5.5 13t-14.5 8t-20.5 4t-22.5 1q-5 0 -9 -0.5t-9 -0.5l-15 30q33 40 66 78q-37 2 -71 8.5t-59.5 18.5
t-40.5 29t-15 41q0 17 11.5 48t34.5 57l88 -4l-1 -72q20 -7 42 -9t39 -2q14 0 28 2t24.5 6.5t17 11t6.5 16.5q0 9 -9.5 18t-25 17.5t-35 16.5t-38.5 17q-26 12 -52 23.5t-46.5 26.5t-33.5 34.5t-13 46.5q0 39 17.5 70t50.5 52.5t79.5 33.5t104.5 12q29 0 63 -4.5t63.5 -14.5
t49.5 -27.5t20 -42.5q0 -9 -5 -23t-12.5 -29.5t-16.5 -30t-17 -24.5l-87 4l1 68q-10 4 -25.5 6t-29.5 2q-23 0 -42 -7t-19 -27q0 -14 18.5 -25.5t46 -23.5t60 -25.5t60 -32t46 -43t18.5 -57.5z" />
    <glyph glyph-name="Scaron" unicode="&#x160;" horiz-adv-x="652" 
d="M379 568q-47 0 -73.5 -20t-26.5 -55q0 -15 10.5 -26t27.5 -20.5t40 -17t47 -14.5q45 -13 83.5 -27.5t66 -36t43.5 -52t16 -75.5q0 -117 -85.5 -177t-246.5 -60q-26 0 -58.5 2.5t-66 8.5t-66.5 15.5t-60 24.5l20 181h127l-9 -76q13 -5 28.5 -9t31 -6t29.5 -3t24 -1
q33 0 56 6.5t37 17t20 23.5t6 26q0 19 -9 31.5t-28.5 22t-50 18t-72.5 20.5q-81 23 -122 64t-41 113q0 113 81 174t224 61q23 0 53 -2.5t61.5 -8t61.5 -14t53 -20.5l-22 -176h-127l8 73q-22 8 -47.5 11.5t-43.5 3.5zM621 895l-174 -152h-111l-132 153l47 49l153 -97l181 99z
" />
    <glyph glyph-name="scaron" unicode="&#x161;" horiz-adv-x="548" 
d="M244 -11q-41 0 -80 5.5t-69 17.5t-48.5 30.5t-18.5 44.5q0 17 11.5 48t34.5 57l88 -4l-1 -72q20 -7 42 -9t39 -2q14 0 28 2t24.5 6.5t17 11t6.5 16.5q0 9 -9.5 18t-25 17.5t-35 16.5t-38.5 17q-26 12 -52 23.5t-46.5 26.5t-33.5 34.5t-13 46.5q0 39 17.5 70t50.5 52.5
t79.5 33.5t104.5 12q29 0 63 -4.5t63.5 -14.5t49.5 -27.5t20 -42.5q0 -9 -5 -23t-12.5 -29.5t-16.5 -30t-17 -24.5l-87 4l1 68q-10 4 -25.5 6t-29.5 2q-23 0 -42 -7t-19 -27q0 -14 18.5 -25.5t46 -23.5t60 -25.5t60 -32t46 -43t18.5 -57.5q0 -75 -68.5 -119t-196.5 -44z
M553 705l-174 -155h-111l-132 156l46 50l153 -100l181 101z" />
    <glyph glyph-name="Tcommaaccent" unicode="&#x162;" horiz-adv-x="674" 
d="M140 0l14 122h80l55 447h-99l-14 -116h-128l30 238h637l-29 -238h-127l14 116h-99l-55 -447h80l-15 -122h-344zM321 -41q39 0 56 -23t17 -53t-13 -59t-35 -55.5t-49.5 -47.5t-55.5 -34l-35 51q26 18 43.5 35.5t24.5 44.5q-46 12 -46 59q0 33 25.5 57.5t67.5 24.5z" />
    <glyph glyph-name="tcommaaccent" unicode="&#x163;" horiz-adv-x="455" 
d="M317 639l-17 -146h140q0 -3 -2 -20.5t-4.5 -37.5t-4.5 -37t-3 -20h-139l-22 -175q-1 -6 -1.5 -12.5t-0.5 -11.5q0 -27 12.5 -38.5t42.5 -11.5q5 0 15 0.5t23 2t26.5 3t25.5 4.5l19 -122q-18 -7 -42.5 -12.5t-49.5 -9t-47 -5t-35 -1.5q-52 0 -85.5 11.5t-53.5 31.5
t-28 46.5t-8 56.5q0 24 3 45l24 198h-70l11 100l86 23l59 127zM202 -41q39 0 56 -23t17 -53t-13 -59t-35 -55.5t-49.5 -47.5t-55.5 -34l-35 51q26 18 43.5 35.5t24.5 44.5q-46 12 -46 59q0 33 25.5 57.5t67.5 24.5z" />
    <glyph glyph-name="Tcaron" unicode="&#x164;" horiz-adv-x="674" 
d="M140 0l14 122h80l55 447h-99l-14 -116h-128l30 238h637l-29 -238h-127l14 116h-99l-55 -447h80l-15 -122h-344zM632 895l-174 -152h-111l-132 153l47 49l153 -97l181 99z" />
    <glyph glyph-name="tcaron" unicode="&#x165;" horiz-adv-x="624" 
d="M557 768q39 0 56 -23t17 -53t-13 -59t-35 -55.5t-49.5 -47.5t-55.5 -34l-35 51q26 18 43.5 35.5t24.5 44.5q-46 12 -46 59q0 33 25.5 57.5t67.5 24.5zM317 639l-17 -146h140q0 -3 -2 -20.5t-4.5 -37.5t-4.5 -37t-3 -20h-139l-22 -175q-1 -6 -1.5 -12.5t-0.5 -11.5
q0 -27 12.5 -38.5t42.5 -11.5q5 0 15 0.5t23 2t26.5 3t25.5 4.5l19 -122q-18 -7 -42.5 -12.5t-49.5 -9t-47 -5t-35 -1.5q-52 0 -85.5 11.5t-53.5 31.5t-28 46.5t-8 56.5q0 24 3 45l24 198h-70l11 100l86 23l59 127z" />
    <glyph glyph-name="Tbar" unicode="&#x166;" horiz-adv-x="674" 
d="M140 0l14 122h80l22 192h-126l10 79h127l22 176h-100l-9 -87h-128l26 209h637l-25 -209h-127l10 87h-99l-22 -176h123l-10 -79h-123l-23 -192h80l-15 -122h-344z" />
    <glyph glyph-name="tbar" unicode="&#x167;" horiz-adv-x="455" 
d="M191 627q32 3 63 6t63 5l-18 -145h141q-4 -25 -7.5 -58t-6.5 -57h-140q-2 -14 -3.5 -28.5t-3.5 -28.5h126q-3 -17 -5 -34t-5 -34l-125 -2q-2 -17 -5 -36.5t-3 -36.5q0 -26 13 -38t43 -12q5 0 15 0.5t22.5 2t26 3.5t25.5 4q5 -30 9.5 -60t9.5 -61q-18 -7 -42 -12t-49 -8.5
t-47 -5t-35 -1.5q-50 0 -83.5 10.5t-54 30t-29 46t-8.5 59.5q0 29 3.5 58.5t7.5 58.5h-58l9 68h58l7 57h-70l11 100l86 22l59 127v0z" />
    <glyph glyph-name="Utilde" unicode="&#x168;" horiz-adv-x="776" 
d="M693 259q-8 -64 -30 -114t-61 -84.5t-95.5 -52.5t-134.5 -18q-83 0 -139.5 19.5t-89.5 55.5t-44.5 87.5t-3.5 116.5l36 300h-54l15 122h296l-15 -122h-57l-40 -320q-15 -128 107 -128q48 0 83.5 30t43.5 98l39 320h-57l16 122h295l-15 -122h-57zM541 758q-27 0 -53 6
t-50 13.5t-45.5 13.5t-38.5 6l-57 -39l-45 38q27 59 58.5 82t65.5 23q24 0 48 -5.5t47.5 -12.5t46.5 -12.5t44 -5.5l59 40l42 -38q-47 -109 -122 -109z" />
    <glyph glyph-name="utilde" unicode="&#x169;" horiz-adv-x="690" 
d="M225 504q46 0 64 -20t18 -57q0 -12 -4.5 -47t-10 -76t-10 -78.5t-4.5 -53.5q0 -18 7.5 -31t28.5 -13q13 0 27 8t28 25.5t27 45.5t24 68l29 217h173l-49 -371q19 1 35.5 6t33.5 11l34 -83q-21 -18 -45 -31.5t-48 -22.5t-47 -13t-41 -4q-53 0 -72.5 22.5t-19.5 60.5
q0 9 0.5 18t0.5 17h-5q-24 -35 -48.5 -57t-49.5 -34.5t-48.5 -17.5t-45.5 -5q-55 0 -86.5 25.5t-31.5 80.5q1 9 0.5 19.5t1.5 22.5q0 6 2.5 23.5t5.5 41.5t6.5 51.5t7 52t6 43.5t3.5 27l-83 13l8 85q59 17 102.5 24t75.5 7zM465 563q-27 0 -53 6t-50 13.5t-45.5 13.5
t-38.5 6l-57 -39l-45 38q27 59 58.5 82t65.5 23q24 0 48 -5.5t47.5 -12.5t46.5 -12.5t44 -5.5l59 40l42 -38q-47 -109 -122 -109z" />
    <glyph glyph-name="Umacron" unicode="&#x16a;" horiz-adv-x="776" 
d="M693 259q-8 -64 -30 -114t-61 -84.5t-95.5 -52.5t-134.5 -18q-83 0 -139.5 19.5t-89.5 55.5t-44.5 87.5t-3.5 116.5l36 300h-54l15 122h296l-15 -122h-57l-40 -320q-15 -128 107 -128q48 0 83.5 30t43.5 98l39 320h-57l16 122h295l-15 -122h-57zM287 862h368l-14 -113
h-368z" />
    <glyph glyph-name="umacron" unicode="&#x16b;" horiz-adv-x="690" 
d="M225 504q46 0 64 -20t18 -57q0 -12 -4.5 -47t-10 -76t-10 -78.5t-4.5 -53.5q0 -18 7.5 -31t28.5 -13q13 0 27 8t28 25.5t27 45.5t24 68l29 217h173l-49 -371q19 1 35.5 6t33.5 11l34 -83q-21 -18 -45 -31.5t-48 -22.5t-47 -13t-41 -4q-53 0 -72.5 22.5t-19.5 60.5
q0 9 0.5 18t0.5 17h-5q-24 -35 -48.5 -57t-49.5 -34.5t-48.5 -17.5t-45.5 -5q-55 0 -86.5 25.5t-31.5 80.5q1 9 0.5 19.5t1.5 22.5q0 6 2.5 23.5t5.5 41.5t6.5 51.5t7 52t6 43.5t3.5 27l-83 13l8 85q59 17 102.5 24t75.5 7zM212 675h366l-15 -114h-365z" />
    <glyph glyph-name="Ubreve" unicode="&#x16c;" horiz-adv-x="776" 
d="M693 259q-8 -64 -30 -114t-61 -84.5t-95.5 -52.5t-134.5 -18q-83 0 -139.5 19.5t-89.5 55.5t-44.5 87.5t-3.5 116.5l36 300h-54l15 122h296l-15 -122h-57l-40 -320q-15 -128 107 -128q48 0 83.5 30t43.5 98l39 320h-57l16 122h295l-15 -122h-57zM453 736q-31 0 -57 11
t-48 30.5t-40 45.5t-32 56l72 55q28 -48 62 -69.5t60 -21.5q9 0 21.5 1t32 8.5t46.5 25t64 49.5l41 -48q-29 -41 -58.5 -68.5t-58 -44t-55.5 -23.5t-50 -7z" />
    <glyph glyph-name="ubreve" unicode="&#x16d;" horiz-adv-x="690" 
d="M225 504q46 0 64 -20t18 -57q0 -12 -4.5 -47t-10 -76t-10 -78.5t-4.5 -53.5q0 -18 7.5 -31t28.5 -13q13 0 27 8t28 25.5t27 45.5t24 68l29 217h173l-49 -371q19 1 35.5 6t33.5 11l34 -83q-21 -18 -45 -31.5t-48 -22.5t-47 -13t-41 -4q-53 0 -72.5 22.5t-19.5 60.5
q0 9 0.5 18t0.5 17h-5q-24 -35 -48.5 -57t-49.5 -34.5t-48.5 -17.5t-45.5 -5q-55 0 -86.5 25.5t-31.5 80.5q1 9 0.5 19.5t1.5 22.5q0 6 2.5 23.5t5.5 41.5t6.5 51.5t7 52t6 43.5t3.5 27l-83 13l8 85q59 17 102.5 24t75.5 7zM368 549q-31 0 -57 11t-48 30.5t-40 45.5t-32 56
l72 55q28 -48 62 -69.5t60 -21.5q9 0 21.5 1t32 8.5t46.5 25t64 49.5l41 -48q-29 -41 -58.5 -68.5t-58 -44t-55.5 -23.5t-50 -7z" />
    <glyph glyph-name="Uring" unicode="&#x16e;" horiz-adv-x="776" 
d="M693 259q-8 -64 -30 -114t-61 -84.5t-95.5 -52.5t-134.5 -18q-83 0 -139.5 19.5t-89.5 55.5t-44.5 87.5t-3.5 116.5l36 300h-54l15 122h296l-15 -122h-57l-40 -320q-15 -128 107 -128q48 0 83.5 30t43.5 98l39 320h-57l16 122h295l-15 -122h-57zM451 717q-28 0 -51 10.5
t-38.5 28.5t-23 42t-4.5 51t16.5 51t33.5 42.5t45.5 29t54.5 10.5q28 0 50.5 -10.5t37 -28.5t21 -42.5t3.5 -51.5q-3 -28 -16.5 -52t-33 -42t-44 -28t-51.5 -10zM474 901q-23 0 -40.5 -16t-19.5 -39q-3 -20 9 -36.5t38 -16.5q23 0 38 16.5t17 36.5q3 23 -8 39t-34 16z" />
    <glyph glyph-name="uring" unicode="&#x16f;" horiz-adv-x="690" 
d="M225 504q46 0 64 -20t18 -57q0 -12 -4.5 -47t-10 -76t-10 -78.5t-4.5 -53.5q0 -18 7.5 -31t28.5 -13q13 0 27 8t28 25.5t27 45.5t24 68l29 217h173l-49 -371q19 1 35.5 6t33.5 11l34 -83q-21 -18 -45 -31.5t-48 -22.5t-47 -13t-41 -4q-53 0 -72.5 22.5t-19.5 60.5
q0 9 0.5 18t0.5 17h-5q-24 -35 -48.5 -57t-49.5 -34.5t-48.5 -17.5t-45.5 -5q-55 0 -86.5 25.5t-31.5 80.5q1 9 0.5 19.5t1.5 22.5q0 6 2.5 23.5t5.5 41.5t6.5 51.5t7 52t6 43.5t3.5 27l-83 13l8 85q59 17 102.5 24t75.5 7zM378 552q-28 0 -51 10.5t-38.5 28.5t-23 42
t-4.5 51t16.5 51t33.5 42.5t45.5 29t54.5 10.5q28 0 50.5 -10.5t37 -28.5t21 -42.5t3.5 -51.5q-3 -28 -16.5 -52t-33 -42t-44 -28t-51.5 -10zM401 736q-23 0 -40.5 -16t-19.5 -39q-3 -20 9 -36.5t38 -16.5q23 0 38 16.5t17 36.5q3 23 -8 39t-34 16z" />
    <glyph glyph-name="Uhungarumlaut" unicode="&#x170;" horiz-adv-x="776" 
d="M693 259q-8 -64 -30 -114t-61 -84.5t-95.5 -52.5t-134.5 -18q-83 0 -139.5 19.5t-89.5 55.5t-44.5 87.5t-3.5 116.5l36 300h-54l15 122h296l-15 -122h-57l-40 -320q-15 -128 107 -128q48 0 83.5 30t43.5 98l39 320h-57l16 122h295l-15 -122h-57zM369 741l-54 54l169 191
l87 -85zM551 741l-55 54l170 191l86 -85z" />
    <glyph glyph-name="uhungarumlaut" unicode="&#x171;" horiz-adv-x="690" 
d="M225 504q46 0 64 -20t18 -57q0 -12 -4.5 -47t-10 -76t-10 -78.5t-4.5 -53.5q0 -18 7.5 -31t28.5 -13q13 0 27 8t28 25.5t27 45.5t24 68l29 217h173l-49 -371q19 1 35.5 6t33.5 11l34 -83q-21 -18 -45 -31.5t-48 -22.5t-47 -13t-41 -4q-53 0 -72.5 22.5t-19.5 60.5
q0 9 0.5 18t0.5 17h-5q-24 -35 -48.5 -57t-49.5 -34.5t-48.5 -17.5t-45.5 -5q-55 0 -86.5 25.5t-31.5 80.5q1 9 0.5 19.5t1.5 22.5q0 6 2.5 23.5t5.5 41.5t6.5 51.5t7 52t6 43.5t3.5 27l-83 13l8 85q59 17 102.5 24t75.5 7zM461 543l-56 52l160 201l89 -83zM282 543l-56 52
l160 201l89 -83z" />
    <glyph glyph-name="Uogonek" unicode="&#x172;" horiz-adv-x="776" 
d="M693 259q-8 -62 -29 -111t-57.5 -83t-89.5 -53t-125 -22q-24 -29 -42 -61.5t-18 -56.5q0 -26 11.5 -37t35.5 -11q17 0 35.5 2.5t36.5 7.5q3 -14 5 -27l4 -26q-32 -17 -65.5 -25.5t-64.5 -8.5q-50 0 -75 20t-25 55q0 13 4 32t15 41.5t30.5 47t49.5 49.5q-71 4 -119 25.5
t-76 57t-37 84.5t-2 110l36 300h-54l15 122h296l-15 -122h-57l-40 -320q-15 -128 107 -128q48 0 83.5 30t43.5 98l39 320h-57l16 122h295l-15 -122h-57z" />
    <glyph glyph-name="uogonek" unicode="&#x173;" horiz-adv-x="690" 
d="M225 504q46 0 64 -20t18 -57q0 -12 -4.5 -47t-10 -76t-10 -78.5t-4.5 -53.5q0 -18 7.5 -31t28.5 -13q13 0 27 8t28 25.5t27 45.5t24 68l29 217h173l-49 -371q19 1 35.5 6t33.5 11l34 -83q-33 -29 -74 -46q-25 -30 -43.5 -63t-18.5 -57q0 -26 11.5 -37t35.5 -11
q17 0 35.5 2.5t36.5 7.5q3 -14 5 -27l4 -26q-32 -17 -65.5 -25.5t-64.5 -8.5q-50 0 -75 20t-25 55q0 23 14 62t58 84q-5 -1 -15 -1q-53 0 -72.5 22.5t-19.5 60.5q0 9 0.5 18t0.5 17h-5q-24 -35 -48.5 -57t-49.5 -34.5t-48.5 -17.5t-45.5 -5q-55 0 -86.5 25.5t-31.5 80.5
q1 9 0.5 19.5t1.5 22.5q0 6 2.5 23.5t5.5 41.5t6.5 51.5t7 52t6 43.5t3.5 27l-83 13l8 85q59 17 102.5 24t75.5 7z" />
    <glyph glyph-name="Wcircumflex" unicode="&#x174;" horiz-adv-x="1101" 
d="M564 305l-41 -97l-88 -208h-239l-87 568h-52l16 123h308l-15 -123h-55l27 -228l19 -176h2l69 173l74 181l-9 50h-56l16 123h299l-15 -123h-63l44 -227l31 -155h2l58 166l76 216h-58l16 123h307l-15 -123h-57q-5 -13 -22 -56.5t-40.5 -102t-50.5 -125t-50.5 -125
t-40.5 -102.5t-22 -57h-229l-39 209l-16 96h-4zM774 735l-155 101l-178 -100l-36 50l171 156h111l136 -155z" />
    <glyph glyph-name="wcircumflex" unicode="&#x175;" horiz-adv-x="901" 
d="M425 139q-1 0 -1.5 0.5t-1.5 0.5q-12 -23 -27.5 -46t-30.5 -42.5t-29 -35t-23 -22.5h-173q-9 91 -17.5 184t-18.5 185q-16 -3 -32 -7t-32 -7l-25 78q52 39 97.5 58t80.5 19q20 0 35 -5t25.5 -18t17 -35.5t8.5 -58.5q0 -8 1.5 -27t3 -44t3.5 -53.5t3.5 -53.5t2.5 -44.5
t1 -27.5h8q16 17 32 39t30 45t26 45.5t20 40.5q-2 16 -3 29t-3 29q-14 -3 -27 -6.5t-27 -6.5l-25 78q45 35 87.5 54.5t77.5 19.5q44 0 59.5 -24t18.5 -79l13 -263h7q17 22 35 51t34 60.5t28.5 65t18.5 65.5l-56 -8l-16 78q45 29 83.5 45t83.5 16q15 0 29.5 -4t26 -13.5
t19 -25.5t7.5 -41q0 -34 -11.5 -73.5t-31.5 -81t-47 -82.5t-57 -78t-62.5 -67.5t-63.5 -50.5h-173zM669 535l-155 102l-177 -100l-36 50l170 155h112l135 -155z" />
    <glyph glyph-name="Ycircumflex" unicode="&#x176;" horiz-adv-x="711" 
d="M504 568h-56l15 123h294l-16 -123h-48l-234 -318l-15 -128h73l-14 -122h-350l14 122h75l15 127l-152 319h-47l15 123h291l-15 -123h-55l80 -192h4zM585 735l-155 101l-178 -100l-36 50l171 156h111l136 -155z" />
    <glyph glyph-name="ycircumflex" unicode="&#x177;" horiz-adv-x="626" 
d="M513 507q39 0 61.5 -25.5t22.5 -86.5q0 -66 -23 -137.5t-63.5 -141t-95.5 -132.5t-119 -110.5t-134.5 -75.5t-140.5 -28q-17 0 -39.5 4t-42.5 15t-34 30.5t-14 51.5v10t1 10l66 39q26 -25 49.5 -32.5t49.5 -7.5q40 0 85.5 16t83.5 51q-12 48 -25.5 103t-28 109.5t-28 104
t-25.5 86.5l-72 -14l-25 79q48 40 94 58t78 18q29 0 46.5 -10t25.5 -38q7 -29 17.5 -74.5t22 -95.5t21.5 -99.5t18 -86.5q19 27 34 62.5t25 73t15.5 74t5.5 66.5l-30 -4l-30 -4l-17 80q43 30 83 46t82 16zM519 535l-155 102l-177 -100l-36 50l170 155h112l135 -155z" />
    <glyph glyph-name="Ydieresis" unicode="&#x178;" horiz-adv-x="711" 
d="M504 568h-56l15 123h294l-16 -123h-48l-234 -318l-15 -128h73l-14 -122h-350l14 122h75l15 127l-152 319h-47l15 123h291l-15 -123h-55l80 -192h4zM599 817q-3 -33 -27.5 -55.5t-56.5 -22.5t-50.5 21.5t-14.5 53.5q3 34 27.5 56t56.5 22q31 0 50 -21.5t15 -53.5zM401 817
q-4 -33 -28 -55.5t-56 -22.5q-31 0 -50 21.5t-16 53.5q3 34 28 56t56 22t50 -21.5t16 -53.5z" />
    <glyph glyph-name="Zacute" unicode="&#x179;" horiz-adv-x="652" 
d="M257 122h230l16 135h128l-31 -257h-598l15 120l393 450h-187l-15 -118h-128l30 239h557l-14 -116zM371 739l-43 65l196 162l69 -101z" />
    <glyph glyph-name="zacute" unicode="&#x17a;" horiz-adv-x="559" 
d="M17 90l281 292h-118l-36 -85l-90 8l11 124q1 20 9 32.5t19 19t23 9t21 2.5h389l9 -84l-286 -299h154l49 101l80 -5l-18 -146q-3 -19 -12 -30.5t-20.5 -18t-24 -8.5t-21.5 -2h-408zM310 544l-54 57l171 193l81 -91z" />
    <glyph glyph-name="Zdotaccent" unicode="&#x17b;" horiz-adv-x="652" 
d="M257 122h230l16 135h128l-31 -257h-598l15 120l393 450h-187l-15 -118h-128l30 239h557l-14 -116zM501 848q-2 -20 -11.5 -37.5t-23.5 -30.5t-31.5 -20.5t-36.5 -7.5q-38 0 -61 27t-18 66q2 20 11 37.5t23 30.5t31.5 20.5t36.5 7.5t34.5 -7.5t26 -20t16 -29.5t3.5 -36z
" />
    <glyph glyph-name="zdotaccent" unicode="&#x17c;" horiz-adv-x="559" 
d="M17 90l281 292h-118l-36 -85l-90 8l11 124q1 20 9 32.5t19 19t23 9t21 2.5h389l9 -84l-286 -299h154l49 101l80 -5l-18 -146q-3 -19 -12 -30.5t-20.5 -18t-24 -8.5t-21.5 -2h-408zM447 656q-2 -20 -11.5 -37.5t-23.5 -30.5t-31.5 -20.5t-36.5 -7.5q-38 0 -61 27t-18 66
q2 20 11 37.5t23 30.5t31.5 20.5t36.5 7.5t34.5 -7.5t26 -20t16 -29.5t3.5 -36z" />
    <glyph glyph-name="Zcaron" unicode="&#x17d;" horiz-adv-x="652" 
d="M257 122h230l16 135h128l-31 -257h-598l15 120l393 450h-187l-15 -118h-128l30 239h557l-14 -116zM631 895l-174 -152h-111l-132 153l47 49l153 -97l181 99z" />
    <glyph glyph-name="zcaron" unicode="&#x17e;" horiz-adv-x="559" 
d="M17 90l281 292h-118l-36 -85l-90 8l11 124q1 20 9 32.5t19 19t23 9t21 2.5h389l9 -84l-286 -299h154l49 101l80 -5l-18 -146q-3 -19 -12 -30.5t-20.5 -18t-24 -8.5t-21.5 -2h-408zM542 705l-174 -155h-111l-132 156l46 50l153 -100l181 101z" />
    <glyph glyph-name="florin" unicode="&#x192;" horiz-adv-x="611" 
d="M159 401h88q4 27 8.5 58.5t13 63t23 60.5t38.5 51.5t60 36t87 13.5q27 0 62 -3.5t73 -15.5l-25 -122q-21 4 -35 5.5t-30 1.5q-23 0 -39.5 -5t-28 -21t-19.5 -45.5t-14 -77.5h95v-111h-107q-1 -11 -3.5 -28t-5.5 -36.5t-6 -38.5t-6 -34q-4 -26 -9.5 -56t-15 -60t-24 -57
t-38.5 -48t-58 -33.5t-81 -12.5q-26 0 -65 3.5t-78 15.5l29 120q22 -4 37 -5.5t30 -1.5q20 0 35 5t26.5 17t19 33.5t13.5 54.5q6 37 10 63t7 44.5t4.5 31.5t2.5 23h-74v111z" />
    <glyph glyph-name="Ohorn" unicode="&#x1a0;" horiz-adv-x="794" 
d="M438 704q42 0 76.5 -6.5t63.5 -18.5t54.5 -29t50.5 -37q28 1 48.5 17t25.5 55l8 77h99q-2 -22 -4.5 -44t-5.5 -44q-3 -26 -11 -51.5t-23.5 -46.5t-39.5 -35.5t-59 -18.5q18 -56 18 -123q0 -89 -25 -164t-72.5 -129.5t-117 -85t-159.5 -30.5q-78 0 -135 21.5t-94.5 60.5
t-55.5 93.5t-18 121.5q0 87 23.5 163t71 132.5t118 89t163.5 32.5zM428 572q-47 0 -79.5 -25t-52.5 -65.5t-28.5 -92t-8.5 -105.5q0 -78 27 -121t91 -43q43 0 74.5 22t51 61t29 91.5t9.5 113.5q0 35 -5.5 65t-18.5 52t-34.5 34.5t-54.5 12.5z" />
    <glyph glyph-name="ohorn" unicode="&#x1a1;" horiz-adv-x="670" 
d="M335 504q69 0 116.5 -19.5t76.5 -54.5q27 1 43.5 14.5t21.5 50.5l9 78h98l-11 -88q-3 -24 -10 -48.5t-21 -45.5t-35.5 -36t-51.5 -21q2 -12 3 -24.5t1 -26.5q0 -60 -18.5 -113t-55 -93t-92.5 -63.5t-131 -23.5q-62 0 -107 16t-74 45t-43 68.5t-14 87.5q0 61 18.5 115
t55 94.5t92 64t129.5 23.5zM324 375q-29 0 -48 -17t-30.5 -43t-16 -57t-4.5 -59q0 -36 14 -60t52 -24q27 0 45.5 15t30 39.5t16.5 55.5t5 63q0 38 -13.5 62.5t-50.5 24.5z" />
    <glyph glyph-name="Uhorn" unicode="&#x1af;" horiz-adv-x="911" 
d="M727 543h40q29 0 47.5 13.5t23.5 52.5l13 124h98l-15 -134q-3 -28 -12 -55.5t-27.5 -49.5t-47 -35.5t-70.5 -13.5h-61l-23 -186q-8 -64 -30 -114t-61 -84.5t-95.5 -52.5t-134.5 -18q-83 0 -139.5 19.5t-89.5 55.5t-44.5 87.5t-3.5 116.5l36 300h-53l16 122h291l-15 -122
h-54l-40 -320q-15 -128 107 -128q48 0 83.5 30t43.5 98l39 320h-53l16 122h278l-15 -122h-44z" />
    <glyph glyph-name="uhorn" unicode="&#x1b0;" horiz-adv-x="767" 
d="M225 504q49 0 65.5 -20.5t16.5 -64.5q0 -8 -2 -26.5t-5.5 -42.5t-7 -51t-7 -52t-5.5 -45t-2 -30q0 -18 7.5 -31t28.5 -13q13 0 27 8t28 25.5t27 45.5t24 68l29 217h173l-8 -59h1q30 0 46.5 12.5t21.5 53.5l9 78h98q-4 -36 -8 -78.5t-19.5 -79t-47.5 -61t-92 -24.5h-23
q-8 -57 -15 -112t-12 -101q19 1 35.5 6t33.5 11l34 -83q-21 -18 -45 -31.5t-48 -22.5t-47 -13t-41 -4q-33 0 -51 10t-27 26.5t-11 37.5t-2 44h-5q-24 -35 -48.5 -57t-49.5 -34.5t-48.5 -17.5t-45.5 -5q-55 0 -86.5 25.5t-31.5 80.5q0 16 4.5 53.5t10 80.5t11 84t7.5 63
l-83 13l8 85q59 17 102.5 24t75.5 7z" />
    <glyph glyph-name="AEacute" unicode="&#x1fc;" horiz-adv-x="1056" 
d="M518 121l4 76h-216l-50 -76h51l-8 -121h-292l8 121h47l368 568h607l-14 -234h-128l6 114h-171l-9 -158l150 3l-8 -122l-150 4l-10 -175h190l8 122h129l-14 -243h-577l8 121h71zM697 739l-43 65l196 162l69 -101zM373 313h155l17 251h-6z" />
    <glyph glyph-name="aeacute" unicode="&#x1fd;" horiz-adv-x="863" 
d="M661 506q35 0 66 -8.5t54.5 -26.5t37.5 -45t14 -64q0 -30 -13 -58t-46 -50.5t-90.5 -38t-146.5 -19.5q0 -5 -0.5 -11t-0.5 -12q0 -29 15.5 -45.5t64.5 -16.5q35 0 74 9t74 20l31 -100q-24 -14 -53 -23.5t-58.5 -15.5t-58.5 -9t-54 -3q-70 0 -112 19t-64 51
q-52 -39 -112.5 -57.5t-106.5 -18.5q-45 0 -72.5 11t-42.5 28t-20 38.5t-5 42.5q0 19 3.5 40.5t15.5 42t34 39t59 31.5t91 19.5t129 2.5q0 5 1 18t1 16q0 35 -19.5 49t-68.5 14q-44 0 -82 -6t-70 -14l-22 109q46 19 105 29.5t115 10.5q24 0 46 -2t40.5 -9t33.5 -21t24 -37
q34 38 80.5 54.5t108.5 16.5zM495 544l-54 57l171 193l81 -91zM272 94q14 0 41 7t50 31q-3 22 -3 48v24q-41 0 -66.5 -5.5t-39.5 -14.5t-19 -21.5t-5 -27.5q0 -41 42 -41zM634 381q-44 0 -67.5 -30.5t-26.5 -80.5q135 3 135 71q0 18 -10.5 29t-30.5 11z" />
    <glyph glyph-name="Oslashacute" unicode="&#x1fe;" horiz-adv-x="769" 
d="M438 704q67 0 118 -16.5t87 -47.5l61 64h78l-101 -104q30 -39 44 -90t14 -111q0 -89 -25 -164t-72.5 -129.5t-117 -85t-159.5 -30.5q-71 0 -123.5 17t-89.5 49l-62 -64h-70q42 40 98 101q-27 38 -41 87.5t-14 107.5q0 87 23.5 163t71 132.5t117.5 88.5t163 32zM541 408
q0 13 -1 24t-4 22l-260 -273q14 -29 38.5 -45t62.5 -16q44 0 75 22t51 61t29 91.5t9 113.5zM428 572q-50 0 -82.5 -27t-51.5 -70.5t-26.5 -97.5t-7.5 -108q1 -7 1 -14t2 -14q63 66 130.5 137.5t128.5 136.5q-13 26 -36 41.5t-58 15.5zM417 739l-43 65l196 162l69 -101z" />
    <glyph glyph-name="oslashacute" unicode="&#x1ff;" horiz-adv-x="610" 
d="M334 503q53 0 93 -12t69 -34l46 46h60l-75 -73q24 -29 35.5 -68t11.5 -85q0 -60 -19 -112t-56.5 -90.5t-93 -61t-128.5 -22.5q-53 0 -93 11t-69 32l-43 -41h-58l71 68q-45 56 -45 136q0 64 17 120t53 97.5t91.5 65t132.5 23.5zM332 544l-54 57l171 193l81 -91zM290 114
q27 0 45.5 15.5t30 39.5t16 52.5t4.5 54.5v11t-2 11l-149 -154q8 -14 21 -22t34 -8zM324 375q-27 0 -46 -16t-31 -40.5t-17 -53t-5 -53.5q0 -5 0.5 -10.5t1.5 -10.5q38 38 74.5 77t73.5 78q-7 14 -19 21.5t-32 7.5z" />
    <glyph glyph-name="Scommaaccent" unicode="&#x218;" horiz-adv-x="652" 
d="M379 568q-47 0 -73.5 -20t-26.5 -55q0 -15 10.5 -26t27.5 -20.5t40 -17t47 -14.5q45 -13 83.5 -27.5t66 -36t43.5 -52t16 -75.5q0 -117 -85.5 -177t-246.5 -60q-26 0 -58.5 2.5t-66 8.5t-66.5 15.5t-60 24.5l20 181h127l-9 -76q13 -5 28.5 -9t31 -6t29.5 -3t24 -1
q33 0 56 6.5t37 17t20 23.5t6 26q0 19 -9 31.5t-28.5 22t-50 18t-72.5 20.5q-81 23 -122 64t-41 113q0 113 81 174t224 61q23 0 53 -2.5t61.5 -8t61.5 -14t53 -20.5l-22 -176h-127l8 73q-22 8 -47.5 11.5t-43.5 3.5zM306 -41q39 0 56 -23t17 -53t-13 -59t-35 -55.5
t-49.5 -47.5t-55.5 -34l-35 51q26 18 43.5 35.5t24.5 44.5q-46 12 -46 59q0 33 25.5 57.5t67.5 24.5z" />
    <glyph glyph-name="scommaaccent" unicode="&#x219;" horiz-adv-x="548" 
d="M244 -11q-41 0 -80 5.5t-69 17.5t-48.5 30.5t-18.5 44.5q0 17 11.5 48t34.5 57l88 -4l-1 -72q20 -7 42 -9t39 -2q14 0 28 2t24.5 6.5t17 11t6.5 16.5q0 9 -9.5 18t-25 17.5t-35 16.5t-38.5 17q-26 12 -52 23.5t-46.5 26.5t-33.5 34.5t-13 46.5q0 39 17.5 70t50.5 52.5
t79.5 33.5t104.5 12q29 0 63 -4.5t63.5 -14.5t49.5 -27.5t20 -42.5q0 -9 -5 -23t-12.5 -29.5t-16.5 -30t-17 -24.5l-87 4l1 68q-10 4 -25.5 6t-29.5 2q-23 0 -42 -7t-19 -27q0 -14 18.5 -25.5t46 -23.5t60 -25.5t60 -32t46 -43t18.5 -57.5q0 -75 -68.5 -119t-196.5 -44z
M256 -41q39 0 56 -23t17 -53t-13 -59t-35 -55.5t-49.5 -47.5t-55.5 -34l-35 51q26 18 43.5 35.5t24.5 44.5q-46 12 -46 59q0 33 25.5 57.5t67.5 24.5z" />
    <glyph glyph-name="schwa" unicode="&#x259;" horiz-adv-x="543" 
d="M212 -11q-35 0 -66 8.5t-54.5 26.5t-37.5 45t-14 63q0 31 12.5 60t45.5 53t90 40t147 21q0 5 0.5 9t0.5 9q0 26 -16 43t-64 17q-34 0 -73.5 -8.5t-73.5 -20.5l-32 100q50 27 111.5 39t112.5 12q66 0 107 -17.5t64.5 -46.5t31.5 -67t8 -78q0 -58 -15 -113t-50.5 -98.5
t-93 -70t-141.5 -26.5zM238 114q42 0 65.5 31t27.5 86q-132 -6 -132 -77q0 -18 9.5 -29t29.5 -11z" />
    <glyph glyph-name="primemod" unicode="&#x2b9;" horiz-adv-x="227" 
d="M110 361l-58 39l196 312l94 -58z" />
    <glyph glyph-name="circumflex" unicode="&#x2c6;" horiz-adv-x="587" 
d="M498 535l-155 102l-177 -100l-36 50l170 155h112l135 -155z" />
    <glyph glyph-name="caron" unicode="&#x2c7;" horiz-adv-x="587" 
d="M563 705l-174 -155h-111l-132 156l46 50l153 -100l181 101z" />
    <glyph glyph-name="breve" unicode="&#x2d8;" horiz-adv-x="593" 
d="M336 549q-31 0 -57 11t-48 30.5t-40 45.5t-32 56l72 55q28 -48 62 -69.5t60 -21.5q9 0 21.5 1t32 8.5t46.5 25t64 49.5l41 -48q-29 -41 -58.5 -68.5t-58 -44t-55.5 -23.5t-50 -7z" />
    <glyph glyph-name="dotaccent" unicode="&#x2d9;" horiz-adv-x="587" 
d="M433 656q-2 -20 -11.5 -37.5t-23.5 -30.5t-31.5 -20.5t-36.5 -7.5q-38 0 -61 27t-18 66q2 20 11 37.5t23 30.5t31.5 20.5t36.5 7.5t34.5 -7.5t26 -20t16 -29.5t3.5 -36z" />
    <glyph glyph-name="ring" unicode="&#x2da;" horiz-adv-x="587" 
d="M345 552q-28 0 -51 10.5t-38.5 28.5t-23 42t-4.5 51t16.5 51t33.5 42.5t45.5 29t54.5 10.5q28 0 50.5 -10.5t37 -28.5t21 -42.5t3.5 -51.5q-3 -28 -16.5 -52t-33 -42t-44 -28t-51.5 -10zM368 736q-23 0 -40.5 -16t-19.5 -39q-3 -20 9 -36.5t38 -16.5q23 0 38 16.5
t17 36.5q3 23 -8 39t-34 16z" />
    <glyph glyph-name="ogonek" unicode="&#x2db;" horiz-adv-x="593" 
d="M419 22q6 -6 12.5 -11.5t13.5 -10.5q-14 -16 -27 -33.5t-23.5 -35.5t-17 -35t-6.5 -30q0 -26 11.5 -37t35.5 -11q17 0 35.5 2.5t36.5 7.5q3 -14 5 -27l4 -26q-32 -17 -65.5 -25.5t-64.5 -8.5q-50 0 -75 20t-25 55q0 16 6 39t22.5 50.5t45.5 57.5t76 59z" />
    <glyph glyph-name="tilde" unicode="&#x2dc;" horiz-adv-x="587" 
d="M434 563q-27 0 -53 6t-50 13.5t-45.5 13.5t-38.5 6l-57 -39l-45 38q27 59 58.5 82t65.5 23q24 0 48 -5.5t47.5 -12.5t46.5 -12.5t44 -5.5l59 40l42 -38q-47 -109 -122 -109z" />
    <glyph glyph-name="hungarumlaut" unicode="&#x2dd;" horiz-adv-x="587" 
d="M235 543l-56 52l160 201l89 -83zM414 543l-56 52l160 201l89 -83z" />
    <glyph glyph-name="tonos" unicode="&#x384;" horiz-adv-x="587" 
d="M337 544l-54 57l171 193l81 -91z" />
    <glyph glyph-name="dieresistonos" unicode="&#x385;" horiz-adv-x="587" 
d="M583 646q-3 -32 -27 -54t-55 -22t-49 21t-15 52q4 33 27.5 55t54.5 22q30 0 49 -21t15 -53zM265 649q-3 -32 -27.5 -54t-54.5 -22t-49 21.5t-16 51.5q2 16 9.5 30.5t19 24.5t25.5 16t29 6q29 0 48.5 -21t15.5 -53zM328 547l-67 32l106 225l114 -52z" />
    <glyph glyph-name="Alphatonos" unicode="&#x386;" horiz-adv-x="770" 
d="M492 192h-219l-31 -70h58l-14 -122h-292l14 122h54l274 569h230l122 -569h53l-15 -122h-291l14 122h57zM378 427l-53 -119h147l-21 115l-19 120h-4zM45 510l-54 57l171 193l81 -91z" />
    <glyph glyph-name="anoteleia" unicode="&#x387;" horiz-adv-x="295" 
d="M259 369q-5 -40 -34.5 -68t-67.5 -28q-19 0 -34.5 7t-27 20t-16.5 29.5t-3 36.5q2 19 11.5 36.5t24 31t32 21t36.5 7.5q18 0 33.5 -7.5t26 -20t16 -29.5t3.5 -36z" />
    <glyph glyph-name="Epsilontonos" unicode="&#x388;" horiz-adv-x="692" 
d="M18 0l14 122h70l54 447h-68l15 121h598l-29 -235h-128l14 114h-214l-20 -158l182 4l-13 -120l-183 3l-21 -176h231l15 122h129l-29 -244h-617zM-129 511l-54 57l171 193l81 -91z" />
    <glyph glyph-name="Etatonos" unicode="&#x389;" horiz-adv-x="830" 
d="M445 0l15 122h60l21 176h-229l-21 -176h61l-15 -122h-319l14 122h71l55 447h-71l15 122h319l-15 -122h-61l-19 -156h229l20 156h-61l15 122h319l-15 -122h-71l-54 -447h70l-14 -122h-319zM-127 507l-54 57l171 193l81 -91z" />
    <glyph glyph-name="Iotatonos" unicode="&#x38a;" horiz-adv-x="461" 
d="M43 0l15 122h70l54 447h-70l16 122h324l-15 -122h-68l-55 -447h68l-14 -122h-325zM-100 507l-54 57l171 193l81 -91z" />
    <glyph glyph-name="Omicrontonos" unicode="&#x38c;" horiz-adv-x="769" 
d="M438 705q79 0 136 -23t94 -63.5t54.5 -97t17.5 -122.5q0 -89 -25 -164t-72.5 -130t-117 -85.5t-159.5 -30.5q-78 0 -135 22t-94.5 61.5t-55.5 94.5t-18 122q0 86 23.5 162t71 132.5t117.5 89t163 32.5zM428 572q-47 0 -79 -24.5t-52 -65t-28.5 -92t-8.5 -105.5
q0 -78 27 -121t91 -43q44 0 75 22t50.5 60.5t28.5 91t9 113.5q0 35 -5.5 65t-18 52t-34.5 34.5t-55 12.5zM-49 515l-54 57l171 193l81 -91z" />
    <glyph glyph-name="Upsilontonos" unicode="&#x38e;" horiz-adv-x="711" 
d="M504 568h-56l15 123h294l-16 -123h-48l-234 -318l-15 -128h73l-14 -122h-350l14 122h75l15 127l-152 319h-47l15 123h291l-15 -123h-55l80 -192h4zM-152 514l-54 57l171 193l81 -91z" />
    <glyph glyph-name="Omegatonos" unicode="&#x38f;" horiz-adv-x="781" 
d="M445 705q78 0 136 -22t95.5 -61t56 -93.5t18.5 -120.5q0 -39 -7 -79.5t-21.5 -78t-35 -71t-47.5 -58.5h98l-15 -121h-313l15 124q56 17 93.5 86t37.5 198q0 81 -31.5 122t-91.5 41q-44 0 -75.5 -23t-52 -63.5t-30.5 -96.5t-10 -122q0 -63 20.5 -97.5t47.5 -43.5
q-9 -62 -15 -125h-316l15 121h109l3 3q-30 28 -44.5 74.5t-14.5 103.5q0 87 25.5 161t73.5 128t117.5 84t158.5 30zM-48 515l-54 57l171 193l81 -91z" />
    <glyph glyph-name="iotadieresistonos" unicode="&#x390;" horiz-adv-x="405" 
d="M230 505q52 0 69.5 -18t17.5 -50q0 -9 -2.5 -30t-6 -49t-8 -61t-9 -65t-8.5 -61t-6 -49q18 1 37 5.5t35 11.5l34 -84q-20 -18 -45 -31.5t-50.5 -23t-49.5 -14t-42 -4.5q-61 0 -83 25.5t-22 67.5q0 7 0.5 13.5t1.5 14.5l36 272l-80 13l5 86q60 17 103.5 24t72.5 7z
M464 646q-3 -32 -27 -54t-55 -22t-49 21t-15 52q4 33 27.5 55t54.5 22q30 0 49 -21t15 -53zM146 649q-3 -32 -27.5 -54t-54.5 -22t-49 21.5t-16 51.5q2 16 9.5 30.5t19 24.5t25.5 16t29 6q29 0 48.5 -21t15.5 -53zM209 547l-67 32l106 225l114 -52z" />
    <glyph glyph-name="Alpha" unicode="&#x391;" horiz-adv-x="770" 
d="M492 192h-219l-31 -70h58l-14 -122h-292l14 122h54l274 569h230l122 -569h53l-15 -122h-291l14 122h57zM378 427l-53 -119h147l-21 115l-19 120h-4z" />
    <glyph glyph-name="Beta" unicode="&#x392;" horiz-adv-x="720" 
d="M591 362q29 -11 46.5 -28t27.5 -36.5t13 -39.5t3 -38q0 -52 -18.5 -92.5t-51.5 -69t-78.5 -43.5t-99.5 -15h-416q1 3 3 21.5t4.5 39.5t5 39t2.5 22h71q2 16 6 51t9.5 79.5t11.5 93t11 93t9.5 79t6.5 51.5h-70l16 121h404q99 0 144.5 -45t45.5 -118q0 -23 -4.5 -46
t-16.5 -44.5t-32.5 -40t-51.5 -32.5zM311 297q-2 -11 -4.5 -36t-6 -52t-6.5 -51.5t-4 -35.5h93q48 0 74.5 27t26.5 72q0 31 -19 53.5t-60 22.5h-94zM345 569q-2 -10 -4.5 -32.5t-5.5 -47.5t-6 -47.5t-4 -32.5h84q42 0 67 25.5t25 66.5q0 31 -17 49.5t-55 18.5h-84z" />
    <glyph glyph-name="Gamma" unicode="&#x393;" horiz-adv-x="661" 
d="M18 0l14 122h71l55 447h-70l15 121h603l-29 -235h-128l14 114h-218l-55 -447h89l-15 -122h-346z" />
    <glyph glyph-name="Delta" unicode="&#x394;" horiz-adv-x="745" 
d="M689 0h-684l14 113l307 578h220l155 -584zM454 399l-35 152h-3l-74 -153l-140 -276h315z" />
    <glyph glyph-name="Delta" unicode="&#x2206;" horiz-adv-x="745" 
d="M689 0h-684l14 113l307 578h220l155 -584zM454 399l-35 152h-3l-74 -153l-140 -276h315z" />
    <glyph glyph-name="Epsilon" unicode="&#x395;" horiz-adv-x="692" 
d="M18 0l14 122h70l54 447h-68l15 121h598l-29 -235h-128l14 114h-214l-20 -158l182 4l-13 -120l-183 3l-21 -176h231l15 122h129l-29 -244h-617z" />
    <glyph glyph-name="Zeta" unicode="&#x396;" horiz-adv-x="652" 
d="M257 122h230l16 135h128l-31 -257h-598l15 120l393 450h-187l-15 -118h-128l30 239h557l-14 -116z" />
    <glyph glyph-name="Eta" unicode="&#x397;" horiz-adv-x="830" 
d="M445 0l15 122h60l21 176h-229l-21 -176h61l-15 -122h-319l14 122h71l55 447h-71l15 122h319l-15 -122h-61l-19 -156h229l20 156h-61l15 122h319l-15 -122h-71l-54 -447h70l-14 -122h-319z" />
    <glyph glyph-name="Theta" unicode="&#x398;" horiz-adv-x="769" 
d="M310 410l198 2l-15 -116l-197 1zM438 705q79 0 136 -23t94 -63.5t54.5 -97t17.5 -122.5q0 -89 -25 -164t-72.5 -130t-117 -85.5t-159.5 -30.5q-78 0 -135 22t-94.5 61.5t-55.5 94.5t-18 122q0 86 23.5 162t71 132.5t117.5 89t163 32.5zM428 572q-47 0 -79 -24.5t-52 -65
t-28.5 -92t-8.5 -105.5q0 -78 27 -121t91 -43q44 0 75 22t50.5 60.5t28.5 91t9 113.5q0 35 -5.5 65t-18 52t-34.5 34.5t-55 12.5z" />
    <glyph glyph-name="Iota" unicode="&#x399;" horiz-adv-x="461" 
d="M43 0l15 122h70l54 447h-70l16 122h324l-15 -122h-68l-55 -447h68l-14 -122h-325z" />
    <glyph glyph-name="Kappa" unicode="&#x39a;" horiz-adv-x="763" 
d="M518 420l165 -297h54l-14 -123h-311l15 123h51l-103 187l-75 -59l-16 -129h60l-15 -122h-311l14 122h71l54 447h-70l15 120h316l-15 -120h-65l-19 -162l202 162h-50l14 120h300l-15 -120h-63z" />
    <glyph glyph-name="Lambda" unicode="&#x39b;" horiz-adv-x="758" 
d="M441 419l-19 123h-3l-52 -118l-136 -302h60l-14 -122h-291l15 122h53q6 13 27 57t49.5 102.5t60.5 124.5t60.5 125t49.5 102.5t27 57.5h233l122 -569h53l-15 -122h-296l15 122h55z" />
    <glyph glyph-name="Mu" unicode="&#x39c;" horiz-adv-x="1012" 
d="M524 317q8 17 17 33.5t18 33.5q21 41 41.5 80.5t42.5 79.5q6 12 17 31.5t22 41.5t21.5 41.5t16.5 31.5h309l-16 -121h-62q-14 -112 -27.5 -224t-27.5 -224h62l-14 -121h-299l14 121h56l40 330h-3q-8 -16 -16 -31.5t-17 -31.5q-14 -29 -29 -56.5t-30 -55.5l-84 -156h-151
q-13 36 -25 73t-24 73l-57 185h-3l-40 -330h61l-15 -121h-305l14 121h72l54 448h-71l15 121h304l48 -153q11 -35 21 -69.5t21 -69.5l24 -81h5z" />
    <glyph glyph-name="Nu" unicode="&#x39d;" horiz-adv-x="854" 
d="M578 263l38 306h-66l16 121h304q-4 -30 -8 -60.5t-7 -60.5h-66l-69 -569h-183q-29 57 -57 113t-57 113q-6 12 -16.5 34t-22 46t-22.5 46l-17 34q-8 17 -16 33t-16 33h-2q-11 -83 -21 -165.5t-20 -165.5h66q-4 -31 -7.5 -61t-6.5 -60h-305l14 121h68q13 112 26.5 223.5
t27.5 224.5h-67l15 121h267l92 -187q20 -41 39.5 -83t40.5 -87l34 -70h4z" />
    <glyph glyph-name="Xi" unicode="&#x39e;" horiz-adv-x="668" 
d="M213 546l-11 -85h-128l29 229h581l-28 -229h-129l10 85h-324zM500 145l13 101h128l-29 -246h-602l30 246h129l-13 -101h344zM204 299l14 114l285 2l-15 -118z" />
    <glyph glyph-name="Omicron" unicode="&#x39f;" horiz-adv-x="769" 
d="M438 705q79 0 136 -23t94 -63.5t54.5 -97t17.5 -122.5q0 -89 -25 -164t-72.5 -130t-117 -85.5t-159.5 -30.5q-78 0 -135 22t-94.5 61.5t-55.5 94.5t-18 122q0 86 23.5 162t71 132.5t117.5 89t163 32.5zM428 572q-47 0 -79 -24.5t-52 -65t-28.5 -92t-8.5 -105.5
q0 -78 27 -121t91 -43q44 0 75 22t50.5 60.5t28.5 91t9 113.5q0 35 -5.5 65t-18 52t-34.5 34.5t-55 12.5z" />
    <glyph glyph-name="Pi" unicode="&#x3a0;" horiz-adv-x="830" 
d="M445 0l15 122h60l55 447h-230l-54 -447h61l-15 -122h-319l14 122h71l55 447h-72l16 122h746l-16 -122h-70l-54 -447h70l-14 -122h-319z" />
    <glyph glyph-name="Rho" unicode="&#x3a1;" horiz-adv-x="665" 
d="M452 691q61 0 103 -14t68.5 -39.5t38 -61.5t11.5 -79q0 -48 -16.5 -92.5t-49 -78t-81.5 -53.5t-114 -20h-108l-17 -131h88l-14 -122h-343l14 122h68l55 447h-68l15 122h350zM342 569l-24 -199h55q45 0 73 31.5t28 84.5q0 83 -79 83h-53z" />
    <glyph glyph-name="Sigma" unicode="&#x3a3;" horiz-adv-x="666" 
d="M435 374l-3 -31l-181 -221h245l14 115h128l-28 -237h-610l13 104l210 255l-143 233l13 99h584l-29 -238h-127l15 116h-221z" />
    <glyph glyph-name="Tau" unicode="&#x3a4;" horiz-adv-x="674" 
d="M140 0l14 122h80l55 447h-99l-14 -116h-128l30 238h637l-29 -238h-127l14 116h-99l-55 -447h80l-15 -122h-344z" />
    <glyph glyph-name="Upsilon" unicode="&#x3a5;" horiz-adv-x="711" 
d="M504 568h-56l15 123h294l-16 -123h-48l-234 -318l-15 -128h73l-14 -122h-350l14 122h75l15 127l-152 319h-47l15 123h291l-15 -123h-55l80 -192h4z" />
    <glyph glyph-name="Phi" unicode="&#x3a6;" horiz-adv-x="887" 
d="M402 520q-36 -4 -66.5 -20.5t-52 -42t-33.5 -59.5t-12 -73q0 -57 30.5 -93t92.5 -45zM542 187q33 4 62 19.5t51 40t34.5 58.5t12.5 75q0 56 -28.5 95t-89.5 45zM599 649q72 -5 126 -26.5t90 -56.5t53.5 -82.5t17.5 -102.5q0 -69 -26 -126t-73.5 -99t-113.5 -67t-146 -31
l-7 -58h-182l7 58q-143 7 -217 77.5t-74 186.5q0 66 27 123.5t75.5 102t115 71.5t145.5 31l6 41h181z" />
    <glyph glyph-name="Chi" unicode="&#x3a7;" horiz-adv-x="742" 
d="M503 691h280l-15 -123h-50l-200 -226l134 -219h63l-14 -123h-338l15 123h46l-78 141l-114 -141h51l-14 -123h-278l15 123h47l204 248l-114 196h-76l15 124h340l-15 -124h-47l71 -125l108 126h-51z" />
    <glyph glyph-name="Psi" unicode="&#x3a8;" horiz-adv-x="942" 
d="M576 316q26 1 49 8.5t41 23.5t30.5 40t16.5 57l30 246h239l-15 -122h-58l-11 -91q-7 -62 -30.5 -114t-65 -90t-101.5 -60t-140 -24l-8 -68h70l-14 -122h-324l15 122h73l8 67q-82 3 -137.5 24.5t-88 59t-43.5 89.5t-4 115l12 92h-58l16 122h241l-30 -247q-7 -57 20 -91.5
t87 -36.5l31 253h-50l15 122h279l-15 -122h-48z" />
    <glyph glyph-name="Omega" unicode="&#x3a9;" horiz-adv-x="781" 
d="M445 705q78 0 136 -22t95.5 -61t56 -93.5t18.5 -120.5q0 -39 -7 -79.5t-21.5 -78t-35 -71t-47.5 -58.5h98l-15 -121h-313l15 124q56 17 93.5 86t37.5 198q0 81 -31.5 122t-91.5 41q-44 0 -75.5 -23t-52 -63.5t-30.5 -96.5t-10 -122q0 -63 20.5 -97.5t47.5 -43.5
q-9 -62 -15 -125h-316l15 121h109l3 3q-30 28 -44.5 74.5t-14.5 103.5q0 87 25.5 161t73.5 128t117.5 84t158.5 30z" />
    <glyph glyph-name="Iotadieresis" unicode="&#x3aa;" horiz-adv-x="461" 
d="M43 0l15 122h70l54 447h-70l16 122h324l-15 -122h-68l-55 -447h68l-14 -122h-325zM481 817q-3 -33 -27.5 -55.5t-56.5 -22.5t-50.5 21.5t-14.5 53.5q3 34 27.5 56t56.5 22q31 0 50 -21.5t15 -53.5zM283 817q-4 -33 -28 -55.5t-56 -22.5q-31 0 -50 21.5t-16 53.5
q3 34 28 56t56 22t50 -21.5t16 -53.5z" />
    <glyph glyph-name="Upsilondieresis" unicode="&#x3ab;" horiz-adv-x="711" 
d="M504 568h-56l15 123h294l-16 -123h-48l-234 -318l-15 -128h73l-14 -122h-350l14 122h75l15 127l-152 319h-47l15 123h291l-15 -123h-55l80 -192h4zM608 817q-3 -33 -27.5 -55.5t-56.5 -22.5t-50.5 21.5t-14.5 53.5q3 34 27.5 56t56.5 22q31 0 50 -21.5t15 -53.5zM410 817
q-4 -33 -28 -55.5t-56 -22.5q-31 0 -50 21.5t-16 53.5q3 34 28 56t56 22t50 -21.5t16 -53.5z" />
    <glyph glyph-name="alphatonos" unicode="&#x3ac;" horiz-adv-x="657" 
d="M314 503q63 0 122 -31l21 29q35 -2 69 -3.5t69 -3.5q-18 -113 -31.5 -202t-22.5 -171q20 2 35 6.5t33 12.5q6 -16 17 -41.5t18 -42.5q-18 -16 -40 -29t-46 -22.5t-47.5 -15t-43.5 -5.5q-44 0 -66.5 16t-29.5 45q-1 6 -1.5 12t-0.5 13q0 8 0.5 16t1.5 16h-5
q-45 -66 -89.5 -90.5t-93.5 -24.5q-66 0 -104.5 42.5t-38.5 128.5q0 71 17.5 134t52 110t85.5 74t119 27zM266 110q13 0 27.5 7t29.5 24t29.5 47t28.5 75q4 20 8.5 49t7.5 49q-20 7 -38.5 9t-30.5 2q-30 0 -51 -17.5t-34 -44.5t-19 -60t-6 -63q0 -38 13.5 -57.5t34.5 -19.5z
M347 543q-13 15 -26.5 29t-26.5 29l170 192l81 -91z" />
    <glyph glyph-name="epsilontonos" unicode="&#x3ad;" horiz-adv-x="511" 
d="M303 507q91 0 140 -19q35 -14 42 -32t6 -33q0 -9 -6.5 -39t-20.5 -61l-101 7l-1 56q-21 6 -41 6q-30 0 -50 -13.5t-20 -42.5q0 -20 17.5 -29t41.5 -9h35l-6 -87h-43q-12 0 -24.5 -2.5t-22.5 -8.5t-16.5 -16t-6.5 -24q0 -26 22 -36.5t64 -10.5q13 0 30 1.5t35.5 4t37.5 6
t36 8.5l30 -101q-23 -12 -51.5 -20.5t-59 -14t-61 -8t-55.5 -2.5q-56 0 -96 10.5t-66.5 29t-39 44t-13.5 56.5q0 44 26 77t71 47l1 5q-34 13 -52 38t-18 56q0 30 14 58t42.5 50t73 35.5t106.5 13.5zM269 544l-54 57l171 193l81 -91z" />
    <glyph glyph-name="etatonos" unicode="&#x3ae;" horiz-adv-x="666" 
d="M500 505q56 0 85 -32t29 -95q0 -7 -3 -34t-7 -64.5t-9.5 -82t-11 -88.5t-10 -83.5t-7.5 -65.5q18 1 33 6t32 11q1 -1 6 -14t11 -28t11 -28t6 -14q-23 -19 -48.5 -32.5t-51 -22.5t-49 -13t-40.5 -4q-29 0 -47 5.5t-28.5 17t-14.5 27.5t-4 37v13t1 17q3 28 7.5 65.5
t9.5 78.5t10 81.5t9.5 74t7 56.5t2.5 30q0 17 -8 30.5t-29 13.5q-30 0 -60 -37t-51 -109l-29 -222h-178q6 49 10.5 84t7.5 62t6 49.5t5.5 47.5t6 55.5t8.5 74.5l-81 14l6 86q60 19 99 25t71 6q27 0 43.5 -5t25 -14t11.5 -22t3 -29q0 -24 -6 -60h5q25 40 53.5 65.5t56.5 40
t52.5 20t42.5 5.5zM322 544l-54 57l171 193l81 -91z" />
    <glyph glyph-name="iotatonos" unicode="&#x3af;" horiz-adv-x="405" 
d="M230 505q52 0 69.5 -18t17.5 -50q0 -9 -2.5 -30t-6 -49t-8 -61t-9 -65t-8.5 -61t-6 -49q18 1 37 5.5t35 11.5l34 -84q-20 -18 -45 -31.5t-50.5 -23t-49.5 -14t-42 -4.5q-61 0 -83 25.5t-22 67.5q0 7 0.5 13.5t1.5 14.5l36 272l-80 13l5 86q60 17 103.5 24t72.5 7z
M191 544l-54 57l171 193l81 -91z" />
    <glyph glyph-name="upsilondieresistonos" unicode="&#x3b0;" horiz-adv-x="669" 
d="M223 505q45 0 64 -17.5t19 -52.5q0 -6 -2.5 -27t-6 -50t-7.5 -62t-7.5 -61.5t-6 -49.5t-2.5 -25q0 -18 8.5 -31t29.5 -13q27 0 51 27t42.5 67t31.5 86.5t17 85.5l-58 -7l-15 79q45 31 88 45.5t75 14.5q19 0 35.5 -4t29 -13.5t20 -25.5t7.5 -39q0 -34 -7.5 -80.5
t-25.5 -96t-46.5 -98t-70.5 -86.5t-98 -61t-129 -23q-47 0 -78 10.5t-49.5 29t-26.5 44t-8 56.5q0 13 2.5 41t5.5 63t7 73t7 71q-4 0 -16 2t-25 4t-25 4t-16 3l7 86q60 17 103.5 24t75.5 7zM602 646q-3 -32 -27 -54t-55 -22t-49 21t-15 52q4 33 27.5 55t54.5 22q30 0 49 -21
t15 -53zM284 649q-3 -32 -27.5 -54t-54.5 -22t-49 21.5t-16 51.5q2 16 9.5 30.5t19 24.5t25.5 16t29 6q29 0 48.5 -21t15.5 -53zM347 547l-67 32l106 225l114 -52z" />
    <glyph glyph-name="alpha" unicode="&#x3b1;" horiz-adv-x="657" 
d="M315 504q30 0 61 -7.5t60 -23.5l21 29l138 -7q-18 -113 -31 -202.5t-22 -170.5q19 2 34 6.5t33 12.5l35 -85q-18 -16 -40 -29.5t-45.5 -23t-47 -15t-43.5 -5.5q-54 0 -78 20t-24 60q0 16 5 39h-5q-45 -66 -89.5 -90.5t-93.5 -24.5q-66 0 -104.5 42.5t-38.5 128.5
q0 72 17.5 135t52 110t86 74t119.5 27zM267 111q13 0 27.5 6.5t29 24t29.5 47t29 74.5l16 98q-21 7 -39 9t-30 2q-30 0 -51 -17.5t-34 -44.5t-19 -59.5t-6 -62.5q0 -39 13.5 -58t34.5 -19z" />
    <glyph glyph-name="beta" unicode="&#x3b2;" horiz-adv-x="608" 
d="M482 403q27 -9 45 -25t28.5 -35.5t15 -42t4.5 -44.5q0 -59 -19.5 -108.5t-53.5 -85t-79 -55.5t-97 -20q-32 0 -62.5 6t-52.5 17q-5 -32 -9 -64t-7.5 -60.5t-6 -52t-4.5 -39.5h-183q7 55 14.5 115t17 135.5t21 172.5t28.5 226q6 55 24 106t51 90t83 62.5t121 23.5
q60 0 100 -14.5t65 -37.5t35.5 -53.5t10.5 -61.5q0 -56 -26 -95.5t-64 -56.5v-3zM349 594q-27 0 -48.5 -19t-27.5 -67l-46 -375q18 -9 36 -13t34 -4q22 0 41 11t32 30t20.5 45t7.5 57q0 38 -19.5 60t-64.5 22h-25l12 104h26q29 0 51.5 23.5t22.5 71.5q0 54 -52 54z" />
    <glyph glyph-name="gamma" unicode="&#x3b3;" horiz-adv-x="640" 
d="M314 214q16 61 38 114.5t50 93t62 62.5t74 23q35 0 66 -13.5t45 -39.5l-33 -77q-13 4 -25 4q-28 0 -53.5 -20t-49 -53.5t-44.5 -76.5t-38.5 -89t-32 -92t-24.5 -84q-1 -57 -1 -101.5t-7 -91.5l-15 -16q-69 -4 -112.5 10.5t-68.5 31.5q6 34 19.5 85.5t31.5 102.5l-83 376
l-64 -13l-25 78q51 40 100.5 58.5t83.5 18.5q43 0 63 -21t23 -79l15 -191h5z" />
    <glyph glyph-name="delta" unicode="&#x3b4;" horiz-adv-x="600" 
d="M318 371q-25 -5 -43 -22.5t-29.5 -42t-17 -54t-5.5 -56.5q0 -35 14.5 -57.5t52.5 -22.5q26 0 44 12t29 32.5t16 47.5t5 56q0 39 -16.5 67t-49.5 40zM376 724q29 0 61 -4t58.5 -14t44 -26.5t17.5 -41.5q0 -15 -7.5 -45t-21.5 -65l-101 5v69q-9 4 -20 5.5t-22 1.5
q-25 0 -47.5 -10t-22.5 -38q0 -17 15 -27.5t31 -17.5q48 -22 86.5 -44t65.5 -50.5t41.5 -66.5t14.5 -90q0 -54 -17.5 -103.5t-53.5 -87.5t-90.5 -61t-127.5 -23q-62 0 -107 15.5t-74.5 43t-44 66t-14.5 85.5q0 85 39 152t115 99q-29 21 -45 45.5t-16 56.5q0 82 65.5 126.5
t177.5 44.5z" />
    <glyph glyph-name="epsilon" unicode="&#x3b5;" horiz-adv-x="511" 
d="M303 507q91 0 140 -19q35 -14 42 -32t6 -33q0 -9 -6.5 -39t-20.5 -61l-101 7l-1 56q-21 6 -41 6q-30 0 -50 -13.5t-20 -42.5q0 -20 17.5 -29t41.5 -9h35l-6 -87h-43q-12 0 -24.5 -2.5t-22.5 -8.5t-16.5 -16t-6.5 -24q0 -26 22 -36.5t64 -10.5q13 0 30 1.5t35.5 4t37.5 6
t36 8.5l30 -101q-23 -12 -51.5 -20.5t-59 -14t-61 -8t-55.5 -2.5q-56 0 -96 10.5t-66.5 29t-39 44t-13.5 56.5q0 44 26 77t71 47l1 5q-34 13 -52 38t-18 56q0 30 14 58t42.5 50t73 35.5t106.5 13.5z" />
    <glyph glyph-name="zeta" unicode="&#x3b6;" horiz-adv-x="480" 
d="M196 525l-98 10l10 120q1 20 9 32.5t19 19.5t23 9.5t21 2.5h364l17 -102q-82 -61 -143 -119.5t-101.5 -110t-61 -95t-23.5 -75.5q-2 -32 22 -53.5t83 -43.5q29 -11 56 -21t47.5 -23t32.5 -31t11 -43q-2 -29 -19 -57t-42 -54.5t-53.5 -49.5t-53.5 -41l-68 74
q17 19 28.5 32.5t18 22.5t9.5 14.5t3 9.5q1 11 -9 18t-33 13q-60 19 -103 37t-69.5 40t-38.5 50.5t-10 70.5q1 41 25.5 92t67 106.5t100 113t125.5 110.5l-1 4h-129z" />
    <glyph glyph-name="eta" unicode="&#x3b7;" horiz-adv-x="666" 
d="M500 505q56 0 85 -32t29 -95q0 -7 -3 -34t-7 -64.5t-9.5 -82t-11 -88.5t-10 -83.5t-7.5 -65.5q18 1 33 6t32 11q1 -1 6 -14t11 -28t11 -28t6 -14q-23 -19 -48.5 -32.5t-51 -22.5t-49 -13t-40.5 -4q-29 0 -47 5.5t-28.5 17t-14.5 27.5t-4 37v13t1 17q3 28 7.5 65.5
t9.5 78.5t10 81.5t9.5 74t7 56.5t2.5 30q0 17 -8 30.5t-29 13.5q-30 0 -60 -37t-51 -109l-29 -222h-178q6 49 10.5 84t7.5 62t6 49.5t5.5 47.5t6 55.5t8.5 74.5l-81 14l6 86q60 19 99 25t71 6q27 0 43.5 -5t25 -14t11.5 -22t3 -29q0 -24 -6 -60h5q25 40 53.5 65.5t56.5 40
t52.5 20t42.5 5.5z" />
    <glyph glyph-name="theta" unicode="&#x3b8;" horiz-adv-x="599" 
d="M357 728q62 0 104.5 -20.5t69 -57.5t38 -87.5t11.5 -110.5q0 -90 -17 -174t-54.5 -148t-97 -102.5t-143.5 -38.5q-63 0 -106.5 21.5t-70 59t-38 88t-11.5 108.5q0 93 18.5 177t57.5 147t98.5 100.5t140.5 37.5zM224 312q-5 -35 -7.5 -62.5t-2.5 -47.5q0 -46 15 -67.5
t52 -21.5q24 0 41.5 15.5t29.5 42.5t20 63t13 78h-161zM397 420q6 48 6 80q0 46 -13.5 72.5t-48.5 26.5q-48 0 -70.5 -47t-33.5 -132h160z" />
    <glyph glyph-name="iota" unicode="&#x3b9;" horiz-adv-x="405" 
d="M230 505q52 0 69.5 -18t17.5 -50q0 -9 -2.5 -30t-6 -49t-8 -61t-9 -65t-8.5 -61t-6 -49q18 1 37 5.5t35 11.5l34 -84q-20 -18 -45 -31.5t-50.5 -23t-49.5 -14t-42 -4.5q-61 0 -83 25.5t-22 67.5q0 7 0.5 13.5t1.5 14.5l36 272l-80 13l5 86q60 17 103.5 24t72.5 7z" />
    <glyph glyph-name="kappa" unicode="&#x3ba;" horiz-adv-x="638" 
d="M529 505q24 0 40.5 -8.5t28.5 -21t19.5 -27.5t12.5 -28l-60 -66q-13 9 -26 14.5t-29 5.5q-25 0 -51.5 -18t-53.5 -47q14 -28 30 -57.5t31.5 -56.5t29.5 -48.5t24 -33.5q19 5 32 12.5t27 15.5l47 -66q-24 -27 -47.5 -45.5t-45 -29t-40 -15t-30.5 -4.5q-23 0 -42 8.5
t-37.5 30.5t-39 60.5t-45.5 98.5q-12 -18 -20 -32t-17 -34l-17 -113h-177l47 377l-87 13l6 86q58 17 104.5 25t78.5 8q51 0 69.5 -21.5t18.5 -57.5q0 -7 -1.5 -19t-3 -25.5t-4 -27t-3.5 -22.5l4 -1q24 33 51.5 64t56.5 54.5t59 37.5t60 14z" />
    <glyph glyph-name="lambda" unicode="&#x3bb;" horiz-adv-x="640" 
d="M544 122q17 2 31 6.5t28 10.5l33 -84q-41 -36 -87.5 -53t-80.5 -17q-46 0 -67.5 19t-28.5 58l-51 282h-3l-150 -344h-180l219 456h96l-26 147l-116 21l-3 93q22 7 48 13t50.5 10.5t45.5 6.5t32 2q30 0 48.5 -6.5t29.5 -17.5t16.5 -27t9.5 -35z" />
    <glyph glyph-name="nu" unicode="&#x3bd;" horiz-adv-x="643" 
d="M186 505q47 0 66 -27.5t25 -82.5l29 -247h8q18 21 38 49t37.5 58.5t31 62.5t19.5 62l-65 -10l-17 80q45 29 89 45.5t86 16.5q17 0 33.5 -4t29 -13.5t20 -25.5t7.5 -40q0 -34 -13 -74t-35 -81.5t-51.5 -83t-61.5 -78.5t-66 -68t-65 -51h-177l-51 370l-64 -13l-25 78
q51 40 95 58.5t77 18.5z" />
    <glyph glyph-name="xi" unicode="&#x3be;" horiz-adv-x="504" 
d="M369 728q15 0 35.5 -1.5t43 -5t44.5 -8.5t42 -12q-7 -31 -14 -61t-14 -62q-45 11 -82 14.5t-58 3.5q-48 0 -72 -23.5t-24 -59.5q0 -32 22 -48t63 -16h103q-3 -30 -6.5 -60.5t-7.5 -60.5h-95q-64 0 -96.5 -31.5t-32.5 -75.5q0 -34 32 -59t107 -57q70 -29 100 -55.5
t30 -63.5q0 -48 -35 -101t-112 -107q-20 17 -40 34.5t-40 34.5q31 38 43.5 58t12.5 28q0 14 -14.5 25t-52.5 26q-44 18 -82.5 37t-67 43.5t-45.5 56.5t-17 76q0 69 36 120.5t95 73.5q-45 20 -64.5 55.5t-19.5 75.5t16.5 77t51 65.5t88 46t127.5 17.5z" />
    <glyph glyph-name="omicron" unicode="&#x3bf;" horiz-adv-x="605" 
d="M335 504q62 0 107.5 -16.5t75 -45.5t43.5 -70t14 -89q0 -60 -18.5 -113t-55 -93t-92.5 -63.5t-131 -23.5q-62 0 -107 16t-74 45t-43 68.5t-14 87.5q0 61 18.5 115t55 94.5t92 64t129.5 23.5zM324 375q-29 0 -48 -17t-30.5 -43t-16 -57t-4.5 -59q0 -36 14 -60t52 -24
q27 0 45.5 15t30 39.5t16.5 55.5t5 63q0 38 -13.5 62.5t-50.5 24.5z" />
    <glyph glyph-name="pi" unicode="&#x3c0;" horiz-adv-x="694" 
d="M234 0h-180q12 94 23.5 187.5t22.5 188.5h-62l14 114h619q-3 -29 -6 -57t-7 -57h-64l-31 -255q18 1 36 5.5t35 11.5l34 -83q-21 -18 -46.5 -31.5t-51.5 -22t-50 -13t-42 -4.5q-56 0 -79 25t-23 66v12t1 13l35 276h-132z" />
    <glyph glyph-name="rho" unicode="&#x3c1;" horiz-adv-x="610" 
d="M295 122q16 0 33.5 7t32.5 24.5t25 48t10 77.5q0 30 -6.5 49t-16.5 29t-22.5 13.5t-24.5 3.5q-35 0 -60 -29t-32 -84l-16 -121q17 -10 37 -14t40 -4zM42 188q11 91 38.5 151.5t67 97t88.5 51.5t104 15q61 0 105.5 -16.5t74 -46t43.5 -70t14 -88.5q0 -63 -16.5 -116.5
t-48 -92t-78.5 -60.5t-108 -22q-11 0 -26.5 1t-33 4t-34.5 7.5t-30 10.5l-27 -221h-181z" />
    <glyph glyph-name="sigma1" unicode="&#x3c2;" horiz-adv-x="496" 
d="M36 213q0 48 13.5 99.5t47 94.5t89 70.5t139.5 27.5q18 0 37 -1.5t36.5 -3.5t32 -5.5t22.5 -6.5q27 -11 38.5 -25.5t10.5 -35.5q0 -11 -3 -27.5t-8 -35.5t-11 -37.5t-13 -34.5l-101 4l1 78q-6 2 -16 2.5t-18 0.5q-51 0 -81 -39.5t-30 -106.5q0 -17 5 -32.5t17 -30t33 -29
t53 -30.5q60 -30 86 -56t26 -58q0 -21 -11 -47t-31 -53.5t-47 -55t-60 -52.5l-85 74q16 19 25.5 32.5t15 23t7.5 15.5t2 10q0 11 -10.5 20t-34.5 20q-44 21 -77.5 43t-55.5 49.5t-33 61t-11 77.5z" />
    <glyph glyph-name="sigma" unicode="&#x3c3;" horiz-adv-x="621" 
d="M528 369q17 -18 25.5 -47t8.5 -59q0 -57 -20 -106.5t-57.5 -86t-91.5 -57.5t-123 -21q-62 0 -107 15.5t-74 44t-43 67.5t-14 87q0 60 20 112t58.5 90.5t95 61t130.5 22.5h292l-14 -116h-81zM314 367q-27 0 -46 -14.5t-30 -38t-16 -52.5t-5 -59q0 -43 15 -66t52 -23
q48 0 71.5 47t23.5 119q0 38 -13.5 62.5t-51.5 24.5z" />
    <glyph glyph-name="tau" unicode="&#x3c4;" horiz-adv-x="479" 
d="M311 376l-21 -173q-1 -6 -1 -12v-12q0 -24 11.5 -37t43.5 -13q8 0 36.5 2t54.5 7q1 -6 3.5 -23.5t5.5 -37t5.5 -37t3.5 -23.5q-18 -7 -42.5 -12t-49.5 -8.5t-47 -5t-36 -1.5q-51 0 -85 11.5t-54 31.5t-28 46.5t-8 56.5q0 20 3 38l23 202h-100l15 117h417l-14 -117h-136z
" />
    <glyph glyph-name="upsilon" unicode="&#x3c5;" horiz-adv-x="669" 
d="M223 505q45 0 64 -17.5t19 -52.5q0 -6 -2.5 -27t-6 -50t-7.5 -62t-7.5 -61.5t-6 -49.5t-2.5 -25q0 -18 8.5 -31t29.5 -13q27 0 51 27t42.5 67t31.5 86.5t17 85.5l-58 -7l-15 79q45 31 88 45.5t75 14.5q19 0 35.5 -4t29 -13.5t20 -25.5t7.5 -39q0 -34 -7.5 -80.5
t-25.5 -96t-46.5 -98t-70.5 -86.5t-98 -61t-129 -23q-47 0 -78 10.5t-49.5 29t-26.5 44t-8 56.5q0 13 2.5 41t5.5 63t7 73t7 71q-4 0 -16 2t-25 4t-25 4t-16 3l7 86q60 17 103.5 24t75.5 7z" />
    <glyph glyph-name="phi" unicode="&#x3c6;" horiz-adv-x="804" 
d="M567 504q97 0 150.5 -58.5t53.5 -159.5q0 -60 -20.5 -113t-61 -93t-99.5 -64t-136 -26l-22 -197h-173l24 198q-73 5 -120 26t-74.5 51.5t-38 68t-10.5 75.5q0 42 11.5 87.5t37 86.5t66.5 74t100 49q1 -3 9.5 -18.5t17.5 -33.5t17 -33t9 -18q-44 -25 -68.5 -74.5
t-24.5 -113.5q0 -47 20.5 -74t60.5 -32q2 13 4.5 32t5 38.5t5 37.5t4.5 29q7 56 25 103t48.5 80.5t74.5 52.5t104 19zM550 376q-6 0 -14 -3t-16 -11t-15 -23.5t-11 -39.5q-1 -4 -4.5 -31t-7.5 -59t-8 -60.5t-5 -34.5q58 3 91 50.5t33 137.5q0 32 -11 53t-32 21z" />
    <glyph glyph-name="chi" unicode="&#x3c7;" horiz-adv-x="622" 
d="M123 -22q-4 0 -7.5 -0.5t-8.5 -0.5q-23 25 -45 51t-45 52q0 5 0.5 10.5t0.5 10.5l192 149q-14 26 -26.5 52t-26.5 52l-77 -20q-10 20 -19 40t-20 40q56 50 103.5 69t84.5 19q25 0 41.5 -10.5t30 -29t26 -43.5t29.5 -55q31 35 61 69.5t62 69.5h19q46 -48 91 -100l-2 -18
q-43 -34 -86 -68.5t-86 -69.5l58 -114q21 5 37.5 12t34.5 18l62 -74q-24 -33 -50.5 -54t-52 -33t-48.5 -16t-39 -4q-30 0 -49.5 9.5t-35 28.5t-29.5 47.5t-33 66.5q-36 -40 -72.5 -79t-74.5 -77z" />
    <glyph glyph-name="psi" unicode="&#x3c8;" horiz-adv-x="867" 
d="M472 -94h71l-14 -116h-299l16 116h60q2 23 5 45l6 44q-115 15 -178 73.5t-63 147.5q0 26 5.5 66.5t10.5 87.5l-65 13q2 22 3.5 43t3.5 43q57 17 94 24t68 7q49 0 64 -20.5t15 -59.5q0 -7 -1.5 -23t-4 -36t-5.5 -41.5t-5.5 -40.5t-4 -33t-1.5 -18q0 -17 3.5 -34t12.5 -31
t24.5 -25t38.5 -17q16 116 30.5 231.5t29.5 231.5q-21 3 -41.5 6.5t-41.5 7.5l6 86q59 17 97 23.5t68 6.5q46 0 65 -19t19 -57q0 -16 -6.5 -69.5t-15.5 -127.5t-20.5 -159t-21.5 -163q42 6 72 31t49 61t29 78.5t12 81.5l-48 -6q-3 20 -7.5 41t-8.5 42q36 26 78.5 42t74.5 16
q45 0 63 -26.5t18 -70.5q0 -53 -16 -119.5t-55.5 -128t-107 -108t-169.5 -59.5v-1z" />
    <glyph glyph-name="omega" unicode="&#x3c9;" horiz-adv-x="816" 
d="M498 333l-17 -148q-1 -5 -1 -14q0 -25 12 -39.5t35 -14.5q34 0 57.5 40t23.5 132q0 32 -12 57.5t-44 41.5l45 115q53 -6 89 -24.5t58 -46.5t31.5 -65t9.5 -80q0 -58 -14.5 -111.5t-45.5 -94.5t-80 -65.5t-118 -24.5q-42 0 -80 16t-58 53h-6q-30 -37 -72.5 -53t-84.5 -16
q-56 0 -93 15.5t-58.5 42.5t-30.5 63.5t-9 78.5q0 62 14.5 115.5t45 95t79 68t117.5 33.5l23 -115q-30 -12 -49.5 -32t-31 -46t-16 -57.5t-4.5 -65.5q0 -70 53 -70q27 0 44 18.5t21 49.5l17 148h150z" />
    <glyph glyph-name="iotadieresis" unicode="&#x3ca;" horiz-adv-x="405" 
d="M230 505q52 0 69.5 -18t17.5 -50q0 -9 -2.5 -30t-6 -49t-8 -61t-9 -65t-8.5 -61t-6 -49q18 1 37 5.5t35 11.5l34 -84q-20 -18 -45 -31.5t-50.5 -23t-49.5 -14t-42 -4.5q-61 0 -83 25.5t-22 67.5q0 7 0.5 13.5t1.5 14.5l36 272l-80 13l5 86q60 17 103.5 24t72.5 7z
M401 640q-1 -18 -8.5 -33.5t-19.5 -27t-28 -18t-33 -6.5q-32 0 -51.5 23t-17.5 56q4 36 30 60t59 24t53 -22t16 -56zM193 640q-2 -18 -9.5 -33.5t-20 -27t-28 -18t-31.5 -6.5q-32 0 -52.5 23t-17.5 56q2 18 10 33.5t20 26.5t27.5 17.5t31.5 6.5q32 0 52.5 -22t17.5 -56z" />
    <glyph glyph-name="upsilondieresis" unicode="&#x3cb;" horiz-adv-x="669" 
d="M223 505q45 0 64 -17.5t19 -52.5q0 -6 -2.5 -27t-6 -50t-7.5 -62t-7.5 -61.5t-6 -49.5t-2.5 -25q0 -18 8.5 -31t29.5 -13q27 0 51 27t42.5 67t31.5 86.5t17 85.5l-58 -7l-15 79q45 31 88 45.5t75 14.5q19 0 35.5 -4t29 -13.5t20 -25.5t7.5 -39q0 -34 -7.5 -80.5
t-25.5 -96t-46.5 -98t-70.5 -86.5t-98 -61t-129 -23q-47 0 -78 10.5t-49.5 29t-26.5 44t-8 56.5q0 13 2.5 41t5.5 63t7 73t7 71q-4 0 -16 2t-25 4t-25 4t-16 3l7 86q60 17 103.5 24t75.5 7zM551 640q-1 -18 -8.5 -33.5t-19.5 -27t-28 -18t-33 -6.5q-32 0 -51.5 23t-17.5 56
q4 36 30 60t59 24t53 -22t16 -56zM343 640q-2 -18 -9.5 -33.5t-20 -27t-28 -18t-31.5 -6.5q-32 0 -52.5 23t-17.5 56q2 18 10 33.5t20 26.5t27.5 17.5t31.5 6.5q32 0 52.5 -22t17.5 -56z" />
    <glyph glyph-name="omicrontonos" unicode="&#x3cc;" horiz-adv-x="605" 
d="M335 504q62 0 107.5 -16.5t75 -45.5t43.5 -70t14 -89q0 -60 -18.5 -113t-55 -93t-92.5 -63.5t-131 -23.5q-62 0 -107 16t-74 45t-43 68.5t-14 87.5q0 61 18.5 115t55 94.5t92 64t129.5 23.5zM324 375q-29 0 -48 -17t-30.5 -43t-16 -57t-4.5 -59q0 -36 14 -60t52 -24
q27 0 45.5 15t30 39.5t16.5 55.5t5 63q0 38 -13.5 62.5t-50.5 24.5zM337 544l-54 57l171 193l81 -91z" />
    <glyph glyph-name="upsilontonos" unicode="&#x3cd;" horiz-adv-x="669" 
d="M223 505q45 0 64 -17.5t19 -52.5q0 -6 -2.5 -27t-6 -50t-7.5 -62t-7.5 -61.5t-6 -49.5t-2.5 -25q0 -18 8.5 -31t29.5 -13q27 0 51 27t42.5 67t31.5 86.5t17 85.5l-58 -7l-15 79q45 31 88 45.5t75 14.5q19 0 35.5 -4t29 -13.5t20 -25.5t7.5 -39q0 -34 -7.5 -80.5
t-25.5 -96t-46.5 -98t-70.5 -86.5t-98 -61t-129 -23q-47 0 -78 10.5t-49.5 29t-26.5 44t-8 56.5q0 13 2.5 41t5.5 63t7 73t7 71q-4 0 -16 2t-25 4t-25 4t-16 3l7 86q60 17 103.5 24t75.5 7zM340 544l-54 57l171 193l81 -91z" />
    <glyph glyph-name="omegatonos" unicode="&#x3ce;" horiz-adv-x="816" 
d="M498 333l-17 -148q-1 -5 -1 -14q0 -25 12 -39.5t35 -14.5q34 0 57.5 40t23.5 132q0 32 -12 57.5t-44 41.5l45 115q53 -6 89 -24.5t58 -46.5t31.5 -65t9.5 -80q0 -58 -14.5 -111.5t-45.5 -94.5t-80 -65.5t-118 -24.5q-42 0 -80 16t-58 53h-6q-30 -37 -72.5 -53t-84.5 -16
q-56 0 -93 15.5t-58.5 42.5t-30.5 63.5t-9 78.5q0 62 14.5 115.5t45 95t79 68t117.5 33.5l23 -115q-30 -12 -49.5 -32t-31 -46t-16 -57.5t-4.5 -65.5q0 -70 53 -70q27 0 44 18.5t21 49.5l17 148h150zM423 544l-54 57l171 193l81 -91z" />
    <glyph glyph-name="Stigmagreek" unicode="&#x3da;" horiz-adv-x="688" 
d="M482 693q59 3 109 8.5t105 22.5l20 -134q-45 -20 -106.5 -30t-126.5 -14q-131 -5 -197 -51.5t-66 -117.5q0 -23 8.5 -44t30 -40t58 -37t91.5 -35q45 -15 85 -30t69.5 -34.5t46.5 -45.5t17 -63q0 -35 -19 -65.5t-47.5 -57t-61 -47.5t-58.5 -36q-1 1 -10 14.5t-20.5 29.5
t-20.5 30t-10 15q35 25 52.5 41.5t17.5 33.5t-16 27t-54 20q-92 22 -154.5 53.5t-100.5 70.5t-55 83.5t-17 94.5q0 67 24 126t76 104t133.5 73.5t196.5 34.5z" />
    <glyph glyph-name="stigmagreek" unicode="&#x3db;" horiz-adv-x="567" 
d="M370 516q22 1 42 2.5t40 4.5t41 7.5t46 12.5l16 -115q-36 -17 -84.5 -25t-98.5 -11q-96 -5 -143.5 -38.5t-47.5 -87.5q0 -16 6.5 -31.5t22 -30t42 -28.5t66.5 -27q35 -12 66 -25t54 -29t36.5 -37t13.5 -49q0 -27 -16 -52t-39 -46.5t-50.5 -39t-49.5 -30.5l-51 78
q24 17 38 31t15 24q0 13 -9 19.5t-36 14.5q-70 18 -118 43t-78 55.5t-43 66t-13 74.5q0 53 19 99.5t59.5 82.5t103.5 59t150 28z" />
    <glyph glyph-name="Digammagreek" unicode="&#x3dc;" horiz-adv-x="675" 
d="M58 0l88 714h538l-30 -244h-134l15 118h-225l-21 -162q11 0 37.5 0.5t56.5 0.5t56.5 0.5t37.5 0.5q-1 -4 -3 -22t-4.5 -38.5t-5 -38.5t-2.5 -22h-37.5t-56 0.5t-56 0.5h-37.5l-37 -308h-180z" />
    <glyph glyph-name="digammagreek" unicode="&#x3dd;" horiz-adv-x="687" 
d="M39 -220q2 16 6.5 51.5t10.5 84t13 105.5t14.5 115.5t14.5 116t12.5 105.5t10 84l6.5 52h539l-30 -244h-134q0 5 2.5 22.5t4.5 37t4.5 36.5t2.5 22h-225l-19 -162q11 0 37.5 0.5t56 0.5t56 0.5t37.5 0.5l-15 -121h-37.5t-56 0.5t-56 0.5h-37.5l-38 -308h-180z" />
    <glyph glyph-name="Koppagreek" unicode="&#x3de;" horiz-adv-x="602" 
d="M243 565l-127 -58l-44 72q19 19 47 43t59.5 45t65 35.5t65.5 14.5q38 0 60 -17.5t22 -49.5q0 -12 -3.5 -28t-13.5 -33l-133 -262l211 73q12 5 22 6.5t19 1.5q23 0 35 -12.5t12 -33.5q0 -6 -2 -14l-4 -16l-130 -285l133 48l30 -68q-25 -24 -56 -44.5t-62 -35.5t-59.5 -23
t-48.5 -8q-42 0 -61 19t-19 45q0 9 2.5 23t7.5 24l108 241l-200 -69q-24 -9 -43 -9q-26 0 -40 14.5t-14 35.5q0 15 6 33z" />
    <glyph glyph-name="koppagreek" unicode="&#x3df;" horiz-adv-x="476" 
d="M202 420l-119 -52q-8 19 -16 37.5t-16 37.5q20 19 46 36.5t54 30.5t55 20.5t49 7.5q34 -2 56.5 -20.5t22.5 -54.5q0 -30 -13.5 -68.5t-34.5 -88.5h112q35 0 49 -10.5t14 -30.5q-1 -6 -3 -15.5t-7 -21.5q-14 -31 -38 -84t-50.5 -111t-50.5 -111t-38 -84l-154 18
q46 85 92 168t91 168h-123q-50 0 -50 37q0 11 6 28z" />
    <glyph glyph-name="Sampigreek" unicode="&#x3e0;" horiz-adv-x="643" 
d="M83 718q121 -7 211 -45t149 -101t88.5 -147.5t29.5 -183.5q0 -63 -16.5 -146t-54.5 -189l-85 18q13 51 21 89.5t13 70.5t7 59.5t2 54.5q0 24 -3 50q-66 -41 -134.5 -81.5t-135.5 -80.5q-11 23 -21.5 47.5t-21.5 47.5l295 162q-6 20 -12.5 36.5t-14.5 32.5
q-69 -41 -140.5 -83t-139.5 -84q-12 24 -23.5 48t-22.5 48q69 37 137 74t137 74q-44 56 -111.5 90.5t-173.5 47.5z" />
    <glyph glyph-name="sampigreek" unicode="&#x3e1;" horiz-adv-x="571" 
d="M81 522q104 -5 180.5 -36.5t126.5 -83.5t74.5 -122t24.5 -151q0 -28 -3 -58.5t-9.5 -65t-18 -74.5t-28.5 -88l-89 17q11 43 18.5 75.5t12 58t6 45.5t1.5 40q0 11 -1 20.5t-2 18.5q-18 -11 -46.5 -28.5t-60 -36.5t-60 -37t-46.5 -29l-38 92l235 128q-4 14 -8 25.5
t-12 25.5l-228 -137l-43 90l221 118q-18 19 -40 36t-49.5 31t-61 24t-75.5 14z" />
    <glyph glyph-name="afii10023" unicode="&#x401;" horiz-adv-x="692" 
d="M18 0l14 122h70l54 447h-68l15 121h598l-29 -235h-128l14 114h-214l-20 -158l182 4l-13 -120l-183 3l-21 -176h231l15 122h129l-29 -244h-617zM609 817q-3 -33 -27.5 -55.5t-56.5 -22.5t-50.5 21.5t-14.5 53.5q3 34 27.5 56t56.5 22q31 0 50 -21.5t15 -53.5zM411 817
q-4 -33 -28 -55.5t-56 -22.5q-31 0 -50 21.5t-16 53.5q3 34 28 56t56 22t50 -21.5t16 -53.5z" />
    <glyph glyph-name="afii10051" unicode="&#x402;" horiz-adv-x="889" 
d="M629 430q48 0 88.5 -11t70.5 -35t46.5 -62t16.5 -93q0 -66 -22.5 -123t-59 -103.5t-82.5 -81.5t-93 -58l-65 99q60 45 90.5 103.5t30.5 127.5q0 57 -26 81t-69 24q-26 0 -55.5 -5.5t-58.5 -15.5l-19 -155h70l-14 -122h-323l15 122h67l54 447h-98l-9 -72h-128l24 193h700
l-24 -193h-126l8 72h-161l-21 -167q43 14 87 21t86 7z" />
    <glyph glyph-name="afii10052" unicode="&#x403;" horiz-adv-x="661" 
d="M18 0l14 122h71l55 447h-70l15 121h603l-29 -235h-128l14 114h-218l-55 -447h89l-15 -122h-346zM381 739l-43 65l196 162l69 -101z" />
    <glyph glyph-name="afii10053" unicode="&#x404;" horiz-adv-x="648" 
d="M598 27q-25 -9 -54.5 -16t-61 -11.5t-62.5 -7t-58 -2.5q-89 0 -146.5 22.5t-92 61.5t-48 91.5t-13.5 112.5q0 51 6.5 102t23.5 98.5t45.5 89t72 72t103.5 48t140 17.5q53 0 98.5 -7.5t86.5 -20.5l-24 -203h-130l10 79q-12 3 -26 4.5t-28 1.5q-30 0 -58 -8.5t-50 -26.5
t-37.5 -46t-21.5 -67l198 3l-12 -120l-197 4q-1 -8 -1.5 -15.5t-0.5 -15.5q0 -66 42 -95.5t125 -29.5q11 0 29 1.5t38 4.5t41.5 6.5t39.5 7.5z" />
    <glyph glyph-name="afii10054" unicode="&#x405;" horiz-adv-x="652" 
d="M379 568q-47 0 -73.5 -20t-26.5 -55q0 -15 10.5 -26t27.5 -20.5t40 -17t47 -14.5q45 -13 83.5 -27.5t66 -36t43.5 -52t16 -75.5q0 -117 -85.5 -177t-246.5 -60q-26 0 -58.5 2.5t-66 8.5t-66.5 15.5t-60 24.5l20 181h127l-9 -76q13 -5 28.5 -9t31 -6t29.5 -3t24 -1
q33 0 56 6.5t37 17t20 23.5t6 26q0 19 -9 31.5t-28.5 22t-50 18t-72.5 20.5q-81 23 -122 64t-41 113q0 113 81 174t224 61q23 0 53 -2.5t61.5 -8t61.5 -14t53 -20.5l-22 -176h-127l8 73q-22 8 -47.5 11.5t-43.5 3.5z" />
    <glyph glyph-name="afii10055" unicode="&#x406;" horiz-adv-x="461" 
d="M43 0l15 122h70l54 447h-70l16 122h324l-15 -122h-68l-55 -447h68l-14 -122h-325z" />
    <glyph glyph-name="afii10056" unicode="&#x407;" horiz-adv-x="461" 
d="M43 0l15 122h70l54 447h-70l16 122h324l-15 -122h-68l-55 -447h68l-14 -122h-325zM476 819q-1 -18 -8.5 -33.5t-19.5 -27t-28 -18t-33 -6.5q-32 0 -51.5 23t-17.5 56q4 36 30 60t59 24t53 -22t16 -56zM268 819q-2 -18 -9.5 -33.5t-20 -27t-28 -18t-31.5 -6.5
q-32 0 -52.5 23t-17.5 56q2 18 10 33.5t20 26.5t27.5 17.5t31.5 6.5q32 0 52.5 -22t17.5 -56z" />
    <glyph glyph-name="afii10057" unicode="&#x408;" horiz-adv-x="489" 
d="M130 691h368l-15 -122h-84l-47 -386q-9 -77 -33.5 -140.5t-68.5 -110.5t-110.5 -77.5t-159.5 -40.5l-28 132q69 19 108.5 43t61 53.5t30 64.5t13.5 76l48 386h-97z" />
    <glyph glyph-name="afii10058" unicode="&#x409;" horiz-adv-x="1073" 
d="M770 569h-71l-17 -138h117q47 0 90 -9.5t75.5 -31.5t52 -59t19.5 -92q0 -62 -20 -107t-55 -74t-82.5 -43.5t-103.5 -14.5h-394l15 122h60l56 447h-117l-8 -67q-13 -108 -32 -198t-56.5 -158.5t-100.5 -113t-163 -61.5l-40 132q58 20 95.5 46.5t61.5 68t37.5 102
t24.5 149.5l12 100h-88l16 122h631zM667 311l-23 -189h95q42 0 71 28.5t29 79.5q0 39 -23 60t-62 21h-87z" />
    <glyph glyph-name="afii10059" unicode="&#x40a;" horiz-adv-x="1122" 
d="M819 569h-72l-17 -145h117q46 0 89 -8.5t76 -29.5t53 -57t20 -90q0 -57 -19.5 -101.5t-54.5 -75t-83 -46.5t-104 -16h-392l15 122h58l23 185h-211l-23 -185h58l-15 -122h-315l14 122h71l55 447h-72l16 121h315l-15 -121h-57l-19 -148h212l18 148h-61l15 122h320zM715 305
l-22 -183h95q43 0 71.5 28t28.5 80q0 38 -22.5 56.5t-60.5 18.5h-90z" />
    <glyph glyph-name="afii10060" unicode="&#x40b;" horiz-adv-x="935" 
d="M891 122l-14 -122h-315l15 122h61l12 104q6 44 -18 61t-66 17q-33 0 -67 -8.5t-57 -18.5l-19 -155h62l-15 -122h-316l15 122h69l54 447h-98l-8 -72h-129l24 193h692l-24 -193h-126l8 72h-153l-20 -164q42 12 90 19t91 7q47 0 86.5 -9t67.5 -30.5t41 -57t6 -87.5l-15 -125
h66z" />
    <glyph glyph-name="afii10061" unicode="&#x40c;" horiz-adv-x="776" 
d="M289 122h66l-14 -122h-323l14 122h70l55 447h-70l15 121h322l-14 -121h-67zM638 125l90 -6l4 -105q-15 -6 -34 -10.5t-37 -7.5t-33.5 -4.5t-24.5 -1.5q-47 -2 -74.5 10t-46.5 48l-140 273l7 61l192 254q27 38 55 51.5t63 13.5q34 0 66 -8t58 -24l-22 -104l-76 -6
l-174 -203zM458 742l-43 65l196 162l69 -101z" />
    <glyph glyph-name="afii10062" unicode="&#x40e;" horiz-adv-x="713" 
d="M363 690l-15 -122h-55q2 -8 9 -29t15.5 -44t15.5 -44t9 -29l37 -111h6q2 6 10 22l17 34l17 34l11 22l74 145h-58l16 122h285l-15 -122h-51l-254 -471q-20 -36 -39.5 -59t-40.5 -36t-45.5 -18t-54.5 -5q-32 0 -69 5t-81 18l33 122q29 -6 51 -7.5t35 -1.5q17 0 30 8.5
t25 28.5l23 45h-46q-3 11 -14.5 39.5t-26.5 66.5t-32.5 79.5t-32.5 79.5t-26.5 66.5t-14.5 39.5h-49l15 122h286zM428 741q-31 0 -57 11t-48.5 30.5t-40.5 45.5t-32 56l72 55q29 -48 63 -70t60 -22q9 0 21.5 1t32 9t46.5 25.5t64 49.5l41 -48q-29 -41 -59 -68.5t-58.5 -44
t-55 -23.5t-49.5 -7z" />
    <glyph glyph-name="afii10145" unicode="&#x40f;" horiz-adv-x="830" 
d="M847 690l-15 -122h-70q-2 -17 -6.5 -51.5t-10 -79t-11.5 -93t-11.5 -93t-9.5 -79.5t-6 -51h70l-14 -121h-300l-26 -204h-141q1 8 5 38t8 64t7.5 64t4.5 38h-304q1 3 3 21t4.5 39t5 39.5t2.5 21.5h71l55 447h-72l16 122h319l-15 -122h-61l-55 -447h229q2 17 6.5 51.5
t10 79t11.5 93t11.5 93t10 79t6.5 51.5h-61l15 122h318z" />
    <glyph glyph-name="afii10017" unicode="&#x410;" horiz-adv-x="770" 
d="M492 192h-219l-31 -70h58l-14 -122h-292l14 122h54l274 569h230l122 -569h53l-15 -122h-291l14 122h57zM378 427l-53 -119h147l-21 115l-19 120h-4z" />
    <glyph glyph-name="afii10018" unicode="&#x411;" horiz-adv-x="718" 
d="M650 499h-129l9 70h-186l-17 -138h117q47 0 90 -9.5t75.5 -31.5t52 -59t19.5 -92q0 -61 -20 -106t-55 -74.5t-83 -44t-103 -14.5h-403l14 122h70l55 447h-69l16 121h570zM312 311l-23 -189h95q42 0 71 29.5t29 81.5q0 37 -22.5 57.5t-60.5 20.5h-89z" />
    <glyph glyph-name="afii10019" unicode="&#x412;" horiz-adv-x="720" 
d="M591 362q29 -11 46.5 -28t27.5 -36.5t13 -39.5t3 -38q0 -52 -18.5 -92.5t-51.5 -69t-78.5 -43.5t-99.5 -15h-416q1 3 3 21.5t4.5 39.5t5 39t2.5 22h71q2 16 6 51t9.5 79.5t11.5 93t11 93t9.5 79t6.5 51.5h-70l16 121h404q99 0 144.5 -45t45.5 -118q0 -23 -4.5 -46
t-16.5 -44.5t-32.5 -40t-51.5 -32.5zM311 297q-2 -11 -4.5 -36t-6 -52t-6.5 -51.5t-4 -35.5h93q48 0 74.5 27t26.5 72q0 31 -19 53.5t-60 22.5h-94zM345 569q-2 -10 -4.5 -32.5t-5.5 -47.5t-6 -47.5t-4 -32.5h84q42 0 67 25.5t25 66.5q0 31 -17 49.5t-55 18.5h-84z" />
    <glyph glyph-name="afii10020" unicode="&#x413;" horiz-adv-x="661" 
d="M18 0l14 122h71l55 447h-70l15 121h603l-29 -235h-128l14 114h-218l-55 -447h89l-15 -122h-346z" />
    <glyph glyph-name="afii10021" unicode="&#x414;" horiz-adv-x="800" 
d="M126 0l-23 -185h-135l36 304l66 3q36 36 61.5 79t43.5 93.5t30 109t20 125.5l5 40h-79l15 121h643l-15 -121h-70l-55 -447l71 -3l-37 -304h-135l23 185h-465zM389 515q-8 -67 -16 -122.5t-21.5 -103t-35 -89t-56.5 -78.5h222l55 447h-142z" />
    <glyph glyph-name="afii10022" unicode="&#x415;" horiz-adv-x="692" 
d="M18 0l14 122h70l54 447h-68l15 121h598l-29 -235h-128l14 114h-214l-20 -158l182 4l-13 -120l-183 3l-21 -176h231l15 122h129l-29 -244h-617z" />
    <glyph glyph-name="afii10024" unicode="&#x416;" horiz-adv-x="1105" 
d="M633 121h66l-14 -121h-314l14 121h67l55 448h-67l15 120h314l-15 -120h-66zM965 127l95 -10l4 -104q-15 -6 -34 -10.5t-37 -7t-33.5 -4t-24.5 -1.5q-42 -2 -70.5 9.5t-46.5 48.5l-134 269l8 61l199 261q29 38 57 50t60 12q67 0 122 -32l-22 -104l-91 -7l-164 -210z
M290 358l-117 200l-94 6l-2 104q29 16 68 24.5t73 8.5q32 0 53.5 -13t41.5 -50l142 -260l-8 -61l-193 -254q-33 -44 -64 -59.5t-72 -13.5q-20 0 -54 6t-62 18l13 105l98 9z" />
    <glyph glyph-name="afii10025" unicode="&#x417;" horiz-adv-x="634" 
d="M220 470h-132l22 189q32 13 66.5 22t66.5 14t60 7.5t47 2.5q47 0 92.5 -8t81.5 -27t58 -51.5t22 -80.5q0 -23 -6.5 -47t-20 -45.5t-34 -40.5t-49.5 -32v-1q26 -10 44.5 -26t30.5 -35t17.5 -40t5.5 -41q0 -60 -26.5 -104.5t-71.5 -74t-105.5 -44.5t-127.5 -15q-31 0 -65 3
t-67 9t-63 14.5t-53 19.5l52 125q51 -17 96 -24.5t81 -7.5q70 0 109 28t39 82q0 60 -81 60h-97l13 111h75q28 0 49.5 8t35 21.5t20.5 30.5t7 34q0 39 -26.5 54t-71.5 15q-18 0 -39.5 -3.5t-43.5 -8.5z" />
    <glyph glyph-name="afii10026" unicode="&#x418;" horiz-adv-x="851" 
d="M546 689h322l-16 -120h-72q-14 -113 -27.5 -224.5t-27.5 -223.5h73l-15 -121h-319l15 121h64l33 271h-1l-282 -240l-4 -31h64l-15 -121h-322l15 121h73l54 448h-72l15 120h322l-15 -120h-64q-8 -67 -16 -133t-16 -133l283 239l3 27h-68z" />
    <glyph glyph-name="afii10027" unicode="&#x419;" horiz-adv-x="851" 
d="M546 689h322l-16 -120h-72q-14 -113 -27.5 -224.5t-27.5 -223.5h73l-15 -121h-319l15 121h64l33 271h-1l-282 -240l-4 -31h64l-15 -121h-322l15 121h73l54 448h-72l15 120h322l-15 -120h-64q-8 -67 -16 -133t-16 -133l283 239l3 27h-68zM491 760q-31 0 -57 11t-48 30.5
t-40 45.5t-32 56l72 55q28 -48 62 -69.5t60 -21.5q9 0 21.5 1t32 8.5t46.5 25t64 49.5l41 -48q-29 -41 -58.5 -68.5t-58 -44t-55.5 -23.5t-50 -7z" />
    <glyph glyph-name="afii10028" unicode="&#x41a;" horiz-adv-x="776" 
d="M289 122h66l-14 -122h-323l14 122h70l55 447h-70l15 121h322l-14 -121h-67zM638 125l90 -6l4 -105q-15 -6 -34 -10.5t-37 -7.5t-33.5 -4.5t-24.5 -1.5q-47 -2 -74.5 10t-46.5 48l-140 273l7 61l192 254q27 38 55 51.5t63 13.5q34 0 66 -8t58 -24l-22 -104l-76 -6
l-174 -203z" />
    <glyph glyph-name="afii10029" unicode="&#x41b;" horiz-adv-x="793" 
d="M402 0l14 122h61l54 447h-136l-8 -67q-13 -108 -32 -198t-57 -158.5t-101 -113.5t-162 -61l-38 133q57 19 94 45.5t61 67.5t37.5 102t24.5 150l12 100h-88l16 122h650l-16 -122h-70l-55 -447h71l-15 -122h-317z" />
    <glyph glyph-name="afii10030" unicode="&#x41c;" horiz-adv-x="1012" 
d="M524 317q8 17 17 33.5t18 33.5q21 41 41.5 80.5t42.5 79.5q6 12 17 31.5t22 41.5t21.5 41.5t16.5 31.5h309l-16 -121h-62q-14 -112 -27.5 -224t-27.5 -224h62l-14 -121h-299l14 121h56l40 330h-3q-8 -16 -16 -31.5t-17 -31.5q-14 -29 -29 -56.5t-30 -55.5l-84 -156h-151
q-13 36 -25 73t-24 73l-57 185h-3l-40 -330h61l-15 -121h-305l14 121h72l54 448h-71l15 121h304l48 -153q11 -35 21 -69.5t21 -69.5l24 -81h5z" />
    <glyph glyph-name="afii10031" unicode="&#x41d;" horiz-adv-x="830" 
d="M445 0l15 122h60l21 176h-229l-21 -176h61l-15 -122h-319l14 122h71l55 447h-71l15 122h319l-15 -122h-61l-19 -156h229l20 156h-61l15 122h319l-15 -122h-71l-54 -447h70l-14 -122h-319z" />
    <glyph glyph-name="afii10032" unicode="&#x41e;" horiz-adv-x="769" 
d="M438 705q79 0 136 -23t94 -63.5t54.5 -97t17.5 -122.5q0 -89 -25 -164t-72.5 -130t-117 -85.5t-159.5 -30.5q-78 0 -135 22t-94.5 61.5t-55.5 94.5t-18 122q0 86 23.5 162t71 132.5t117.5 89t163 32.5zM428 572q-47 0 -79 -24.5t-52 -65t-28.5 -92t-8.5 -105.5
q0 -78 27 -121t91 -43q44 0 75 22t50.5 60.5t28.5 91t9 113.5q0 35 -5.5 65t-18 52t-34.5 34.5t-55 12.5z" />
    <glyph glyph-name="afii10033" unicode="&#x41f;" horiz-adv-x="830" 
d="M445 0l15 122h60l55 447h-230l-54 -447h61l-15 -122h-319l14 122h71l55 447h-72l16 122h746l-16 -122h-70l-54 -447h70l-14 -122h-319z" />
    <glyph glyph-name="afii10034" unicode="&#x420;" horiz-adv-x="665" 
d="M452 691q61 0 103 -14t68.5 -39.5t38 -61.5t11.5 -79q0 -48 -16.5 -92.5t-49 -78t-81.5 -53.5t-114 -20h-108l-17 -131h88l-14 -122h-343l14 122h68l55 447h-68l15 122h350zM342 569l-24 -199h55q45 0 73 31.5t28 84.5q0 83 -79 83h-53z" />
    <glyph glyph-name="afii10035" unicode="&#x421;" horiz-adv-x="648" 
d="M454 706q52 0 99.5 -7.5t88.5 -20.5l-27 -222h-129l11 97q-12 3 -25 5t-27 2q-49 0 -83.5 -19t-56.5 -53.5t-32.5 -82.5t-10.5 -105q0 -46 10.5 -76t31 -47t51.5 -24t72 -7q11 0 29 1.5t39 4t42.5 6t39.5 7.5l22 -137q-25 -9 -54.5 -16.5t-61 -12.5t-62.5 -7.5t-58 -2.5
q-89 0 -147 22.5t-92 62t-47.5 92.5t-13.5 113q0 76 16 152t59.5 137t119.5 99.5t196 38.5z" />
    <glyph glyph-name="afii10036" unicode="&#x422;" horiz-adv-x="674" 
d="M140 0l14 122h80l55 447h-99l-14 -116h-128l30 238h637l-29 -238h-127l14 116h-99l-55 -447h80l-15 -122h-344z" />
    <glyph glyph-name="afii10037" unicode="&#x423;" horiz-adv-x="713" 
d="M363 690l-15 -122h-55q2 -8 9 -29t15.5 -44t15.5 -44t9 -29l37 -111h6q2 6 10 22l17 34l17 34l11 22l74 145h-58l16 122h285l-15 -122h-51l-254 -471q-20 -36 -39.5 -59t-40.5 -36t-45.5 -18t-54.5 -5q-32 0 -69 5t-81 18l33 122q29 -6 51 -7.5t35 -1.5q17 0 30 8.5
t25 28.5l23 45h-46q-3 11 -14.5 39.5t-26.5 66.5t-32.5 79.5t-32.5 79.5t-26.5 66.5t-14.5 39.5h-49l15 122h286z" />
    <glyph glyph-name="afii10038" unicode="&#x424;" horiz-adv-x="887" 
d="M402 520q-36 -4 -66.5 -20.5t-52 -42t-33.5 -59.5t-12 -73q0 -57 30.5 -93t92.5 -45zM542 187q33 4 62 19.5t51 40t34.5 58.5t12.5 75q0 56 -28.5 95t-89.5 45zM599 649q72 -5 126 -26.5t90 -56.5t53.5 -82.5t17.5 -102.5q0 -69 -26 -126t-73.5 -99t-113.5 -67t-146 -31
l-7 -58h-182l7 58q-143 7 -217 77.5t-74 186.5q0 66 27 123.5t75.5 102t115 71.5t145.5 31l6 41h181z" />
    <glyph glyph-name="afii10039" unicode="&#x425;" horiz-adv-x="742" 
d="M503 691h280l-15 -123h-50l-200 -226l134 -219h63l-14 -123h-338l15 123h46l-78 141l-114 -141h51l-14 -123h-278l15 123h47l204 248l-114 196h-76l15 124h340l-15 -124h-47l71 -125l108 126h-51z" />
    <glyph glyph-name="afii10040" unicode="&#x426;" horiz-adv-x="830" 
d="M760 568q-13 -112 -26.5 -224t-27.5 -224h99q-10 -76 -19 -151.5t-18 -152.5h-135l23 184h-640q5 29 8 59.5t7 60.5h71l55 448h-71l15 121h319l-15 -121h-61l-55 -448h230l54 448h-60l15 121h318l-15 -121h-71v0z" />
    <glyph glyph-name="afii10041" unicode="&#x427;" horiz-adv-x="791" 
d="M719 0h-325l14 121h70l19 148q-39 -8 -79.5 -12t-79.5 -4q-47 0 -88 9t-71.5 29t-48.5 51t-18 75q0 38 6 76t11 76h-67l8 60t7 61h314l-15 -121h-60l-12 -95q-6 -48 19.5 -68.5t71.5 -20.5q29 0 59 4t59 12l10 84l10 84h-60l8 60t7 61h315q-3 -31 -7 -61t-7 -60h-70
q-13 -113 -26.5 -224.5t-27.5 -223.5h69z" />
    <glyph glyph-name="afii10042" unicode="&#x428;" horiz-adv-x="1134" 
d="M519 568h-54l15 122h289l-15 -122h-55l-54 -447h186l55 447h-58l15 122h308l-16 -122h-69l-55 -447h70l-15 -121h-1048l14 121h71l55 447h-71l15 122h309l-15 -122h-58l-55 -447h182z" />
    <glyph glyph-name="afii10043" unicode="&#x429;" horiz-adv-x="1134" 
d="M519 568h-54l15 122h289l-15 -122h-55l-54 -447h186l55 447h-58l15 122h308l-16 -122h-69l-55 -447h98l-37 -306h-135l23 185h-942l14 121h71l55 447h-71l15 122h309l-15 -122h-58l-55 -447h182z" />
    <glyph glyph-name="afii10044" unicode="&#x42a;" horiz-adv-x="877" 
d="M485 431h118q46 0 89 -9t76 -31t52.5 -58t19.5 -90q0 -62 -20 -108t-55 -76t-82.5 -44.5t-103.5 -14.5h-404l15 122h70l55 447h-124l-14 -115h-129l30 236h509l-16 -121h-68zM471 311l-23 -189h95q42 0 71 29.5t29 82.5q0 37 -22.5 57t-60.5 20h-89z" />
    <glyph glyph-name="afii10045" unicode="&#x42b;" horiz-adv-x="1089" 
d="M313 311l-22 -189h94q43 0 72 29.5t29 82.5q0 37 -22.5 57t-60.5 20h-90zM416 569h-71l-17 -138h117q47 0 90 -9t75.5 -31t52 -58t19.5 -90q0 -61 -20 -106.5t-55 -76t-82.5 -45.5t-103.5 -15h-403l14 122h71l54 447h-70l15 122h330zM695 0l15 122h70l55 447h-70l15 121
h324l-15 -121h-68l-54 -447h68l-15 -122h-325z" />
    <glyph glyph-name="afii10046" unicode="&#x42c;" horiz-adv-x="725" 
d="M318 311l-22 -189h94q43 0 72 29.5t29 82.5q0 37 -22.5 57t-60.5 20h-90zM421 569h-71l-17 -138h117q46 0 89 -9t76 -30.5t53 -57t20 -88.5q0 -63 -20 -109.5t-55 -76.5t-83 -45t-104 -15h-403l14 122h71l54 447h-70l15 122h330z" />
    <glyph glyph-name="afii10047" unicode="&#x42d;" horiz-adv-x="647" 
d="M217 296l16 119l190 -3q2 8 2 14.5v13.5q0 55 -30.5 88.5t-99.5 33.5q-14 0 -32.5 -2t-31.5 -5l-10 -82h-130q7 51 13 101.5t12 101.5q44 14 95.5 21.5t103.5 7.5q90 0 148.5 -24t93 -64.5t48.5 -95t14 -114.5q0 -79 -20 -154t-65 -133.5t-118.5 -94t-180.5 -35.5
q-55 0 -109.5 9t-99.5 28l43 134q17 -4 37 -7.5t39 -6.5t36.5 -4.5t29.5 -1.5q85 0 134.5 38.5t63.5 119.5z" />
    <glyph glyph-name="afii10048" unicode="&#x42e;" horiz-adv-x="1115" 
d="M796 704q78 0 133 -22.5t90 -62.5t51 -95.5t16 -121.5q0 -89 -23.5 -164.5t-69 -130.5t-114 -86t-158.5 -31q-74 0 -129.5 20t-92 57t-55 88t-18.5 113v14t1 15h-116l-22 -176h61l-14 -121h-319l14 121h71l55 448h-71l15 120h321l-16 -120h-62l-19 -158h117
q15 63 43.5 116.5t72 92.5t102.5 61.5t136 22.5zM781 571q-46 0 -77.5 -25.5t-51 -67t-28 -94t-8.5 -107.5q0 -75 26.5 -116t90.5 -41q43 0 73.5 22.5t50 61.5t29 92t9.5 114q0 35 -5.5 64.5t-19 51t-35.5 33.5t-54 12z" />
    </font>
</defs>
</svg>
