<?xml version="1.0" encoding="utf-8"?>
<!-- Generator: Adobe Illustrator 15.0.0, SVG Export Plug-In . SVG Version: 6.00 Build 0)  -->
<!DOCTYPE svg PUBLIC "-//W3C//DTD SVG 1.1//EN" "http://www.w3.org/Graphics/SVG/1.1/DTD/svg11.dtd">
<svg version="1.1" id="Layer_1" xmlns="http://www.w3.org/2000/svg" xmlns:xlink="http://www.w3.org/1999/xlink" x="0px" y="0px"
	 width="500px" height="500px" viewBox="0 0 500 500" enable-background="new 0 0 500 500" xml:space="preserve">
<g>
	<path fill-rule="evenodd" clip-rule="evenodd" fill="#D34B4C" d="M46.673,213.529h52.072V265.6c0,7.871-6.443,14.314-14.317,14.314
		H57.396c-1.315,0-2.61-0.104-3.873-0.301l33.812-42.867l-11.777-11.853H64.687l11.318,11.572l-35.435,36.911
		c-0.64-0.584-1.249-1.201-1.826-1.846l34.692-35.034l-12.902-13.221h28.421v28.52l-6.306-6.42l-5.18,6.667l16.512,16.512v-50.287
		h-50.2l18.417,18.479l-29.686,20.89c-0.1-0.906-0.153-1.828-0.153-2.76v-27.033C32.36,219.969,38.8,213.529,46.673,213.529"/>
	<path fill-rule="evenodd" clip-rule="evenodd" fill="#061114" d="M258.511,223.449h-9.029v47.723h9.029v-21.686h2.357
		l13.586,21.686h11.146l-17.292-25.447l16.553-22.288l-10.551,0.012l-13.947,19.666h-1.853V223.449z M352.929,271.172v-37.494
		h-8.781v14.439h-14.401v-14.439h-8.782v37.494h8.782v-15.875h14.401v15.875H352.929z M356.72,233.678v7.934
		c3.138-0.704,6.678-0.948,9.685-0.948h1.837v30.508h8.443l0.007-30.52h1.838c3.007,0,6.547,0.243,9.684,0.95v-7.936L356.72,233.678
		z M403.874,273.551c-0.722,2.865-3.159,5.227-6.624,5.221c-1.274-0.004-2.276-0.311-3.423-0.854l-1.525,7.225
		c1.584,0.779,3.356,1.301,5.237,1.289c4.008-0.025,7.127-1.842,9.615-4.537c2.699-2.928,4.66-6.889,6.21-10.723
		c4.304-10.643,8.626-24.028,12.522-37.494h-9.246l-7.996,28.3l-8.491-28.266h-9.746L403.874,273.551z M428.762,233.678v51.925
		h8.782v-14.432c1.752,0.627,3.759,0.902,5.612,0.893c5.662-0.031,9.821-1.824,12.693-4.852c3.666-3.863,5.23-9.742,5.139-16.533
		c-0.064-4.807-0.916-9.433-3.198-12.778c-2.121-3.111-5.48-5.112-10.597-5.112c-4.268,0-8.483,1.691-11.091,5.149l-0.898-4.261
		H428.762z M445.73,240.341c2.407,0.01,3.983,1.351,4.983,3.201c1.148,2.127,1.537,4.929,1.545,7.138
		c0.016,3.599-0.2,7.699-1.996,10.476c-1.238,1.924-3.233,3.211-6.425,3.271c-2.112,0.039-4.499-0.219-6.294-1.416v-18.303
		C439.637,241.909,442.17,240.324,445.73,240.341z M153.555,224.822c-3.307-1.443-6.953-2.166-10.547-2.166
		c-5.625,0-10.409,1.825-14.059,5.065c-4.992,4.438-7.863,11.529-7.863,20.234c0,8.193,2.273,14.39,6.146,18.437
		c3.602,3.764,8.59,5.664,14.421,5.568c5.111,0,9.131-0.846,12.101-2.35l0.004-8.074c-3.275,1.748-6.873,2.959-10.388,2.9
		c-4.236-0.07-7.365-1.777-9.519-4.416c-2.49-3.055-3.671-7.359-3.738-11.82c-0.08-5.371,1.196-10.909,4.557-14.353
		c2.059-2.11,4.905-3.435,8.7-3.448c3.002-0.009,5.983,1.063,8.325,3.236L153.555,224.822z M206.328,263.9
		c2.883,0.178,4.989,0.184,7.396,0.207c2.518,0.023,4.379-0.527,5.637-1.705c1.37-1.281,2.021-3.307,2.025-6.143
		c0.004-2.068-0.563-3.559-1.654-4.574c-1.29-1.205-3.313-1.748-5.995-1.8c-2.471-0.049-4.832,0.085-7.409,0.325V263.9z
		 M206.328,230.875h9.229c3.694,0,7.747,0.378,11.439,1.124v-8.55H197.3v47.723c2.901,0,5.791,0.117,8.667,0.227
		c2.601,0.104,5.19,0.197,7.771,0.197c4.362,0,8.142-1.107,10.981-3.24c3.434-2.578,5.5-6.654,5.574-12.078
		c0.066-4.877-1.66-8.289-4.482-10.519c-3.041-2.398-7.354-3.429-12.073-3.437c-2.478-0.004-4.947,0.214-7.409,0.492V230.875z
		 M291.823,252.424c0-2.648,0.504-5.869,1.85-8.394c1.303-2.438,3.39-4.229,6.567-4.229c3.145,0,5.222,1.752,6.525,4.152
		c1.378,2.536,1.892,5.795,1.892,8.471c0,2.473-0.439,5.443-1.595,7.883c-1.276,2.695-3.428,4.74-6.822,4.74
		c-2.996,0-5.023-1.592-6.334-3.82C292.385,258.648,291.823,255.217,291.823,252.424z M317.313,252.424
		c-0.032-5.304-1.192-10.201-3.858-13.778c-2.677-3.594-6.879-5.854-12.981-5.854c-6.204,0-10.844,2.751-13.748,6.985
		c-2.37,3.453-3.586,7.899-3.557,12.647c0.031,5.098,1.106,9.82,3.557,13.355c2.661,3.836,6.947,6.273,13.283,6.273
		c6.456,0,11.216-2.975,14.092-7.504C316.243,261.172,317.342,256.936,317.313,252.424z M167.375,223.46h-9.028v47.725h9.028
		v-21.688h2.357l13.586,21.688h11.148l-17.294-25.447l16.553-22.29l-10.548,0.012l-13.948,19.666h-1.854V223.46z"/>
</g>
</svg>
