<?xml version="1.0" encoding="utf-8"?>
<!-- Generator: Adobe Illustrator 15.0.0, SVG Export Plug-In . SVG Version: 6.00 Build 0)  -->
<!DOCTYPE svg PUBLIC "-//W3C//DTD SVG 1.1//EN" "http://www.w3.org/Graphics/SVG/1.1/DTD/svg11.dtd">
<svg version="1.1" id="Layer_1" xmlns="http://www.w3.org/2000/svg" xmlns:xlink="http://www.w3.org/1999/xlink" x="0px" y="0px"
	 width="500px" height="500px" viewBox="0 0 500 500" enable-background="new 0 0 500 500" xml:space="preserve">
<g>
	<path fill="#DC7D43" d="M101.42,323.612h-9.073V301.44c0-7.427-1.96-12.789-5.881-16.09c-2.819-2.408-6.498-3.608-11.037-3.608
		c-4.811,0-8.834,1.545-12.064,4.639c-3.231,3.098-4.848,7.289-4.848,12.581c0,5.712,1.926,10.107,5.774,13.202
		c3.163,2.545,6.946,3.817,11.347,3.817c2.473,0,4.761-0.465,6.857-1.39c2.099-0.932,4.144-2.322,6.138-4.18v9.488
		c-3.989,3.165-8.768,4.745-14.336,4.745c-7.082,0-13.032-2.305-17.844-6.911c-4.81-4.605-7.218-10.66-7.218-18.151
		c0-7.838,2.563-14.218,7.684-19.136c5.124-4.911,11.395-7.372,18.822-7.372c7.218,0,13.098,2.169,17.637,6.497
		c5.364,5.091,8.041,12.483,8.041,22.173V323.612z M158.246,273.181c0,5.638-1.683,10.625-5.054,14.952
		c-1.925,2.551-5.739,6.053-11.446,10.522l-20.111,15.885h36.611v9.072h-39.689c-3.301,0-5.756-0.738-7.339-2.217
		c-1.581-1.475-2.373-3.284-2.373-5.414c0-1.581,0.345-2.922,1.035-4.022c0.479-0.829,2.062-2.238,4.74-4.229l24.136-18.874
		c3.093-2.403,5.296-4.468,6.601-6.188c2.13-2.818,3.195-5.951,3.195-9.384c0-3.784-1.134-6.946-3.402-9.49
		c-2.543-2.888-6.159-4.334-10.83-4.334c-4.468,0-8.025,1.396-10.672,4.179c-2.648,2.786-3.971,6.241-3.971,10.361
		c0,4.2,1.543,7.637,4.64,10.316c2.612,2.269,5.672,3.609,9.176,4.026l-8.454,6.7c-4.748-1.717-8.437-4.449-11.088-8.198
		c-2.646-3.747-3.968-8.027-3.968-12.845c0-7.215,2.577-13.025,7.733-17.427c4.812-4.125,10.589-6.189,17.326-6.189
		c6.669,0,12.207,2.168,16.607,6.498C156.048,261.216,158.246,266.646,158.246,273.181"/>
	<path fill="#6B6966" d="M218.579,295.77c0,8.59-2.322,15.554-6.964,20.883c-4.639,5.328-10.877,7.993-18.713,7.993
		c-8.114,0-14.612-2.755-19.494-8.254c-4.4-5.021-6.603-11.037-6.603-18.049c0-5.016,1.208-9.502,3.614-13.457
		c2.405-3.955,5.671-6.999,9.796-9.124c1.786-0.896,3.765-1.569,5.928-2.01c2.167-0.454,4.35-0.677,6.551-0.677
		c1.857,0,3.885,0.26,6.082,0.779c2.202,0.513,4.54,1.428,7.015,2.73v9.485c-1.582-1.032-3.402-1.956-5.467-2.783
		c-2.609-1.031-5.085-1.545-7.422-1.545c-1.722,0-3.338,0.171-4.85,0.514c-1.509,0.341-2.988,0.964-4.433,1.858
		c-2.134,1.304-3.918,3.229-5.365,5.777c-1.441,2.54-2.164,5.494-2.164,8.865c0,5.021,1.583,9.147,4.742,12.373
		c3.164,3.233,7.252,4.852,12.276,4.852c1.304,0,2.593-0.137,3.864-0.415c1.271-0.273,2.46-0.722,3.556-1.337
		c3.646-1.999,6.189-5.16,7.633-9.49c0.896-2.749,1.341-5.737,1.341-8.97v-44.35h9.076V295.77z M275.406,301.645
		c-0.481,5.224-2.203,9.726-5.156,13.511c-1.926,2.475-4.365,4.539-7.324,6.188c-1.855,1.099-3.953,1.923-6.293,2.473
		c-2.334,0.552-4.67,0.829-7.007,0.829c-3.991,0-7.842-0.896-11.554-2.683c-4.332-2.133-7.766-5.207-10.311-9.232
		c-2.549-4.023-3.82-8.646-3.82-13.869c0-7.354,2.458-13.496,7.375-18.414c4.914-4.911,11.021-7.372,18.309-7.372
		c5.086,0,9.761,1.309,14.017,3.919c4.27,2.613,7.568,6.533,9.905,11.76l-33.412,18.565l-3.716-7.22l24.445-13.616
		c-1.654-1.787-3.472-3.023-5.465-3.713c-1.996-0.687-3.99-1.028-5.985-1.028c-4.81,0-8.714,1.595-11.706,4.791
		c-2.988,3.202-4.485,7.312-4.485,12.328c0,3.368,0.688,6.325,2.063,8.869c1.372,2.548,3.165,4.5,5.365,5.88
		c1.234,0.753,2.61,1.335,4.12,1.753c1.511,0.413,3.062,0.618,4.643,0.618c1.854,0,3.525-0.155,5.002-0.465
		c1.48-0.309,2.94-0.874,4.384-1.702c2.205-1.306,3.99-3.146,5.363-5.519c1.375-2.372,2.063-4.965,2.063-7.789L275.406,301.645z
		 M321.3,309.792c0,1.515-0.19,2.959-0.567,4.328c-0.378,1.377-0.946,2.618-1.704,3.715c-1.718,2.406-4.018,4.056-6.908,4.953
		c-1.854,0.554-4.226,0.824-7.118,0.824h-24.233v-8.667h23.719c2.339,0,3.85-0.101,4.539-0.303c1.995-0.551,2.993-1.824,2.993-3.825
		c0-1.505-0.553-2.745-1.649-3.709c-0.828-0.688-2.133-1.337-3.922-1.96c-4.539-1.371-9.04-2.785-13.51-4.222
		c-4.676-1.724-7.877-3.731-9.593-6.037c-1.717-2.304-2.577-4.764-2.577-7.374c0-1.231,0.103-2.478,0.312-3.71
		c0.209-1.238,0.82-2.551,1.856-3.924c1.786-2.407,4.261-4.054,7.423-4.951c1.995-0.547,4.641-0.824,7.941-0.824h20.728v8.664
		h-23.306c-1.717,0-3.093,0.328-4.123,0.981c-1.033,0.65-1.549,1.599-1.549,2.834c0,1.444,0.581,2.652,1.755,3.614
		c0.76,0.617,1.956,1.199,3.605,1.748c4.4,1.379,8.835,2.716,13.307,4.023c4.815,1.719,8.112,3.749,9.903,6.086
		C320.409,304.395,321.3,306.974,321.3,309.792 M339.04,263.07c0,1.375-0.379,2.548-1.131,3.51
		c-1.033,1.304-2.479,1.958-4.335,1.958c-1.857,0-3.234-0.57-4.128-1.701c-0.891-1.136-1.343-2.392-1.343-3.767
		s0.382-2.543,1.138-3.506c1.031-1.308,2.476-1.958,4.333-1.958c1.856,0,3.23,0.567,4.127,1.703
		C338.592,260.443,339.04,261.695,339.04,263.07 M338.113,323.612h-9.075v-49.506h9.075V323.612z M398.032,318.765
		c0,4.745-0.415,8.594-1.238,11.555c-1.104,3.845-3.13,7.216-6.088,10.105c-1.992,1.925-4.26,3.436-6.808,4.537
		c-3.368,1.444-7.247,2.168-11.653,2.168c-2.06,0-4.381-0.189-6.961-0.57c-2.575-0.378-5.722-1.153-9.436-2.319l2.169-8.25
		c2.813,0.757,5.341,1.357,7.572,1.802c2.24,0.45,4.288,0.673,6.137,0.673c5.364,0,9.458-1.236,12.278-3.715
		c3.299-2.89,4.942-7.493,4.942-13.819v-17.014c0-4.607-0.37-8.147-1.129-10.626c-1.444-4.673-4.228-8.013-8.35-10.004
		c-2.205-1.031-4.572-1.545-7.113-1.545c-4.887,0-8.974,1.608-12.275,4.844c-3.302,3.234-4.952,7.463-4.952,12.689
		c0,4.81,1.409,8.797,4.229,11.965c2.817,3.16,6.672,4.741,11.549,4.741c5.637,0,10.419-1.861,14.337-5.569v9.488
		c-4.129,3.165-8.633,4.745-13.517,4.745c-6.732,0-12.506-1.963-17.321-5.881c-5.708-4.609-8.558-11.103-8.558-19.489
		c0-7.638,2.594-13.91,7.785-18.828c5.188-4.911,11.434-7.372,18.723-7.372c3.502,0,6.765,0.549,9.791,1.649
		c4.541,1.654,8.116,4.472,10.729,8.456c3.437,5.229,5.157,12.141,5.157,20.736V318.765z M448.565,323.612h-9.072v-26.503
		c0-2.956-0.313-5.364-0.933-7.218c-1.032-3.029-2.921-5.298-5.675-6.812c-1.578-0.893-3.402-1.338-5.463-1.338
		c-0.894,0-1.819,0.099-2.787,0.305c-0.962,0.209-1.851,0.55-2.679,1.033c-2.822,1.514-4.713,3.745-5.674,6.706
		c-0.621,1.852-0.93,4.295-0.93,7.323v26.503h-9.074v-26.503c0-4.402,0.555-8.116,1.65-11.14c1.512-4.193,4.23-7.499,8.147-9.905
		c3.3-1.991,7.087-2.989,11.346-2.989c4.26,0,8.045,0.998,11.349,2.989c3.848,2.406,6.561,5.712,8.142,9.905
		c1.104,2.958,1.652,6.668,1.652,11.14V323.612z"/>
	<g>
		<defs>
			<path id="SVGID_1_" d="M132.05,221.185c-3.7,1.555-5.438,5.827-3.875,9.527c1.553,3.7,5.822,5.44,9.524,3.881
				c3.697-1.559,5.44-5.829,3.88-9.527c-1.17-2.781-3.869-4.456-6.706-4.456C133.928,220.611,132.97,220.796,132.05,221.185
				 M139.83,200.57c-5.184,2.183-7.616,8.153-5.431,13.336c2.183,5.179,8.152,7.613,13.334,5.431
				c5.186-2.183,7.614-8.156,5.432-13.336c-1.636-3.892-5.414-6.232-9.387-6.232C142.46,199.768,141.12,200.025,139.83,200.57
				 M337.521,200.629c-8.136,3.433-11.965,12.816-8.531,20.961c3.429,8.141,12.815,11.962,20.956,8.534
				c8.144-3.431,11.964-12.814,8.537-20.961c-2.577-6.116-8.513-9.794-14.755-9.794C341.655,199.369,339.55,199.772,337.521,200.629
				 M296.302,194.86c-9.624,4.052-14.146,15.142-10.087,24.768c4.05,9.622,15.142,14.138,24.768,10.086
				c9.623-4.054,14.141-15.145,10.085-24.77c-3.045-7.229-10.057-11.576-17.439-11.576
				C301.184,193.369,298.693,193.849,296.302,194.86 M366.348,184.593c-6.658,2.807-9.785,10.483-6.982,17.149
				c2.807,6.66,10.482,9.788,17.148,6.98c6.659-2.805,9.793-10.487,6.99-17.149c-2.111-5.004-6.968-8.013-12.08-8.013
				C369.729,183.56,368.012,183.891,366.348,184.593 M159.667,175.371c-1.696,0-3.423,0.331-5.077,1.028
				c-6.664,2.806-9.792,10.484-6.984,17.147c2.808,6.662,10.487,9.788,17.148,6.985c6.665-2.808,9.791-10.486,6.982-17.152
				c-2.105-5.002-6.958-8.009-12.067-8.009C159.669,175.371,159.669,175.371,159.667,175.371 M257.086,172.452
				c-11.111,4.675-16.323,17.475-11.646,28.577c4.679,11.106,17.476,16.323,28.582,11.642c11.106-4.677,16.32-17.475,11.642-28.579
				c-3.512-8.342-11.61-13.356-20.121-13.356C262.719,170.735,259.851,171.286,257.086,172.452 M383.363,165.784
				c-5.178,2.184-7.605,8.157-5.429,13.34c2.187,5.181,8.163,7.614,13.34,5.432c5.183-2.184,7.612-8.157,5.438-13.336
				c-1.642-3.895-5.421-6.235-9.396-6.235C385.996,164.984,384.657,165.24,383.363,165.784 M227.457,153.92
				c-2.448,0-4.937,0.479-7.333,1.486c-9.624,4.055-14.141,15.149-10.087,24.771c4.055,9.625,15.144,14.142,24.772,10.086
				c9.628-4.052,14.142-15.145,10.082-24.768c-3.042-7.225-10.055-11.575-17.43-11.575C227.46,153.92,227.46,153.92,227.457,153.92
				 M181.157,154.996c-8.146,3.433-11.964,12.818-8.536,20.963c3.432,8.143,12.815,11.964,20.956,8.534
				c8.149-3.428,11.971-12.814,8.54-20.957c-2.579-6.117-8.512-9.794-14.758-9.794C185.29,153.741,183.187,154.145,181.157,154.996
				 M393.407,150.53c-3.7,1.558-5.439,5.827-3.88,9.525c1.561,3.703,5.826,5.44,9.53,3.881c3.696-1.559,5.437-5.824,3.877-9.527
				c-1.17-2.779-3.868-4.453-6.706-4.453C395.283,149.957,394.329,150.139,393.407,150.53"/>
		</defs>
		<clipPath id="SVGID_2_">
			<use xlink:href="#SVGID_1_"  overflow="visible"/>
		</clipPath>
		
			<linearGradient id="SVGID_3_" gradientUnits="userSpaceOnUse" x1="40.2852" y1="548.6836" x2="41.7311" y2="548.6836" gradientTransform="matrix(182.9409 -73.9129 73.9129 182.9409 -47791.3672 -97152.5313)">
			<stop  offset="0" style="stop-color:#D24A43"/>
			<stop  offset="0.1128" style="stop-color:#D45743"/>
			<stop  offset="0.5497" style="stop-color:#DF8844"/>
			<stop  offset="0.855" style="stop-color:#EDB344"/>
			<stop  offset="1" style="stop-color:#F3C644"/>
		</linearGradient>
		<polygon clip-path="url(#SVGID_2_)" fill="url(#SVGID_3_)" points="165.605,332.67 434.435,224.059 365.499,53.44 96.673,162.053 
					"/>
	</g>
</g>
</svg>
