<?xml version="1.0" encoding="utf-8"?>
<!-- Generator: Adobe Illustrator 15.0.0, SVG Export Plug-In . SVG Version: 6.00 Build 0)  -->
<!DOCTYPE svg PUBLIC "-//W3C//DTD SVG 1.1//EN" "http://www.w3.org/Graphics/SVG/1.1/DTD/svg11.dtd">
<svg version="1.1" id="Layer_1" xmlns="http://www.w3.org/2000/svg" xmlns:xlink="http://www.w3.org/1999/xlink" x="0px" y="0px"
	 width="500px" height="500px" viewBox="0 0 500 500" enable-background="new 0 0 500 500" xml:space="preserve">
<g>
	<g>
		<g>
			<path fill="#D24A43" d="M83.553,347.784v11.779h-2.564v-11.779H83.553z"/>
			<path d="M94.629,347.784h2.396v11.779h-2.588l-5.002-8.406l-0.047,8.406h-2.391v-11.779h2.716l4.878,8.193L94.629,347.784z"/>
			<path d="M103.123,354.612v4.951h-2.555v-11.779h8.762v2.076h-6.207v2.672h5.434v2.08H103.123z"/>
			<path d="M112.068,353.677c0-1.693,0.385-3.049,1.156-4.061c0.596-0.801,1.422-1.383,2.467-1.75
				c0.754-0.262,1.506-0.396,2.273-0.396c0.787,0,1.527,0.131,2.24,0.379c1.041,0.371,1.871,0.947,2.48,1.754
				c0.787,1.045,1.186,2.404,1.186,4.074c0,1.686-0.385,3.037-1.152,4.053c-0.596,0.803-1.42,1.383-2.477,1.754
				c-0.75,0.258-1.508,0.389-2.277,0.389c-0.773,0-1.52-0.121-2.232-0.369c-1.045-0.371-1.869-0.957-2.479-1.758
				C112.464,356.694,112.068,355.339,112.068,353.677z M114.621,353.671c0,1.482,0.387,2.584,1.141,3.299
				c0.59,0.551,1.327,0.826,2.203,0.826c0.881,0,1.613-0.271,2.193-0.811c0.77-0.717,1.148-1.818,1.148-3.314
				c0-1.48-0.375-2.578-1.139-3.291c-0.582-0.553-1.322-0.83-2.203-0.83c-0.876,0-1.609,0.273-2.189,0.811
				C115.012,351.069,114.621,352.181,114.621,353.671z"/>
			<path d="M127.424,359.563v-11.779h6.273c1.434,0,2.484,0.426,3.15,1.283c0.463,0.596,0.707,1.275,0.707,2.045
				c0,0.66-0.178,1.242-0.498,1.748c-0.328,0.512-0.797,0.863-1.393,1.059c0.572,0.24,0.963,0.512,1.146,0.826
				c0.262,0.408,0.396,1.129,0.396,2.156c0,0.824,0.014,1.383,0.053,1.688c0.023,0.314,0.188,0.529,0.506,0.65v0.324h-2.84
				c-0.104-0.324-0.178-0.646-0.217-0.975c-0.043-0.324-0.064-0.793-0.064-1.412c0-0.877-0.1-1.443-0.287-1.701
				c-0.264-0.352-0.83-0.52-1.715-0.52h-2.664v4.607H127.424z M129.979,352.978h3.025c1.32,0,1.982-0.535,1.982-1.604
				c0-0.404-0.113-0.746-0.342-1.008c-0.311-0.371-0.797-0.553-1.473-0.553h-3.193V352.978z"/>
			<path d="M153.311,347.784v11.779h-2.396v-9.854l-2.334,9.854h-2.521l-2.236-9.854l-0.037,9.854h-2.391v-11.779h3.75l2.221,9.281
				l2.224-9.281H153.311z"/>
			<path d="M160.525,357.132l-0.863,2.432h-2.701l4.379-11.779h2.973l4.322,11.779h-2.781l-0.797-2.432H160.525z M161.203,355.106
				h3.297l-1.684-4.66L161.203,355.106z"/>
			<path d="M175.482,349.86v9.703h-2.555v-9.703h-3.727v-2.076h10.018v2.076H175.482z"/>
			<path d="M185.436,347.784v11.779h-2.561v-11.779H185.436z"/>
			<path d="M189.045,353.677c0-1.693,0.389-3.049,1.152-4.061c0.601-0.801,1.43-1.383,2.48-1.75c0.75-0.262,1.494-0.396,2.268-0.396
				c0.783,0,1.529,0.131,2.236,0.379c1.045,0.371,1.866,0.947,2.48,1.754c0.797,1.045,1.186,2.404,1.186,4.074
				c0,1.686-0.381,3.037-1.148,4.053c-0.6,0.803-1.426,1.383-2.471,1.754c-0.75,0.258-1.514,0.389-2.283,0.389
				c-0.783,0-1.518-0.121-2.24-0.369c-1.037-0.371-1.865-0.957-2.471-1.758C189.443,356.694,189.045,355.339,189.045,353.677z
				 M191.604,353.671c0,1.482,0.379,2.584,1.135,3.299c0.59,0.551,1.326,0.826,2.207,0.826c0.887,0,1.613-0.271,2.186-0.811
				c0.768-0.717,1.158-1.818,1.158-3.314c0-1.48-0.385-2.578-1.145-3.291c-0.58-0.553-1.313-0.83-2.199-0.83
				c-0.881,0-1.611,0.273-2.184,0.811C191.982,351.069,191.604,352.181,191.604,353.671z"/>
			<path d="M212.041,347.784h2.387v11.779h-2.578l-4.992-8.406l-0.06,8.406h-2.392v-11.779h2.715l4.883,8.193L212.041,347.784z"/>
		</g>
		<g>
			<path fill="#D24A43" d="M230.549,355.927h2.467c0,0.473,0.154,0.879,0.455,1.205c0.449,0.477,1.17,0.711,2.15,0.711
				c0.75,0,1.34-0.094,1.75-0.291c0.557-0.256,0.834-0.67,0.834-1.232c0-0.328-0.123-0.59-0.371-0.797
				c-0.248-0.205-0.867-0.426-1.87-0.666c-0.782-0.182-1.562-0.373-2.339-0.582c-0.783-0.195-1.355-0.42-1.734-0.678
				c-0.385-0.268-0.672-0.639-0.869-1.121c-0.186-0.479-0.285-0.941-0.285-1.383c0-0.896,0.285-1.66,0.867-2.289
				c0.816-0.889,2.105-1.334,3.873-1.334c1.686,0,2.947,0.455,3.797,1.373c0.656,0.703,0.988,1.518,0.988,2.447h-2.461
				c-0.061-0.465-0.211-0.826-0.439-1.088c-0.422-0.469-1.113-0.699-2.074-0.699c-0.573,0-1.059,0.104-1.443,0.311
				c-0.477,0.248-0.717,0.619-0.717,1.102c0,0.412,0.16,0.717,0.465,0.924c0.174,0.117,0.449,0.225,0.848,0.309l3,0.699
				c1.024,0.248,1.768,0.563,2.236,0.938c0.663,0.525,0.994,1.266,0.994,2.225c0,1.529-0.676,2.617-2.025,3.264
				c-0.826,0.398-1.768,0.6-2.83,0.6c-1.988,0-3.432-0.473-4.314-1.42C230.867,357.792,230.549,356.948,230.549,355.927z"/>
			<path d="M253.158,347.784v2.076h-6.535v2.484h5.986v2.072h-5.986v3.07h6.797v2.076h-9.352v-11.779H253.158z"/>
			<path d="M256.975,359.563v-11.779h6.275c1.436,0,2.484,0.426,3.146,1.283c0.473,0.596,0.703,1.275,0.703,2.045
				c0,0.66-0.164,1.242-0.492,1.748c-0.328,0.512-0.793,0.863-1.393,1.059c0.576,0.24,0.961,0.512,1.152,0.826
				c0.258,0.408,0.395,1.129,0.395,2.156c0,0.824,0.014,1.383,0.047,1.688c0.023,0.314,0.188,0.529,0.51,0.65v0.324h-2.85
				c-0.098-0.324-0.174-0.646-0.201-0.975c-0.047-0.324-0.07-0.793-0.07-1.412c0-0.877-0.104-1.443-0.291-1.701
				c-0.258-0.352-0.83-0.52-1.711-0.52h-2.662v4.607H256.975z M259.533,352.978h3.02c1.322,0,1.982-0.535,1.982-1.604
				c0-0.404-0.113-0.746-0.338-1.008c-0.309-0.371-0.797-0.553-1.477-0.553h-3.188V352.978z"/>
			<path d="M278.008,347.784h2.662l-4.172,11.779h-2.467l-4.133-11.779h2.746l2.645,8.924L278.008,347.784z"/>
			<path d="M286.01,347.784v11.779h-2.561v-11.779H286.01z"/>
			<path d="M300.447,351.646h-2.561c-0.158-0.566-0.373-0.988-0.646-1.279c-0.469-0.512-1.166-0.764-2.08-0.764
				c-0.787,0-1.453,0.271-1.988,0.811c-0.697,0.713-1.049,1.822-1.049,3.328c0,1.158,0.229,2.086,0.693,2.789
				c0.533,0.807,1.311,1.215,2.344,1.215c0.711,0,1.313-0.193,1.804-0.582c0.468-0.379,0.778-0.928,0.923-1.641h2.561
				c-0.258,1.342-0.82,2.385-1.688,3.137c-0.947,0.811-2.156,1.213-3.65,1.213c-1.697,0-3.043-0.52-4.037-1.555
				c-1.055-1.098-1.58-2.635-1.58-4.627c0-1.988,0.543-3.539,1.631-4.656c1.018-1.041,2.354-1.564,4.018-1.564
				c1.688,0,3.027,0.482,4.035,1.434C300.025,349.71,300.447,350.624,300.447,351.646z"/>
			<path d="M313.033,347.784v2.076h-6.535v2.484h5.982v2.072h-5.982v3.07h6.797v2.076h-9.355v-11.779H313.033z"/>
		</g>
		<g>
			<path fill="#D24A43" d="M329.553,355.927h2.461c0,0.473,0.156,0.879,0.461,1.205c0.449,0.477,1.166,0.711,2.15,0.711
				c0.75,0,1.332-0.094,1.75-0.291c0.551-0.256,0.828-0.67,0.828-1.232c0-0.328-0.121-0.59-0.371-0.797
				c-0.248-0.205-0.875-0.426-1.868-0.666c-0.778-0.182-1.558-0.373-2.341-0.582c-0.781-0.195-1.359-0.42-1.729-0.678
				c-0.385-0.268-0.676-0.639-0.867-1.121c-0.193-0.479-0.287-0.941-0.287-1.383c0-0.896,0.287-1.66,0.863-2.289
				c0.814-0.889,2.104-1.334,3.871-1.334c1.684,0,2.953,0.455,3.799,1.373c0.66,0.703,0.988,1.518,0.988,2.447h-2.461
				c-0.061-0.465-0.207-0.826-0.447-1.088c-0.416-0.469-1.102-0.699-2.066-0.699c-0.576,0-1.059,0.104-1.443,0.311
				c-0.473,0.248-0.713,0.619-0.713,1.102c0,0.412,0.154,0.717,0.459,0.924c0.17,0.117,0.451,0.225,0.85,0.309l3,0.699
				c1.021,0.248,1.768,0.563,2.236,0.938c0.66,0.525,0.988,1.266,0.988,2.225c0,1.529-0.67,2.617-2.016,3.264
				c-0.83,0.398-1.771,0.6-2.836,0.6c-1.992,0-3.426-0.473-4.313-1.42C329.871,357.792,329.553,356.948,329.553,355.927z"/>
			<path d="M347.887,355.114v4.449h-2.555v-4.449l-4.131-7.33h2.926l2.535,5.127l2.434-5.127h2.916L347.887,355.114z"/>
			<path d="M353.813,355.927h2.461c0,0.473,0.154,0.879,0.463,1.205c0.451,0.477,1.168,0.711,2.148,0.711
				c0.754,0,1.33-0.094,1.748-0.291c0.559-0.256,0.838-0.67,0.838-1.232c0-0.328-0.125-0.59-0.379-0.797
				c-0.248-0.205-0.867-0.426-1.861-0.666c-0.787-0.182-1.561-0.373-2.344-0.582c-0.787-0.195-1.359-0.42-1.734-0.678
				c-0.385-0.268-0.674-0.639-0.867-1.121c-0.193-0.479-0.285-0.941-0.285-1.383c0-0.896,0.285-1.66,0.865-2.289
				c0.818-0.889,2.105-1.334,3.873-1.334c1.688,0,2.949,0.455,3.797,1.373c0.656,0.703,0.994,1.518,0.994,2.447h-2.465
				c-0.063-0.465-0.211-0.826-0.441-1.088c-0.422-0.469-1.111-0.699-2.066-0.699c-0.582,0-1.07,0.104-1.453,0.311
				c-0.474,0.248-0.713,0.619-0.713,1.102c0,0.412,0.154,0.717,0.463,0.924c0.174,0.117,0.451,0.225,0.848,0.309l3.006,0.699
				c1.021,0.248,1.764,0.563,2.236,0.938c0.656,0.525,0.984,1.266,0.984,2.225c0,1.529-0.673,2.617-2.016,3.264
				c-0.83,0.398-1.771,0.6-2.836,0.6c-1.992,0-3.432-0.473-4.309-1.42C354.131,357.792,353.813,356.948,353.813,355.927z"/>
			<path d="M372.881,349.86v9.703h-2.555v-9.703h-3.723v-2.076h10.02v2.076H372.881z"/>
			<path d="M389.203,347.784v2.076h-6.529v2.484h5.982v2.072h-5.982v3.07h6.803v2.076h-9.367v-11.779H389.203z"/>
			<path d="M404.865,347.784v11.779h-2.4v-9.854l-2.32,9.854h-2.535l-2.229-9.854l-0.036,9.854h-2.395v-11.779h3.75l2.223,9.281
				l2.227-9.281H404.865z"/>
			<path d="M408.404,355.927h2.471c0,0.473,0.145,0.879,0.449,1.205c0.455,0.477,1.174,0.711,2.152,0.711
				c0.75,0,1.336-0.094,1.754-0.291c0.559-0.256,0.834-0.67,0.834-1.232c0-0.328-0.127-0.59-0.375-0.797
				c-0.248-0.205-0.873-0.426-1.865-0.666c-0.779-0.182-1.557-0.373-2.35-0.582c-0.777-0.195-1.354-0.42-1.729-0.678
				c-0.381-0.268-0.67-0.639-0.866-1.121c-0.19-0.479-0.282-0.941-0.282-1.383c0-0.896,0.285-1.66,0.871-2.289
				c0.807-0.889,2.1-1.334,3.857-1.334c1.689,0,2.955,0.455,3.804,1.373c0.655,0.703,0.987,1.518,0.987,2.447h-2.461
				c-0.061-0.465-0.207-0.826-0.445-1.088c-0.418-0.469-1.105-0.699-2.066-0.699c-0.572,0-1.061,0.104-1.439,0.311
				c-0.479,0.248-0.717,0.619-0.717,1.102c0,0.412,0.154,0.717,0.459,0.924c0.168,0.117,0.449,0.225,0.848,0.309l3.004,0.699
				c1.02,0.248,1.77,0.563,2.238,0.938c0.656,0.525,0.984,1.266,0.984,2.225c0,1.529-0.67,2.617-2.017,3.264
				c-0.829,0.398-1.776,0.6-2.831,0.6c-1.998,0-3.432-0.473-4.316-1.42C408.725,357.792,408.404,356.948,408.404,355.927z"/>
		</g>
	</g>
	<g>
		<g>
			<path fill-rule="evenodd" clip-rule="evenodd" fill="#D24A43" d="M351.798,335.558c34.218,0,62.067-27.844,62.067-62.061
				s-27.85-62.063-62.067-62.063l0,0h-21.472v6.037h21.472l0,0c30.866,0,56.026,24.994,56.026,56.025
				c0,30.863-25.16,56.023-56.026,56.023l0,0h-21.472v6.037H351.798L351.798,335.558L351.798,335.558z M330.326,323.481v-6.037
				h21.472l0,0c24.323,0,43.946-19.627,43.946-43.947c0-24.324-19.623-44.113-43.946-44.113l0,0h-21.472v-5.873h21.472l0,0
				c27.505,0,49.987,22.307,49.987,49.986c0,27.676-22.482,49.984-49.987,49.984l0,0H330.326L330.326,323.481z M330.326,311.571
				v-6.037h21.472l0,0c17.61,0,32.038-14.424,32.038-32.037c0-17.781-14.428-32.039-32.038-32.039l0,0h-21.472v-5.867h21.472v-0.17
				c20.97,0,37.907,17.109,37.907,38.076c0,20.963-16.938,38.074-37.907,38.074l0,0H330.326L330.326,311.571z M330.326,299.495
				v-6.037h21.472l0,0c11.075,0,19.958-8.893,19.958-19.961c0-11.072-8.883-19.963-19.958-19.963l0,0h-11.909
				c-3.861,0-6.877-1.676-9.563-4.863v-1.678c0.844,0.338,2.013,0.502,3.188,0.502h18.284l0,0c14.259,0,25.997,11.578,25.997,26.002
				s-11.738,25.998-25.997,25.998l0,0H330.326L330.326,299.495z M330.326,287.419v-5.867h21.472c4.368,0,7.884-3.695,7.884-8.055
				c0-4.363-3.516-8.053-7.884-8.053l0,0c-4.698-0.17-8.224-2.682-11.407-7.209c0.174,0.332,2.518,1.172,5.199,1.172h6.208l0,0
				c7.714,0,13.921,6.375,13.921,14.09c0,7.713-6.207,13.922-13.921,13.922H330.326z M330.326,211.435H294.77
				c1.004,4.529,5.533,6.037,8.219,6.037h27.338V211.435L330.326,211.435z M330.326,329.521h-30.859
				c-2.354,0-4.193-1.848-4.697-4.195v5.367c0,2.854,2.008,4.865,4.861,4.865h30.695V329.521L330.326,329.521z M330.326,223.511
				v5.873h-14.424c-4.865,0-8.555-2.518-11.574-7.215c0.168,0.338,2.35,1.342,5.199,1.342H330.326L330.326,223.511z
				 M330.326,235.591v5.867h-2.348c-4.867,0-8.555-2.512-11.744-7.213c0.17,0.338,2.518,1.346,5.203,1.346H330.326L330.326,235.591z
				 M330.326,246.993v1.678c-0.838-0.67-1.342-1.51-2.012-2.516C328.314,246.323,329.154,246.825,330.326,246.993L330.326,246.993z
				 M330.326,281.552v5.867h-30.695c-2.854,0-4.861-2.016-4.861-4.865v-5.367c0.504,2.518,2.344,4.365,4.697,4.365H330.326
				L330.326,281.552z M330.326,293.458v6.037h-30.695c-2.854,0-4.861-2.012-4.861-4.865v-5.363c0.504,2.344,2.344,4.191,4.697,4.191
				H330.326L330.326,293.458z M330.326,305.534v6.037h-30.695c-2.854,0-4.861-2.012-4.861-4.861v-5.367
				c0.504,2.344,2.344,4.191,4.697,4.191H330.326L330.326,305.534z M330.326,317.444v6.037h-30.695
				c-2.854,0-4.861-2.016-4.861-4.865v-5.367c0.504,2.518,2.344,4.195,4.697,4.195H330.326z"/>
			<linearGradient id="SVGID_1_" gradientUnits="userSpaceOnUse" x1="319.2334" y1="216.5776" x2="325.944" y2="189.663">
				<stop  offset="0" style="stop-color:#AFAFAF"/>
				<stop  offset="0.68" style="stop-color:#FFFFFF"/>
				<stop  offset="1" style="stop-color:#FFFFFF"/>
			</linearGradient>
			<path fill-rule="evenodd" clip-rule="evenodd" fill="url(#SVGID_1_)" d="M339.051,193.321l5.199,3.023
				c-1.342,2.18-2.016,4.529-2.016,7.211c0,3.018,0.838,5.699,2.348,7.879h-6.702c-1.005-2.348-1.685-5.029-1.685-7.879
				C336.195,199.866,337.203,196.345,339.051,193.321L339.051,193.321z M312.548,208.585v-10.061
				c0.669-6.041,2.521-11.742,5.534-16.777l5.199,2.855c-3.188,5.537-5.029,12.076-5.029,18.953c0,2.68,0.332,5.367,0.838,7.879
				h-6.205C312.715,210.427,312.548,209.593,312.548,208.585L312.548,208.585z M312.548,179.235v-0.676l0.337,0.17L312.548,179.235
				L312.548,179.235z M328.484,187.452l5.361,3.02c-2.344,3.857-3.684,8.387-3.684,13.084c0,2.68,0.506,5.367,1.34,7.879h-6.372
				c-0.503-2.512-0.841-5.199-0.841-7.879C324.289,197.687,325.799,192.317,328.484,187.452z M312.548,178.56v0.676
				c-4.028,7.209-6.378,15.596-6.378,24.32c0,2.68,0.338,5.367,0.672,7.879h-6.039c-0.332-2.512-0.67-5.199-0.67-7.879
				c0-10.066,2.688-19.623,7.385-27.678L312.548,178.56L312.548,178.56z M312.548,198.524c-0.171,1.674-0.334,3.357-0.334,5.031
				c0,1.678,0.163,3.355,0.334,5.029V198.524z"/>
			<path fill-rule="evenodd" clip-rule="evenodd" d="M418.549,187.786v-5.363c0-2.855-1.842-4.865-4.693-4.865h-38.24v6.037h38.24
				C416.199,183.595,418.217,185.437,418.549,187.786L418.549,187.786z M375.615,195.507v-5.875h38.24
				c2.852,0,4.693,2.016,4.693,4.867v5.367c-0.332-2.518-2.35-4.359-4.693-4.359H375.615L375.615,195.507z M375.615,171.519v-6.037
				h38.24c2.852,0,4.693,2.012,4.693,4.861v5.367c-0.332-2.348-2.35-4.191-4.693-4.191H375.615L375.615,171.519z M375.615,159.608
				v-6.039h38.24c2.852,0,4.693,2.012,4.693,4.867v5.367c-0.332-2.518-2.35-4.195-4.693-4.195H375.615L375.615,159.608z
				 M375.615,147.532v-6.043h38.24c2.852,0,4.693,2.016,4.693,4.867v5.367c-0.332-2.344-2.35-4.191-4.693-4.191H375.615z
				 M375.615,177.558H356.33l0,0c-14.43,0-26.168,11.574-26.168,25.998c0,2.68,0.506,5.367,1.34,7.879h6.378
				c-1.005-2.348-1.685-5.029-1.685-7.879c0-11.072,9.066-19.961,20.135-19.961l0,0h19.285V177.558L375.615,177.558z
				 M375.615,141.489v6.043H356.33l0,0c-31.032,0-56.197,25.158-56.197,56.023c0,2.68,0.338,5.367,0.67,7.879h-6.033
				c-0.338-2.512-0.5-5.199-0.5-7.879c0-34.217,27.672-62.066,62.061-62.066l0,0H375.615L375.615,141.489z M375.615,153.569v6.039
				H356.33l0,0c-24.324,0-44.116,19.627-44.116,43.947c0,2.68,0.334,5.367,0.671,7.879h-6.043c-0.334-2.512-0.672-5.199-0.672-7.879
				c0-27.678,22.479-49.986,50.16-49.986l0,0H375.615L375.615,153.569z M375.615,165.481v6.037H356.33l0,0
				c-17.787,0-32.041,14.424-32.041,32.037c0,2.68,0.338,5.367,0.841,7.879h-6.04c-0.506-2.512-0.838-5.199-0.838-7.879
				c0-20.965,16.939-38.074,38.078-38.074l0,0H375.615L375.615,165.481z M375.615,189.632v5.875H356.33
				c-4.532,0-8.055,3.684-8.055,8.049c0,3.854,2.686,7.209,6.371,7.879h-10.064c-1.51-2.18-2.348-4.861-2.348-7.879
				c0-7.717,6.205-13.924,14.096-13.924H375.615z"/>
		</g>
		<g>
			<path fill-rule="evenodd" clip-rule="evenodd" fill="#D24A43" d="M244.443,265.612h35.562c-1.173-4.527-5.532-6.037-8.218-6.037
				h-27.344V265.612L244.443,265.612z M244.443,147.532h30.699c2.518,0,4.359,1.848,4.862,4.191v-5.367
				c0-2.852-2.013-4.867-4.862-4.867h-30.699V147.532L244.443,147.532z M244.443,253.534v-5.871h14.26
				c4.867,0,8.561,2.518,11.742,7.215c-0.168-0.338-2.518-1.344-5.203-1.344H244.443L244.443,253.534z M244.443,241.626v-6.035
				h2.186c4.861,0,8.549,2.518,11.74,7.211c-0.172-0.336-2.512-1.176-5.197-1.176H244.443L244.443,241.626z M244.443,230.054v-1.678
				c0.676,0.67,1.346,1.51,2.021,2.518C246.289,230.726,245.619,230.224,244.443,230.054L244.443,230.054z M244.443,195.507v-5.875
				h30.699c2.85,0,4.862,2.016,4.862,4.867v5.367c-0.503-2.518-2.345-4.359-4.862-4.359H244.443L244.443,195.507z M244.443,183.595
				v-6.037h30.699c2.85,0,4.862,2.01,4.862,4.865v5.363c-0.503-2.35-2.345-4.191-4.862-4.191H244.443L244.443,183.595z
				 M244.443,171.519v-6.037h30.699c2.85,0,4.862,2.012,4.862,4.861v5.367c-0.503-2.348-2.345-4.191-4.862-4.191H244.443
				L244.443,171.519z M244.443,159.608v-6.039h30.699c2.85,0,4.862,2.012,4.862,4.867v5.367c-0.503-2.518-2.345-4.195-4.862-4.195
				H244.443z M222.975,141.489c-34.385,0-62.063,27.85-62.063,62.066c0,34.215,27.678,62.057,62.063,62.057l0,0h21.469v-6.037
				h-21.469l0,0c-31.033,0-56.02-24.992-56.02-56.02c0-30.865,24.986-56.023,56.02-56.023l0,0h21.469v-6.043H222.975
				L222.975,141.489L222.975,141.489z M244.443,153.569v6.039h-21.469l0,0c-24.316,0-44.111,19.627-44.111,43.947
				c0,24.318,19.795,44.107,44.111,44.107l0,0h21.469v5.871h-21.469l0,0c-27.677,0-50.154-22.303-50.154-49.979
				c0-27.678,22.478-49.986,50.154-49.986l0,0H244.443L244.443,153.569z M244.443,165.481v6.037h-21.469l0,0
				c-17.781,0-32.037,14.424-32.037,32.037c0,17.775,14.256,32.035,32.037,32.035l0,0h21.469v6.035h-21.469l0,0
				c-21.133,0-38.08-17.107-38.08-38.07c0-20.965,16.947-38.074,38.08-38.074l0,0H244.443L244.443,165.481z M244.443,177.558v6.037
				h-21.469l0,0c-11.068,0-20.125,8.889-20.125,19.961c0,11.066,9.057,19.955,20.125,19.955l0,0h11.742
				c3.857,0,7.051,1.678,9.727,4.865v1.678c-0.84-0.338-2.012-0.502-3.184-0.502h-18.285l0,0c-14.424,0-25.998-11.572-25.998-25.996
				s11.574-25.998,25.998-25.998l0,0H244.443L244.443,177.558z M244.443,189.632v5.875h-21.469c-4.529,0-8.049,3.684-8.049,8.049
				c0,4.527,3.52,8.047,8.049,8.047l0,0c4.527,0.17,8.221,2.682,11.24,7.215c-0.17-0.338-2.518-1.176-5.203-1.176h-6.037l0,0
				c-7.711,0-14.092-6.375-14.092-14.086c0-7.717,6.381-13.924,14.092-13.924H244.443z"/>
			<path fill-rule="evenodd" clip-rule="evenodd" d="M202.348,299.495h16.098l0,0c14.26,0,25.998-11.574,25.998-25.998
				c0-2.686-0.502-5.371-1.172-7.885h-6.375c1.008,2.35,1.51,5.029,1.51,7.885c0,11.068-8.889,19.961-19.961,19.961l0,0h-16.098
				V299.495L202.348,299.495z M202.348,335.558v-6.037h16.098l0,0c30.863,0,56.027-25.16,56.027-56.023
				c0-2.686-0.174-5.371-0.502-7.885h6.034c0.337,2.514,0.501,5.199,0.501,7.885c0,34.217-27.84,62.061-62.061,62.061l0,0H202.348
				L202.348,335.558z M202.348,323.481v-6.037h16.098l0,0c24.324,0,43.947-19.627,43.947-43.947c0-2.686-0.168-5.371-0.67-7.885
				h6.041c0.504,2.514,0.668,5.199,0.668,7.885c0,27.676-22.311,49.984-49.986,49.984l0,0H202.348L202.348,323.481z
				 M202.348,311.571v-6.037h16.098l0,0c17.615,0,32.041-14.424,32.041-32.037c0-2.686-0.338-5.371-1.008-7.885h6.205
				c0.502,2.514,0.676,5.199,0.676,7.885c0,20.963-16.945,38.074-37.914,38.074l0,0H202.348L202.348,311.571z M202.348,287.419
				v-5.867h16.098c4.359,0,7.885-3.695,7.885-8.055c0-3.857-2.682-7.215-6.369-7.885h10.059c1.51,2.18,2.35,5.029,2.35,7.885
				c0,7.713-6.203,13.922-13.924,13.922H202.348z M160.074,289.267v5.363c0,2.854,2.012,4.865,4.865,4.865h37.408v-6.037h-37.408
				C162.424,293.458,160.576,291.61,160.074,289.267L160.074,289.267z M202.348,281.552v5.867h-37.408
				c-2.854,0-4.865-2.016-4.865-4.865v-5.367c0.502,2.518,2.35,4.365,4.865,4.365H202.348L202.348,281.552z M202.348,305.534v6.037
				h-37.408c-2.854,0-4.865-2.012-4.865-4.861v-5.367c0.502,2.344,2.35,4.191,4.865,4.191H202.348L202.348,305.534z
				 M202.348,317.444v6.037h-37.408c-2.854,0-4.865-2.016-4.865-4.865v-5.367c0.502,2.518,2.35,4.195,4.865,4.195H202.348
				L202.348,317.444z M202.348,329.521v6.037h-37.408c-2.854,0-4.865-2.012-4.865-4.865v-5.367c0.502,2.348,2.35,4.195,4.865,4.195
				H202.348z"/>
			<linearGradient id="SVGID_2_" gradientUnits="userSpaceOnUse" x1="257.2676" y1="259.6611" x2="241.5591" y2="305.2818">
				<stop  offset="0" style="stop-color:#979695"/>
				<stop  offset="0.62" style="stop-color:#FFFFFF"/>
				<stop  offset="1" style="stop-color:#FFFFFF"/>
			</linearGradient>
			<path fill-rule="evenodd" clip-rule="evenodd" fill="url(#SVGID_2_)" d="M262.225,298.487v-0.67
				c3.857-7.215,6.207-15.432,6.207-24.32c0-2.686-0.164-5.371-0.668-7.885h6.207c0.328,2.514,0.502,5.199,0.502,7.885
				c0,10.064-2.686,19.623-7.383,27.676L262.225,298.487L262.225,298.487z M262.225,278.528c0.168-1.68,0.168-3.357,0.168-5.031
				c0-1.678,0-3.525-0.168-5.035V278.528z M235.725,283.731l-5.363-3.025c1.336-2.01,2.008-4.527,2.008-7.209
				c0-2.855-0.84-5.705-2.35-7.885h6.877c1.008,2.35,1.51,5.029,1.51,7.885C238.406,277.187,237.402,280.706,235.725,283.731
				L235.725,283.731z M262.225,268.462v10.066c-0.84,6.205-2.682,11.742-5.537,16.941l-5.367-3.02
				c3.355-5.537,5.039-12.076,5.039-18.953c0-2.686-0.174-5.371-0.676-7.885h6.039C261.891,266.62,262.061,267.454,262.225,268.462
				L262.225,268.462z M262.225,297.817v0.67l-0.334-0.164L262.225,297.817L262.225,297.817z M246.121,289.599l-5.199-3.018
				c2.182-3.859,3.521-8.387,3.521-13.084c0-2.686-0.502-5.371-1.172-7.885h6.207c0.67,2.514,1.008,5.199,1.008,7.885
				C250.486,279.366,248.809,284.733,246.121,289.599z"/>
		</g>
		<g>
			<linearGradient id="SVGID_3_" gradientUnits="userSpaceOnUse" x1="113.1064" y1="211.7813" x2="113.1064" y2="180.2754">
				<stop  offset="0" style="stop-color:#FFFFFF"/>
				<stop  offset="0.2" style="stop-color:#FFFFFF"/>
				<stop  offset="0.53" style="stop-color:#AFAFAF"/>
				<stop  offset="0.81" style="stop-color:#FFFFFF"/>
				<stop  offset="1" style="stop-color:#FFFFFF"/>
			</linearGradient>
			<path fill-rule="evenodd" clip-rule="evenodd" fill="url(#SVGID_3_)" d="M125.184,195.507h0.84c3.857,0,7.377-3.02,7.377-6.873
				v-8.545h6.039v11.896c0,2.344-1.842,3.521-2.344,3.521h-0.836c-3.865,0-7.387,3.182-7.387,6.867v9.221h-3.689V195.507
				L125.184,195.507z M125.184,195.507c0.676-0.17,2.18-1.342,2.18-3.521v-11.896h-2.18V195.507z M125.184,211.595h-2.348V199.19
				c0-2.344,1.678-3.516,2.348-3.684V211.595L125.184,211.595z M125.184,180.089h-3.857v8.545c0,3.854-3.355,6.873-7.215,6.873
				h-0.838h-0.164v16.088h3.688v-9.221c0-3.686,3.521-6.867,7.378-6.867h0.84c0,0,0,0,0.168,0V180.089L125.184,180.089z
				 M113.109,195.507v-15.418h2.352v11.896C115.461,194.165,113.779,195.337,113.109,195.507z M113.109,180.089v15.418
				c0,0,0,0-0.17,0h-0.84c-3.688,0-7.213,3.182-7.213,6.867v9.221h-3.857v-16.088c0.168,0,0.168,0,0.168,0h0.838
				c3.859,0,7.383-3.02,7.383-6.873v-8.545H113.109L113.109,180.089z M113.109,195.507c-0.672,0.168-2.186,1.34-2.186,3.684v12.404
				h2.186V195.507L113.109,195.507z M101.029,195.507c0.674-0.17,2.348-1.342,2.348-3.521v-11.896h-2.348V195.507z M101.029,180.089
				v15.418l0,0h-0.836c-3.857,0-7.383,3.182-7.383,6.867v9.221h-6.037V199.19c0-2.344,1.842-3.684,2.512-3.684h0.844
				c3.689,0,7.21-3.02,7.21-6.873v-8.545H101.029L101.029,180.089z M101.029,195.507c-0.666,0.168-2.176,1.34-2.176,3.684v12.404
				h2.176V195.507z"/>
			<path fill-rule="evenodd" clip-rule="evenodd" fill="#D24A43" d="M135.254,141.489h5.361c2.855,0,4.867,2.012,4.867,4.861v42.283
				c0,3.854-3.516,6.873-7.385,6.873h-0.834h-0.168c0.502,0,2.344-1.178,2.344-3.521v-45.635
				C139.439,143.839,137.598,141.991,135.254,141.489L135.254,141.489z M87.111,141.489h5.367c2.85,0,4.86,2.012,4.86,4.861v42.283
				c0,3.854-3.521,6.873-7.21,6.873h-0.844h-0.328c0.666,0,2.344-1.178,2.344-3.521v-45.635
				C91.301,143.839,89.459,141.991,87.111,141.489L87.111,141.489z M99.186,141.489h5.373c2.844,0,4.859,2.012,4.859,4.861v42.283
				c0,3.854-3.523,6.873-7.383,6.873h-0.838h-0.168c0.506,0,2.348-1.178,2.348-3.521v-45.635
				C103.377,143.839,101.535,141.991,99.186,141.489L99.186,141.489z M111.094,141.489h5.367c2.854,0,4.865,2.012,4.865,4.861
				v42.283c0,3.854-3.355,6.873-7.215,6.873h-0.838h-0.334c0.67,0,2.521-1.178,2.521-3.521v-45.635
				C115.461,143.839,113.609,141.991,111.094,141.489L111.094,141.489z M123.174,141.489h5.367c2.85,0,4.859,2.012,4.859,4.861
				v42.283c0,3.854-3.52,6.873-7.377,6.873h-0.84h-0.168c0.506,0,2.348-1.178,2.348-3.521v-45.635
				C127.363,143.839,125.521,141.991,123.174,141.489z"/>
			<path fill-rule="evenodd" clip-rule="evenodd" d="M139.439,335.558h-5.701c-2.676,0-4.865-2.176-4.865-4.861V202.374
				c0-3.686,3.521-6.867,7.387-6.867h1.004c-0.502,0-2.352,1.34-2.352,3.684v131.844
				C134.912,333.552,136.926,335.558,139.439,335.558L139.439,335.558z M91.301,335.558h-5.537c-2.68,0-4.865-2.176-4.865-4.861
				V202.374c0-3.686,3.361-6.867,7.215-6.867h1.172c-0.67,0-2.512,1.34-2.512,3.684v131.844
				C86.773,333.552,88.957,335.558,91.301,335.558L91.301,335.558z M103.377,335.558h-5.701c-2.686,0-4.865-2.176-4.865-4.861
				V202.374c0-3.686,3.525-6.867,7.383-6.867h1.004c-0.502,0-2.344,1.34-2.344,3.684v131.844
				C98.854,333.552,100.865,335.558,103.377,335.558L103.377,335.558z M115.461,335.558h-5.705c-2.686,0-4.869-2.176-4.869-4.861
				V202.374c0-3.686,3.525-6.867,7.213-6.867h1.174c-0.67,0-2.35,1.34-2.35,3.684v131.844
				C110.924,333.552,112.939,335.558,115.461,335.558L115.461,335.558z M127.363,335.558h-5.699c-2.688,0-4.866-2.176-4.866-4.861
				V202.374c0-3.686,3.521-6.867,7.378-6.867h1.008c-0.502,0-2.348,1.34-2.348,3.684v131.844
				C122.836,333.552,124.855,335.558,127.363,335.558z"/>
		</g>
	</g>
</g>
</svg>
