<?xml version="1.0" encoding="utf-8"?>
<!-- Generator: Adobe Illustrator 15.0.0, SVG Export Plug-In . SVG Version: 6.00 Build 0)  -->
<!DOCTYPE svg PUBLIC "-//W3C//DTD SVG 1.1//EN" "http://www.w3.org/Graphics/SVG/1.1/DTD/svg11.dtd">
<svg version="1.1" id="Layer_1" xmlns="http://www.w3.org/2000/svg" xmlns:xlink="http://www.w3.org/1999/xlink" x="0px" y="0px"
	 width="500px" height="500px" viewBox="0 0 500 500" enable-background="new 0 0 500 500" xml:space="preserve">
<g>
	<path fill="#A4C057" d="M416.185,286.131c5.345,1.48,8.496,3.217,8.438,4.969c-0.049,1.285-1.8,2.424-4.854,3.381l0.196,0.023
		c7.391-1.021,11.1-2.209,11.1-3.52c0-1.326-3.725-2.783-11.206-4.33l-0.122-0.016l-0.132-0.033
		C418.656,286.426,417.478,286.27,416.185,286.131L416.185,286.131z M416.185,286.131"/>
	<path fill="#A4C057" d="M466.539,289.748c-0.09,2.57-2.931,4.92-7.973,6.99c13.146-2.209,19.742-4.715,19.734-7.447
		c-0.024-3.209-9.126-6.744-27.338-10.518c-0.114-0.025-0.262-0.041-0.385-0.066l-0.303,0.025
		C460.687,282.113,466.67,285.902,466.539,289.748L466.539,289.748z M466.539,289.748"/>
	<path fill="#A4C057" d="M445.004,290.297c-0.074,2.039-2.619,3.879-7.089,5.469h0.009c9.511-1.711,14.275-3.635,14.251-5.723
		c-0.024-2.545-7.188-5.354-21.494-8.348C439.773,284.281,445.111,287.27,445.004,290.297L445.004,290.297z M445.004,290.297"/>
	<path fill="#5F6062" d="M444.005,233.667c-1.628-1.098-3.83-0.664-4.927,0.966l-31.382,46.538c-0.753,1.113-3.74,8.514-5.549,13.08
		l2.136,0.23c3.561-3.406,8.603-8.301,9.307-9.33l31.381-46.557C446.068,236.972,445.635,234.761,444.005,233.667L444.005,233.667z
		 M444.005,233.667"/>
	<path fill="#CBD04F" d="M448.425,248.285l16.706-25.663c3.732,0.56,7.276-0.546,9.282-3.271l-24.481-18.017
		c-2.006,2.735-2.006,6.435-0.368,9.84l-19.53,23.573c-7.219-1.72-15.093,0.89-19.766,7.244l37.127,27.32
		C452.076,262.967,452.224,254.668,448.425,248.285L448.425,248.285z M448.425,248.285"/>
	<path fill="#A4C057" d="M444.137,245.125l16.698-25.661c4.002-0.475,5.434-1.899,7.439-4.632l-18.343-13.499
		c-2.006,2.728-2.006,6.435-0.368,9.84l-19.53,23.573c-7.219-1.72-15.093,0.89-19.766,7.244l28.229,20.773
		C443.17,256.412,445.307,250.035,444.137,245.125L444.137,245.125z M444.137,245.125"/>
	<path fill="#5F6062" d="M285.879,271.619V257.4h25.495c-1.947-5.205-5.531-8.609-10.737-10.197
		c-1.662-0.507-3.405-0.761-5.214-0.761c-6.435,0-11.1,2.749-13.997,8.241h-16.279c1.669-4.994,3.985-8.969,6.948-11.932
		c0.359-0.36,0.761-0.722,1.194-1.082c6.074-5.646,13.457-8.471,22.134-8.471c9.265,0,16.967,3.224,23.114,9.659
		c5.723,6.008,8.569,13.275,8.569,21.812c0,8.896-3.249,16.461-9.756,22.682c-6.229,5.859-13.678,8.791-22.362,8.791
		c-10.845,0-19.308-4.201-25.389-12.59c-1.81-2.537-3.292-5.393-4.453-8.57h16.279c3.691,5.133,8.251,7.775,13.669,7.916
		c6.082,0,10.821-2.455,14.218-7.375c0.867-1.236,1.563-2.537,2.062-3.904H285.879z M285.879,271.619"/>
	<path fill="#5F6062" d="M231.825,293.875v-45.076h-13.98v-14.48h0.826l43.144-0.007h0.835l-0.017,0.844l-0.213,12.826l-0.016,0.81
		h-0.803l-14.029,0.008v45.902h-15.747V293.875z M231.825,293.875"/>
	<path fill="#5F6062" d="M193.445,293.891v-34.639l-13.996,34.941l-0.206,0.523h-12.352l-0.211-0.523l-14.105-34.967v35.49h-15.754
		v-60.398h23.252l0.197,0.558l12.786,36.668l12.589-36.66l0.186-0.566h23.37v60.398h-15.757V293.891z M193.445,293.891"/>
	<path fill="#5F6062" d="M36.922,293.891v-45.077H22.95v-14.478h44.797l-0.015,0.844l-0.213,12.818l-0.008,0.815h-14.84v45.903
		H36.922V293.891z M36.922,293.891"/>
	<path fill="#5F6062" d="M349.828,294.578h-15.404v-60.062h15.404l-0.098,0.64h0.114v18.709l16.305-19.38h19.546l-20.716,25.144
		l23.695,34.949h-19.611l-14.938-23.631l-4.281,4.486v19.145H349.828z M349.828,294.578"/>
	<path fill="#5F6062" d="M64.128,294.717l25.178-60.39h16.403l25.341,60.39h-17.558l-4.559-12.77H86.49l-4.805,12.77H64.128z
		 M91.05,268.402h12.916l-6.458-18.309L91.05,268.402z M91.05,268.402"/>
</g>
</svg>
