<?xml version="1.0" encoding="utf-8"?>
<!-- Generator: Adobe Illustrator 14.0.0, SVG Export Plug-In . SVG Version: 6.00 Build 43363)  -->
<!DOCTYPE svg PUBLIC "-//W3C//DTD SVG 1.1//EN" "http://www.w3.org/Graphics/SVG/1.1/DTD/svg11.dtd">
<svg version="1.1" id="restaurant" xmlns="http://www.w3.org/2000/svg" xmlns:xlink="http://www.w3.org/1999/xlink" x="0px" y="0px"
	 width="100px" height="95.145px" viewBox="0 0 100 95.145" enable-background="new 0 0 100 95.145" xml:space="preserve">
<path fill="#15733A" d="M21.479,74.764c15.018,15.016,39.365,15.014,54.38,0c15.018-15.018,15.018-39.367,0-54.381
	C60.844,5.367,36.496,5.367,21.479,20.384C6.463,35.397,6.463,59.746,21.479,74.764z M40.635,71.916
	c-2.504,2.504-7.851,0.547-12.35-3.951c-4.506-4.506-6.462-9.852-3.955-12.357c0,0,18.441-18.439,21.858-21.859
	c0.241,0.945,1.12,2.38,2.44,4.088L29.108,57.362c-0.451,0.453-0.453,1.178-0.003,1.629s1.181,0.453,1.635,0l19.367-19.365
	c0.93,1.08,1.989,2.215,3.145,3.369s2.291,2.217,3.373,3.15L37.257,65.512c-0.453,0.451-0.448,1.184,0.003,1.631
	c0.447,0.451,1.18,0.453,1.629,0L58.41,47.617c1.707,1.321,3.143,2.198,4.084,2.44C59.076,53.475,40.635,71.916,40.635,71.916z
	 M65.199,27.518l2.811-0.652c0.365-0.073,0.764,0.035,1.047,0.316c0.283,0.283,0.389,0.672,0.322,1.031l-0.652,2.825l-0.555,2.407
	c-0.668-0.529-1.371-1.131-2.076-1.799c-0.256-0.242-0.506-0.482-0.76-0.737c-0.006-0.005-0.006-0.005-0.006-0.005
	c-0.252-0.252-0.49-0.502-0.73-0.754c-0.67-0.706-1.275-1.415-1.801-2.08L65.199,27.518z M48.776,31.302l11.392-2.627
	c1.006,1.221,2.201,2.534,3.539,3.871c1.33,1.331,2.645,2.527,3.863,3.533l-2.584,11.248c-0.059,0.197-0.152,0.392-0.309,0.544
	c-0.004,0.007-0.012,0.009-0.014,0.012l0.002,0.005c-0.969,0.968-5.281-2.023-9.779-6.522c-4.506-4.507-7.498-8.815-6.529-9.785
	h0.006c0.003-0.001,0-0.011,0.003-0.013C48.491,31.448,48.623,31.354,48.776,31.302z"/>
</svg>
