<?xml version="1.0" encoding="utf-8"?>
<!-- Generator: Adobe Illustrator 14.0.0, SVG Export Plug-In . SVG Version: 6.00 Build 43363)  -->
<!DOCTYPE svg PUBLIC "-//W3C//DTD SVG 1.1//EN" "http://www.w3.org/Graphics/SVG/1.1/DTD/svg11.dtd">
<svg version="1.1" id="restaurant" xmlns="http://www.w3.org/2000/svg" xmlns:xlink="http://www.w3.org/1999/xlink" x="0px" y="0px"
	 width="100px" height="95.145px" viewBox="0 0 100 95.145" enable-background="new 0 0 100 95.145" xml:space="preserve">
<g>
	<path fill="#145DAA" d="M48.919,55.465c-0.449-0.449-1.178-0.45-1.628-0.001L37.286,65.467c-0.451,0.453-0.453,1.184-0.004,1.633
		c0.451,0.453,1.179,0.445,1.634-0.002l10.005-10.005C49.365,56.644,49.37,55.917,48.919,55.465z"/>
	<path fill="#145DAA" d="M75.859,20.384c-15.018-15.018-39.362-15.018-54.379,0c-15.016,15.016-15.016,39.36,0,54.378
		c15.016,15.016,39.362,15.016,54.379,0C90.876,59.744,90.876,35.4,75.859,20.384z M59.972,52.579
		c-0.023,0.025-0.199,0.201-0.465,0.467c-1.354-1.354-3.543-1.35-4.893,0s-1.352,3.537,0.002,4.89
		c-0.213,0.213-0.352,0.352-0.373,0.371C48.29,64.262,40.632,71.92,40.632,71.92c-2.506,2.506-7.854,0.547-12.354-3.955
		c-4.504-4.502-6.464-9.85-3.958-12.354c0,0,7.724-7.724,13.687-13.686c0.011-0.012,0.123-0.124,0.299-0.299
		c1.352,1.352,3.539,1.35,4.889,0s1.354-3.539,0.002-4.892c0.338-0.339,0.557-0.557,0.59-0.59c0.646-0.646,1.027-1.027,1.027-1.027
		c0.721-0.721,3.284,0.743,6.399,3.393l6.322-6.323l2.559-7.844l4.072-2.058l1.637,1.636l6.518,6.518l1.635,1.634l-2.057,4.075
		l-7.842,2.561l-6.326,6.319c2.646,3.112,4.115,5.679,3.395,6.401C61.125,51.429,60.697,51.858,59.972,52.579z"/>
</g>
</svg>
