<?xml version="1.0" encoding="utf-8"?>
<!-- Generator: Adobe Illustrator 15.0.0, SVG Export Plug-In . SVG Version: 6.00 Build 0)  -->
<!DOCTYPE svg PUBLIC "-//W3C//DTD SVG 1.1//EN" "http://www.w3.org/Graphics/SVG/1.1/DTD/svg11.dtd">
<svg version="1.1" id="Layer_1" xmlns="http://www.w3.org/2000/svg" xmlns:xlink="http://www.w3.org/1999/xlink" x="0px" y="0px"
	 width="408px" height="88px" viewBox="0 0 408 88" enable-background="new 0 0 408 88" xml:space="preserve">
<g>
	<path fill="#181A19" d="M142.543,36.849h-19.224v21.045c0,0.465-0.156,0.812-0.472,1.042c-0.315,0.232-0.685,0.347-1.103,0.347
		c-0.378,0-0.738-0.114-1.073-0.347c-0.336-0.23-0.502-0.577-0.502-1.042V14.537c0-0.46,0.166-0.796,0.502-1.006
		c0.335-0.211,0.694-0.317,1.073-0.317c0.418,0,0.787,0.106,1.103,0.317c0.316,0.209,0.472,0.546,0.472,1.006v19.411h19.224V14.537
		c0-0.46,0.167-0.796,0.502-1.006c0.335-0.211,0.696-0.317,1.073-0.317c0.42,0,0.787,0.106,1.103,0.317
		c0.315,0.209,0.472,0.546,0.472,1.006v43.357c0,0.465-0.156,0.812-0.472,1.042c-0.315,0.232-0.683,0.347-1.103,0.347
		c-0.376,0-0.738-0.114-1.073-0.347c-0.334-0.23-0.502-0.577-0.502-1.042V36.849z"/>
	<path fill="#181A19" d="M163.022,29.16c2.018,0,3.72,0.336,5.108,1.008c1.386,0.673,2.506,1.574,3.369,2.709
		c0.861,1.135,1.479,2.426,1.859,3.875c0.381,1.451,0.567,2.953,0.567,4.509v16.633c0,0.38-0.137,0.703-0.41,0.979
		c-0.272,0.272-0.64,0.409-1.102,0.409c-0.42,0-0.778-0.137-1.07-0.409c-0.297-0.276-0.441-0.6-0.441-0.979v-3.023
		c-1.096,1.218-2.417,2.321-3.97,3.31c-1.555,0.988-3.385,1.482-5.484,1.482c-1.219,0-2.354-0.17-3.403-0.505
		c-1.05-0.335-1.974-0.853-2.772-1.545c-0.799-0.693-1.42-1.555-1.86-2.585c-0.441-1.028-0.662-2.256-0.662-3.686
		c0-1.681,0.357-3.065,1.073-4.161c0.713-1.091,1.71-1.952,2.992-2.582c1.282-0.631,2.826-1.07,4.632-1.323
		c1.806-0.251,3.804-0.38,5.986-0.38h3.403v-1.635c0-1.096-0.147-2.199-0.441-3.313c-0.292-1.11-0.756-2.108-1.385-2.989
		c-0.63-0.884-1.447-1.599-2.458-2.145c-1.009-0.544-2.225-0.817-3.655-0.817c-1.007,0-1.879,0.093-2.615,0.281
		c-0.735,0.188-1.367,0.39-1.892,0.599c-0.524,0.211-0.954,0.411-1.292,0.599c-0.334,0.188-0.609,0.286-0.818,0.286
		c-0.462,0-0.81-0.2-1.04-0.599c-0.229-0.401-0.347-0.767-0.347-1.105c0-0.335,0.243-0.681,0.726-1.039
		c0.482-0.357,1.113-0.673,1.89-0.945c0.778-0.275,1.648-0.494,2.617-0.664C161.091,29.246,162.056,29.16,163.022,29.16z
		 M170.837,45.419h-3.088c-1.556,0-3.044,0.051-4.472,0.159c-1.43,0.104-2.7,0.356-3.814,0.756s-1.998,0.986-2.647,1.762
		c-0.65,0.777-0.977,1.818-0.977,3.122c0,1.976,0.578,3.413,1.734,4.315c1.154,0.903,2.594,1.354,4.317,1.354
		c1.091,0,2.175-0.22,3.245-0.661c1.071-0.438,2.03-1.008,2.867-1.7c0.84-0.693,1.523-1.426,2.049-2.205
		c0.526-0.775,0.787-1.521,0.787-2.238V45.419z"/>
	<path fill="#181A19" d="M183.504,29.538c0.421,0,0.778,0.116,1.071,0.346c0.296,0.232,0.444,0.535,0.444,0.915v3.149
		c0.713-1.217,1.765-2.32,3.149-3.309c1.385-0.985,3.153-1.479,5.295-1.479c1.554,0,3.012,0.304,4.379,0.915
		c1.365,0.609,2.562,1.428,3.594,2.458c1.026,1.029,1.845,2.246,2.456,3.655c0.609,1.407,0.913,2.907,0.913,4.505v7.312
		c0,1.511-0.303,2.97-0.913,4.377c-0.611,1.411-1.429,2.647-2.456,3.719c-1.033,1.072-2.218,1.933-3.563,2.584
		c-1.347,0.652-2.773,0.979-4.285,0.979c-1.934,0-3.656-0.475-5.168-1.418c-1.512-0.947-2.625-2.071-3.34-3.374v17.838
		c0,0.333-0.149,0.649-0.442,0.941c-0.294,0.296-0.671,0.44-1.135,0.44c-0.462,0-0.828-0.145-1.103-0.44
		c-0.271-0.292-0.409-0.608-0.409-0.941v-41.91c0-0.38,0.137-0.683,0.409-0.915C182.676,29.654,183.042,29.538,183.504,29.538z
		 M201.718,40.692c0-1.093-0.22-2.153-0.662-3.181c-0.441-1.031-1.051-1.955-1.828-2.776c-0.777-0.817-1.68-1.468-2.709-1.951
		c-1.031-0.483-2.133-0.727-3.308-0.727c-1.01,0-1.998,0.2-2.963,0.599c-0.965,0.401-1.837,0.968-2.616,1.702
		c-0.777,0.736-1.396,1.639-1.858,2.711c-0.462,1.07-0.693,2.278-0.693,3.623v9.452c0,0.505,0.208,1.138,0.63,1.89
		c0.419,0.76,0.997,1.484,1.735,2.176c0.733,0.693,1.604,1.293,2.614,1.797c1.007,0.504,2.099,0.754,3.276,0.754
		c1.134,0,2.206-0.238,3.213-0.725c1.008-0.479,1.89-1.133,2.647-1.952c0.756-0.819,1.365-1.752,1.829-2.802
		c0.46-1.052,0.692-2.146,0.692-3.278V40.692z"/>
	<path fill="#181A19" d="M213.438,29.538c0.421,0,0.777,0.116,1.072,0.346c0.294,0.232,0.443,0.535,0.443,0.915v3.149
		c0.712-1.217,1.762-2.32,3.15-3.309c1.385-0.985,3.15-1.479,5.293-1.479c1.553,0,3.012,0.304,4.379,0.915
		c1.366,0.609,2.561,1.428,3.593,2.458c1.028,1.029,1.847,2.246,2.458,3.655c0.608,1.407,0.914,2.907,0.914,4.505v7.312
		c0,1.511-0.306,2.97-0.914,4.377c-0.611,1.411-1.43,2.647-2.458,3.719c-1.032,1.072-2.217,1.933-3.56,2.584
		c-1.348,0.652-2.775,0.979-4.287,0.979c-1.933,0-3.655-0.475-5.169-1.418c-1.512-0.947-2.624-2.071-3.337-3.374v17.838
		c0,0.333-0.149,0.649-0.442,0.941c-0.296,0.296-0.672,0.44-1.136,0.44c-0.463,0-0.829-0.145-1.103-0.44
		c-0.272-0.292-0.409-0.608-0.409-0.941v-41.91c0-0.38,0.137-0.683,0.409-0.915C212.608,29.654,212.975,29.538,213.438,29.538z
		 M231.652,40.692c0-1.093-0.222-2.153-0.662-3.181c-0.442-1.031-1.05-1.955-1.827-2.776c-0.779-0.817-1.682-1.468-2.71-1.951
		c-1.032-0.483-2.135-0.727-3.31-0.727c-1.01,0-1.995,0.2-2.963,0.599c-0.967,0.401-1.838,0.968-2.614,1.702
		c-0.779,0.736-1.397,1.639-1.859,2.711c-0.463,1.07-0.691,2.278-0.691,3.623v9.452c0,0.505,0.207,1.138,0.628,1.89
		c0.421,0.76,0.997,1.484,1.733,2.176c0.736,0.693,1.605,1.293,2.614,1.797c1.011,0.504,2.101,0.754,3.278,0.754
		c1.134,0,2.206-0.238,3.215-0.725c1.007-0.479,1.89-1.133,2.646-1.952s1.365-1.752,1.827-2.802
		c0.462-1.052,0.695-2.146,0.695-3.278V40.692z"/>
	<path fill="#181A19" d="M238.646,31.112c-0.086-0.25-0.125-0.418-0.125-0.504c0-0.418,0.188-0.778,0.565-1.07
		s0.8-0.443,1.262-0.443c0.251,0,0.493,0.075,0.727,0.221c0.23,0.148,0.386,0.348,0.472,0.601l8.887,24.264l8.631-24.264
		c0.253-0.545,0.652-0.822,1.199-0.822c0.38,0,0.766,0.137,1.165,0.411c0.399,0.274,0.599,0.641,0.599,1.103
		c0,0.209-0.021,0.378-0.063,0.504l-9.955,27.162c-0.59,1.64-1.252,3.382-1.984,5.232c-0.737,1.846-1.578,3.561-2.523,5.135
		c-0.944,1.574-2.039,2.881-3.276,3.906c-1.239,1.028-2.638,1.543-4.192,1.543c-0.376,0-0.715-0.113-1.007-0.345
		c-0.295-0.232-0.442-0.597-0.442-1.103c0-0.38,0.084-0.714,0.253-1.008c0.166-0.294,0.462-0.44,0.883-0.44
		c1.05,0,2.027-0.378,2.93-1.134c0.902-0.758,1.733-1.754,2.489-2.994c0.758-1.24,1.448-2.627,2.079-4.159
		c0.633-1.535,1.177-3.079,1.641-4.634L238.646,31.112z"/>
	<path fill="#181A19" d="M281.438,13.214c2.017,0,3.885,0.25,5.608,0.757c1.725,0.506,3.215,1.315,4.474,2.426
		c1.262,1.114,2.26,2.563,2.992,4.349c0.736,1.787,1.104,3.961,1.104,6.524v17.959c0,2.565-0.368,4.736-1.104,6.523
		c-0.732,1.784-1.73,3.236-2.992,4.347c-1.259,1.115-2.749,1.925-4.474,2.427c-1.724,0.506-3.592,0.757-5.608,0.757h-11.154
		c-0.885,0-1.596-0.209-2.143-0.63c-0.548-0.42-0.82-0.922-0.82-1.512V15.358c0-0.589,0.272-1.093,0.82-1.514
		c0.547-0.418,1.258-0.631,2.143-0.631H281.438z M274.002,19.139v34.221h7.436c2.395,0,4.243-0.663,5.545-1.987
		c1.303-1.322,1.953-3.368,1.953-6.143V27.27c0-2.776-0.65-4.823-1.953-6.146c-1.302-1.324-3.15-1.985-5.545-1.985H274.002z"/>
	<path fill="#181A19" d="M314.713,29.034c1.68,0,3.278,0.281,4.79,0.85c1.514,0.567,2.843,1.368,4.002,2.394
		c1.153,1.031,2.068,2.259,2.739,3.688c0.674,1.428,1.009,3.004,1.009,4.727c0,1.303-0.168,2.322-0.503,3.056
		c-0.335,0.736-0.768,1.27-1.293,1.608c-0.524,0.335-1.134,0.547-1.826,0.631c-0.691,0.082-1.398,0.126-2.113,0.126h-13.296v1.447
		c0,2.144,0.758,3.825,2.27,5.04c1.512,1.222,3.485,1.83,5.923,1.83c1.136,0,2.09-0.127,2.869-0.377
		c0.775-0.255,1.447-0.526,2.013-0.821c0.57-0.293,1.073-0.565,1.512-0.817c0.444-0.254,0.874-0.381,1.297-0.381
		c0.795,0,1.428,0.347,1.89,1.043c0.46,0.691,0.691,1.332,0.691,1.92c0,0.464-0.241,0.977-0.723,1.546
		c-0.484,0.564-1.19,1.094-2.111,1.574c-0.926,0.48-2.028,0.88-3.31,1.196c-1.282,0.316-2.722,0.473-4.315,0.473
		c-2.146,0-4.108-0.305-5.895-0.912c-1.785-0.61-3.331-1.459-4.633-2.554c-1.3-1.092-2.309-2.403-3.023-3.939
		c-0.715-1.531-1.073-3.244-1.073-5.135v-5.985c0-1.641,0.349-3.206,1.044-4.696c0.691-1.491,1.625-2.793,2.802-3.908
		c1.177-1.112,2.563-1.995,4.159-2.648C311.204,29.361,312.905,29.034,314.713,29.034z M318.684,42.016
		c0.923,0,1.543-0.127,1.858-0.378s0.475-0.757,0.475-1.512c0-1.679-0.613-3.109-1.827-4.286c-1.223-1.177-2.734-1.765-4.539-1.765
		c-0.884,0-1.714,0.148-2.489,0.441c-0.781,0.294-1.461,0.704-2.048,1.23c-0.59,0.525-1.052,1.145-1.389,1.858
		c-0.335,0.713-0.503,1.512-0.503,2.396v2.016H318.684z"/>
	<path fill="#181A19" d="M330.027,33.065c-0.086-0.125-0.158-0.292-0.221-0.501c-0.063-0.213-0.094-0.4-0.094-0.566
		c0-0.38,0.145-0.746,0.442-1.103c0.292-0.358,0.649-0.662,1.067-0.917c0.423-0.251,0.885-0.449,1.388-0.597
		c0.506-0.148,0.987-0.221,1.449-0.221s0.871,0.085,1.229,0.251c0.356,0.169,0.619,0.483,0.787,0.947l7.5,19.916l7.5-19.79
		c0.294-0.882,0.966-1.324,2.018-1.324c0.334,0,0.756,0.072,1.259,0.221c0.503,0.148,0.987,0.346,1.451,0.597
		c0.46,0.254,0.85,0.559,1.163,0.917c0.315,0.357,0.474,0.723,0.474,1.103c0,0.292-0.084,0.65-0.251,1.068l-10.588,25.524
		c-0.211,0.464-0.599,0.798-1.165,1.01c-0.565,0.209-1.188,0.315-1.86,0.315c-0.715,0-1.343-0.106-1.89-0.315
		c-0.55-0.212-0.926-0.546-1.136-1.01L330.027,33.065z"/>
	<path fill="#536BAF" d="M362.926,12.584c0.587,0,1.103,0.221,1.541,0.662c0.44,0.443,0.663,0.977,0.663,1.607
		c0,0.251-0.064,0.62-0.189,1.103c-0.125,0.482-0.284,1.007-0.474,1.574c-0.188,0.569-0.409,1.157-0.662,1.767
		c-0.251,0.61-0.501,1.166-0.754,1.669c-0.212,0.422-0.507,0.631-0.883,0.631c-0.255,0-0.484-0.083-0.691-0.253
		c-0.212-0.167-0.317-0.399-0.317-0.692c0-0.168,0.021-0.294,0.063-0.378l1.134-3.216c-0.503-0.125-0.912-0.399-1.228-0.819
		c-0.317-0.417-0.474-0.881-0.474-1.386c0-0.63,0.211-1.164,0.63-1.607C361.705,12.805,362.252,12.584,362.926,12.584z"/>
	<path fill="#536BAF" d="M373.384,14.287c0.169-0.293,0.347-0.546,0.537-0.755c0.188-0.211,0.493-0.317,0.912-0.317
		c0.674,0,1.011,0.359,1.011,1.073v43.861c0,0.379-0.117,0.66-0.349,0.85c-0.229,0.19-0.493,0.286-0.787,0.286
		s-0.557-0.096-0.787-0.286c-0.231-0.189-0.345-0.471-0.345-0.85V19.013l-2.71,5.042c-0.298,0.544-0.676,0.818-1.136,0.818
		c-0.337,0-0.609-0.105-0.821-0.316c-0.209-0.209-0.314-0.46-0.314-0.757c0-0.209,0.084-0.472,0.25-0.787
		c0.171-0.314,0.296-0.537,0.382-0.662L373.384,14.287z"/>
	<path fill="#536BAF" d="M384.1,23.109c0-1.386,0.271-2.677,0.818-3.875c0.546-1.198,1.302-2.238,2.27-3.119
		c0.965-0.884,2.121-1.585,3.464-2.114c1.346-0.521,2.838-0.787,4.477-0.787c1.806,0,3.446,0.327,4.915,0.977
		c1.471,0.652,2.722,1.514,3.75,2.584c1.028,1.072,1.817,2.321,2.363,3.75c0.547,1.428,0.82,2.92,0.82,4.474
		c0,2.271-0.536,4.286-1.607,6.051c-1.069,1.765-2.418,3.393-4.034,4.885c-1.617,1.493-3.36,2.877-5.231,4.159
		c-1.866,1.281-3.613,2.552-5.229,3.813c-1.618,1.261-2.963,2.543-4.034,3.843c-1.071,1.305-1.605,2.734-1.605,4.285v4.98h21.297
		c0.298,0,0.549,0.104,0.76,0.314c0.21,0.212,0.313,0.482,0.313,0.818c0,0.296-0.104,0.559-0.313,0.789
		c-0.211,0.232-0.462,0.347-0.76,0.347H384.1c-0.253,0-0.504-0.106-0.754-0.316c-0.253-0.208-0.38-0.482-0.38-0.819v-6.113
		c0-1.761,0.534-3.38,1.605-4.853c1.073-1.468,2.414-2.865,4.034-4.188c1.617-1.325,3.36-2.626,5.232-3.908
		c1.865-1.282,3.612-2.626,5.228-4.033c1.618-1.408,2.963-2.921,4.036-4.539c1.071-1.617,1.604-3.435,1.604-5.45
		c0-1.133-0.197-2.278-0.597-3.434s-0.999-2.185-1.796-3.088c-0.799-0.905-1.81-1.639-3.025-2.207
		c-1.218-0.567-2.646-0.851-4.284-0.851c-2.481,0-4.539,0.704-6.179,2.111c-1.637,1.409-2.457,3.476-2.457,6.207
		c0,0.254-0.095,0.494-0.282,0.725c-0.188,0.233-0.495,0.348-0.912,0.348C384.456,24.874,384.1,24.284,384.1,23.109z"/>
</g>
<g>
	<g>
		<path fill="#974947" d="M71.808,11.75c2.206,0.613,5.412,2.076,8.838,4.071c3.427,1.992,6.287,4.056,7.906,5.67
			c0.185-0.082,3.832-1.728,6.907-7.014c0.007-0.011,0.017-0.027,0.017-0.027c1.873-3.221-1.554-8.127-7.346-11.497
			C82.35-0.412,76.398-0.968,74.518,2.242L74.493,2.28C71.424,7.557,71.789,11.548,71.808,11.75z"/>
		<path fill="#974947" d="M53.177,41.837l3.345,12.013c0.328,1.292,1.655,2.075,2.948,1.738l12.178-2.955
			c1.289-0.334,2.738-1.629,3.219-2.872l3.713-10.101c0,0,0,0,0-0.004l6.121-15.843l0.721-1.884
			c-0.96-0.748-2.086-1.551-3.328-2.363c-0.183-0.114-0.361-0.229-0.542-0.342c-0.188-0.122-0.375-0.24-0.567-0.35
			c-0.277-0.173-0.549-0.339-0.821-0.499c-0.232-0.146-0.47-0.281-0.713-0.426c-0.54-0.314-1.083-0.62-1.608-0.905
			c-1.822-0.99-3.548-1.817-5.037-2.407l-1.248,1.533L60.924,29.388c0,0-0.002,0-0.004,0l-6.822,8.21
			C53.263,38.637,52.848,40.548,53.177,41.837z"/>
	</g>
	<g>
		<path fill="#496E4A" d="M42.605,24.064l10.287-6.439c-0.158-1.654-0.248-3.519-0.248-5.503c0-1.981,0.087-3.845,0.248-5.497
			l-10.42-6.516C42.319,0.04,42.152,0,41.977,0c-0.007,0-0.015,0.008-0.019,0.008V0.002c-1.448,0-2.426,5.427-2.426,12.12
			c0,6.697,0.978,12.124,2.426,12.124v-0.008c0.004,0,0.012,0.008,0.019,0.008C42.208,24.246,42.422,24.178,42.605,24.064z"/>
		<path fill="#496E4A" d="M37.511,19.397H8.484c-0.669,0-1.211-0.542-1.211-1.213c0-0.665,0.542-1.209,1.211-1.209h28.792
			c-0.11-1.499-0.167-3.134-0.167-4.853c0-1.715,0.057-3.346,0.165-4.841H8.484c-0.669,0-1.211-0.54-1.211-1.211
			c0-0.669,0.542-1.213,1.211-1.213h29.026C37.792,2.604,38.208,0.883,38.728,0C33.648,0,6.241,0.002,6.241,0.002
			C2.516,0.002,0,5.429,0,12.122c0,6.697,2.516,12.124,6.241,12.124c0,0,27.408,0,32.487,0
			C38.21,23.364,37.794,21.645,37.511,19.397z"/>
		<path fill="#496E4A" d="M60.08,13.123c0.319-0.217,0.53-0.584,0.53-1c0-0.424-0.218-0.795-0.547-1.011l-4.763-2.98
			c-0.109,0.888-0.181,1.858-0.213,2.881c-0.004,0.369-0.015,0.73-0.015,1.106c0,0.002,0,0.004,0,0.004
			c0,0.38,0.011,0.746,0.015,1.116c0.032,1.021,0.104,1.989,0.213,2.877L60.08,13.123z"/>
	</g>
	<path fill="#4D629B" d="M36.771,47.718l-4.67-8.092l-0.468-8.656l-3.575-3.204l-12.599,7.273l0.982,4.699l7.262,4.735l4.67,8.092
		c-3.533,2.442-5.718,4.645-5.18,5.575c0,0,0.947,1.643,1.2,2.08c1.74-1.005,3.963-0.41,4.965,1.329
		c1.004,1.739,0.409,3.964-1.329,4.968c0.129,0.226,10.39,18.004,10.39,18.004c1.861,3.225,7.821,2.688,13.617-0.658
		c5.799-3.347,9.241-8.238,7.379-11.465c0,0-10.232-17.729-10.39-18.001c-1.74,1.004-3.964,0.408-4.969-1.33
		c-1.004-1.743-0.407-3.964,1.331-4.969c-0.194-0.341-1.198-2.079-1.198-2.079C43.652,45.088,40.654,45.88,36.771,47.718z
		 M54.055,72.826c0.335,0.579,0.137,1.319-0.441,1.656c-0.582,0.335-1.323,0.136-1.658-0.444l-7.433-12.877
		c-0.333-0.579-0.135-1.322,0.445-1.657c0.58-0.331,1.32-0.136,1.656,0.445L54.055,72.826z"/>
</g>
</svg>
