<?xml version="1.0" encoding="utf-8"?>
<!-- Generator: Adobe Illustrator 14.0.0, SVG Export Plug-In . SVG Version: 6.00 Build 43363)  -->
<!DOCTYPE svg PUBLIC "-//W3C//DTD SVG 1.1//EN" "http://www.w3.org/Graphics/SVG/1.1/DTD/svg11.dtd">
<svg version="1.1" id="restaurant" xmlns="http://www.w3.org/2000/svg" xmlns:xlink="http://www.w3.org/1999/xlink" x="0px" y="0px"
	 width="100px" height="95.145px" viewBox="0 0 100 95.145" enable-background="new 0 0 100 95.145" xml:space="preserve">
<path fill="#333333" d="M51.699,37.253c-0.646-6.107-3.438-4.904-2.821-6.724c0.619-1.816,7.238-19.184,7.238-19.184
	c1.004-0.379,0.434-0.979,0.434-0.979c-0.277-0.809,0.206-0.821,0.206-0.821l0.26-1.512l-6.003-2.585l-0.906,1.233
	c0,0,0.324,0.361-0.455,0.714c0,0-0.822-0.001-0.406,0.989c0,0-8.062,16.747-8.957,18.445c-0.896,1.694-1.94-1.16-6.82,2.568
	c0,0-1.612,0.872-3.242,5.764L18.729,62.324c0,0-2.178,4.607-0.136,6.496l14.817,6.379c2.773,0.188,4.551-4.593,4.551-4.593
	L49.76,43.579C52.19,39.031,51.699,37.253,51.699,37.253z M40.696,53.04l-11.121-4.788l3.987-9.268l11.121,4.789L40.696,53.04z"/>
<path fill="#333333" d="M71.359,44.43c-4.273-4.409-5.729-1.737-6.366-3.548c-0.637-1.813-6.145-19.563-6.145-19.563
	c0.557-0.918-0.264-1.037-0.264-1.037c-0.716-0.465-0.345-0.771-0.345-0.771l-0.729-1.352l-6.318,1.672l0.051,1.528
	c0,0,0.477,0.084,0.082,0.845c0,0-0.649,0.507,0.288,1.028c0,0,3.991,18.15,4.336,20.04c0.344,1.89-2.243,0.285-3.78,6.23
	c0,0-0.73,1.683,1.005,6.536l7.717,28.465c0,0,1.129,4.969,3.901,5.192l15.597-4.124c2.298-1.565,0.746-6.424,0.746-6.424
	l-7.396-28.545C72.844,45.527,71.359,44.43,71.359,44.43z M72.446,63.642l-11.705,3.096l-2.579-9.752l11.705-3.096L72.446,63.642z"
	/>
</svg>
