<?xml version="1.0" encoding="utf-8"?>
<!-- Generator: Adobe Illustrator 14.0.0, SVG Export Plug-In . SVG Version: 6.00 Build 43363)  -->
<!DOCTYPE svg PUBLIC "-//W3C//DTD SVG 1.1//EN" "http://www.w3.org/Graphics/SVG/1.1/DTD/svg11.dtd">
<svg version="1.1" id="restaurant" xmlns="http://www.w3.org/2000/svg" xmlns:xlink="http://www.w3.org/1999/xlink" x="0px" y="0px"
	 width="100px" height="95.145px" viewBox="0 0 100 95.145" enable-background="new 0 0 100 95.145" xml:space="preserve">
<path fill="#333333" d="M78.028,35.141c0-14.693-11.911-26.604-26.604-26.604c-14.69,0-26.604,11.911-26.604,26.604
	c0,13.596,10.2,32.707,23.364,35.488l-6.415,11.108h19.309l-6.414-11.108C67.827,67.848,78.028,48.737,78.028,35.141z"/>
<g>
	<path fill="#FFFFFF" d="M49.191,18.507c4.407-1.836,9.013-2.479,13.461-2.089c-6.2-3.54-13.531-4.367-20.178-1.599
		c-12.128,5.055-17.378,20.146-11.729,33.707c0.513,1.231,1.131,2.479,1.834,3.726C28.926,38.634,35.819,24.077,49.191,18.507z"/>
</g>
<path fill="#333333" d="M41.046,85.761l0.625-1.082l-5.888-7.022c2.597-1.043,4.878-2.933,6.807-5.34
	C30.162,65.962,21.115,47.412,21.115,33.75c0-1.271,0.087-2.521,0.24-3.751c-9.73,3.349-15.858,13.359-14.021,23.814
	c1.886,10.719,12.576,24.372,23.34,24.74L27.156,88.2L41.046,85.761z"/>
<path fill="#333333" d="M83.778,46.816c-1.264-0.634-2.572-1.078-3.896-1.351c-3.135,10.632-10.02,21.404-18.668,26.332
	c0.841,2.898,2.26,5.43,4.334,7.085l-5.592,3.684l0.722,1.246l8.756,4.391l-0.447-7.598C76.708,82.631,87.199,75.209,90.814,68
	C94.719,60.206,91.569,50.723,83.778,46.816z"/>
</svg>
