<?xml version="1.0" encoding="utf-8"?>
<!-- Generator: Adobe Illustrator 14.0.0, SVG Export Plug-In . SVG Version: 6.00 Build 43363)  -->
<!DOCTYPE svg PUBLIC "-//W3C//DTD SVG 1.1//EN" "http://www.w3.org/Graphics/SVG/1.1/DTD/svg11.dtd">
<svg version="1.1" id="restaurant" xmlns="http://www.w3.org/2000/svg" xmlns:xlink="http://www.w3.org/1999/xlink" x="0px" y="0px"
	 width="100px" height="95.145px" viewBox="0 0 100 95.145" enable-background="new 0 0 100 95.145" xml:space="preserve">
<g>
	<g>
		<path fill="#B31F31" d="M71.183,19.307c1.965,0.547,4.816,1.845,7.857,3.619c3.043,1.772,5.59,3.604,7.033,5.041
			c0.16-0.073,3.398-1.539,6.135-6.237c0.008,0,0.016-0.022,0.016-0.022c1.662-2.86-1.387-7.222-6.531-10.22
			C80.551,8.495,75.269,8,73.592,10.859l-0.021,0.029C70.842,15.579,71.17,19.125,71.183,19.307z"/>
		<path fill="#B31F31" d="M54.625,46.052l2.977,10.68c0.291,1.146,1.467,1.846,2.619,1.546l10.824-2.626
			c1.146-0.3,2.438-1.452,2.861-2.554l3.297-8.98l0,0l5.441-14.08l0.643-1.686c-0.854-0.664-1.854-1.378-2.963-2.094
			c-0.152-0.109-0.313-0.211-0.48-0.314c-0.16-0.102-0.328-0.211-0.496-0.306c-0.248-0.161-0.496-0.307-0.729-0.445
			c-0.213-0.132-0.416-0.249-0.643-0.379c-0.475-0.278-0.963-0.547-1.43-0.803c-1.613-0.882-3.145-1.612-4.473-2.137l-1.107,1.364
			l-9.463,11.746l0,0l-6.063,7.302C54.697,43.213,54.332,44.906,54.625,46.052z"/>
	</g>
	<g>
		<path fill="#15733A" d="M45.228,30.25l9.141-5.72c-0.139-1.466-0.219-3.129-0.219-4.887c0-1.766,0.08-3.421,0.219-4.888
			l-9.265-5.792c-0.139-0.066-0.285-0.103-0.438-0.103c-0.008,0-0.015,0.007-0.015,0.007V8.86c-1.291,0-2.16,4.829-2.16,10.783
			c0,5.945,0.869,10.768,2.16,10.768l0,0c0,0,0.007,0,0.015,0C44.871,30.41,45.06,30.352,45.228,30.25z"/>
		<path fill="#15733A" d="M40.698,26.106H14.895c-0.598,0-1.08-0.481-1.08-1.079c0-0.591,0.482-1.08,1.08-1.08h25.591
			c-0.094-1.32-0.146-2.78-0.146-4.304c0-1.525,0.052-2.977,0.146-4.305H14.895c-0.598,0-1.08-0.481-1.08-1.08
			c0-0.591,0.482-1.072,1.08-1.072h25.804c0.247-2.014,0.619-3.539,1.078-4.326c-4.507,0-28.874,0-28.874,0
			c-3.313,0-5.552,4.829-5.552,10.783c0,5.945,2.239,10.768,5.552,10.768c0,0,24.359,0,28.874,0
			C41.318,29.637,40.946,28.105,40.698,26.106z"/>
		<path fill="#15733A" d="M60.76,20.532c0.285-0.197,0.467-0.525,0.467-0.89c0-0.379-0.189-0.708-0.482-0.905l-4.238-2.648
			c-0.094,0.788-0.16,1.649-0.188,2.561c0,0.329-0.018,0.649-0.018,0.985c0,0.008,0,0.008,0,0.008c0,0.335,0.018,0.656,0.018,0.992
			c0.027,0.904,0.094,1.765,0.188,2.56L60.76,20.532z"/>
	</g>
	<path fill="#145DAA" d="M40.033,51.281l-4.144-7.193l-0.416-7.696l-3.18-2.845L21.088,40.01l0.883,4.173l6.448,4.209l4.151,7.201
		c-3.137,2.166-5.077,4.129-4.604,4.953c0,0,0.84,1.459,1.072,1.846c1.547-0.891,3.523-0.357,4.407,1.182
		c0.897,1.547,0.365,3.523-1.175,4.42c0.109,0.197,9.236,15.999,9.236,15.999c1.655,2.868,6.944,2.393,12.101-0.583
		c5.152-2.97,8.215-7.316,6.561-10.191c0,0-9.098-15.758-9.238-15.999c-1.545,0.89-3.522,0.364-4.412-1.188
		c-0.897-1.547-0.365-3.523,1.182-4.406c-0.176-0.314-1.065-1.854-1.065-1.854C46.162,48.94,43.491,49.648,40.033,51.281z
		 M55.404,73.598c0.301,0.518,0.125,1.174-0.393,1.474s-1.176,0.116-1.475-0.394l-6.602-11.446
		c-0.299-0.519-0.123-1.175,0.395-1.474c0.51-0.293,1.167-0.124,1.474,0.394L55.404,73.598z"/>
</g>
</svg>
