<?xml version="1.0" encoding="utf-8"?>
<!-- Generator: Adobe Illustrator 14.0.0, SVG Export Plug-In . SVG Version: 6.00 Build 43363)  -->
<!DOCTYPE svg PUBLIC "-//W3C//DTD SVG 1.1//EN" "http://www.w3.org/Graphics/SVG/1.1/DTD/svg11.dtd">
<svg version="1.1" id="restaurant" xmlns="http://www.w3.org/2000/svg" xmlns:xlink="http://www.w3.org/1999/xlink" x="0px" y="0px"
	 width="100px" height="95.145px" viewBox="0 0 100 95.145" enable-background="new 0 0 100 95.145" xml:space="preserve">
<path fill="#333333" d="M68.148,15.02h-0.79c-3.601,0-5.755,1.34-5.757,5.752l0.001,33.2h4.985l0.001,0.001l-0.002,25.18
	c0,2.625,1.283,3.421,3.422,3.419l0.471,0.001c2.138,0,3.422-0.797,3.423-3.419V20.772C73.902,16.358,71.743,15.02,68.148,15.02z"/>
<path fill="#333333" d="M39.977,15.02l-0.221,0.002c-0.996-0.002-1.591,0.37-1.593,1.592v16.457h-2.879l0.003-16.458
	c-0.001-1.222-0.597-1.592-1.593-1.591l-0.219-0.002c-0.995,0.002-1.595,0.371-1.594,1.593l-0.002,16.458l-2.876,0.002l-0.004-16.46
	c0.004-1.221-0.597-1.593-1.591-1.591h-0.219c-0.995,0-1.592,0.37-1.593,1.59l0.001,16.814c0,4.289,1.569,6.341,4.317,7.102v38.626
	c0,2.623,1.284,3.419,3.422,3.419h0.471c2.14,0.001,3.422-0.796,3.422-3.42v-38.62c2.758-0.757,4.336-2.808,4.336-7.104
	l0.001-16.813C41.57,15.392,40.972,15.022,39.977,15.02z"/>
</svg>
