<?xml version="1.0" encoding="utf-8"?>
<!-- Generator: Adobe Illustrator 14.0.0, SVG Export Plug-In . SVG Version: 6.00 Build 43363)  -->
<!DOCTYPE svg PUBLIC "-//W3C//DTD SVG 1.1//EN" "http://www.w3.org/Graphics/SVG/1.1/DTD/svg11.dtd">
<svg version="1.1" id="restaurant" xmlns="http://www.w3.org/2000/svg" xmlns:xlink="http://www.w3.org/1999/xlink" x="0px" y="0px"
	 width="100px" height="95.145px" viewBox="0 0 100 95.145" enable-background="new 0 0 100 95.145" xml:space="preserve">
<g>
	<path fill="#333333" d="M72.044,35.397c-0.188-1.723-0.441-3.43-0.777-5.104h-0.045c-0.584-3.67-13.008-6.604-28.247-6.604
		c-15.244,0-27.664,2.934-28.248,6.604h-0.1c-0.764,3.811-1.167,7.756-1.167,11.794c0,11.935,3.505,14.229,9.524,23.513
		c0.012,0.02,0.021,0.037,0.035,0.055c0.31,0.477,0.625,0.945,0.944,1.41c0.058,0.08,0.112,0.16,0.169,0.242
		c0.319,0.457,0.645,0.91,0.979,1.357h0.014c1.184,2.141,8.721,3.791,17.85,3.791c9.364,0,17.061-1.738,17.928-3.959
		c0.324-0.441,0.643-0.893,0.955-1.344c0.072-0.104,0.143-0.209,0.215-0.313c0.297-0.438,0.59-0.873,0.875-1.316
		c0.01-0.014,0.02-0.025,0.029-0.043c0.316-0.498,0.633-1.004,0.938-1.514c0.02-0.025,0.033-0.053,0.049-0.08
		c0.305-0.502,0.598-1.01,0.885-1.523c0.002-0.002,0.004-0.006,0.006-0.01l0,0c0.473-0.844,0.928-1.701,1.359-2.568
		c8.311-0.582,19.521-1.404,19.813-16.672l0.016-0.701C86.036,35.967,78.937,35.447,72.044,35.397z M42.973,35.936
		c-13.414,0-24.289-1.959-24.289-4.375s10.875-4.375,24.289-4.375c13.413,0,24.288,1.959,24.288,4.375S56.386,35.936,42.973,35.936z
		 M80.185,42.995c-0.172,8.976-5.869,10.609-10.869,11.442c1.166-3.048,3.668-6.368,3.963-12.354
		c0.014-0.271-0.006-0.542-0.014-0.813c6.729,0.188,6.932,0.99,6.934,1.068L80.185,42.995z"/>
</g>
</svg>
