<?xml version="1.0" encoding="utf-8"?>
<!-- Generator: Adobe Illustrator 15.0.0, SVG Export Plug-In . SVG Version: 6.00 Build 0)  -->
<!DOCTYPE svg PUBLIC "-//W3C//DTD SVG 1.1//EN" "http://www.w3.org/Graphics/SVG/1.1/DTD/svg11.dtd">
<svg version="1.1" id="Layer_1" xmlns="http://www.w3.org/2000/svg" xmlns:xlink="http://www.w3.org/1999/xlink" x="0px" y="0px"
	 width="500px" height="500px" viewBox="0 0 500 500" enable-background="new 0 0 500 500" xml:space="preserve">
<g>
	<g>
		<path fill="#252324" d="M179.798,242.71h-21.758v23.821c0,0.524-0.177,0.917-0.534,1.179c-0.357,0.263-0.775,0.393-1.249,0.393
			c-0.428,0-0.835-0.13-1.214-0.393c-0.381-0.262-0.568-0.654-0.568-1.179v-49.072c0-0.522,0.187-0.903,0.568-1.14
			c0.379-0.24,0.786-0.358,1.214-0.358c0.474,0,0.891,0.118,1.249,0.358c0.357,0.237,0.534,0.618,0.534,1.14v21.969h21.758v-21.969
			c0-0.522,0.189-0.903,0.568-1.14c0.379-0.24,0.788-0.358,1.214-0.358c0.476,0,0.891,0.118,1.248,0.358
			c0.357,0.237,0.534,0.618,0.534,1.14v49.072c0,0.524-0.176,0.917-0.534,1.179c-0.357,0.263-0.772,0.393-1.248,0.393
			c-0.426,0-0.835-0.13-1.214-0.393c-0.379-0.262-0.568-0.654-0.568-1.179V242.71z"/>
		<path fill="#252324" d="M202.977,234.008c2.284,0,4.21,0.381,5.781,1.142c1.569,0.76,2.836,1.782,3.813,3.066
			c0.975,1.285,1.675,2.746,2.105,4.386c0.431,1.642,0.642,3.344,0.642,5.102v18.828c0,0.43-0.155,0.796-0.465,1.108
			c-0.308,0.308-0.723,0.463-1.246,0.463c-0.476,0-0.88-0.155-1.211-0.463c-0.336-0.313-0.5-0.679-0.5-1.108v-3.422
			c-1.239,1.377-2.735,2.625-4.494,3.744c-1.76,1.119-3.831,1.679-6.207,1.679c-1.379,0-2.665-0.193-3.853-0.572
			s-2.234-0.964-3.138-1.747c-0.904-0.786-1.605-1.761-2.105-2.928c-0.499-1.162-0.749-2.552-0.749-4.171
			c0-1.902,0.404-3.469,1.213-4.708c0.807-1.235,1.937-2.211,3.388-2.923c1.451-0.715,3.198-1.212,5.243-1.498
			c2.044-0.285,4.304-0.429,6.775-0.429h3.853v-1.853c0-1.238-0.168-2.486-0.5-3.747c-0.332-1.258-0.856-2.388-1.569-3.385
			c-0.712-1-1.638-1.809-2.783-2.428c-1.141-0.616-2.518-0.925-4.137-0.925c-1.141,0-2.126,0.106-2.959,0.319
			c-0.833,0.213-1.547,0.441-2.142,0.678c-0.594,0.239-1.08,0.465-1.463,0.678c-0.378,0.213-0.688,0.322-0.925,0.322
			c-0.523,0-0.917-0.225-1.177-0.677c-0.26-0.453-0.392-0.867-0.392-1.25c0-0.381,0.273-0.772,0.82-1.177
			c0.547-0.403,1.261-0.761,2.139-1.068c0.88-0.311,1.866-0.56,2.961-0.751C200.791,234.104,201.884,234.008,202.977,234.008z
			 M211.823,252.411h-3.495c-1.761,0-3.446,0.058-5.062,0.179c-1.619,0.118-3.056,0.404-4.317,0.856
			c-1.261,0.451-2.26,1.116-2.996,1.995c-0.736,0.88-1.106,2.057-1.106,3.531c0,2.236,0.654,3.863,1.963,4.886
			c1.307,1.021,2.936,1.532,4.885,1.532c1.235,0,2.462-0.25,3.674-0.749c1.212-0.495,2.296-1.141,3.243-1.924
			c0.952-0.786,1.724-1.614,2.32-2.497c0.594-0.878,0.891-1.722,0.891-2.533V252.411z"/>
		<path fill="#252324" d="M226.158,234.436c0.478,0,0.88,0.13,1.214,0.392c0.333,0.263,0.501,0.606,0.501,1.035v3.565
			c0.807-1.378,1.998-2.626,3.564-3.746c1.569-1.116,3.568-1.674,5.994-1.674c1.758,0,3.409,0.344,4.956,1.035
			c1.545,0.688,2.899,1.616,4.068,2.782c1.162,1.165,2.087,2.542,2.78,4.136c0.689,1.593,1.033,3.292,1.033,5.1v8.275
			c0,1.711-0.344,3.361-1.033,4.954c-0.693,1.597-1.618,2.995-2.78,4.209c-1.169,1.214-2.51,2.187-4.033,2.925
			c-1.524,0.738-3.138,1.108-4.849,1.108c-2.189,0-4.139-0.538-5.85-1.605c-1.711-1.071-2.972-2.344-3.781-3.817v20.187
			c0,0.379-0.168,0.736-0.5,1.067c-0.333,0.334-0.76,0.5-1.285,0.5c-0.523,0-0.937-0.166-1.249-0.5
			c-0.308-0.331-0.462-0.688-0.462-1.067v-47.433c0-0.429,0.155-0.772,0.462-1.035C225.222,234.566,225.635,234.436,226.158,234.436
			z M246.773,247.061c0-1.236-0.25-2.437-0.749-3.602c-0.499-1.166-1.19-2.212-2.068-3.14c-0.88-0.925-1.902-1.663-3.066-2.21
			c-1.167-0.545-2.415-0.82-3.745-0.82c-1.143,0-2.26,0.225-3.353,0.677c-1.093,0.453-2.079,1.096-2.961,1.927
			c-0.88,0.832-1.58,1.853-2.103,3.067c-0.523,1.213-0.785,2.58-0.785,4.101v10.698c0,0.572,0.236,1.287,0.714,2.14
			c0.474,0.858,1.127,1.679,1.963,2.462c0.831,0.785,1.816,1.463,2.959,2.033c1.141,0.57,2.376,0.854,3.708,0.854
			c1.283,0,2.497-0.271,3.637-0.819c1.141-0.545,2.139-1.283,2.996-2.211c0.856-0.928,1.545-1.984,2.07-3.172
			c0.521-1.19,0.783-2.428,0.783-3.71V247.061z"/>
		<path fill="#252324" d="M260.037,234.436c0.478,0,0.88,0.13,1.214,0.392c0.334,0.263,0.501,0.606,0.501,1.035v3.565
			c0.808-1.378,1.995-2.626,3.566-3.746c1.567-1.116,3.566-1.674,5.992-1.674c1.756,0,3.408,0.344,4.956,1.035
			c1.545,0.688,2.896,1.616,4.065,2.782c1.164,1.165,2.09,2.542,2.782,4.136c0.689,1.593,1.033,3.292,1.033,5.1v8.275
			c0,1.711-0.344,3.361-1.033,4.954c-0.692,1.597-1.618,2.995-2.782,4.209c-1.169,1.214-2.51,2.187-4.029,2.925
			c-1.523,0.738-3.14,1.108-4.851,1.108c-2.188,0-4.139-0.538-5.852-1.605c-1.711-1.071-2.97-2.344-3.777-3.817v20.187
			c0,0.379-0.168,0.736-0.501,1.067c-0.334,0.334-0.76,0.5-1.285,0.5c-0.522,0-0.937-0.166-1.248-0.5
			c-0.308-0.331-0.463-0.688-0.463-1.067v-47.433c0-0.429,0.155-0.772,0.463-1.035C259.101,234.566,259.515,234.436,260.037,234.436
			z M280.652,247.061c0-1.236-0.249-2.437-0.749-3.602c-0.499-1.166-1.188-2.212-2.067-3.14c-0.881-0.925-1.903-1.663-3.067-2.21
			c-1.166-0.545-2.415-0.82-3.745-0.82c-1.143,0-2.26,0.225-3.353,0.677c-1.096,0.453-2.081,1.096-2.959,1.927
			c-0.883,0.832-1.582,1.853-2.105,3.067c-0.522,1.213-0.783,2.58-0.783,4.101v10.698c0,0.572,0.234,1.287,0.713,2.14
			c0.476,0.858,1.127,1.679,1.96,2.462c0.833,0.785,1.819,1.463,2.96,2.033c1.143,0.57,2.378,0.854,3.71,0.854
			c1.282,0,2.496-0.271,3.64-0.819c1.138-0.545,2.139-1.283,2.993-2.211c0.856-0.928,1.545-1.984,2.068-3.172
			c0.522-1.19,0.785-2.428,0.785-3.71V247.061z"/>
		<path fill="#252324" d="M288.57,236.218c-0.097-0.284-0.142-0.473-0.142-0.571c0-0.474,0.213-0.879,0.641-1.21
			c0.429-0.332,0.904-0.5,1.427-0.5c0.284,0,0.56,0.083,0.822,0.25c0.261,0.167,0.438,0.393,0.534,0.678l10.057,27.463l9.771-27.463
			c0.287-0.617,0.738-0.928,1.356-0.928c0.431,0,0.867,0.154,1.319,0.465c0.452,0.308,0.678,0.724,0.678,1.246
			c0,0.239-0.023,0.43-0.071,0.571l-11.269,30.743c-0.667,1.855-1.416,3.827-2.244,5.921c-0.835,2.09-1.787,4.031-2.856,5.813
			c-1.069,1.781-2.307,3.258-3.708,4.42c-1.403,1.164-2.985,1.748-4.745,1.748c-0.427,0-0.81-0.13-1.139-0.392
			c-0.336-0.263-0.502-0.676-0.502-1.249c0-0.428,0.095-0.807,0.286-1.141c0.188-0.331,0.523-0.499,0.999-0.499
			c1.188,0,2.294-0.426,3.316-1.282s1.961-1.984,2.817-3.388s1.64-2.975,2.354-4.709c0.714-1.737,1.33-3.484,1.854-5.243
			L288.57,236.218z"/>
		<path fill="#252324" d="M337,215.961c2.283,0,4.399,0.284,6.349,0.855c1.952,0.571,3.64,1.488,5.064,2.746
			c1.427,1.26,2.557,2.902,3.388,4.922c0.833,2.023,1.248,4.483,1.248,7.383v20.328c0,2.903-0.415,5.361-1.248,7.384
			c-0.831,2.02-1.961,3.663-3.388,4.92c-1.425,1.262-3.112,2.179-5.064,2.746c-1.949,0.573-4.065,0.857-6.349,0.857h-12.622
			c-1.003,0-1.808-0.237-2.426-0.713c-0.619-0.476-0.928-1.044-0.928-1.711v-47.292c0-0.666,0.309-1.237,0.928-1.713
			c0.618-0.475,1.423-0.713,2.426-0.713H337z M328.585,222.667v38.731H337c2.712,0,4.804-0.751,6.278-2.249
			c1.474-1.498,2.21-3.813,2.21-6.954v-20.328c0-3.14-0.736-5.458-2.21-6.955c-1.475-1.498-3.566-2.246-6.278-2.246H328.585z"/>
		<path fill="#252324" d="M374.663,233.865c1.902,0,3.71,0.32,5.421,0.963c1.713,0.642,3.22,1.546,4.53,2.709
			c1.307,1.167,2.342,2.557,3.102,4.173c0.762,1.617,1.141,3.4,1.141,5.35c0,1.474-0.189,2.628-0.57,3.46
			c-0.379,0.831-0.867,1.437-1.462,1.819c-0.594,0.379-1.282,0.617-2.067,0.715c-0.784,0.092-1.582,0.142-2.392,0.142h-15.05v1.638
			c0,2.426,0.858,4.33,2.569,5.705c1.711,1.382,3.945,2.07,6.704,2.07c1.285,0,2.365-0.144,3.248-0.426
			c0.878-0.288,1.638-0.596,2.278-0.93c0.644-0.331,1.214-0.642,1.711-0.926c0.502-0.286,0.988-0.43,1.466-0.43
			c0.899,0,1.616,0.392,2.14,1.179c0.521,0.784,0.783,1.509,0.783,2.174c0,0.525-0.273,1.106-0.817,1.75
			c-0.549,0.639-1.348,1.237-2.392,1.782c-1.048,0.544-2.294,0.996-3.744,1.354c-1.451,0.357-3.08,0.536-4.886,0.536
			c-2.428,0-4.648-0.347-6.672-1.033c-2.021-0.691-3.769-1.651-5.242-2.891c-1.473-1.235-2.613-2.721-3.422-4.459
			c-0.81-1.732-1.214-3.672-1.214-5.812v-6.775c0-1.856,0.394-3.626,1.179-5.316c0.784-1.687,1.841-3.161,3.173-4.422
			c1.332-1.26,2.901-2.257,4.709-2.997C370.692,234.235,372.618,233.865,374.663,233.865z M379.158,248.559
			c1.044,0,1.746-0.144,2.104-0.43c0.356-0.284,0.535-0.855,0.535-1.71c0-1.901-0.692-3.519-2.068-4.851
			c-1.381-1.331-3.092-1.998-5.137-1.998c-0.999,0-1.939,0.168-2.817,0.5c-0.882,0.333-1.652,0.796-2.317,1.392
			c-0.667,0.594-1.19,1.295-1.571,2.104c-0.379,0.808-0.57,1.711-0.57,2.712v2.281H379.158z"/>
		<path fill="#252324" d="M391.996,238.428c-0.097-0.141-0.179-0.332-0.25-0.569c-0.07-0.239-0.105-0.452-0.105-0.641
			c0-0.428,0.164-0.844,0.5-1.249c0.331-0.402,0.735-0.749,1.209-1.035c0.479-0.284,1.001-0.51,1.571-0.678
			c0.57-0.167,1.117-0.249,1.64-0.249c0.523,0,0.986,0.097,1.393,0.284c0.402,0.191,0.699,0.546,0.892,1.07l8.487,22.543
			l8.488-22.399c0.332-0.999,1.094-1.498,2.283-1.498c0.379,0,0.854,0.082,1.425,0.249c0.57,0.168,1.117,0.394,1.643,0.678
			c0.521,0.287,0.962,0.633,1.317,1.035c0.356,0.405,0.535,0.82,0.535,1.249c0,0.333-0.095,0.737-0.284,1.21l-11.982,28.888
			c-0.239,0.525-0.679,0.904-1.319,1.143c-0.642,0.237-1.346,0.357-2.105,0.357c-0.809,0-1.521-0.12-2.139-0.357
			c-0.622-0.238-1.048-0.617-1.285-1.143L391.996,238.428z"/>
		<path fill="#385DA6" d="M429.23,215.248c0.665,0,1.248,0.25,1.745,0.749c0.5,0.5,0.751,1.106,0.751,1.819
			c0,0.284-0.072,0.702-0.215,1.247c-0.142,0.547-0.32,1.142-0.536,1.783c-0.213,0.643-0.462,1.309-0.749,1.999
			c-0.283,0.689-0.567,1.32-0.854,1.889c-0.239,0.478-0.573,0.715-0.999,0.715c-0.288,0-0.547-0.095-0.783-0.288
			c-0.239-0.189-0.357-0.45-0.357-0.783c0-0.19,0.023-0.333,0.071-0.427l1.282-3.639c-0.57-0.142-1.033-0.451-1.39-0.928
			c-0.36-0.472-0.536-0.997-0.536-1.568c0-0.713,0.238-1.319,0.712-1.819C427.851,215.497,428.469,215.248,429.23,215.248z"/>
		<path fill="#385DA6" d="M441.069,217.175c0.189-0.333,0.392-0.619,0.607-0.855c0.213-0.24,0.557-0.358,1.032-0.358
			c0.763,0,1.144,0.406,1.144,1.214v49.643c0,0.428-0.134,0.747-0.395,0.962c-0.26,0.215-0.56,0.323-0.891,0.323
			c-0.334,0-0.631-0.108-0.891-0.323c-0.263-0.215-0.392-0.534-0.392-0.962v-44.294l-3.067,5.708
			c-0.336,0.618-0.764,0.926-1.284,0.926c-0.382,0-0.689-0.118-0.931-0.356c-0.236-0.239-0.354-0.523-0.354-0.857
			c0-0.238,0.095-0.535,0.284-0.892c0.191-0.355,0.333-0.605,0.431-0.748L441.069,217.175z"/>
		<path fill="#385DA6" d="M453.197,227.16c0-1.569,0.308-3.031,0.925-4.386c0.62-1.354,1.475-2.533,2.57-3.531
			c1.093-1,2.399-1.793,3.921-2.391c1.521-0.592,3.211-0.891,5.066-0.891c2.042,0,3.899,0.369,5.563,1.106
			c1.664,0.737,3.08,1.711,4.244,2.924c1.162,1.214,2.058,2.629,2.676,4.244c0.617,1.616,0.928,3.306,0.928,5.064
			c0,2.568-0.607,4.85-1.819,6.848c-1.211,1.996-2.737,3.84-4.566,5.529s-3.803,3.256-5.921,4.708
			c-2.113,1.449-4.089,2.887-5.918,4.313c-1.832,1.428-3.354,2.88-4.564,4.35c-1.214,1.477-1.819,3.095-1.819,4.852v5.636h24.106
			c0.336,0,0.62,0.119,0.858,0.355c0.237,0.241,0.355,0.547,0.355,0.928c0,0.333-0.118,0.631-0.355,0.893
			c-0.238,0.263-0.522,0.393-0.858,0.393h-25.391c-0.287,0-0.57-0.121-0.854-0.357c-0.286-0.237-0.431-0.547-0.431-0.928v-6.919
			c0-1.993,0.606-3.827,1.818-5.492c1.214-1.662,2.733-3.244,4.564-4.742c1.832-1.499,3.806-2.971,5.923-4.424
			c2.113-1.45,4.089-2.971,5.919-4.563c1.829-1.593,3.353-3.306,4.566-5.137c1.212-1.829,1.816-3.886,1.816-6.169
			c0-1.283-0.224-2.579-0.678-3.887c-0.452-1.309-1.13-2.472-2.031-3.495c-0.904-1.023-2.047-1.855-3.425-2.498
			c-1.379-0.641-2.993-0.962-4.849-0.962c-2.809,0-5.137,0.796-6.992,2.389c-1.853,1.595-2.782,3.934-2.782,7.025
			c0,0.287-0.105,0.559-0.319,0.819c-0.213,0.264-0.56,0.394-1.032,0.394C453.6,229.157,453.197,228.491,453.197,227.16z"/>
	</g>
	<g>
		<g>
			<path fill="#992333" d="M99.739,214.302c2.497,0.693,6.125,2.352,10.003,4.608c3.878,2.256,7.115,4.59,8.949,6.418
				c0.209-0.093,4.336-1.957,7.816-7.939c0.009-0.012,0.02-0.031,0.02-0.031c2.12-3.646-1.758-9.198-8.313-13.011
				c-6.543-3.808-13.279-4.437-15.407-0.806l-0.028,0.043C99.304,209.557,99.717,214.076,99.739,214.302z"/>
			<path fill="#992333" d="M78.652,248.356l3.786,13.595c0.372,1.464,1.875,2.351,3.338,1.97l13.782-3.345
				c1.459-0.379,3.099-1.845,3.644-3.252l4.203-11.434c0,0,0,0,0-0.003l6.928-17.931l0.815-2.134
				c-1.087-0.847-2.361-1.756-3.766-2.674c-0.207-0.129-0.409-0.258-0.613-0.39c-0.213-0.135-0.424-0.269-0.642-0.396
				c-0.314-0.194-0.622-0.382-0.93-0.563c-0.263-0.166-0.532-0.318-0.807-0.482c-0.611-0.355-1.227-0.702-1.821-1.026
				c-2.062-1.12-4.016-2.055-5.701-2.722l-1.412,1.733L87.42,234.266c0,0-0.002,0.001-0.004,0.001l-7.722,9.291
				C78.749,244.735,78.279,246.897,78.652,248.356z"/>
		</g>
		<g>
			<path fill="#437240" d="M66.686,228.241l11.643-7.29c-0.179-1.871-0.28-3.982-0.28-6.226c0-2.243,0.099-4.353,0.28-6.223
				l-11.794-7.375c-0.172-0.078-0.361-0.123-0.56-0.123c-0.008,0-0.017,0.009-0.021,0.009v-0.008c-1.64,0-2.746,6.144-2.746,13.72
				c0,7.578,1.106,13.72,2.746,13.72v-0.006c0.004,0,0.013,0.006,0.021,0.006C66.236,228.445,66.479,228.368,66.686,228.241z"/>
			<path fill="#437240" d="M60.92,222.959H28.068c-0.758,0-1.371-0.614-1.371-1.373c0-0.755,0.613-1.371,1.371-1.371h32.588
				c-0.125-1.694-0.189-3.545-0.189-5.49c0-1.941,0.064-3.79,0.187-5.48H28.068c-0.758,0-1.371-0.612-1.371-1.371
				c0-0.757,0.613-1.373,1.371-1.373H60.92c0.318-2.549,0.79-4.498,1.377-5.497c-5.749,0-36.77,0.001-36.77,0.001
				c-4.216,0-7.063,6.144-7.063,13.72c0,7.578,2.847,13.72,7.063,13.72c0,0,31.021,0,36.77,0
				C61.712,227.448,61.241,225.503,60.92,222.959z"/>
			<path fill="#437240" d="M86.464,215.857c0.361-0.246,0.6-0.662,0.6-1.133c0-0.48-0.248-0.898-0.62-1.145l-5.391-3.373
				c-0.123,1.006-0.205,2.103-0.241,3.261c-0.004,0.418-0.017,0.825-0.017,1.252c0,0.002,0,0.004,0,0.004
				c0,0.431,0.013,0.842,0.017,1.263c0.037,1.157,0.119,2.251,0.241,3.257L86.464,215.857z"/>
		</g>
		<path fill="#385DA6" d="M60.083,255.013l-5.286-9.161l-0.529-9.796l-4.046-3.625l-14.26,8.232l1.113,5.318l8.219,5.359
			l5.286,9.159c-3.999,2.764-6.471,5.256-5.862,6.311c0,0,1.072,1.859,1.358,2.353c1.969-1.137,4.485-0.463,5.619,1.506
			c1.137,1.968,0.463,4.485-1.504,5.622c0.146,0.256,11.76,20.376,11.76,20.376c2.107,3.65,8.852,3.044,15.411-0.744
			c6.564-3.788,10.459-9.323,8.353-12.976c0,0-11.581-20.066-11.759-20.374c-1.969,1.136-4.487,0.463-5.624-1.507
			c-1.136-1.972-0.46-4.485,1.506-5.621c-0.219-0.388-1.355-2.354-1.355-2.354C67.872,252.036,64.478,252.932,60.083,255.013z
			 M79.646,283.43c0.379,0.656,0.155,1.493-0.499,1.877c-0.659,0.379-1.498,0.15-1.877-0.504l-8.413-14.574
			c-0.376-0.656-0.153-1.498,0.503-1.877c0.657-0.374,1.494-0.152,1.875,0.504L79.646,283.43z"/>
	</g>
</g>
</svg>
