<?xml version="1.0" encoding="utf-8"?>
<!-- Generator: Adobe Illustrator 14.0.0, SVG Export Plug-In . SVG Version: 6.00 Build 43363)  -->
<!DOCTYPE svg PUBLIC "-//W3C//DTD SVG 1.1//EN" "http://www.w3.org/Graphics/SVG/1.1/DTD/svg11.dtd">
<svg version="1.1" id="restaurant" xmlns="http://www.w3.org/2000/svg" xmlns:xlink="http://www.w3.org/1999/xlink" x="0px" y="0px"
	 width="100px" height="95.145px" viewBox="0 0 100 95.145" enable-background="new 0 0 100 95.145" xml:space="preserve">
<path fill="#333333" d="M26.828,73.432c-1.604,2.439-4.271,3.521-5.953,2.412l-2.284-1.503c-1.683-1.107-1.741-3.982-0.137-6.422
	L31.42,48.227c1.606-2.438,3.061-1.409,4.741-0.302l2.284,1.504c1.681,1.106,2.954,1.873,1.348,4.312L26.828,73.432z"/>
<g>
	<path fill="#333333" d="M48.788,77.611c-3.681,0.104-6.404-0.152-8.454-1.542c-1.463-0.989-1.983-2.612-2.15-4.304
		c-0.446-4.526,5.679-7.438,14.155-11.471C64.369,54.573,79.34,47.453,79.34,33.74c0-5.731-2.981-10.627-7.601-12.469
		c-5.272-2.103-10.791,0.119-16.458,6.097C44.558,38.675,38.823,51.936,38.764,52.055l-5.027-3.762
		c0.25-0.501,6.923-11.837,17.954-23.471c6.52-6.871,14.691-8.779,21.112-6.22c5.717,2.279,9.408,8.221,9.408,15.137
		c0,15.526-16.554,23.399-28.641,29.147c-6.282,2.988-12.78,6.076-12.531,8.595c0.084,0.848,0.479,1.48,1.244,1.998
		c5.219,3.538,22.917-0.468,29.295-2.312l0.262,0.903C70.304,72.822,61.309,77.249,48.788,77.611z"/>
</g>
</svg>
